<svg xmlns="http://www.w3.org/2000/svg" xmlns:xlink="http://www.w3.org/1999/xlink" fill="none" version="1.1" width="24" height="24" viewBox="0 0 24 24"><g><g><path d="M4.000039038146973,4.665010038146972L20.000000038146972,4.665010038146972C20.367300038146972,4.665010038146972,20.66500003814697,4.367280038146973,20.66500003814697,4.000009038146972C20.66500003814697,3.6327390381469726,20.367300038146972,3.3350085616069727,20.000000038146972,3.3350085616069727L4.000039038146973,3.3350085616069727C3.6327700381469725,3.3350085616069727,3.3350390791469726,3.6327390381469726,3.3350390791469726,4.000009038146972C3.3350390791469726,4.367280038146973,3.6327700381469725,4.665010038146972,4.000039038146973,4.665010038146972ZM4.000039038146973,11.665010038146972L20.000000038146972,11.665010038146972C20.367300038146972,11.665010038146972,20.66500003814697,11.367280038146973,20.66500003814697,11.000010038146971C20.66500003814697,10.632740038146974,20.367300038146972,10.335010038146972,20.000000038146972,10.335010038146972L4.000039038146973,10.335010038146972C3.6327700381469725,10.335010038146972,3.3350390791469726,10.632740038146974,3.3350390791469726,11.000010038146971C3.3350390791469726,11.367280038146973,3.6327700381469725,11.665010038146972,4.000039038146973,11.665010038146972ZM4.000039038146973,18.66500003814697L11.200040038146973,18.66500003814697C11.567310038146973,18.66500003814697,11.865040038146972,18.367300038146972,11.865040038146972,18.000000038146972C11.865040038146972,17.63270003814697,11.567310038146973,17.335000038146973,11.200040038146973,17.335000038146973L4.000039038146973,17.335000038146973C3.6327700381469725,17.335000038146973,3.3350390791469726,17.63270003814697,3.3350390791469726,18.000000038146972C3.3350390791469726,18.367300038146972,3.6327700381469725,18.66500003814697,4.000039038146973,18.66500003814697ZM18.264600038146973,18.66500003814697L18.264600038146973,20.400000038146974C18.264600038146973,20.767200038146974,17.966900038146974,21.065000038146973,17.599600038146974,21.065000038146973C17.23240003814697,21.065000038146973,16.934600038146975,20.767200038146974,16.934600038146975,20.400000038146974L16.934600038146975,18.66500003814697L15.199700038146972,18.66500003814697C14.832500038146973,18.66500003814697,14.534700038146973,18.367200038146972,14.534700038146973,18.000000038146972C14.534700038146973,17.63270003814697,14.832500038146973,17.335000038146973,15.199700038146972,17.335000038146973L16.934600038146975,17.335000038146973L16.934600038146975,15.600000038146973C16.934600038146975,15.232700038146973,17.23240003814697,14.935000038146972,17.599600038146974,14.935000038146972C17.966900038146974,14.935000038146972,18.264600038146973,15.232700038146973,18.264600038146973,15.600000038146973L18.264600038146973,17.335000038146973L19.999700038146973,17.335000038146973C20.367000038146973,17.335000038146973,20.66470003814697,17.63270003814697,20.66470003814697,18.000000038146972C20.66470003814697,18.367200038146972,20.367000038146973,18.66500003814697,19.999700038146973,18.66500003814697L18.264600038146973,18.66500003814697Z" fill-rule="evenodd" fill="#283248" fill-opacity="1"/></g></g></svg>