<svg xmlns="http://www.w3.org/2000/svg" xmlns:xlink="http://www.w3.org/1999/xlink" fill="none" version="1.1" width="24" height="24" viewBox="0 0 24 24"><g><g><path d="M18.40059765625,12.510150859375L18.19319765625,12.634570859375C17.92209765625,12.797220859375,17.75629765625,13.090170859375,17.75629765625,13.406330859375C17.75629765625,13.903330859375,18.15919765625,14.306330859375,18.65629765625,14.306330859375C18.81939765625,14.306330859375,18.97939765625,14.261930859375,19.119297656249998,14.178030859375L19.326697656249998,14.053630859375Q20.488097656249998,13.356730859375,20.501997656249998,12.015460859375Q20.51599765625,10.660080859375,19.34699765625,9.958690859375L13.96304765625,6.728320859375L8.76474765625,3.609339859375Q7.57626765625,2.896247859375,6.35663765625,3.538398859375Q5.79349365625,3.834900859375,5.45910265625,4.361930859375Q5.10000002385,4.927920859375,5.10000002385,5.612800859375L5.10000002385,18.387330859375Q5.10000008345,19.790830859375,6.31935765625,20.465430859375Q7.52692765625,21.133530859375,8.72298765625,20.415830859375L8.806807656250001,20.365530859375C9.07788765625,20.202930859375,9.243747656250001,19.909930859375,9.243747656250001,19.593830859375C9.243747656250001,19.096730859375,8.84080765625,18.693830859374998,8.34374765625,18.693830859374998C8.18062765625,18.693830859374998,8.02056765625,18.738130859374998,7.88068765625,18.822030859374998L7.79689765625,18.872330859374998Q7.49047765625,19.056230859375,7.1907376562500005,18.890330859375Q6.89999765625,18.729530859375,6.89999765625,18.387330859375L6.89999765625,5.612800859375Q6.89999765625,5.286560859375,7.19522765625,5.131120859375Q7.518657656249999,4.960830859375,7.83865765625,5.152830859375L13.03695765625,8.271800859375L18.42089765625,11.502170859375Q18.70539765625,11.672890859375,18.70209765625,11.996870859375Q18.69859765625,12.331310859375,18.40059765625,12.510150859375ZM12.999897656249999,19.900130859375L12.999897656249999,17.800130859375003L10.899897656250001,17.800130859375003C10.40284765625,17.800130859375003,9.999897656249999,17.397130859375,9.999897656249999,16.900130859375C9.999897656249999,16.403030859375,10.40284765625,16.000130859375,10.899897656250001,16.000130859375L12.999897656249999,16.000130859375L12.999897656249999,13.900130859375C12.999897656249999,13.403030859375,13.40284765625,13.000080859375,13.89989765625,13.000080859375C14.39695765625,13.000080859375,14.79989765625,13.403030859375,14.79989765625,13.900130859375L14.79989765625,16.000130859375L16.899897656249998,16.000130859375C17.39699765625,16.000130859375,17.79989765625,16.403030859375,17.79989765625,16.900130859375C17.79989765625,17.397130859375,17.39699765625,17.800130859375003,16.899897656249998,17.800130859375003L14.79989765625,17.800130859375003L14.79989765625,19.900130859375C14.79989765625,20.397130859375,14.39695765625,20.800130859375,13.89989765625,20.800130859375C13.40284765625,20.800130859375,12.999897656249999,20.397130859375,12.999897656249999,19.900130859375Z" fill-rule="evenodd" fill="#283248" fill-opacity="1"/></g></g></svg>