<svg xmlns="http://www.w3.org/2000/svg" xmlns:xlink="http://www.w3.org/1999/xlink" fill="none" version="1.1" width="24" height="24" viewBox="0 0 24 24"><g><g><path d="M20.233200038146972,16.456900038146973L20.233200038146972,16.456900038146973C20.350100038146973,16.333200038146973,20.41500003814697,16.169800038146974,20.41500003814697,16.000000038146972C20.41500003814697,16.000000038146972,20.41480003814697,15.981000038146973,20.41480003814697,15.981000038146973C20.409700038146973,15.804700038146972,20.334900038146973,15.637600038146973,20.206600038146973,15.516500038146972C20.083200038146973,15.400000038146972,19.919800038146974,15.335000038146973,19.750000038146972,15.335000038146973L19.749000038146974,15.335000038146973C19.749000038146974,15.335000038146973,19.731000038146973,15.335300038146972,19.731000038146973,15.335300038146972C19.554800038146972,15.340300038146973,19.387700038146974,15.415200038146972,19.266600038146972,15.543400038146972L19.266600038146972,15.543400038146972L16.222300038146972,18.766800038146975L14.942000038146972,17.628100038146975C14.820200038146973,17.519800038146972,14.663000038146972,17.460000038146973,14.500000038146972,17.460000038146973C14.487100038146973,17.460000038146973,14.474100038146972,17.46040003814697,14.461200038146973,17.461100038146974C14.285100038146973,17.47150003814697,14.120300038146972,17.551300038146973,14.003100038146973,17.683100038146975C13.894900038146973,17.804800038146972,13.835000038146973,17.96210003814697,13.835000038146973,18.125000038146972C13.835000038146973,18.138000038146973,13.835400038146974,18.150900038146972,13.836200038146973,18.163900038146974C13.846500038146972,18.339900038146972,13.926300038146973,18.50470003814697,14.058100038146973,18.621900038146972L15.820600038146972,20.189500038146974C16.089300038146973,20.42840003814697,16.499200038146974,20.410600038146974,16.746000038146974,20.149200038146972L20.233200038146972,16.456900038146973ZM4.000039038146973,4.665010038146972L20.000000038146972,4.665010038146972C20.367300038146972,4.665010038146972,20.66500003814697,4.367280038146973,20.66500003814697,4.000009038146972C20.66500003814697,3.6327390381469726,20.367300038146972,3.3350085616069727,20.000000038146972,3.3350085616069727L4.000039038146973,3.3350085616069727C3.6327700381469725,3.3350085616069727,3.3350390791469726,3.6327390381469726,3.3350390791469726,4.000009038146972C3.3350390791469726,4.367280038146973,3.6327700381469725,4.665010038146972,4.000039038146973,4.665010038146972ZM4.000039038146973,11.665010038146972L20.000000038146972,11.665010038146972C20.367300038146972,11.665010038146972,20.66500003814697,11.367280038146973,20.66500003814697,11.000010038146971C20.66500003814697,10.632740038146974,20.367300038146972,10.335010038146972,20.000000038146972,10.335010038146972L4.000039038146973,10.335010038146972C3.6327700381469725,10.335010038146972,3.3350390791469726,10.632740038146974,3.3350390791469726,11.000010038146971C3.3350390791469726,11.367280038146973,3.6327700381469725,11.665010038146972,4.000039038146973,11.665010038146972ZM4.000039038146973,18.66500003814697L11.200040038146973,18.66500003814697C11.567310038146973,18.66500003814697,11.865040038146972,18.367300038146972,11.865040038146972,18.000000038146972C11.865040038146972,17.63270003814697,11.567310038146973,17.335000038146973,11.200040038146973,17.335000038146973L4.000039038146973,17.335000038146973C3.6327700381469725,17.335000038146973,3.3350390791469726,17.63270003814697,3.3350390791469726,18.000000038146972C3.3350390791469726,18.367300038146972,3.6327700381469725,18.66500003814697,4.000039038146973,18.66500003814697Z" fill-rule="evenodd" fill="#283248" fill-opacity="1"/></g></g></svg>