<svg xmlns="http://www.w3.org/2000/svg" xmlns:xlink="http://www.w3.org/1999/xlink" fill="none" version="1.1" width="24" height="24" viewBox="0 0 24 24"><g><g><path d="M12.00003813079834,2.3350085616069727Q13.96589813079834,2.3350086212169727,15.76229813079834,3.0948050381469727Q17.49689813079834,3.828470038146973,18.834198130798338,5.165820038146973Q20.17159813079834,6.503170038146973,20.90519813079834,8.237750038146974Q21.664998130798338,10.034110038146974,21.664998130798338,12.000010038146973Q21.664998130798338,13.965900038146973,20.90519813079834,15.762300038146973Q20.17159813079834,17.496800038146972,18.834198130798338,18.83420003814697Q17.49689813079834,20.171500038146974,15.76229813079834,20.905200038146972Q13.96589813079834,21.66500003814697,12.00003813079834,21.66500003814697Q10.03413813079834,21.66500003814697,8.23777813079834,20.905200038146972Q6.5031981307983395,20.171500038146974,5.16584813079834,18.83420003814697Q3.82849813079834,17.496800038146972,3.0948331307983397,15.762300038146973Q2.3350364565983397,13.965900038146973,2.33503621819834,12.000010038146973Q2.33503723139834,10.034110038146974,3.09483413079834,8.237750038146974Q3.82849813079834,6.503170038146973,5.16584813079834,5.165820038146973Q6.50320813079834,3.828470038146973,8.23777813079834,3.0948050381469727Q10.03413813079834,2.3350078463569726,12.00003813079834,2.3350085616069727ZM12.00003813079834,3.6650100381469723Q8.54756813079834,3.6650100381469723,6.10629813079834,6.106270038146972Q3.6650381307983397,8.547540038146973,3.6650381307983397,12.000010038146973Q3.6650381307983397,15.115100038146972,5.65255813079834,17.407000038146972L17.40709813079834,5.652530038146972Q15.11519813079834,3.6650100381469723,12.00003813079834,3.6650100381469723ZM18.34749813079834,6.5929800381469725L6.5930081307983395,18.347500038146972Q8.884888130798341,20.335000038146973,12.00003813079834,20.335000038146973Q15.45249813079834,20.335000038146973,17.893798130798338,17.893700038146974Q20.33499813079834,15.452500038146972,20.33499813079834,12.000010038146973Q20.33499813079834,8.884860038146972,18.34749813079834,6.5929800381469725Z" fill-rule="evenodd" fill="#283248" fill-opacity="1" style="mix-blend-mode:passthrough"/></g></g></svg>