<svg xmlns="http://www.w3.org/2000/svg" xmlns:xlink="http://www.w3.org/1999/xlink" fill="none" version="1.1" width="24" height="24" viewBox="0 0 24 24"><g><g><path d="M4.000039038146973,5.664980038146973L20.000000038146972,5.664980038146973C20.367300038146972,5.664980038146973,20.66500003814697,5.367250038146972,20.66500003814697,4.999978038146972C20.66500003814697,4.632709038146973,20.367300038146972,4.334978044046973,20.000000038146972,4.334978044046973L4.000039038146973,4.334978044046973C3.6327700381469725,4.334978044046973,3.3350390791469726,4.632709038146973,3.3350390791469726,4.999978038146972C3.3350390791469726,5.367250038146972,3.6327700381469725,5.664980038146973,4.000039038146973,5.664980038146973ZM4.000039038146973,9.164980038146972L10.000040038146974,9.164980038146972C10.367310038146972,9.164980038146972,10.665040038146973,8.867250038146974,10.665040038146973,8.499980038146973C10.665040038146973,8.132710038146973,10.367310038146972,7.8349800381469725,10.000040038146974,7.8349800381469725L4.000039038146973,7.8349800381469725C3.6327700381469725,7.8349800381469725,3.3350390791469726,8.132710038146973,3.3350390791469726,8.499980038146973C3.3350390791469726,8.867250038146974,3.6327700381469725,9.164980038146972,4.000039038146973,9.164980038146972ZM14.000000038146972,9.164980038146972L20.000000038146972,9.164980038146972C20.367300038146972,9.164980038146972,20.66500003814697,8.867250038146974,20.66500003814697,8.499980038146973C20.66500003814697,8.132710038146973,20.367300038146972,7.8349800381469725,20.000000038146972,7.8349800381469725L14.000000038146972,7.8349800381469725C13.632800038146973,7.8349800381469725,13.335000038146973,8.132710038146973,13.335000038146973,8.499980038146973C13.335000038146973,8.867250038146974,13.632800038146973,9.164980038146972,14.000000038146972,9.164980038146972ZM4.000039038146973,16.16500003814697L10.000040038146974,16.16500003814697C10.367310038146972,16.16500003814697,10.665040038146973,15.867200038146972,10.665040038146973,15.500000038146972C10.665040038146973,15.132700038146973,10.367310038146972,14.835000038146973,10.000040038146974,14.835000038146973L4.000039038146973,14.835000038146973C3.6327700381469725,14.835000038146973,3.3350390791469726,15.132700038146973,3.3350390791469726,15.500000038146972C3.3350390791469726,15.867200038146972,3.6327700381469725,16.16500003814697,4.000039038146973,16.16500003814697ZM14.000000038146972,16.16500003814697L20.000000038146972,16.16500003814697C20.367300038146972,16.16500003814697,20.66500003814697,15.867200038146972,20.66500003814697,15.500000038146972C20.66500003814697,15.132700038146973,20.367300038146972,14.835000038146973,20.000000038146972,14.835000038146973L14.000000038146972,14.835000038146973C13.632800038146973,14.835000038146973,13.335000038146973,15.132700038146973,13.335000038146973,15.500000038146972C13.335000038146973,15.867200038146972,13.632800038146973,16.16500003814697,14.000000038146972,16.16500003814697ZM4.000039038146973,12.664980038146973L20.000000038146972,12.664980038146973C20.367300038146972,12.664980038146973,20.66500003814697,12.367250038146972,20.66500003814697,11.999980038146973C20.66500003814697,11.632710038146973,20.367300038146972,11.334980038146973,20.000000038146972,11.334980038146973L4.000039038146973,11.334980038146973C3.6327700381469725,11.334980038146973,3.3350390791469726,11.632710038146973,3.3350390791469726,11.999980038146973C3.3350390791469726,12.367250038146972,3.6327700381469725,12.664980038146973,4.000039038146973,12.664980038146973ZM4.000039038146973,19.66500003814697L20.000000038146972,19.66500003814697C20.367300038146972,19.66500003814697,20.66500003814697,19.367200038146972,20.66500003814697,19.000000038146972C20.66500003814697,18.63270003814697,20.367300038146972,18.335000038146973,20.000000038146972,18.335000038146973L4.000039038146973,18.335000038146973C3.6327700381469725,18.335000038146973,3.3350390791469726,18.63270003814697,3.3350390791469726,19.000000038146972C3.3350390791469726,19.367200038146972,3.6327700381469725,19.66500003814697,4.000039038146973,19.66500003814697Z" fill-rule="evenodd" fill="#283248" fill-opacity="1"/></g></g></svg>