<svg xmlns="http://www.w3.org/2000/svg" xmlns:xlink="http://www.w3.org/1999/xlink" fill="none" version="1.1" width="24" height="24" viewBox="0 0 24 24"><g><g><path d="M12.000040038146972,17.420600038146972Q11.711820038146973,17.885500038146972,11.298690038146972,18.298600038146972Q9.932350038146971,19.66500003814697,8.000040038146974,19.66500003814697Q6.067730038146973,19.66500003814697,4.701390038146973,18.298600038146972Q3.3350389003469725,16.932300038146973,3.3350390791469726,15.000000038146972Q3.3350390195469726,13.067670038146973,4.701390038146973,11.701320038146973Q6.049440038146972,10.353270038146974,7.948400038146973,10.335220038146971Q7.335040038146973,9.294630038146973,7.335040038146973,7.999980038146973Q7.335040038146973,6.067670038146973,8.701390038146972,4.701320038146973Q10.067730038146973,3.3349778652469726,12.000040038146972,3.3349780440469727Q13.932300038146973,3.3349779844469727,15.298700038146972,4.701320038146973Q16.66500003814697,6.067670038146973,16.66500003814697,7.999980038146973Q16.66500003814697,9.294630038146973,16.051700038146972,10.335220038146971Q17.950600038146973,10.353270038146974,19.298700038146972,11.701320038146973Q20.66500003814697,13.067670038146973,20.66500003814697,15.000000038146972Q20.66500003814697,16.932300038146973,19.298700038146972,18.298600038146972Q17.932300038146973,19.66500003814697,16.000000038146972,19.66500003814697Q14.067700038146972,19.66500003814697,12.701390038146974,18.298600038146972Q12.288250038146973,17.885500038146972,12.000040038146972,17.420600038146972ZM12.665040038146973,15.000000038146972Q12.665040038146973,13.618600038146973,13.641800038146974,12.641780038146972Q14.618600038146973,11.664980038146973,16.000000038146972,11.664980038146973Q17.38140003814697,11.664980038146973,18.358200038146972,12.641780038146972Q19.335000038146973,13.618600038146973,19.335000038146973,15.000000038146972Q19.335000038146973,16.38140003814697,18.358200038146972,17.358200038146972Q17.38140003814697,18.335000038146973,16.000000038146972,18.335000038146973Q14.618600038146973,18.335000038146973,13.641800038146974,17.358200038146972Q12.665040038146973,16.38140003814697,12.665040038146973,15.000000038146972ZM15.335000038146973,7.999980038146973Q15.335000038146973,6.618580038146973,14.358200038146972,5.6417800381469725Q13.381400038146973,4.664980038146973,12.000040038146972,4.664980038146973Q10.618640038146973,4.664980038146973,9.641840038146974,5.6417800381469725Q8.665040038146973,6.618580038146973,8.665040038146973,7.999980038146973Q8.665040038146973,9.381380038146972,9.641840038146974,10.358180038146973Q10.618640038146973,11.334980038146973,12.000040038146972,11.334980038146973Q13.381400038146973,11.334980038146973,14.358200038146972,10.358180038146973Q15.335000038146973,9.381380038146972,15.335000038146973,7.999980038146973ZM11.335040038146973,15.000000038146972Q11.335040038146973,13.618600038146973,10.358240038146974,12.641780038146972Q9.381440038146973,11.664980038146973,8.000040038146974,11.664980038146973Q6.618640038146973,11.664980038146973,5.641840038146972,12.641780038146972Q4.665040038146973,13.618600038146973,4.665040038146973,15.000000038146972Q4.665040038146973,16.38140003814697,5.641840038146972,17.358200038146972Q6.618640038146973,18.335000038146973,8.000040038146974,18.335000038146973Q9.381440038146973,18.335000038146973,10.358240038146974,17.358200038146972Q11.335040038146973,16.38140003814697,11.335040038146973,15.000000038146972Z" fill-rule="evenodd" fill="#283248" fill-opacity="1"/></g></g></svg>