<svg xmlns="http://www.w3.org/2000/svg" xmlns:xlink="http://www.w3.org/1999/xlink" fill="none" version="1.1" width="24" height="24" viewBox="0 0 24 24"><g><g><path d="M1.8959579570846556,12.741450076293946Q2.9908899570846557,14.371850076293946,4.7351099570846555,15.978300076293944Q8.374329957084655,19.330000076293945,12.000099957084656,19.330000076293945Q15.625799957084656,19.330000076293945,19.264999957084655,15.978300076293944Q21.009299957084657,14.371850076293946,22.104199957084656,12.741450076293946C22.405399957084654,12.292990076293945,22.405399957084654,11.706920076293946,22.104199957084656,11.258460076293947Q21.009299957084657,9.628070076293945,19.264999957084655,8.021650076293945Q15.625799957084656,4.669956207293946,12.000099957084656,4.6699560880939455Q8.374329957084655,4.669956207293946,4.7351099570846555,8.021650076293945Q2.9908899570846557,9.628060076293945,1.8959579570846556,11.258460076293947C1.5947848570846557,11.706920076293946,1.5947848570846557,12.292990076293945,1.8959579570846556,12.741450076293946ZM21.000099957084657,11.999960076293945Q16.970599957084655,18.000000076293944,12.000099957084656,18.000000076293944Q7.029519957084656,18.000000076293944,3.0000799570846555,11.999960076293945Q7.029519957084656,5.999960076293945,12.000099957084656,5.999960076293945Q16.970599957084655,5.999960076293945,21.000099957084657,11.999960076293945ZM14.591599957084656,14.591500076293945Q15.665099957084657,13.518050076293946,15.665099957084657,11.999960076293945Q15.665099957084657,10.481860076293945,14.591599957084656,9.408410076293945Q13.518199957084656,8.334960076293946,12.000099957084656,8.334960076293946Q10.481989957084656,8.334960076293946,9.408529957084657,9.408410076293945Q8.335079957084655,10.481860076293945,8.335079957084655,11.999960076293945Q8.335079957084655,13.518050076293946,9.408529957084657,14.591500076293945Q10.481989957084656,15.665000076293945,12.000099957084656,15.665000076293945Q13.518199957084656,15.665000076293945,14.591599957084656,14.591500076293945ZM13.651199957084655,10.348860076293946Q14.335099957084656,11.032770076293946,14.335099957084656,11.999960076293945Q14.335099957084656,12.967140076293946,13.651199957084655,13.651050076293945Q12.967299957084656,14.334960076293946,12.000099957084656,14.334960076293946Q11.032889957084656,14.334960076293946,10.348979957084655,13.651050076293945Q9.665079957084656,12.967140076293946,9.665079957084656,11.999960076293945Q9.665079957084656,11.032770076293946,10.348979957084655,10.348860076293946Q11.032889957084656,9.664960076293944,12.000099957084656,9.664960076293944Q12.967299957084656,9.664960076293944,13.651199957084655,10.348860076293946Z" fill-rule="evenodd" fill="#283248" fill-opacity="1"/></g></g></svg>