<svg width="24" height="24" viewBox="0 0 24 24" fill="none" xmlns="http://www.w3.org/2000/svg">
<path d="M20.9697 13.9697C21.2625 13.6769 21.7374 13.6771 22.0303 13.9697C22.3231 14.2626 22.3232 14.7374 22.0303 15.0303L19.5605 17.5L22.0303 19.9697L22.0811 20.0264C22.3216 20.3209 22.3049 20.7556 22.0303 21.0303C21.7556 21.3048 21.3209 21.3216 21.0264 21.0811L20.9697 21.0303L18.5 18.5605L16.0303 21.0303L15.9736 21.082C15.6791 21.3221 15.2443 21.3046 14.9697 21.0303C14.6956 20.7558 14.6782 20.3218 14.918 20.0273L14.9697 19.9697L17.4395 17.5L14.9697 15.0303C14.677 14.7374 14.677 14.2626 14.9697 13.9697C15.2626 13.6769 15.7374 13.6769 16.0303 13.9697L18.5 16.4395L20.9697 13.9697Z" fill="#283248"/>
<path d="M5.51855 7.71191C5.93254 7.71218 6.26855 8.04786 6.26855 8.46191V17.6553L6.81543 17.3438C7.17501 17.1385 7.63342 17.2635 7.83887 17.623C8.04372 17.9825 7.91883 18.4411 7.55957 18.6465L5.8916 19.5996C5.65971 19.732 5.37363 19.7305 5.14258 19.5967C4.9117 19.4625 4.76877 19.2152 4.76855 18.9482V9.21191H3.37402C2.96019 9.21178 2.62347 8.87568 2.62305 8.46191C2.62305 8.04778 2.95992 7.71205 3.37402 7.71191H5.51855Z" fill="#283248"/>
<path d="M14.5537 10.333C15.2327 10.3333 15.7831 10.8845 15.7832 11.5635V11.999C15.7831 12.4131 15.4473 12.7489 15.0332 12.749C14.6192 12.7489 14.2833 12.4131 14.2832 11.999V11.833H11.0166V15C11.0165 15.4141 10.6807 15.7499 10.2666 15.75C9.85256 15.7499 9.5167 15.414 9.5166 15V11.5635C9.5167 10.8843 10.0679 10.3331 10.7471 10.333H14.5537Z" fill="#283248"/>
<path d="M17.5869 3.18262C18.5753 3.18275 19.3768 3.98426 19.377 4.97266V11.916C19.3769 12.3301 19.041 12.6659 18.627 12.666C18.2131 12.6657 17.877 12.33 17.877 11.916V4.97266C17.8768 4.81269 17.7469 4.68275 17.5869 4.68262H10C9.58594 4.68249 9.25007 4.34669 9.25 3.93262C9.25013 3.5186 9.58598 3.18275 10 3.18262H17.5869Z" fill="#283248"/>
<path d="M15.1104 7C15.4882 7.03866 15.7831 7.35807 15.7832 7.74609C15.7831 8.13416 15.4882 8.45351 15.1104 8.49219L15.0332 8.49609H10.2666C9.85254 8.49596 9.51667 8.16017 9.5166 7.74609C9.51673 7.33207 9.85258 6.99623 10.2666 6.99609H15.0332L15.1104 7Z" fill="#283248"/>
<path d="M3.42383 3.51953C3.67248 3.22134 4.10388 3.16527 4.41895 3.37793L4.48047 3.42383L6.04004 4.72363C6.35799 4.98885 6.40084 5.46216 6.13574 5.78027C5.87055 6.09776 5.39806 6.14067 5.08008 5.87598L3.51953 4.57617L3.46387 4.52441C3.19774 4.25293 3.17547 3.81796 3.42383 3.51953Z" fill="#283248"/>
</svg>
