<svg xmlns="http://www.w3.org/2000/svg" xmlns:xlink="http://www.w3.org/1999/xlink" fill="none" version="1.1" width="24" height="24" viewBox="0 0 24 24"><g><g><path d="M20.921400038146974,18.906400038146973Q19.17570003814697,20.66500003814697,16.70590003814697,20.66500003814697L7.2941600381469724,20.66500003814697Q4.824370038146973,20.66500003814697,3.0786900381469726,18.906400038146973Q1.3350391387469727,17.14980003814697,1.3350390791469726,14.666700038146972Q1.3350391387469727,12.541000038146972,2.662320038146973,10.892440038146972Q3.8172400381469727,9.457940038146972,5.524390038146973,8.935740038146973Q5.845620038146973,6.687520038146973,7.541290038146973,5.099470038146973Q9.425330038146972,3.3350086212169727,12.000000038146972,3.3350085616069727Q14.574800038146973,3.3350086212169727,16.458800038146972,5.099470038146973Q18.154500038146974,6.687520038146973,18.47570003814697,8.935740038146973Q20.182800038146972,9.457940038146972,21.337800038146973,10.892440038146972Q22.66500003814697,12.541000038146972,22.66500003814697,14.666700038146972Q22.66500003814697,17.14980003814697,20.921400038146974,18.906400038146973ZM7.2941600381469724,19.335000038146973L16.70590003814697,19.335000038146973Q18.621900038146972,19.335000038146973,19.97750003814697,17.969400038146972Q21.335000038146973,16.601800038146973,21.335000038146973,14.666700038146972Q21.335000038146973,13.009860038146973,20.301800038146972,11.726500038146973Q19.284000038146974,10.462330038146973,17.718700038146974,10.110260038146972L17.239300038146972,10.002430038146972L17.20160003814697,9.512490038146971Q17.044400038146975,7.470080038146973,15.549600038146973,6.070220038146973Q14.049200038146973,4.665010038146972,12.000000038146972,4.665010038146972Q9.950880038146973,4.665010038146972,8.450430038146973,6.070220038146973Q7.249860038146973,7.194600038146973,6.9121900381469725,8.733520038146974Q9.138650038146974,8.698350038146973,10.969990038146973,10.529500038146972L10.969990038146973,10.529500038146972C11.094980038146973,10.654490038146973,11.165040038146973,10.823630038146973,11.165040038146973,11.000000038146972C11.165040038146973,11.367270038146973,10.867310038146973,11.665000038146973,10.500040038146972,11.665000038146973C10.323670038146973,11.665000038146973,10.154530038146973,11.594940038146973,10.029820038146973,11.470230038146973Q8.281370038146973,9.721930038146972,6.130450038146972,10.152090038146973C6.113230038146972,10.155530038146972,6.095880038146973,10.158290038146973,6.078440038146972,10.160360038146973Q4.649320038146973,10.545250038146973,3.6982800381469727,11.726500038146973Q2.6650400381469725,13.009860038146973,2.6650400381469725,14.666700038146972Q2.6650400381469725,16.601800038146973,4.022610038146972,17.969400038146972Q5.3781500381469725,19.335000038146973,7.2941600381469724,19.335000038146973Z" fill-rule="evenodd" fill="#283248" fill-opacity="1" style="mix-blend-mode:passthrough"/></g></g></svg>