<svg xmlns="http://www.w3.org/2000/svg" xmlns:xlink="http://www.w3.org/1999/xlink" fill="none" version="1.1" width="24" height="24" viewBox="0 0 24 24"><g><g><path d="M5.999799565353394,3.7826638984680176L17.999759565353393,3.7826638984680176C18.367059565353394,3.7826638984680176,18.664759565353393,3.4849338984680176,18.664759565353393,3.1176608984680176C18.664759565353393,2.7503908984680177,18.367059565353394,2.4526605606080176,17.999759565353393,2.4526605606080176L5.999799565353394,2.4526605606080176C5.632529565353394,2.4526605606080176,5.334799565353394,2.7503908984680177,5.334799565353394,3.1176608984680176C5.334799565353394,3.4849338984680176,5.632529565353394,3.7826638984680176,5.999799565353394,3.7826638984680176ZM3.3712475653533938,16.022163898468015L3.0305531653533935,11.073353898468017Q2.9067709653533935,9.275323898468017,2.9495349653533935,8.649703898468019Q3.0251271653533935,7.543803898468018,3.5940395653533934,6.934383898468018Q4.162949565353394,6.324953898468017,5.261039565353394,6.173583898468017Q5.882249565353394,6.087953898468017,7.684509565353394,6.087953898468017L16.314859565353395,6.087953898468017Q18.117159565353393,6.087953898468017,18.73835956535339,6.173583898468017Q19.836459565353394,6.324953898468017,20.405359565353393,6.934383898468018Q20.974259565353393,7.543813898468017,21.049859565353394,8.649703898468019Q21.092659565353394,9.275323898468017,20.968859565353394,11.073323898468018L20.628159565353393,16.022163898468015Q20.492159565353393,17.997163898468017,20.355559565353392,18.675463898468017Q20.121359565353394,19.838663898468017,19.470059565353395,20.446663898468017Q18.818759565353396,21.054663898468018,17.642259565353392,21.20846389846802Q16.956059565353392,21.29816389846802,14.976559565353394,21.29816389846802L9.022839565353394,21.29816389846802Q7.043299565353394,21.29816389846802,6.357109565353394,21.20846389846802Q5.180589565353394,21.054663898468018,4.529289565353394,20.446663898468017Q3.8779925653533933,19.838663898468017,3.6437955653533933,18.675463898468017Q3.5072065653533935,17.997063898468017,3.3712475653533938,16.022163898468015ZM4.698109565353393,15.930863898468017Q4.8281195653533935,17.819463898468015,4.9476295653533935,18.412963898468018Q5.097579565353394,19.15776389846802,5.436869565353394,19.474463898468017Q5.776159565353394,19.791163898468017,6.529459565353394,19.88966389846802Q7.129839565353394,19.968163898468017,9.022839565353394,19.968163898468017L14.976559565353394,19.968163898468017Q16.86955956535339,19.968163898468017,17.469959565353392,19.88966389846802Q18.223259565353395,19.791163898468017,18.562559565353393,19.474463898468017Q18.901859565353394,19.15776389846802,19.051759565353393,18.412963898468018Q19.171259565353395,17.81936389846802,19.301259565353394,15.930863898468017L19.641959565353392,10.982003898468017Q19.759459565353392,9.275003898468018,19.722959565353392,8.740393898468017Q19.679559565353394,8.105953898468018,19.433159565353392,7.841963898468018Q19.186659565353395,7.577963898468018,18.556759565353396,7.491133898468018Q18.025859565353393,7.417953898468018,16.314859565353395,7.417953898468018L7.684509565353394,7.417953898468018Q5.973489565353393,7.417953898468018,5.442659565353393,7.491133898468018Q4.812699565353394,7.577963898468018,4.566249565353393,7.841963898468018Q4.319809565353394,8.105953898468018,4.276439565353393,8.740393898468017Q4.239899565353394,9.274993898468018,4.357409565353393,10.981973898468018L4.698109565353393,15.930863898468017ZM11.334799565353393,16.993063898468016L11.334799565353393,14.358063898468018L8.695109565353395,14.358063898468018C8.327839565353393,14.358063898468018,8.030109565353394,14.060363898468017,8.030109565353394,13.693063898468017C8.030109565353394,13.325763898468018,8.327839565353393,13.028063898468018,8.695109565353395,13.028063898468018L11.334799565353393,13.028063898468018L11.334799565353393,10.393073898468018C11.334799565353393,10.025803898468018,11.632529565353394,9.728073898468018,11.999799565353394,9.728073898468018C12.367059565353394,9.728073898468018,12.664799565353393,10.025803898468018,12.664799565353393,10.393073898468018L12.664799565353393,13.028063898468018L15.295059565353393,13.028063898468018C15.662359565353393,13.028063898468018,15.960059565353394,13.325763898468018,15.960059565353394,13.693063898468017C15.960059565353394,14.060363898468017,15.662359565353393,14.358063898468018,15.295059565353393,14.358063898468018L12.664799565353393,14.358063898468018L12.664799565353393,16.993063898468016C12.664799565353393,17.360363898468016,12.367059565353394,17.658063898468015,11.999799565353394,17.658063898468015C11.632529565353394,17.658063898468015,11.334799565353393,17.360363898468016,11.334799565353393,16.993063898468016Z" fill-rule="evenodd" fill="#283248" fill-opacity="1" style="mix-blend-mode:passthrough"/></g></g></svg>