<svg xmlns="http://www.w3.org/2000/svg" xmlns:xlink="http://www.w3.org/1999/xlink" fill="none" version="1.1" width="24" height="24" viewBox="0 0 24 24"><g><g><path d="M17.999929370498656,3.7826638984680176L5.999959370498657,3.7826638984680176C5.632689370498657,3.7826638984680176,5.334959370498657,3.4849338984680176,5.334959370498657,3.1176608984680176C5.334959370498657,2.7503908984680177,5.632689370498657,2.4526605606080176,5.999959370498657,2.4526605606080176L17.999929370498656,2.4526605606080176C18.367229370498656,2.4526605606080176,18.664929370498655,2.7503908984680177,18.664929370498655,3.1176608984680176C18.664929370498655,3.4849338984680176,18.367229370498656,3.7826638984680176,17.999929370498656,3.7826638984680176ZM3.430396370498657,16.878963898468015L3.036602470498657,11.158843898468017Q2.9104073704986573,9.325773898468018,2.9539642704986573,8.688543898468017Q3.030746170498657,7.565243898468018,3.607812370498657,6.947083898468017Q4.184879370498657,6.328923898468018,5.300249370498657,6.175173898468017Q5.932979370498657,6.087953898468017,7.770369370498657,6.087953898468017L16.229329370498657,6.087953898468017Q18.066729370498656,6.087953898468017,18.699429370498656,6.175173898468017Q19.814829370498657,6.328923898468018,20.39192937049866,6.947083898468017Q20.968929370498657,7.565243898468018,21.04572937049866,8.688543898468017Q21.089329370498657,9.325773898468018,20.963129370498656,11.158813898468017L20.569329370498657,16.878963898468015Q20.457829370498658,18.498463898468017,20.34482937049866,19.059863898468016Q20.145929370498656,20.047463898468017,19.585829370498658,20.570463898468017Q19.025629370498656,21.093363898468017,18.026629370498657,21.223863898468018Q17.458829370498655,21.29816389846802,15.835529370498657,21.29816389846802L8.164159370498657,21.29816389846802Q6.5408893704986575,21.29816389846802,5.973079370498658,21.223863898468018Q4.974099370498657,21.093363898468017,4.413929370498657,20.570463898468017Q3.8537703704986574,20.047463898468017,3.6549143704986573,19.059863898468016Q3.5418863704986574,18.498463898468017,3.430396370498657,16.878963898468015ZM4.757259370498657,16.78766389846802Q4.862799370498657,18.320763898468016,4.958749370498657,18.797363898468017Q5.0733593704986575,19.36656389846802,5.321519370498658,19.59826389846802Q5.569669370498657,19.829863898468016,6.145419370498657,19.905163898468018Q6.627439370498657,19.968163898468017,8.164159370498657,19.968163898468017L15.835529370498657,19.968163898468017Q17.372329370498658,19.968163898468017,17.854329370498657,19.905163898468018Q18.43002937049866,19.829863898468016,18.678229370498656,19.59826389846802Q18.926329370498657,19.36656389846802,19.040929370498656,18.797363898468017Q19.136929370498656,18.320763898468016,19.24242937049866,16.78766389846802L19.636229370498658,11.067503898468017Q19.75622937049866,9.325453898468018,19.718829370498657,8.779243898468017Q19.674329370498658,8.127393898468018,19.419729370498658,7.854663898468018Q19.165129370498658,7.581933898468018,18.517829370498657,7.4927138984680175Q17.975529370498656,7.417953898468018,16.229329370498657,7.417953898468018L7.770369370498657,7.417953898468018Q6.024219370498657,7.417953898468018,5.481869370498657,7.4927138984680175Q4.8346193704986575,7.581933898468018,4.580019370498658,7.854663898468018Q4.325419370498658,8.127393898468018,4.280869370498657,8.779243898468017Q4.243529370498657,9.325443898468016,4.363459370498657,11.067473898468018L4.757259370498657,16.78766389846802ZM15.770329370498658,11.960063898468018L11.370379370498657,16.36006389846802C11.245669370498657,16.484763898468017,11.076519370498657,16.554863898468017,10.900149370498657,16.554863898468017C10.723789370498658,16.554863898468017,10.554639370498657,16.484763898468017,10.429929370498657,16.36006389846802L8.229929370498656,14.160063898468017C8.105219370498657,14.035363898468018,8.035149370498658,13.866163898468018,8.035149370498658,13.689863898468017C8.035149370498658,13.513463898468018,8.105219370498657,13.344363898468018,8.229929370498656,13.219563898468017C8.354639370498656,13.094863898468018,8.523789370498658,13.024863898468018,8.700149370498657,13.024863898468018C8.876519370498658,13.024863898468018,9.045669370498658,13.094863898468018,9.170379370498658,13.219563898468017L10.900149370498657,14.949363898468018L14.829929370498657,11.019603898468018C14.940029370498657,10.909493898468018,15.085329370498657,10.841513898468017,15.240429370498656,10.827523898468018C15.260229370498656,10.825733898468018,15.280229370498658,10.824833898468018,15.300129370498658,10.824833898468018C15.473529370498657,10.824833898468018,15.640029370498658,10.892553898468018,15.764229370498658,11.013563898468018L15.764229370498658,11.013563898468018C15.764629370498657,11.013933898468018,15.770029370498657,11.019223898468018,15.770029370498657,11.019223898468018L15.770029370498657,11.019223898468018C15.895129370498656,11.144323898468018,15.965129370498657,11.313463898468017,15.965129370498657,11.489833898468017C15.965129370498657,11.666203898468018,15.895129370498656,11.835343898468018,15.770329370498658,11.960063898468018Z" fill-rule="evenodd" fill="#283248" fill-opacity="1"/></g></g></svg>