<svg xmlns="http://www.w3.org/2000/svg" xmlns:xlink="http://www.w3.org/1999/xlink" fill="none" version="1.1" width="24" height="24" viewBox="0 0 24 24"><g><g><g><path d="M12.000124750614166,21.147952042770385L5.283294750614166,21.147952042770385Q4.411484750614166,21.147952042770385,3.935494750614166,20.465652042770387Q3.433317750614166,19.745852042770387,3.818432750614166,18.901552042770387L4.0235947506141665,18.449952042770384L4.271284750614166,17.904852042770386Q4.562224750614166,17.265352042770388,4.190884750614166,16.651852042770386Q2.8521986604141665,14.441752042770386,2.8521986008141664,12.000012042770386Q2.8521986008141664,10.068232042770386,3.6254267506141664,8.313912042770387Q4.372094750614166,6.619842042770386,5.724234750614166,5.344402042770385Q7.080414750614167,4.065142042770386,8.820294750614167,3.4200960427703855Q10.630324750614166,2.7490380427703855,12.582424750614166,2.870324142770386Q14.046024750614166,2.961115042770386,15.408424750614166,3.5137430427703857Q17.823424750614166,4.493292042770386,19.378024750614166,6.609592042770386Q20.965624750614165,8.770792042770385,21.129824750614166,11.417352042770386Q21.251124750614167,13.369752042770386,20.580124750614168,15.179852042770385Q19.935124750614165,16.919752042770384,18.655824750614165,18.275952042770385Q17.380424750614168,19.628152042770385,15.686324750614165,20.374752042770385Q13.932024750614167,21.147952042770385,12.000124750614166,21.147952042770385ZM12.000124750614166,19.852152042770385Q13.659124750614167,19.852152042770385,15.163724750614167,19.189052042770385Q16.61782475061417,18.548152042770386,17.713224750614167,17.386852042770386Q18.811724750614168,16.222352042770385,19.365124750614168,14.729452042770387Q19.940824750614166,13.176452042770386,19.836524750614167,11.497692042770385Q19.695924750614168,9.231052042770386,18.333724750614167,7.376712042770386Q16.996324750614164,5.556112042770385,14.921424750614166,4.714472042770385Q13.754824750614166,4.241292042770386,12.502194750614166,4.163592042770386Q10.823654750614166,4.059302042770385,9.270724750614166,4.635042042770386Q7.777874750614166,5.188502042770386,6.613344750614166,6.2869820427703855Q5.452004750614167,7.382442042770386,4.811114750614166,8.836512042770385Q4.147944750614166,10.341122042770387,4.147944750614166,12.000012042770386Q4.147944750614166,14.079952042770385,5.299174750614166,15.980552042770386Q6.024854750614166,17.179452042770386,5.450704750614166,18.441452042770386L5.203274750614167,18.986052042770385L4.998114750614166,19.437552042770385Q4.919064750614167,19.610852042770386,4.998194750614166,19.724252042770384Q5.087434750614166,19.852152042770385,5.283294750614166,19.852152042770385L12.000124750614166,19.852152042770385ZM15.778824750614167,10.510222042770387L8.219804750614166,10.499652042770386L8.219804750614166,10.499652042770386C7.8982647506141666,10.499202042770385,7.623634750614166,10.270062042770386,7.565734750614166,9.954732042770384C7.558464750614166,9.915122042770385,7.554804750614166,9.874922042770386,7.554804750614166,9.834642042770387L7.554804750614166,9.834642042770387C7.5552447506141664,9.513112042770386,7.784384750614167,9.238472042770386,8.099714750614165,9.180582042770386C8.139324750614167,9.173302042770386,8.179524750614167,9.169642042770386,8.219804750614166,9.169642042770386L8.219804750614166,9.169642042770386L15.779824750614166,9.180222042770385L15.779824750614166,9.180222042770385C15.957124750614167,9.180472042770386,16.126124750614167,9.250772042770386,16.250724750614168,9.375662042770387C16.367424750614166,9.492722042770385,16.436324750614165,9.649072042770385,16.444124750614165,9.814212042770386C16.444124750614165,9.814212042770386,16.444824750614167,9.845222042770386,16.444824750614167,9.845222042770386L16.444824750614167,9.845222042770386C16.444324750614165,10.166762042770387,16.215224750614166,10.441402042770385,15.899924750614167,10.499292042770385C15.860224750614167,10.506572042770387,15.820124750614166,10.510222042770387,15.779824750614166,10.510222042770387L15.778824750614167,10.510222042770387ZM11.999804750614166,14.824952042770386L8.219804750614166,14.824952042770386C7.852534750614166,14.824952042770386,7.554804750614166,14.527152042770386,7.554804750614166,14.159952042770385C7.554804750614166,13.792652042770385,7.852534750614166,13.494952042770386,8.219804750614166,13.494952042770386L11.999804750614166,13.494952042770386C12.367074750614167,13.494952042770386,12.664804750614167,13.792652042770385,12.664804750614167,14.159952042770385C12.664804750614167,14.527152042770386,12.367074750614167,14.824952042770386,11.999804750614166,14.824952042770386Z" fill-rule="evenodd" fill="#283248" fill-opacity="1" style="mix-blend-mode:passthrough"/></g></g></g></svg>