<svg xmlns="http://www.w3.org/2000/svg" xmlns:xlink="http://www.w3.org/1999/xlink" fill="none" version="1.1" width="24" height="24" viewBox="0 0 24 24"><defs><clipPath id="master_svg0_13504_010809"><rect x="0" y="0" width="24" height="24" rx="0"/></clipPath></defs><g clip-path="url(#master_svg0_13504_010809)"><g><path d="M8.665040038146973,5.3349800381469725L14.500000038146972,5.3349800381469725Q15.811000038146974,5.3349800381469725,16.73800003814697,6.261990038146973Q17.66500003814697,7.188990038146972,17.66500003814697,8.499980038146973L17.66500003814697,16.335000038146973L18.018700038146974,16.335000038146973Q18.573100038146972,16.335000038146973,18.95440003814697,15.955400038146973Q19.335000038146973,15.576500038146973,19.335000038146973,15.025000038146972L19.335000038146973,5.510650038146973Q19.335000038146973,4.744190038146973,18.803800038146974,4.203690038146973Q18.274400038146972,3.6649800381469726,17.520600038146974,3.6649800381469726L10.046550038146972,3.6649800381469726Q9.483420038146972,3.6649800381469726,9.072110038146974,4.063970038146973Q8.665040038146973,4.458860038146973,8.665040038146973,5.001770038146972L8.665040038146973,5.3349800381469725ZM17.661300038146972,17.66500003814697Q17.606200038146973,18.869800038146973,16.73800003814697,19.73800003814697Q15.811000038146974,20.66500003814697,14.500000038146972,20.66500003814697L6.500040038146972,20.66500003814697Q5.189050038146973,20.66500003814697,4.2620460381469725,19.73800003814697Q3.3350390195469726,18.81100003814697,3.3350390791469726,17.500000038146972L3.3350390791469726,8.499980038146973Q3.3350391387469727,7.188990038146972,4.2620460381469725,6.261990038146973Q5.189050038146973,5.3349800381469725,6.500040038146972,5.3349800381469725L7.335040038146973,5.3349800381469725L7.335040038146973,5.001770038146972Q7.335040038146973,3.8960800381469727,8.146050038146972,3.109344038146973Q8.944310038146973,2.334978103646973,10.046550038146972,2.3349780440469727L17.520600038146974,2.3349780440469727Q18.832000038146973,2.3349779844469727,19.752400038146973,3.2714120381469725Q20.66500003814697,4.200020038146972,20.66500003814697,5.510650038146973L20.66500003814697,15.025000038146972Q20.66500003814697,16.129100038146973,19.892700038146973,16.898000038146975Q19.122300038146975,17.66500003814697,18.018700038146974,17.66500003814697L17.661300038146972,17.66500003814697ZM5.202500038146972,18.79750003814697Q4.665040038146973,18.260100038146973,4.665040038146973,17.500000038146972L4.665040038146973,8.499980038146973Q4.665040038146973,7.739900038146972,5.202500038146972,7.202440038146973Q5.739960038146973,6.664980038146973,6.500040038146972,6.664980038146973L14.500000038146972,6.664980038146973Q15.260100038146973,6.664980038146973,15.797600038146973,7.202440038146973Q16.335000038146973,7.739900038146972,16.335000038146973,8.499980038146973L16.335000038146973,17.500000038146972Q16.335000038146973,18.260100038146973,15.797600038146973,18.79750003814697Q15.260100038146973,19.335000038146973,14.500000038146972,19.335000038146973L6.500040038146972,19.335000038146973Q5.739960038146973,19.335000038146973,5.202500038146972,18.79750003814697ZM7.500040038146973,11.664980038146973L13.500000038146972,11.664980038146973C13.867300038146972,11.664980038146973,14.165000038146973,11.367250038146972,14.165000038146973,10.999980038146973C14.165000038146973,10.632710038146973,13.867300038146972,10.334980038146973,13.500000038146972,10.334980038146973L7.500040038146973,10.334980038146973C7.1327700381469725,10.334980038146973,6.835040038146973,10.632710038146973,6.835040038146973,10.999980038146973C6.835040038146973,11.367250038146972,7.1327700381469725,11.664980038146973,7.500040038146973,11.664980038146973ZM7.500040038146973,15.665000038146973L13.500000038146972,15.665000038146973C13.867300038146972,15.665000038146973,14.165000038146973,15.367200038146972,14.165000038146973,15.000000038146972C14.165000038146973,14.632700038146973,13.867300038146972,14.335000038146973,13.500000038146972,14.335000038146973L7.500040038146973,14.335000038146973C7.1327700381469725,14.335000038146973,6.835040038146973,14.632700038146973,6.835040038146973,15.000000038146972C6.835040038146973,15.367200038146972,7.1327700381469725,15.665000038146973,7.500040038146973,15.665000038146973Z" fill-rule="evenodd" fill="#283248" fill-opacity="1"/></g></g></svg>