<svg xmlns="http://www.w3.org/2000/svg" xmlns:xlink="http://www.w3.org/1999/xlink" fill="none" version="1.1" width="24" height="24" viewBox="0 0 24 24"><g><g><path d="M16.000000038146972,4.664980038146973L8.000040038146974,4.664980038146973C7.6327700381469725,4.664980038146973,7.335040038146973,4.367250038146972,7.335040038146973,3.9999780381469727C7.335040038146973,3.632709038146973,7.6327700381469725,3.3349780440469727,8.000040038146974,3.3349780440469727L16.000000038146972,3.3349780440469727C16.367300038146972,3.3349780440469727,16.66500003814697,3.632709038146973,16.66500003814697,3.9999780381469727C16.66500003814697,4.367250038146972,16.367300038146972,4.664980038146973,16.000000038146972,4.664980038146973ZM5.335040038146973,7.664980038146973L4.000039038146973,7.664980038146973C3.6327700381469725,7.664980038146973,3.3350390791469726,7.367250038146973,3.3350390791469726,6.999980038146973C3.3350390791469726,6.632710038146973,3.6327700381469725,6.3349800381469725,4.000039038146973,6.3349800381469725L20.000000038146972,6.3349800381469725C20.367300038146972,6.3349800381469725,20.66500003814697,6.632710038146973,20.66500003814697,6.999980038146973C20.66500003814697,7.367250038146973,20.367300038146972,7.664980038146973,20.000000038146972,7.664980038146973L18.66500003814697,7.664980038146973L18.66500003814697,17.89510003814697Q18.66500003814697,19.05970003814697,17.830800038146972,19.868700038146972Q17.009700038146974,20.66500003814697,15.848000038146973,20.66500003814697L8.152050038146973,20.66500003814697Q6.9903400381469725,20.66500003814697,6.169280038146972,19.868700038146972Q5.335040038146973,19.05970003814697,5.335040038146973,17.89510003814697L5.335040038146973,7.664980038146973ZM6.665040038146973,7.664980038146973L6.665040038146973,17.89510003814697Q6.665040038146973,18.496800038146972,7.095200038146973,18.914000038146973Q7.5293300381469725,19.335000038146973,8.152050038146973,19.335000038146973L12.000040038146972,19.335000038146973L15.848000038146973,19.335000038146973Q16.470700038146973,19.335000038146973,16.904900038146973,18.914000038146973Q17.335000038146973,18.496800038146972,17.335000038146973,17.89510003814697L17.335000038146973,7.664980038146973L6.665040038146973,7.664980038146973ZM11.335040038146973,16.000000038146972L11.335040038146973,10.999980038146973C11.335040038146973,10.632710038146973,11.632770038146973,10.334980038146973,12.000040038146972,10.334980038146973C12.367310038146973,10.334980038146973,12.665040038146973,10.632710038146973,12.665040038146973,10.999980038146973L12.665040038146973,16.000000038146972C12.665040038146973,16.367200038146972,12.367310038146973,16.66500003814697,12.000040038146972,16.66500003814697C11.632770038146973,16.66500003814697,11.335040038146973,16.367200038146972,11.335040038146973,16.000000038146972Z" fill-rule="evenodd" fill="#283248" fill-opacity="1"/></g></g></svg>