<svg width="24" height="24" viewBox="0 0 24 24" fill="none" xmlns="http://www.w3.org/2000/svg">
<path fill-rule="evenodd" clip-rule="evenodd" d="M19.0811 13.2734C19.3855 13.0271 19.8452 12.9008 20.2754 13.1104L20.374 13.1641L23.001 14.7871L23.0889 14.8477C23.4807 15.1472 23.6139 15.6806 23.4082 16.1289L23.3584 16.2236L22.3301 17.9795C22.1857 18.226 21.9135 18.3474 21.6484 18.3145V20.6816C21.6483 21.4925 20.9906 22.1502 20.1797 22.1504H15.8184C15.0073 22.1504 14.3498 21.4926 14.3496 20.6816V18.3145C14.1297 18.342 13.9048 18.2643 13.752 18.0957L13.667 17.9795L12.6406 16.2227C12.3506 15.7263 12.509 15.0893 12.998 14.7871L15.625 13.165L15.7236 13.1113C16.1536 12.9022 16.6127 13.0283 16.917 13.2744L17.0459 13.3955L17.1436 13.4932C17.381 13.7084 17.68 13.8311 17.999 13.8311C18.3637 13.831 18.7017 13.6705 18.9521 13.3945L19.0811 13.2734ZM19.8271 14.3555C19.3568 14.8286 18.7157 15.1308 17.999 15.1309C17.2822 15.1309 16.6403 14.8288 16.1699 14.3555L13.8809 15.7695L14.4697 16.7764L14.6436 16.666L14.7266 16.6201C15.1479 16.4276 15.6491 16.7329 15.6494 17.2168V20.6816C15.6496 20.7746 15.7253 20.8496 15.8184 20.8496H20.1797C20.2726 20.8494 20.3475 20.7745 20.3477 20.6816V17.2158C20.3477 16.7313 20.85 16.426 21.2715 16.6191L21.3545 16.665L21.5283 16.7754L22.1182 15.7686L19.8271 14.3555Z" fill="#283248"/>
<path d="M19.7578 4.01855C21.0002 4.01882 22.0078 5.02608 22.0078 6.26855V10C22.0076 10.4139 21.6717 10.7497 21.2578 10.75C20.8439 10.7498 20.508 10.4139 20.5078 10V6.26855C20.5078 5.8545 20.1718 5.51882 19.7578 5.51855H4.24609C3.83188 5.51855 3.49609 5.85434 3.49609 6.26855V17.7549C3.49643 18.1688 3.83209 18.5049 4.24609 18.5049H10.001L10.0771 18.5088C10.4551 18.5474 10.751 18.8667 10.751 19.2549C10.7507 19.6428 10.4549 19.9624 10.0771 20.001L10.001 20.0049H4.24609C3.00366 20.0049 1.99545 18.9972 1.99512 17.7549V6.26855C1.99512 5.02591 3.00345 4.01855 4.24609 4.01855H19.7578Z" fill="#283248"/>
<path d="M18 8.25C18.414 8.25007 18.7498 8.586 18.75 9C18.75 9.41417 18.4142 9.74993 18 9.75H13C12.5858 9.75 12.25 9.41421 12.25 9C12.2502 8.58595 12.5859 8.25 13 8.25H18Z" fill="#283248"/>
</svg>
