<svg xmlns="http://www.w3.org/2000/svg" xmlns:xlink="http://www.w3.org/1999/xlink" fill="none" version="1.1" width="24" height="24" viewBox="0 0 24 24"><g><g><path d="M12.000040038146972,2.3349780440469727Q13.965900038146973,2.3349779844469727,15.762300038146973,3.0947750381469725Q17.496900038146972,3.8284400381469728,18.83420003814697,5.165790038146973Q20.171600038146973,6.503140038146973,20.905200038146972,8.237720038146973Q21.66500003814697,10.034080038146973,21.66500003814697,11.999980038146973Q21.66500003814697,13.965900038146973,20.905200038146972,15.762200038146972Q20.171600038146973,17.496800038146972,18.83420003814697,18.83420003814697Q17.496900038146972,20.171500038146974,15.762300038146973,20.905200038146972Q13.965900038146973,21.66500003814697,12.000040038146972,21.66500003814697Q10.034140038146973,21.66500003814697,8.237780038146973,20.905200038146972Q6.503210038146973,20.171500038146974,5.1658500381469725,18.83420003814697Q3.8285000381469727,17.496800038146972,3.0948360381469726,15.762200038146972Q2.3350390791469726,13.965900038146973,2.3350390791469726,11.999980038146973Q2.3350391387469727,10.034080038146973,3.0948360381469726,8.237720038146973Q3.8285000381469727,6.503140038146973,5.1658500381469725,5.165790038146973Q6.503200038146972,3.8284400381469728,8.237780038146973,3.0947750381469725Q10.034140038146973,2.3349780440469727,12.000040038146972,2.3349780440469727ZM12.000040038146972,3.6649800381469726Q8.547570038146972,3.6649800381469726,6.106300038146973,6.106240038146973Q3.6650400381469725,8.547510038146973,3.6650400381469725,11.999980038146973Q3.6650400381469725,15.452400038146973,6.106300038146973,17.893700038146974Q8.547570038146972,20.335000038146973,12.000040038146972,20.335000038146973Q15.452500038146972,20.335000038146973,17.89380003814697,17.893700038146974Q20.335000038146973,15.452400038146973,20.335000038146973,11.999980038146973Q20.335000038146973,8.547510038146973,17.89380003814697,6.106240038146973Q15.452500038146972,3.6649800381469726,12.000040038146972,3.6649800381469726ZM8.333830038146973,8.326310038146973Q9.575290038146973,7.0639600381469725,11.133730038146973,7.0639600381469725C11.501000038146973,7.0639600381469725,11.798730038146973,6.766230038146973,11.798730038146973,6.3989600381469725C11.798730038146973,6.0317000381469725,11.501000038146973,5.733960038146973,11.133730038146973,5.733960038146973Q9.017870038146974,5.733960038146973,7.385570038146972,7.393730038146972Q5.777180038146973,9.029180038146972,5.777180038146973,11.090710038146973C5.777180038146973,11.457980038146973,6.074910038146973,11.755710038146972,6.442180038146972,11.755710038146972C6.809450038146973,11.755710038146972,7.107180038146972,11.457980038146973,7.107180038146972,11.090710038146973Q7.107180038146972,9.573600038146973,8.333830038146973,8.326310038146973ZM14.379500038146972,9.620550038146973Q13.393900038146972,8.634970038146973,12.000090038146972,8.634970038146973Q10.606260038146972,8.634970038146973,9.620670038146972,9.620550038146973Q8.635090038146974,10.606140038146973,8.635090038146974,11.999970038146973Q8.635090038146974,13.393800038146972,9.620670038146972,14.379400038146972Q10.606260038146972,15.365000038146972,12.000090038146972,15.365000038146972Q13.393900038146972,15.365000038146972,14.379500038146972,14.379400038146972Q15.365100038146972,13.393800038146972,15.365100038146972,11.999970038146973Q15.365100038146972,10.606140038146973,14.379500038146972,9.620550038146973ZM10.561130038146972,10.561000038146974Q11.157160038146973,9.964970038146973,12.000090038146972,9.964970038146973Q12.843000038146972,9.964970038146973,13.439000038146972,10.561000038146974Q14.035100038146973,11.157040038146972,14.035100038146973,11.999970038146973Q14.035100038146973,12.842900038146972,13.439000038146972,13.438900038146972Q12.843000038146972,14.035000038146972,12.000090038146972,14.035000038146972Q11.157160038146973,14.035000038146972,10.561130038146972,13.438900038146972Q9.965090038146972,12.842900038146972,9.965090038146972,11.999970038146973Q9.965090038146972,11.157040038146972,10.561130038146972,10.561000038146974Z" fill-rule="evenodd" fill="#283248" fill-opacity="1" style="mix-blend-mode:passthrough"/></g></g></svg>