<svg xmlns="http://www.w3.org/2000/svg" xmlns:xlink="http://www.w3.org/1999/xlink" fill="none" version="1.1" width="24" height="24" viewBox="0 0 24 24"><defs><clipPath id="master_svg0_13504_012312"><rect x="0" y="0" width="24" height="24" rx="0"/></clipPath></defs><g clip-path="url(#master_svg0_13504_012312)"><g><path d="M19.012899561309816,4.046690038146973L20.529799561309815,2.5297520381469725C20.654499561309816,2.4050403381469727,20.823699561309816,2.3349780440469727,20.999999561309814,2.3349780440469727C21.176399561309815,2.3349780440469727,21.345599561309815,2.405040238146973,21.470299561309815,2.5297520381469725C21.594999561309816,2.6544630381469725,21.664999561309813,2.8236090381469725,21.664999561309813,2.9999780381469727C21.664999561309813,3.1763470381469725,21.594999561309816,3.3454900381469725,21.470299561309815,3.470200038146973L21.470299561309815,3.470200038146973L19.982499561309815,4.957950038146972Q21.664999561309813,6.870620038146972,21.664999561309813,9.535870038146973Q21.664999561309813,11.817150038146973,20.501699561309813,13.855800038146972Q19.421999561309814,15.748000038146973,17.220099561309816,17.616900038146973Q15.710899561309814,18.89810003814697,13.977999561309815,20.052700038146973Q13.435199561309814,20.414400038146972,12.933099561309815,20.72120003814697Q12.676799561309814,20.877800038146972,12.525299561309815,20.964000038146974Q12.000339561309815,21.262700038146974,11.475339561309815,20.964100038146974Q11.323829561309815,20.877900038146972,11.067499561309814,20.72120003814697Q10.565339561309814,20.414400038146972,10.022489561309815,20.052700038146973Q8.457939561309814,19.010400038146972,7.075609561309815,17.86490003814697L5.470679561309814,19.46980003814697L5.470679561309814,19.46980003814697C5.345549561309815,19.59490003814697,5.176409561309814,19.66500003814697,5.000039561309814,19.66500003814697C4.823669561309814,19.66500003814697,4.654519561309814,19.59490003814697,4.529809561309815,19.470200038146974C4.4050995613098145,19.345500038146973,4.335039561309815,19.176300038146973,4.335039561309815,19.000000038146972C4.335039561309815,18.823600038146974,4.4050995613098145,18.654500038146974,4.529809561309815,18.529800038146973L6.071529561309815,16.98800003814697Q4.396639561309815,15.430000038146973,3.4983695613098145,13.855800038146972Q2.3350380659098144,11.817160038146973,2.3350381255098145,9.535870038146973Q2.3350386619098145,6.808460038146973,4.0969395613098145,4.869160038146973Q5.888259561309814,2.8974780381469727,8.444269561309815,2.8974780381469727Q10.438009561309814,2.8974780381469727,12.000109561309815,4.131560038146972Q13.562399561309814,2.8974780381469727,15.555799561309815,2.8974780381469727Q17.507199561309815,2.8974780381469727,19.012899561309816,4.046690038146973ZM18.059199561309814,5.000360038146972Q16.951399561309813,4.227480038146973,15.555799561309815,4.227480038146973Q13.794299561309815,4.227480038146973,12.457299561309814,5.493630038146973C12.200849561309814,5.736520038146972,11.799219561309814,5.736500038146973,11.542769561309814,5.493590038146973Q10.206079561309814,4.227480038146973,8.444269561309815,4.227480038146973Q6.476859561309815,4.227480038146973,5.0813395613098145,5.763510038146973Q3.6650395613098143,7.322410038146972,3.6650395613098143,9.535870038146973Q3.6650395613098143,11.464380038146972,4.653529561309814,13.196600038146972Q5.461049561309815,14.611800038146972,7.012589561309815,16.047000038146972L18.059199561309814,5.000360038146972ZM8.020359561309814,16.920100038146973Q9.307469561309816,17.978200038146973,10.759889561309814,18.945900038146974Q11.281019561309815,19.29300003814697,11.761009561309814,19.586400038146973Q11.898019561309814,19.670100038146973,12.000289561309815,19.730700038146974Q12.102569561309814,19.670100038146973,12.239539561309815,19.586400038146973Q12.719399561309814,19.293100038146974,13.240499561309814,18.945900038146974Q14.909099561309814,17.83410003814697,16.359499561309814,16.60290003814697Q18.382799561309813,14.885500038146972,19.346599561309816,13.196600038146972Q20.334999561309814,11.464390038146973,20.334999561309814,9.535870038146973Q20.334999561309814,7.419010038146973,19.039699561309813,5.900810038146973L8.020359561309814,16.920100038146973Z" fill-rule="evenodd" fill="#283248" fill-opacity="1"/></g></g></svg>