<svg xmlns="http://www.w3.org/2000/svg" xmlns:xlink="http://www.w3.org/1999/xlink" fill="none" version="1.1" width="24" height="24" viewBox="0 0 24 24"><g><g><path d="M15.7624,3.094670785595703Q13.966,2.334866485595703,12.0001,2.334866485595703Q10.03418,2.334866485595703,8.2378,3.0946700855957032Q6.50321,3.828340485595703,5.16584,5.165706485595703Q3.828475,6.503076485595703,3.0948043,8.237666485595703Q2.335,10.034046485595702,2.335,11.999966485595703Q2.335,13.965866485595702,3.0948036,15.762266485595703Q3.828474,17.496866485595703,5.16584,18.834266485595705Q6.50321,20.171566485595704,8.2378,20.905266485595703Q10.03418,21.665066485595702,12.0001,21.665066485595702Q13.966,21.665066485595702,15.7624,20.905266485595703Q17.497,20.171566485595704,18.834400000000002,18.834266485595705Q20.1717,17.496866485595703,20.9054,15.762266485595703Q21.6652,13.965866485595702,21.6652,11.999966485595703Q21.6652,10.034046485595702,20.9054,8.237666485595703Q20.1717,6.503076485595703,18.834400000000002,5.165706485595703Q17.497,3.828344485595703,15.7624,3.094670785595703ZM6.1062899999999996,6.106156485595703Q8.54759,3.664866485595703,12.0001,3.664866485595703Q15.4526,3.664866485595703,17.893900000000002,6.106156485595703Q20.3352,8.547456485595703,20.3352,11.999966485595703Q20.3352,15.452466485595703,17.893900000000002,17.893766485595705Q15.4526,20.335066485595704,12.0001,20.335066485595704Q8.54758,20.335066485595704,6.1062899999999996,17.893766485595705Q3.665,15.452466485595703,3.665,11.999966485595703Q3.665,8.547446485595703,6.1062899999999996,6.106156485595703Z" fill-rule="evenodd" fill="#283248" fill-opacity="1"/></g><g><path d="M11.335,13.77037L11.335,14Q11.335,14.0655,11.34778,14.12973Q11.36056,14.19397,11.38562,14.254480000000001Q11.41068,14.31499,11.44707,14.36945Q11.483460000000001,14.42391,11.52977,14.47023Q11.57609,14.516539999999999,11.63055,14.55293Q11.685,14.589310000000001,11.745519999999999,14.61438Q11.80603,14.63944,11.87026,14.65222Q11.9345,14.665,12,14.665Q12.0655,14.665,12.12973,14.65222Q12.19397,14.63944,12.254480000000001,14.61438Q12.315,14.589310000000001,12.36945,14.55293Q12.42391,14.516539999999999,12.47023,14.47023Q12.516539999999999,14.42391,12.55293,14.36945Q12.58931,14.31499,12.61438,14.254480000000001Q12.63944,14.19397,12.65222,14.12973Q12.665,14.0655,12.665,14L12.665,13Q12.665,12.930019999999999,13.129100000000001,12.60184Q13.81014,12.120280000000001,14.11448,11.7214Q14.665,10.99985,14.665,10Q14.665,9.34301,14.34479,8.702603Q13.66099,7.335,12,7.335Q10.599365,7.335,9.86033,8.361437Q9.335,9.09106,9.335,10Q9.335,10.0655,9.347778,10.12973Q9.360556,10.19397,9.38562,10.254480000000001Q9.410685,10.315,9.447073,10.36945Q9.483461,10.42391,9.529774,10.47023Q9.576087,10.516539999999999,9.630546,10.55293Q9.685004,10.58931,9.745516,10.61438Q9.806027,10.63944,9.870265,10.65222Q9.9345032,10.665,10,10.665Q10.0654968,10.665,10.129735,10.65222Q10.193973,10.63944,10.254484,10.61438Q10.314996,10.58931,10.369454,10.55293Q10.423913,10.516539999999999,10.470226,10.47023Q10.516539,10.42391,10.552927,10.36945Q10.589315,10.315,10.61438,10.254480000000001Q10.639444,10.19397,10.652222,10.12973Q10.665,10.0655,10.665,10Q10.665,9.52005,10.93967,9.13856Q11.28064,8.665,12,8.665Q12.83901,8.665,13.15521,9.2974Q13.335,9.65699,13.335,10Q13.335,10.55041,13.0571,10.91464Q12.87616,11.1518,12.361229999999999,11.5159Q11.91618,11.8306,11.73228,12.03064Q11.335,12.46276,11.335,13L11.335,13.77037Z" fill-rule="evenodd" fill="#283248" fill-opacity="1"/></g><g><ellipse cx="12.000195324420929" cy="16.30000001192093" rx="0.800000011920929" ry="0.800000011920929" fill="#283248" fill-opacity="1"/><ellipse cx="12.000195324420929" cy="16.30000001192093" rx="-0.09999996423721313" ry="-0.09999996423721313" fill-opacity="0" stroke-opacity="1" stroke="#283248" fill="none" stroke-width="1.7999999523162842"/></g></g></svg>