<svg xmlns="http://www.w3.org/2000/svg" xmlns:xlink="http://www.w3.org/1999/xlink" fill="none" version="1.1" width="24" height="24" viewBox="0 0 24 24"><g><g><path d="M11.334960159835816,3.2187590381469726C11.334960159835816,2.8514890381469726,11.632690159835816,2.5537585616069727,11.999960159835815,2.5537585616069727C12.367230159835815,2.5537585616069727,12.665000159835815,2.8514890381469726,12.665000159835815,3.2187590381469726L12.665000159835815,12.502200038146972L15.347300159835816,9.819820038146972C15.472000159835815,9.695110038146971,15.641200159835815,9.625050038146973,15.817600159835816,9.625050038146973C15.993900159835816,9.625050038146973,16.163100159835814,9.695110038146971,16.287800159835815,9.819820038146972C16.412500159835815,9.944530038146972,16.482600159835815,10.113680038146972,16.482600159835815,10.290050038146973C16.482600159835815,10.466420038146973,16.412500159835815,10.635560038146973,16.287800159835815,10.760270038146972L12.465170159835816,14.582850038146972C12.340460159835816,14.707650038146973,12.171310159835816,14.777650038146973,11.994940159835815,14.777650038146973C11.818570159835815,14.777650038146973,11.649430159835816,14.707650038146973,11.524720159835816,14.582850038146972L7.702100159835815,10.760270038146972C7.5773801598358155,10.635560038146973,7.507320159835816,10.466420038146973,7.507320159835816,10.290050038146973C7.507320159835816,10.113680038146972,7.5773801598358155,9.944530038146972,7.702100159835815,9.819820038146972C7.826810159835816,9.695110038146971,7.995950159835815,9.625050038146973,8.172320159835817,9.625050038146973C8.348690159835815,9.625050038146973,8.517840159835815,9.695110038146971,8.642550159835816,9.819820038146972L11.334960159835816,12.512230038146972L11.334960159835816,3.2187590381469726ZM5.824310159835815,6.5009900381469725C5.824310159835815,6.650520038146973,5.771540159835816,6.7952600381469725,5.675290159835816,6.909700038146973Q3.8354501598358155,9.097780038146972,3.8354501598358155,11.929290038146974Q3.8354501598358155,15.211750038146972,6.2208901598358155,17.535350038146973Q8.613340159835815,19.865650038146974,12.000150159835815,19.865650038146974Q15.387000159835816,19.865650038146974,17.779400159835816,17.535350038146973Q20.164900159835817,15.211750038146972,20.164900159835817,11.929290038146974Q20.164900159835817,9.097780038146972,18.324800159835817,6.909890038146973C18.228800159835814,6.7952600381469725,18.176000159835816,6.650520038146973,18.176000159835816,6.5009900381469725C18.176000159835816,6.150280038146972,18.460300159835818,5.865990038146973,18.811000159835814,5.865990038146973C18.998400159835814,5.865990038146973,19.176300159835815,5.948810038146973,19.297000159835815,6.092270038146973Q21.435500159835815,8.634510038146972,21.435400159835815,11.929290038146974Q21.435400159835815,13.805150038146973,20.691300159835816,15.518850038146972Q19.973500159835815,17.17185003814697,18.666000159835814,18.445450038146973Q17.360200159835813,19.71745003814697,15.667500159835816,20.414750038146973Q13.916300159835815,21.136250038146972,12.000150159835815,21.136250038146972Q10.084050159835815,21.136250038146972,8.332790159835817,20.414750038146973Q6.6401601598358155,19.71745003814697,5.334330159835815,18.445450038146973Q4.026760159835815,17.17185003814697,3.3089741598358153,15.518850038146972Q2.5648591518358153,13.805150038146973,2.5648589134358155,11.929290038146974Q2.5648591518358153,8.634510038146972,4.703110159835815,6.092080038146973C4.823990159835816,5.948810038146973,5.0018601598358154,5.865990038146973,5.189310159835816,5.865990038146973C5.540010159835815,5.865990038146973,5.824310159835815,6.150280038146972,5.824310159835815,6.5009900381469725Z" fill-rule="evenodd" fill="#283248" fill-opacity="1"/></g></g></svg>