<svg xmlns="http://www.w3.org/2000/svg" xmlns:xlink="http://www.w3.org/1999/xlink" fill="none" version="1.1" width="24" height="24" viewBox="0 0 24 24"><g><g><path d="M12.276070038146973,5.164980038146973L8.478480038146973,5.164980038146973Q7.029430038146973,5.164980038146973,6.401310038146972,5.500900038146972Q5.814690038146972,5.814630038146973,5.500960038146973,6.401240038146973Q5.165040038146973,7.029360038146972,5.165040038146973,8.478420038146972L5.165040038146973,15.521500038146973Q5.165040038146973,16.970600038146973,5.500960038146973,17.598700038146973Q5.814690038146972,18.185300038146973,6.401310038146972,18.49910003814697Q7.029420038146973,18.835000038146973,8.478480038146973,18.835000038146973L15.521600038146973,18.835000038146973Q16.970700038146973,18.835000038146973,17.598800038146972,18.49910003814697Q18.185400038146973,18.185300038146973,18.49910003814697,17.598700038146973Q18.835000038146973,16.970600038146973,18.835000038146973,15.521500038146973L18.835000038146973,11.750670038146973C18.835000038146973,11.383400038146974,19.132800038146975,11.085670038146972,19.500000038146972,11.085670038146972C19.867300038146972,11.085670038146972,20.16500003814697,11.383400038146974,20.16500003814697,11.750670038146973L20.16500003814697,15.521500038146973Q20.16500003814697,17.30390003814697,19.671900038146973,18.225900038146975Q19.168100038146974,19.16800003814697,18.22600003814697,19.671900038146973Q17.304000038146974,20.16500003814697,15.521600038146973,20.16500003814697L8.478480038146973,20.16500003814697Q6.696110038146973,20.16500003814697,5.774080038146972,19.671900038146973Q4.831986038146972,19.16800003814697,4.328150038146973,18.225900038146975Q3.8350391387469727,17.30390003814697,3.8350390791469726,15.521500038146973L3.8350391387469727,8.478420038146972Q3.8350391387469727,6.696050038146973,4.328150038146973,5.774020038146973Q4.831986038146972,4.831925038146973,5.774080038146972,4.328089038146973Q6.696110038146973,3.834978103646973,8.478480038146973,3.8349780440469727L12.276070038146973,3.8349780440469727C12.316660038146972,3.8349780440469727,12.357170038146972,3.8386941881469725,12.397080038146973,3.8460799381469726C12.712330038146973,3.9044174381469725,12.941070038146973,4.179377038146972,12.941070038146973,4.499978038146972C12.941070038146973,4.820579038146972,12.712330038146973,5.095540038146972,12.397080038146973,5.153880038146973C12.357170038146972,5.161260038146972,12.316660038146972,5.164980038146973,12.276070038146973,5.164980038146973ZM14.510800038146973,6.548740038146972L11.894020038146973,9.165570038146972Q11.359050038146972,9.700550038146972,11.182720038146972,10.437550038146973L10.979380038146973,11.287470038146973L10.877520038146972,11.713220038146972Q10.711640038146973,12.406550038146973,11.212730038146972,12.908810038146973Q11.722610038146971,13.419890038146972,12.421200038146972,13.234980038146972L12.883170038146973,13.112710038146973L13.795700038146972,12.871190038146972Q14.478900038146973,12.690370038146973,14.986500038146973,12.184050038146973L17.598800038146972,9.578630038146972L19.51840003814697,7.663960038146973Q20.151600038146974,7.032410038146972,20.160900038146973,6.135320038146973Q20.170300038146973,5.229820038146973,19.539400038146972,4.5988890381469725Q18.904200038146975,3.9637050381469727,17.987400038146973,3.9717110381469727Q17.079900038146974,3.9796350381469727,16.447000038146975,4.612568038146973L14.510800038146973,6.548740038146972ZM18.120400038146972,7.179890038146972L16.940500038146972,5.999980038146973L17.387500038146975,5.553020038146973Q17.635600038146972,5.304830038146973,17.999000038146974,5.301660038146973Q18.358100038146972,5.298520038146973,18.598900038146972,5.539340038146973Q18.834600038146974,5.7749900381469725,18.831000038146975,6.121520038146972Q18.827300038146973,6.474790038146972,18.579200038146972,6.722280038146973L18.120400038146972,7.179890038146972ZM12.476220038146973,10.747020038146973Q12.565130038146973,10.375370038146972,12.834480038146973,10.106020038146973L15.451300038146973,7.4891900381469725L16.000000038146972,6.940440038146972L17.17870003814697,8.119110038146973L16.659500038146973,8.636950038146972L14.047300038146973,11.242370038146973Q13.792870038146972,11.496140038146972,13.455400038146973,11.585460038146973L12.542870038146972,11.826980038146973L12.195860038146973,11.918830038146973L12.272870038146973,11.596940038146972L12.476220038146973,10.747020038146973Z" fill-rule="evenodd" fill="#283248" fill-opacity="1"/></g></g></svg>