<svg width="24" height="24" viewBox="0 0 24 24" fill="none" xmlns="http://www.w3.org/2000/svg">
<path opacity="0.6" d="M16.917 16.9161C17.4533 16.3799 18.3231 16.3799 18.8594 16.9161C19.3954 17.4525 19.3946 18.3223 18.8584 18.8585C18.3222 19.3943 17.4532 19.3944 16.917 18.8585C16.3807 18.3222 16.3807 17.4525 16.917 16.9161Z" fill="#9398A3"/>
<path opacity="0.6" d="M12 7.00013C14.7614 7.00013 17 9.23871 17 12.0001C16.9999 14.7615 14.7614 17.0001 12 17.0001V7.00013Z" fill="#9398A3"/>
<path opacity="0.6" d="M20.3271 10.6271C21.0854 10.6273 21.7002 11.2418 21.7002 12.0001C21.7002 12.7584 21.0854 13.3729 20.3271 13.3732C19.5687 13.3732 18.9531 12.7586 18.9531 12.0001C18.9531 11.2417 19.5687 10.6271 20.3271 10.6271Z" fill="#9398A3"/>
<path opacity="0.6" d="M16.916 5.14076C17.4523 4.60445 18.3221 4.60445 18.8584 5.14076C19.3946 5.67707 19.3947 6.54685 18.8584 7.08314C18.3221 7.61937 17.4523 7.61937 16.916 7.08314C16.3797 6.54685 16.3798 5.67707 16.916 5.14076Z" fill="#9398A3"/>
<path fill-rule="evenodd" clip-rule="evenodd" d="M12 3.25C12.4142 3.25 12.75 3.58579 12.75 4V20C12.75 20.4142 12.4142 20.75 12 20.75C11.5858 20.75 11.25 20.4142 11.25 20V16.8564C8.89259 16.4952 7.08691 14.4584 7.08691 12C7.08718 9.54175 8.89268 7.5047 11.25 7.14355V4C11.25 3.58579 11.5858 3.25 12 3.25ZM11.25 8.66992C9.72596 9.01174 8.58717 10.3729 8.58691 12C8.58691 13.6273 9.72591 14.9881 11.25 15.3301V8.66992Z" fill="#283248"/>
<path d="M5.1416 16.918C5.67791 16.3817 6.54768 16.3817 7.08398 16.918C7.62017 17.4543 7.62025 18.3241 7.08398 18.8604C6.54771 19.3965 5.67788 19.3965 5.1416 18.8604C4.60534 18.3241 4.60542 17.4543 5.1416 16.918Z" fill="#283248"/>
<path d="M3.67285 10.627C4.43128 10.627 5.04684 11.2416 5.04688 12C5.04688 12.7585 4.4313 13.373 3.67285 13.373C2.91459 13.3728 2.2998 12.7583 2.2998 12C2.29984 11.2417 2.91462 10.6272 3.67285 10.627Z" fill="#283248"/>
<path d="M5.1416 5.1416C5.67781 4.60582 6.5468 4.60582 7.08301 5.1416C7.61931 5.67791 7.61931 6.54768 7.08301 7.08398C6.54672 7.62017 5.67789 7.62017 5.1416 7.08398C4.60529 6.54768 4.60529 5.67791 5.1416 5.1416Z" fill="#283248"/>
</svg>
