<svg xmlns="http://www.w3.org/2000/svg" xmlns:xlink="http://www.w3.org/1999/xlink" fill="none" version="1.1" width="24" height="24" viewBox="0 0 24 24"><g><g><path d="M15.176599256896973,3.1981214880991895Q13.437899256896973,3.1981214880991895,12.016179256896972,4.20874822341919Q10.594569256896973,3.1981214880991895,8.855659256896972,3.1981210112591896Q6.3794892568969725,3.1981213092791894,4.648089256896973,5.147748223419189Q2.9517383574969727,7.05791822341919,2.9517382978969726,9.74256822341919Q2.951737403896973,13.89612822341919,7.060169256896972,17.49052822341919Q8.422629256896972,18.68262822341919,9.985889256896971,19.75612822341919Q10.476099256896973,20.09272822341919,10.930459256896974,20.37892822341919Q11.164699256896972,20.526428223419188,11.305899256896973,20.60922822341919Q12.016379256896972,21.02582822341919,12.726839256896973,20.60922822341919Q12.868059256896972,20.526428223419188,13.102199256896972,20.37892822341919Q13.556399256896972,20.09272822341919,14.046699256896973,19.75602822341919Q15.609799256896972,18.68252822341919,16.972099256896975,17.49052822341919Q21.08049925689697,13.89612822341919,21.08049925689697,9.74256822341919Q21.08049925689697,7.05791822341919,19.384099256896974,5.147748223419189Q17.652699256896973,3.1981215476991895,15.176599256896973,3.1981214880991895ZM12.446709256896973,5.55775822341919C12.198409256896973,5.7686982234191895,11.833849256896972,5.76868822341919,11.585569256896973,5.55772822341919Q10.373789256896973,4.52811822341919,8.855659256896972,4.52811822341919Q6.977119256896973,4.52811822341919,5.642549256896973,6.0308982234191895Q4.281739256896973,7.563238223419189,4.281739256896973,9.74256822341919Q4.281739256896973,11.565548223419189,5.1612092568969725,13.19459822341919Q6.048649256896972,14.83842822341919,7.935939256896972,16.48962822341919Q9.239749256896973,17.63032822341919,10.738779256896972,18.65972822341919Q11.207279256896973,18.98142822341919,11.639309256896972,19.25352822341919Q11.855589256896973,19.38982822341919,11.978579256896973,19.46192822341919Q12.016339256896973,19.48402822341919,12.054099256896972,19.46192822341919Q12.177029256896972,19.38982822341919,12.393339256896972,19.25352822341919Q12.825229256896973,18.98152822341919,13.293799256896973,18.65972822341919Q14.792599256896972,17.63032822341919,16.096299256896973,16.48952822341919Q17.983599256896973,14.83842822341919,18.870999256896972,13.19458822341919Q19.750499256896973,11.565548223419189,19.750499256896973,9.74256822341919Q19.750499256896973,7.563238223419189,18.389699256896975,6.0308982234191895Q17.055099256896973,4.52811822341919,15.176599256896973,4.52811822341919Q13.658699256896973,4.52811822341919,12.446709256896973,5.55775822341919ZM16.035299256896973,10.15248822341919C16.035299256896973,10.30805822341919,15.980799256896972,10.45869822341919,15.881199256896974,10.578208223419189L13.784699256896973,13.09399822341919C13.549599256896972,13.37612822341919,13.130299256896972,13.41422822341919,12.848159256896972,13.179148223419189C12.832709256896973,13.166278223419189,12.817859256896973,13.152718223419189,12.803649256896973,13.13849822341919L10.802809256896973,11.13763822341919L9.172529256896972,13.09399822341919C9.046179256896973,13.245628223419189,8.859019256896973,13.333228223419189,8.661659256896971,13.333228223419189C8.294389256896974,13.333228223419189,7.996659256896972,13.03554822341919,7.996659256896972,12.66827822341919C7.996659256896972,12.512708223419189,8.051199256896972,12.36206822341919,8.150789256896973,12.24255822341919L10.247249256896973,9.726768223419189C10.260119256896973,9.71132822341919,10.273679256896973,9.69647822341919,10.287899256896972,9.68225822341919C10.412609256896973,9.55754822341919,10.581759256896973,9.48748822341919,10.758129256896972,9.48748822341919C10.934499256896974,9.48748822341919,11.103639256896972,9.55755822341919,11.228349256896973,9.68226822341919L13.229199256896973,11.683128223419189L14.859399256896973,9.72681822341919C14.985799256896973,9.57514822341919,15.172999256896972,9.48748822341919,15.370299256896972,9.48748822341919C15.737599256896972,9.48748822341919,16.035299256896973,9.78521822341919,16.035299256896973,10.15248822341919Z" fill-rule="evenodd" fill="#283248" fill-opacity="1" style="mix-blend-mode:passthrough"/></g></g></svg>