<svg xmlns="http://www.w3.org/2000/svg" xmlns:xlink="http://www.w3.org/1999/xlink" fill="none" version="1.1" width="24" height="24" viewBox="0 0 24 24"><g><g><path d="M17.335000038146973,6.999980038146973L17.335000038146973,5.664980038146973L12.665040038146973,5.664980038146973L12.665040038146973,18.335000038146973L14.000040038146972,18.335000038146973C14.367310038146973,18.335000038146973,14.665040038146973,18.63270003814697,14.665040038146973,19.000000038146972C14.665040038146973,19.367200038146972,14.367310038146973,19.66500003814697,14.000040038146972,19.66500003814697L10.000040038146974,19.66500003814697C9.632770038146973,19.66500003814697,9.335040038146973,19.367200038146972,9.335040038146973,19.000000038146972C9.335040038146973,18.63270003814697,9.632770038146973,18.335000038146973,10.000040038146974,18.335000038146973L11.335040038146973,18.335000038146973L11.335040038146973,5.664980038146973L6.665040038146973,5.664980038146973L6.665040038146973,6.999980038146973C6.665040038146973,7.367250038146972,6.3673100381469725,7.664980038146973,6.000039038146973,7.664980038146973C5.6327700381469725,7.664980038146973,5.335039079146973,7.367250038146972,5.335039079146973,6.999980038146973L5.335039079146973,4.999978038146972C5.335039079146973,4.632709038146973,5.6327700381469725,4.334978044046973,6.000039038146973,4.334978044046973L18.000000038146972,4.334978044046973C18.367300038146972,4.334978044046973,18.66500003814697,4.632709038146973,18.66500003814697,4.999978038146972L18.66500003814697,6.999980038146973C18.66500003814697,7.367250038146972,18.367300038146972,7.664980038146973,18.000000038146972,7.664980038146973C17.632800038146975,7.664980038146973,17.335000038146973,7.367250038146972,17.335000038146973,6.999980038146973Z" fill-rule="evenodd" fill="#283248" fill-opacity="1"/></g></g></svg>