<svg enable-background="new 0 0 18 18" viewBox="0 0 18 18" xmlns="http://www.w3.org/2000/svg"><path d="m12 12c.3 0 .5.2.5.5 0 .2-.2.4-.4.5h-.1-12c-.3 0-.5-.2-.5-.5 0-.2.2-.4.4-.5h.1zm0-3c.3 0 .5.2.5.5 0 .2-.2.4-.4.5h-.1-8c-.3 0-.5-.2-.5-.5 0-.2.2-.4.4-.5h.1zm0-3c.3 0 .5.2.5.5 0 .2-.2.4-.4.5h-.1-12c-.3 0-.5-.2-.5-.5 0-.2.2-.4.4-.5h.1zm0-3c.3 0 .5.2.5.5 0 .2-.2.4-.4.5h-.1-8c-.3 0-.5-.2-.5-.5 0-.2.2-.4.4-.5h.1zm0-3c.3 0 .5.2.5.5 0 .2-.2.4-.4.5h-.1-12c-.3 0-.5-.2-.5-.5 0-.2.2-.4.4-.5h.1z" opacity=".8" transform="translate(3 3)"/></svg>