<svg enable-background="new 0 0 18 18" viewBox="0 0 18 18" xmlns="http://www.w3.org/2000/svg"><g opacity=".8" transform="translate(2 3)"><path d="m13 9c.3 0 .5.2.5.5 0 .2-.2.4-.4.5h-.1-5c-.3 0-.5-.2-.5-.5 0-.2.2-.4.4-.5h.1z"/><path d="m13 12c.3 0 .5.2.5.5 0 .2-.2.4-.4.5h-.1-9c-.3 0-.5-.2-.5-.5 0-.2.2-.4.4-.5h.1z"/><path d="m6 3c.3 0 .5.2.5.5 0 .2-.2.4-.4.5h-.1-5c-.3 0-.5-.2-.5-.5 0-.2.2-.4.4-.5h.1z"/><path d="m10 0c.3 0 .5.2.5.5 0 .2-.2.4-.4.5h-.1-9c-.3 0-.5-.2-.5-.5 0-.2.2-.4.4-.5h.1z"/></g></svg>