<svg enable-background="new 0 0 18 18" viewBox="0 0 18 18" xmlns="http://www.w3.org/2000/svg"><path d="m5.1 5.7c.2.3.4.3.8.2.3-.3.3-.5.1-.8 0-.2-.2-.4-.6-.8-.2-.3-.3-.5-.4-.6-.2-.2-.5-.3-.8-.1s-.3.5-.2.7c.5.5.8 1 1.1 1.4zm1.9 2.9h.1c1.4-.3 2.5-.7 3.5-1.2.9.5 2 .8 3.3 1 .4.1.6 0 .7-.4.1-.3-.1-.5-.4-.6-1-.1-1.8-.3-2.6-.6.8-.5 1.5-1.1 2-1.8.2-.3.4-.6.4-.8 0-.3-.2-.5-.6-.5h-6.1c-.3 0-.4.2-.5.5 0 .3.2.4.5.5h.3c0 .1 0 .2.1.3.4.8 1 1.4 1.7 1.9-.8.3-1.7.6-2.8.8-.3.1-.5.3-.4.6s.4.4.7.4zm3.6-2.3c-.8-.5-1.4-1-1.9-1.7h3.8.1v.1c-.5.7-1.1 1.2-2 1.6zm0 8.3c.3 0 .5-.2.6-.6v-1.6h3.1c.3 0 .4-.2.5-.5 0-.3-.2-.4-.5-.5h-3.1v-1.3h2.6c.3 0 .4-.2.5-.5 0-.3-.2-.4-.5-.5h-2.6v-.7c0-.3-.2-.5-.6-.5-.3 0-.5.2-.5.5v.7h-2.4c-.3 0-.4.2-.5.5 0 .3.2.5.5.5h2.4v1.3h-2.8c-.2 0-.3.1-.4.3-.2-.1-.4-.1-.6 0 0 0 0 0-.1.1l-.2.4c-.1.1-.2.2-.3.3-.1 0-.1 0-.1-.1v-4.5c0-.4-.2-.6-.7-.7h-1.1c-.3 0-.5.2-.5.5s.2.5.5.5h.6c.2 0 .2.1.2.2v5c.1.8.5 1 1.2.6.2-.2.5-.5.9-.9l.4-.4v-.1h.2 2.8v1.6c0 .2.2.4.5.4z"/><path d="m9 18c-5 0-9-4-9-9s4-9 9-9 9 4 9 9-4 9-9 9zm0-17c-4.4 0-8 3.6-8 8s3.6 8 8 8 8-3.6 8-8-3.6-8-8-8z"/></svg>