<svg fill="none" height="18" viewBox="0 0 18 18" width="18" xmlns="http://www.w3.org/2000/svg"><g fill="#283248"><path d="m0 0h20v20h-20z" opacity="0"/><path d="m15.87848293 9.17787067q.39962.46145.14596 1.01668-.25366.55524-.86409.55524h-4.320596q-.610436 0-.8640963-.55524-.2536607-.55523.1459633-1.01668l2.160299-2.494496q.28412-.328079.71813-.328079.43401 0 .71813.328079zm-1.1339.98198-2.16029-2.494496q.16449.189941.41576.189941.25127 0 .41576-.18994l-2.1603 2.494495q.23137-.26715.08451-.58861-.14686-.32145-.500266-.32145h4.320596q-.35341 0-.50027.32145-.14686.32146.0845.58861z" transform="matrix(0 1 -1 0 16.999844 -3.000262)"/><path d="m13.00005293 9.24979067v.75l-.53033-.53033 1-.999999.77244-.772445q.31382-.313814.75789-.313814.44407 0 .75789.313814l.77244.772444 1 1q.05223.05223.09327.11365.04104.06142.06931.12967.02827.06824.04268.14069.01441.07245.01441.14632 0 .07387-.01441.14632-.01441.07245-.04268.14069-.02827.06825-.06931.12967-.04104.06142-.09327.11365-.05223.05223-.11365.09327-.06142.04104-.12967.06931-.06824.02827-.14069.04268-.07245.01441-.14632.01441-.07387 0-.14632-.01441-.07245-.01441-.14069-.04268-.06825-.02827-.12967-.06931-.06142-.04104-.11365-.09327l-1-1-.77244-.772444q.12552.125526.30277.125526.17725 0 .30277-.125526l-.77244.772444-1 1q-.105489.10549-.243317.16258-.137829.05709-.287013.05709-.0738685 0-.146318-.01441-.072449-.01441-.140695-.04268-.068245-.02827-.129665-.06931-.061419-.04104-.113652-.09327-.052233-.05223-.093272-.11365-.041039-.06142-.069308-.12967-.028268-.06824-.042679-.14069-.014411-.07245-.014411-.14632 0-.07387.014411-.14632.014411-.07245.042679-.14069.028269-.06825.069308-.12967.041039-.06142.093272-.11365.052233-.05223.113652-.09327.06142-.04104.129665-.06931.068246-.02827.140695-.04268.0724495-.01441.146318-.01441zm.75.75q0 .07387-.014411.14632-.014411.07245-.042679.14069-.028269.06825-.069308.12967-.041039.06142-.093272.11365-.052233.05223-.113652.09327-.06142.04104-.129665.06931-.068246.02827-.140695.04268-.0724495.01441-.146318.01441-.0738685 0-.146318-.01441-.072449-.01441-.140695-.04268-.068245-.02827-.129665-.06931-.061419-.04104-.113652-.09327-.052233-.05223-.093272-.11365-.041039-.06142-.069308-.12967-.028268-.06824-.042679-.14069-.014411-.07245-.014411-.14632 0-.07387.014411-.14632.014411-.07245.042679-.14069.028269-.06825.069308-.12967.041039-.06142.093272-.11365.052233-.05223.113652-.09327.06142-.04104.129665-.06931.068246-.02827.140695-.04268.0724495-.01441.146318-.01441.0738685 0 .146318.01441.072449.01441.140695.04268.068245.02827.129665.06931.061419.04104.113652.09327.052233.05223.093272.11365.041039.06142.069308.12967.028268.06824.042679.14069.014411.07245.014411.14632zm4 0q0 .07387-.01441.14632-.01441.07245-.04268.14069-.02827.06825-.06931.12967-.04104.06142-.09327.11365-.05223.05223-.11365.09327-.06142.04104-.12967.06931-.06824.02827-.14069.04268-.07245.01441-.14632.01441-.07387 0-.14632-.01441-.07245-.01441-.14069-.04268-.06825-.02827-.12967-.06931-.06142-.04104-.11365-.09327-.05223-.05223-.09327-.11365-.04104-.06142-.06931-.12967-.02827-.06824-.04268-.14069-.01441-.07245-.01441-.14632 0-.07387.01441-.14632.01441-.07245.04268-.14069.02827-.06825.06931-.12967.04104-.06142.09327-.11365.05223-.05223.11365-.09327.06142-.04104.12967-.06931.06824-.02827.14069-.04268.07245-.01441.14632-.01441.07387 0 .14632.01441.07245.01441.14069.04268.06825.02827.12967.06931.06142.04104.11365.09327.05223.05223.09327.11365.04104.06142.06931.12967.02827.06824.04268.14069.01441.07245.01441.14632z" transform="matrix(0 1 -1 0 20.999844 -5.000262)"/><path d="m10 3q-.17184 0-.34347.0084318-.17164.0084318-.34265.0252751-.17101.0168433-.34099.0420575-.16998.0252146-.33852.0587386-.16854.033524-.33523.075278-.16669.041754-.33113.091637-.16444.049882-.32624.107773-.16179.057892-.32055.123652-.15876.065761-.31411.139232-.15534.073471-.30689.154476-.15155.081005-.29894.169348-.14739.088341-.29027.183811-.14288.09547-.28091.19784-.13802.10236-.27085.21138-.13284.10901-.26016.22441-.12733.1154-.24884.23691-.12151.12151-.23691.24884-.1154.12732-.22441.26016-.10902.13283-.21138.27085-.10237.13803-.19784.28091-.09547.14288-.18381.29027-.088344.14739-.169349.29894-.081005.15155-.154476.30689-.073471.15535-.139232.31411-.06576.15876-.123652.32055-.057891.1618-.107773.32624-.049883.16444-.091637.33113-.041754.16669-.075278.33523-.033524.16854-.0587386.33852-.0252142.16998-.0420575.34099-.0168433.17101-.0252751.34265-.0084318.17163-.0084318.34347 0 .17184.0084318.34347.0084318.17164.0252751.34265.0168433.17101.0420575.34099.0252146.16998.0587386.33852.033524.16854.075278.33523.041754.16669.091637.33113.049882.16444.107773.32624.057892.16179.123652.32055.065761.15876.139232.3141.073471.15532.154476.30692.081005.1515.169348.2989.088341.1474.183811.2903.09547.1429.19784.2809.10236.138.21138.2709.10901.1328.22441.2601.1154.1273.23691.2488.12151.1216.24884.237.12732.1154.26016.2244.13283.109.27085.2114.13803.1023.28091.1978.14288.0955.29027.1838.14739.0883.29894.1693.15155.0811.30689.1545.15535.0735.31411.1393.15876.0657.32055.1236.1618.0579.32624.1078.16444.0499.33113.0916.16669.0418.33523.0753.16854.0335.33852.0587.16998.0252.34099.0421.17101.0168.34265.0253.17163.0084.34347.0084.17184 0 .34347-.0084.17164-.0085.34265-.0253.17101-.0169.34099-.0421.16998-.0252.33852-.0587.16854-.0335.33523-.0753.16669-.0417.33113-.0916.16444-.0499.32624-.1078.16179-.0579.32055-.1236.15876-.0658.3141-.1393.15532-.0734.30692-.1545.1515-.081.2989-.1693.1474-.0883.2903-.1838.1429-.0955.2809-.1978.138-.1024.2709-.2114.1328-.109.2601-.2244.1273-.1154.2488-.237.1216-.1215.237-.2488.1154-.1273.2244-.2601.109-.1329.2114-.2709.1023-.138.1978-.2809.0955-.1429.1838-.2903.0883-.1474.1693-.2989.0811-.1516.1545-.30692.0735-.15534.1393-.3141.0657-.15876.1236-.32055.0579-.1618.1078-.32624.0499-.16444.0916-.33113.0418-.16669.0753-.33523.0335-.16854.0587-.33852.0252-.16998.0421-.34099.0168-.17101.0253-.34265.0084-.17163.0084-.34347 0-.17184-.0084-.34347-.0085-.17164-.0253-.34265-.0169-.17101-.0421-.34099-.0252-.16998-.0587-.33852-.0335-.16854-.0753-.33523-.0417-.16669-.0916-.33113-.0499-.16444-.1078-.32624-.0579-.16179-.1236-.32055-.0658-.15876-.1393-.31411-.0734-.15534-.1545-.30689-.081-.15155-.1693-.29894-.0883-.14739-.1838-.29027-.0955-.14288-.1978-.28091-.1024-.13802-.2114-.27085-.109-.13284-.2244-.26016-.1154-.12733-.237-.24884-.1215-.12151-.2488-.23691-.1273-.1154-.2601-.22441-.1329-.10902-.2709-.21138-.138-.10237-.2809-.19784-.1429-.09547-.2903-.18381-.1474-.088344-.2989-.169349-.1516-.081005-.30692-.154476-.15534-.073471-.3141-.139232-.15876-.06576-.32055-.123652-.1618-.057891-.32624-.107773-.16444-.049883-.33113-.091637-.16669-.041754-.33523-.075278-.16854-.033524-.33852-.0587386-.16998-.0252142-.34099-.0420575-.17101-.0168433-.34265-.0252751-.17163-.0084318-.34347-.0084318zm-3.88909 10.8891q-1.61091-1.61093-1.61091-3.8891 0-2.27817 1.61091-3.88909 1.61092-1.61091 3.88909-1.61091 2.27817 0 3.8891 1.61091 1.6109 1.61092 1.6109 3.88909 0 2.27817-1.6109 3.8891-1.61093 1.6109-3.8891 1.6109-2.27817 0-3.88909-1.6109z" fill-rule="evenodd"/></g></svg>