<svg xmlns="http://www.w3.org/2000/svg" xmlns:xlink="http://www.w3.org/1999/xlink" fill="none" version="1.1" width="24" height="24" viewBox="0 0 24 24"><defs><clipPath id="master_svg0_14861_96787"><rect x="0" y="0" width="24" height="24" rx="0"/></clipPath></defs><g clip-path="url(#master_svg0_14861_96787)"><g><path d="M15.555799561309815,2.8974781036376953Q13.562399561309814,2.8974781036376953,12.000069561309815,4.131558103637696Q10.437969561309814,2.8974781036376953,8.444229561309815,2.8974781036376953Q5.888219561309814,2.8974779248236953,4.096899561309814,4.869158103637695Q2.3350000977518146,6.808458103637696,2.3349995613098145,9.535868103637696Q2.3349995017052145,11.817158103637695,3.4983295613098147,13.855778103637695Q4.578069561309814,15.747978103637696,6.779909561309815,17.616878103637696Q8.289389561309815,18.898178103637694,10.022449561309815,20.052778103637696Q10.565299561309814,20.414378103637695,11.067469561309814,20.721278103637694Q11.323799561309814,20.877878103637695,11.475299561309814,20.964078103637696Q12.000299561309815,21.262678103637697,12.525299561309815,20.964078103637696Q12.676799561309814,20.877878103637695,12.933099561309815,20.721178103637694Q13.435199561309814,20.414378103637695,13.977999561309815,20.052678103637696Q15.710799561309814,18.898078103637694,17.220099561309816,17.616878103637696Q19.421899561309814,15.747978103637696,20.501699561309813,13.855778103637695Q21.664999561309813,11.817158103637695,21.664999561309813,9.535868103637696Q21.664999561309813,6.808468103637695,19.903099561309816,4.869158103637695Q18.111799561309816,2.8974780440330954,15.555799561309815,2.8974781036376953ZM12.457299561309814,5.493638103637695C12.200809561309814,5.736528103637696,11.799179561309815,5.7365081036376955,11.542729561309814,5.493588103637695Q10.206039561309815,4.227478103637695,8.444229561309815,4.227478103637695Q6.4768195613098145,4.227478103637695,5.081299561309814,5.763508103637696Q3.6649995613098145,7.322408103637695,3.6649995613098145,9.535868103637696Q3.6649995613098145,11.464378103637696,4.653489561309815,13.196678103637696Q5.6172095613098145,14.885478103637695,7.640579561309814,16.602878103637693Q9.091109561309814,17.834178103637697,10.759849561309814,18.945878103637696Q11.280979561309815,19.293078103637697,11.760969561309814,19.586378103637696Q11.897979561309814,19.670078103637696,12.000259561309814,19.730678103637697Q12.102529561309815,19.670078103637696,12.239499561309815,19.586378103637696Q12.719299561309814,19.293078103637697,13.240499561309814,18.945878103637696Q14.908999561309814,17.834178103637697,16.359399561309814,16.602878103637693Q18.382799561309813,14.885478103637695,19.346499561309816,13.196678103637696Q20.334999561309814,11.464388103637695,20.334999561309814,9.535868103637696Q20.334999561309814,7.322408103637695,18.918699561309815,5.763508103637696Q17.523199561309816,4.227478103637695,15.555799561309815,4.227478103637695Q13.794299561309815,4.227478103637695,12.457299561309814,5.493638103637695Z" fill-rule="evenodd" fill="#283248" fill-opacity="1"/></g></g></svg>