<svg xmlns="http://www.w3.org/2000/svg" xmlns:xlink="http://www.w3.org/1999/xlink" fill="none" version="1.1" width="24" height="24" viewBox="0 0 24 24"><defs><clipPath id="master_svg0_14861_97048"><rect x="0" y="0" width="24" height="24" rx="0"/></clipPath></defs><g clip-path="url(#master_svg0_14861_97048)"><g><path d="M12.0000309375,4.1315409375000005Q13.5623609375,2.8974609375,15.5557609375,2.8974609375Q18.1117609375,2.8974609375,19.9030609375,4.8691409375Q21.6649609375,6.8084509375,21.6649609375,9.535850937500001Q21.6649609375,11.8171409375,20.5016609375,13.8557609375Q19.4218609375,15.7479609375,17.2200609375,17.6168609375Q15.7107609375,18.8980609375,13.9779609375,20.0526609375Q13.4351609375,20.4143609375,12.9330609375,20.7211609375Q12.6767609375,20.8778609375,12.5252609375,20.9640609375Q12.0002609375,21.2626609375,11.4752609375,20.9640609375Q11.3237609375,20.8778609375,11.0674309375,20.7212609375Q10.5652609375,20.4143609375,10.0224109375,20.0527609375Q8.2893509375,18.8981609375,6.7798709375,17.6168609375Q4.5780309374999995,15.7479609375,3.4982909375,13.8557609375Q2.3349609375,11.8171409375,2.3349609375,9.535850937500001Q2.3349609375,6.8084409375,4.0968609375,4.8691409375Q5.8881809375,2.8974609375,8.4441909375,2.8974609375Q10.4379309375,2.8974609375,12.0000309375,4.1315409375000005Z" fill-rule="evenodd" fill="#283248" fill-opacity="1"/></g></g></svg>