<svg width="24" height="24" viewBox="0 0 24 24" fill="none" xmlns="http://www.w3.org/2000/svg">
<circle cx="12" cy="7.5" r="4" stroke="#283248" stroke-width="1.33" stroke-linejoin="round"/>
<path d="M18.4414 9.5C18.6726 8.86045 18.7987 8.17041 18.7987 7.45084C18.7987 6.768 18.6852 6.11175 18.476 5.5" stroke="#283248" stroke-width="1.33" stroke-linecap="round" stroke-linejoin="round"/>
<path d="M5.55859 9.5C5.32736 8.86045 5.20127 8.17041 5.20127 7.45084C5.20127 6.768 5.31482 6.11175 5.52401 5.5" stroke="#283248" stroke-width="1.33" stroke-linecap="round" stroke-linejoin="round"/>
<path d="M5 19.5L5.01666 19.0305C5.01554 15.3311 6.43221 12.7126 9.26667 11.1748C9.31134 11.1506 9.35533 11.1267 9.39865 11.1033L9.76 10.9" stroke="#283248" stroke-width="1.33" stroke-linecap="round" stroke-linejoin="round"/>
<path d="M19 19.5L18.9898 19.0305C18.991 15.3311 17.5777 12.7126 14.75 11.1748C14.6962 11.1456 14.6434 11.1168 14.5915 11.0887L14.25 10.9" stroke="#283248" stroke-width="1.33" stroke-linecap="round" stroke-linejoin="round"/>
<path fill-rule="evenodd" clip-rule="evenodd" d="M7.33496 7.49996C7.33496 4.92355 9.42355 2.83496 12 2.83496C14.5764 2.83496 16.665 4.92355 16.665 7.49996C16.665 8.76299 16.163 9.90878 15.3477 10.7487C18.2353 12.441 19.6541 15.2481 19.6548 19.0233L19.6648 19.4856C19.6727 19.8528 19.3815 20.1569 19.0143 20.1648C18.6471 20.1728 18.343 19.8815 18.3351 19.5144L18.3249 19.0448L18.3248 19.0303C18.3258 15.5305 17.0097 13.1606 14.4322 11.759L14.274 11.673L14.1839 11.6232C13.5323 11.9691 12.789 12.165 12 12.165C11.2139 12.165 10.4733 11.9706 9.82352 11.6272L9.71553 11.6879L9.58375 11.7593C6.99945 13.1613 5.68057 15.5313 5.68163 19.0302C5.68163 19.0382 5.68149 19.0461 5.68121 19.054L5.66455 19.5236C5.65153 19.8906 5.34343 20.1776 4.97639 20.1646C4.60935 20.1515 4.32236 19.8434 4.33539 19.4764L4.35163 19.0186C4.35351 15.2498 5.77252 12.4466 8.65798 10.7547C7.83928 9.91421 7.33496 8.76598 7.33496 7.49996ZM12 4.16496C10.1581 4.16496 8.66496 5.65809 8.66496 7.49996C8.66496 9.34183 10.1581 10.835 12 10.835C13.8418 10.835 15.335 9.34183 15.335 7.49996C15.335 5.65809 13.8418 4.16496 12 4.16496Z" fill="#283248"/>
<path d="M18.2607 4.87079C18.6082 4.75196 18.9863 4.93733 19.1051 5.28484C19.3377 5.96495 19.4636 6.69387 19.4636 7.45086C19.4636 8.24861 19.3238 9.01511 19.0667 9.72613C18.9418 10.0715 18.5606 10.2503 18.2152 10.1254C17.8698 10.0005 17.691 9.61929 17.8159 9.27391C18.0213 8.70584 18.1336 8.09224 18.1336 7.45086C18.1336 6.84218 18.0325 6.25858 17.8467 5.7152C17.7278 5.36768 17.9132 4.98963 18.2607 4.87079Z" fill="#283248"/>
<path d="M4.89477 5.28484C5.01361 4.93733 5.39166 4.75196 5.73917 4.87079C6.08668 4.98963 6.27206 5.36768 6.15322 5.7152C5.9674 6.25858 5.86625 6.84218 5.86625 7.45086C5.86625 8.09224 5.97856 8.70584 6.18395 9.27391C6.30883 9.61929 6.13007 10.0005 5.78469 10.1254C5.4393 10.2503 5.05808 10.0715 4.9332 9.72613C4.67612 9.01511 4.53625 8.24861 4.53625 7.45086C4.53625 6.69387 4.66219 5.96495 4.89477 5.28484Z" fill="#283248"/>
</svg>
