<svg xmlns="http://www.w3.org/2000/svg" xmlns:xlink="http://www.w3.org/1999/xlink" fill="none" version="1.1" width="24" height="24" viewBox="0 0 24 24"><g><g><path d="M4,6C4.55228,6,5,5.55228,5,5C5,4.447715,4.55228,4,4,4C3.447715,4,3,4.447715,3,5C3,5.55228,3.447715,6,4,6ZM20,5.665L7,5.665C6.6327300000000005,5.665,6.335,5.3672699999999995,6.335,5C6.335,4.823631,6.405060000000001,4.654486,6.52977,4.529774C6.65449,4.405062,6.82363,4.335,7,4.335L20,4.335001C20.3673,4.335001,20.665,4.632732,20.665,5C20.665,5.17637,20.5949,5.3455200000000005,20.4702,5.47023C20.3455,5.59494,20.1764,5.665,20,5.665ZM4,13C4.55228,13,5,12.55229,5,12C5,11.44772,4.55228,11,4,11C3.447715,11,3,11.44772,3,12C3,12.55229,3.447715,13,4,13ZM20,12.665L7,12.665C6.6327300000000005,12.665,6.335,12.36727,6.335,12C6.335,11.632729999999999,6.6327300000000005,11.335,7,11.335L20,11.335C20.3673,11.335,20.665,11.632729999999999,20.665,12C20.665,12.36727,20.3673,12.665,20,12.665ZM4,20C4.55228,20,5,19.552300000000002,5,19C5,18.447699999999998,4.55228,18,4,18C3.447715,18,3,18.447699999999998,3,19C3,19.552300000000002,3.447715,20,4,20ZM20,19.665L7,19.665C6.6327300000000005,19.665,6.335,19.3673,6.335,19C6.335,18.6327,6.6327300000000005,18.335,7,18.335L20,18.335C20.3673,18.335,20.665,18.6327,20.665,19C20.665,19.3673,20.3673,19.665,20,19.665Z" fill-rule="evenodd" fill="#283248" fill-opacity="1"/></g></g></svg>