<svg xmlns="http://www.w3.org/2000/svg" xmlns:xlink="http://www.w3.org/1999/xlink" fill="none" version="1.1" width="24" height="24" viewBox="0 0 24 24"><g style="mix-blend-mode:passthrough"><g style="mix-blend-mode:passthrough"><rect x="4.899999976158142" y="9.899999976158142" width="14.200000047683716" height="10.200000047683716" rx="3.100000023841858" fill-opacity="0" stroke-opacity="1" stroke="#283248" fill="none" stroke-width="1.7999999523162842"/></g><g style="mix-blend-mode:passthrough"><path d="M11.1,17L11.1,13Q11.1,12.9113578,11.117293,12.824419Q11.134587,12.73748,11.168509,12.655585Q11.20243,12.57369,11.251678,12.499987Q11.300924,12.426284,11.363604,12.363604Q11.426284,12.300924,11.499987,12.251677Q11.57369,12.20243,11.655585,12.168509Q11.73748,12.134587,11.824419,12.117293Q11.9113578,12.1,12,12.1Q12.0886422,12.1,12.175581,12.117293Q12.26252,12.134587,12.344415,12.168509Q12.42631,12.20243,12.500013,12.251678Q12.573716,12.300924,12.636396,12.363604Q12.699076,12.426284,12.748323,12.499987Q12.79757,12.57369,12.831491,12.655585Q12.865413,12.73748,12.882707,12.824419Q12.9,12.9113578,12.9,13L12.9,17Q12.9,17.088639999999998,12.882707,17.17558Q12.865413,17.262520000000002,12.831491,17.34441Q12.79757,17.42631,12.748322,17.50001Q12.699076,17.57372,12.636396,17.636400000000002Q12.573716,17.699080000000002,12.500013,17.74832Q12.42631,17.79757,12.344415,17.83149Q12.26252,17.86541,12.175581,17.88271Q12.0886422,17.9,12,17.9Q11.9113578,17.9,11.824419,17.88271Q11.73748,17.86541,11.655585,17.83149Q11.57369,17.79757,11.499987,17.74832Q11.426284,17.699080000000002,11.363604,17.636400000000002Q11.300924,17.57372,11.251677,17.50001Q11.20243,17.42631,11.168509,17.34441Q11.134587,17.262520000000002,11.117293,17.17558Q11.1,17.088639999999998,11.1,17ZM12.9,17Q12.9,17.088639999999998,12.882707,17.17558Q12.865413,17.262520000000002,12.831491,17.34441Q12.79757,17.42631,12.748322,17.50001Q12.699076,17.57372,12.636396,17.636400000000002Q12.573716,17.699080000000002,12.500013,17.74832Q12.42631,17.79757,12.344415,17.83149Q12.26252,17.86541,12.175581,17.88271Q12.0886422,17.9,12,17.9Q11.9113578,17.9,11.824419,17.88271Q11.73748,17.86541,11.655585,17.83149Q11.57369,17.79757,11.499987,17.74832Q11.426284,17.699080000000002,11.363604,17.636400000000002Q11.300924,17.57372,11.251677,17.50001Q11.20243,17.42631,11.168509,17.34441Q11.134587,17.262520000000002,11.117293,17.17558Q11.1,17.088639999999998,11.1,17Q11.1,16.911360000000002,11.117293,16.82442Q11.134587,16.73748,11.168509,16.65558Q11.20243,16.57369,11.251678,16.49999Q11.300924,16.42628,11.363604,16.363599999999998Q11.426284,16.30092,11.499987,16.25168Q11.57369,16.20243,11.655585,16.16851Q11.73748,16.13459,11.824419,16.11729Q11.9113578,16.1,12,16.1Q12.0886422,16.1,12.175581,16.11729Q12.26252,16.13459,12.344415,16.16851Q12.42631,16.20243,12.500013,16.25168Q12.573716,16.30092,12.636396,16.363599999999998Q12.699076,16.42628,12.748323,16.49999Q12.79757,16.57369,12.831491,16.65558Q12.865413,16.73748,12.882707,16.82442Q12.9,16.911360000000002,12.9,17ZM12.9,13Q12.9,13.0886422,12.882707,13.175581Q12.865413,13.26252,12.831491,13.344415Q12.79757,13.42631,12.748322,13.500013Q12.699076,13.573716,12.636396,13.636396Q12.573716,13.699076,12.500013,13.748323Q12.42631,13.79757,12.344415,13.831491Q12.26252,13.865413,12.175581,13.882707Q12.0886422,13.9,12,13.9Q11.9113578,13.9,11.824419,13.882707Q11.73748,13.865413,11.655585,13.831491Q11.57369,13.79757,11.499987,13.748322Q11.426284,13.699076,11.363604,13.636396Q11.300924,13.573716,11.251677,13.500013Q11.20243,13.42631,11.168509,13.344415Q11.134587,13.26252,11.117293,13.175581Q11.1,13.0886422,11.1,13Q11.1,12.9113578,11.117293,12.824419Q11.134587,12.73748,11.168509,12.655585Q11.20243,12.57369,11.251678,12.499987Q11.300924,12.426284,11.363604,12.363604Q11.426284,12.300924,11.499987,12.251677Q11.57369,12.20243,11.655585,12.168509Q11.73748,12.134587,11.824419,12.117293Q11.9113578,12.1,12,12.1Q12.0886422,12.1,12.175581,12.117293Q12.26252,12.134587,12.344415,12.168509Q12.42631,12.20243,12.500013,12.251678Q12.573716,12.300924,12.636396,12.363604Q12.699076,12.426284,12.748323,12.499987Q12.79757,12.57369,12.831491,12.655585Q12.865413,12.73748,12.882707,12.824419Q12.9,12.9113578,12.9,13Z" fill="#283248" fill-opacity="1"/></g><g style="mix-blend-mode:passthrough"><path d="M7.1,9L7.1,7.9823900000000005Q7.1,5.9529,8.555419,4.521172Q10.0001,3.1,12.030000000000001,3.1Q14.02223,3.1,15.45538,4.524434Q16.9,5.9602699999999995,16.9,7.9823900000000005L16.9,9L15.1,9L15.1,7.9823900000000005Q15.1,6.7090700000000005,14.18648,5.8011Q13.27986,4.9,12.030000000000001,4.9Q10.73705,4.9,9.817730000000001,5.80436Q8.9,6.70715,8.9,7.9823900000000005L8.9,9L7.1,9ZM7.1,9L8.9,9L8.900004,9.9L7.099996,9.9L7.1,9ZM15.1,9L16.9,9L16.9,9.9L15.1,9.9L15.1,9Z" fill="#283248" fill-opacity="1"/></g></g></svg>