<svg xmlns="http://www.w3.org/2000/svg" xmlns:xlink="http://www.w3.org/1999/xlink" fill="none" version="1.1" width="24" height="24" viewBox="0 0 24 24"><g><g><path d="M16.742800514984133,7.8529610308837885L19.49560051498413,6.441151030883789C19.85810051498413,6.255271030883788,19.85810051498413,5.745311030883789,19.49560051498413,5.559431030883789L16.742800514984133,4.147624530883789C16.41010051498413,3.976986030883789,16.00000051498413,4.193890030883789,16.00000051498413,4.567819030883789L16.00000051498413,5.335911030883789L9.271360514984131,5.350091030883789Q6.407920514984131,5.350091030883789,4.377920514984131,7.289391030883789Q2.335039854084131,9.240991030883789,2.3350400328841308,12.00754103088379Q2.3350393771841307,14.774041030883788,4.377920514984131,16.72574103088379Q6.407920514984131,18.66504103088379,9.272770514984131,18.66504103088379L14.727300514984131,18.66504103088379Q17.592100514984132,18.66504103088379,19.62220051498413,16.72574103088379Q21.66500051498413,14.77414103088379,21.66500051498413,12.00754103088379C21.66500051498413,11.640271030883788,21.36730051498413,11.342541030883789,21.00000051498413,11.342541030883789C20.63280051498413,11.342541030883789,20.33500051498413,11.640271030883788,20.33500051498413,12.00754103088379Q20.33500051498413,14.205341030883789,18.703400514984132,15.764041030883789Q17.05900051498413,17.335041030883787,14.727300514984131,17.335041030883787L9.272770514984131,17.335041030883787Q6.941110514984131,17.335041030883787,5.296640514984131,15.764041030883789Q3.6650405149841307,14.205341030883789,3.6650405149841307,12.00754103088379Q3.6650405149841307,9.809781030883789,5.296640514984131,8.251081030883789Q6.941110514984131,6.680091030883789,9.274170514984132,6.680091030883789L16.00000051498413,6.665911030883789L16.00000051498413,7.432761030883789C16.00000051498413,7.806691030883789,16.41010051498413,8.023601030883789,16.742800514984133,7.8529610308837885Z" fill-rule="evenodd" fill="#283248" fill-opacity="1"/></g></g></svg>