<svg xmlns="http://www.w3.org/2000/svg" xmlns:xlink="http://www.w3.org/1999/xlink" fill="none" version="1.1" width="24" height="24" viewBox="0 0 24 24"><g><g><path d="M18.6644,7.612878850860596L18.665100000000002,6.0596488508605955Q18.665399999999998,5.531878850860595,18.2798,5.264418850860595Q17.8934,4.996378850860596,17.4022,5.094008850860596Q16.918300000000002,5.190188850860595,13.2306,6.293728850860596Q10.38884,7.144098850860596,9.92875,7.250088850860596Q9.423670000000001,7.407488850860595,9.222470000000001,7.746018850860596Q8.977129999999999,8.158798850860595,8.99651,9.021718850860596C8.99651,9.021718850860596,8.99668,9.036768850860597,8.99668,9.036768850860597L8.99642,10.518908850860596L18.6644,7.612878850860596ZM18.663899999999998,9.001828850860596L8.996179999999999,11.907758850860596L8.99511,17.992458850860594C8.998370000000001,18.049458850860596,9,18.106558850860594,9,18.163658850860596C9,19.820558850860596,7.65685,21.163658850860596,6,21.163658850860596C4.34315,21.163658850860596,3,19.820558850860596,3,18.163658850860596C3,16.506858850860596,4.34315,15.163658850860596,6,15.163658850860596C6.59286,15.163658850860596,7.17242,15.339358850860595,7.66552,15.668458850860596L7.66668,9.043848850860595Q7.61385,6.556188850860596,9.568010000000001,5.969618850860596C9.58647,5.964078850860595,9.60516,5.959348850860596,9.624030000000001,5.955428850860596Q9.94324,5.889168850860596,12.84926,5.019558850860596Q16.5973,3.897971850860596,17.142899999999997,3.7895234508605955Q18.1877,3.581865850860596,19.0378,4.171587850860596Q19.9958,4.836078850860596,19.9951,6.060178850860596L19.9911,15.934258850860596C19.997,16.011158850860596,20,16.088258850860598,20,16.165458850860595C20,17.822258850860596,18.6569,19.165458850860595,17,19.165458850860595C15.3431,19.165458850860595,14,17.822258850860596,14,16.165458850860595C14,14.508558850860595,15.3431,13.165448850860596,17,13.165448850860596C17.5914,13.165448850860596,18.169600000000003,13.340258850860595,18.662,13.667898850860595L18.663899999999998,9.001828850860596ZM18.661099999999998,15.982158850860596Q18.6039,15.407558850860596,18.1809,14.984558850860596Q17.6917,14.495458850860595,17,14.495458850860595Q16.3083,14.495458850860595,15.8191,14.984558850860596Q15.33,15.473758850860596,15.33,16.165458850860595Q15.33,16.857158850860596,15.8191,17.346358850860597Q16.3083,17.835458850860597,17,17.835458850860597Q17.6917,17.835458850860597,18.1809,17.346358850860597Q18.6033,16.923858850860597,18.660899999999998,16.350258850860598L18.661099999999998,15.982158850860596ZM7.6651,18.027258850860598Q7.62107,17.423058850860595,7.18087,16.982858850860595Q6.691739999999999,16.493658850860598,6,16.493658850860598Q5.308260000000001,16.493658850860598,4.8191299999999995,16.982858850860595Q4.33,17.471958850860595,4.33,18.163658850860596Q4.33,18.855458850860593,4.8191299999999995,19.344558850860594Q5.308260000000001,19.833658850860594,6,19.833658850860594Q6.691739999999999,19.833658850860594,7.18087,19.344558850860594Q7.66431,18.861058850860594,7.66993,18.179758850860594L7.66508,18.179758850860594L7.6651,18.027258850860598Z" fill-rule="evenodd" fill="#283248" fill-opacity="1"/></g></g></svg>