<svg xmlns="http://www.w3.org/2000/svg" xmlns:xlink="http://www.w3.org/1999/xlink" fill="none" version="1.1" width="24" height="24" viewBox="0 0 24 24"><g><g><path d="M3.3350390791469726,9.666680038146973L3.3350390791469726,7.6821800381469725Q3.3350390791469726,6.302380038146973,4.278715038146973,5.3265290381469725Q5.237540038146973,4.335008740426972,6.618040038146972,4.335008800026973L12.000040038146972,4.335008561606973L17.382000038146973,4.335008561606973Q18.762200038146972,4.335008502006973,19.715800038146973,5.2976930381469725Q20.66500003814697,6.256000038146973,20.66500003814697,7.635930038146973L20.66500003814697,12.000010038146971L20.66500003814697,16.364100038146972Q20.66500003814697,17.744500038146974,19.672100038146972,18.710900038146974Q18.691900038146972,19.66500003814697,17.312000038146973,19.66500003814697L16.571500038146972,19.66500003814697C16.204200038146972,19.66500003814697,15.906500038146973,19.367300038146972,15.906500038146973,19.000000038146972C15.906500038146973,18.63270003814697,16.204200038146972,18.335000038146973,16.571500038146972,18.335000038146973L17.312000038146973,18.335000038146973Q18.15150003814697,18.335000038146973,18.744500038146974,17.757800038146975Q19.335000038146973,17.18300003814697,19.335000038146973,16.364100038146972L19.335000038146973,7.635930038146973Q19.335000038146973,6.803220038146973,18.770900038146973,6.233680038146972Q18.20760003814697,5.665010038146972,17.382000038146973,5.665010038146972L12.000040038146972,5.665010038146972L6.618040038146972,5.665010038146972Q5.8015500381469725,5.665010038146972,5.234800038146973,6.251090038146973Q4.665040038146973,6.840270038146972,4.665040038146973,7.6821800381469725L4.665040038146973,9.666680038146973C4.665040038146973,10.033940038146973,4.3673100381469725,10.331680038146972,4.000039038146973,10.331680038146972C3.6327700381469725,10.331680038146972,3.3350390791469726,10.033940038146973,3.3350390791469726,9.666680038146973ZM3.3350390791469726,19.000000038146972L3.3350390791469726,13.000010038146973C3.3350390791469726,12.632740038146972,3.6327700381469725,12.335010038146972,4.000039038146973,12.335010038146972L13.000040038146972,12.335010038146972C13.367300038146972,12.335010038146972,13.665000038146973,12.632740038146972,13.665000038146973,13.000010038146973L13.665000038146973,19.000000038146972C13.665000038146973,19.367300038146972,13.367300038146972,19.66500003814697,13.000040038146972,19.66500003814697L4.000039038146973,19.66500003814697C3.6327700381469725,19.66500003814697,3.3350390791469726,19.367300038146972,3.3350390791469726,19.000000038146972ZM12.335040038146973,18.335000038146973L4.665040038146973,18.335000038146973L4.665040038146973,13.665010038146972L12.335040038146973,13.665010038146972L12.335040038146973,18.335000038146973Z" fill-rule="evenodd" fill="#283248" fill-opacity="1"/></g></g></svg>