<svg xmlns="http://www.w3.org/2000/svg" xmlns:xlink="http://www.w3.org/1999/xlink" fill="none" version="1.1" width="24" height="24" viewBox="0 0 24 24"><g><g><path d="M3.5,12C3.5,11.171573,4.171573,10.5,5,10.5C5.82843,10.5,6.5,11.171573,6.5,12C6.5,12.82843,5.82843,13.5,5,13.5C4.171573,13.5,3.5,12.82843,3.5,12ZM10.5,12C10.5,11.171573,11.17157,10.5,12,10.5C12.82843,10.5,13.5,11.171573,13.5,12C13.5,12.82843,12.82843,13.5,12,13.5C11.17157,13.5,10.5,12.82843,10.5,12ZM17.5,12C17.5,11.171573,18.171599999999998,10.5,19,10.5C19.8284,10.5,20.5,11.171573,20.5,12C20.5,12.82843,19.8284,13.5,19,13.5C18.171599999999998,13.5,17.5,12.82843,17.5,12Z" fill="#283248" fill-opacity="1"/></g></g></svg>