<svg xmlns="http://www.w3.org/2000/svg" xmlns:xlink="http://www.w3.org/1999/xlink" fill="none" version="1.1" width="24" height="24" viewBox="0 0 24 24"><g><g><path d="M16.64936097564697,14.0330078125C19.465960975646972,14.0330078125,21.749360975646972,11.7496578125,21.749360975646972,8.9330078125C21.749360975646972,6.1163578125,19.465960975646972,3.8330078125,16.64936097564697,3.8330078125C13.832660975646972,3.8330078125,11.549350975646973,6.1163578125,11.549350975646973,8.9330078125C11.549350975646973,11.7496578125,13.832660975646972,14.0330078125,16.64936097564697,14.0330078125ZM19.35046097564697,6.2318578124999995Q20.46936097564697,7.3507078125,20.46936097564697,8.9330078125Q20.46936097564697,10.5153078125,19.35046097564697,11.6341578125Q18.231660975646975,12.7530078125,16.64936097564697,12.7530078125Q15.067060975646973,12.7530078125,13.948160975646973,11.6341578125Q12.829360975646972,10.5153078125,12.829360975646972,8.9330078125Q12.829360975646972,7.3507078125,13.948160975646973,6.2318578124999995Q15.067060975646973,5.1130078125,16.64936097564697,5.1130078125Q18.231660975646975,5.1130078125,19.35046097564697,6.2318578124999995ZM8.917960975646974,5.4756278125L3.4634179756469727,5.4756278125C3.0961489756469724,5.4756278125,2.7984179856469726,5.7733578125000005,2.7984179856469726,6.1406278125C2.7984179856469726,6.5078978124999995,3.0961489756469724,6.8056278125,3.4634179756469727,6.8056278125L8.917960975646974,6.8056278125C9.285230975646972,6.8056278125,9.582960975646973,6.5078978124999995,9.582960975646973,6.1406278125C9.582960975646973,5.7733578125000005,9.285230975646972,5.4756278125,8.917960975646974,5.4756278125ZM17.316860975646975,8.2676178125L17.316860975646975,6.9345678125C17.316860975646975,6.5672978125,17.019160975646972,6.2695678125,16.651860975646972,6.2695678125C16.284660975646972,6.2695678125,15.986860975646973,6.5672978125,15.986860975646973,6.9345678125L15.986860975646973,8.2676178125L14.649460975646972,8.2676178125C14.282160975646972,8.2676178125,13.984460975646973,8.5653478125,13.984460975646973,8.9326178125C13.984460975646973,9.2998878125,14.282160975646972,9.597617812500001,14.649460975646972,9.597617812500001L15.986860975646973,9.597617812500001L15.986860975646973,10.9345678125C15.986860975646973,11.3018378125,16.284660975646972,11.5995678125,16.651860975646972,11.5995678125C17.019160975646972,11.5995678125,17.316860975646975,11.3018378125,17.316860975646975,10.9345678125L17.316860975646975,9.597617812500001L18.649460975646974,9.597617812500001C19.016760975646974,9.597617812500001,19.314460975646973,9.2998878125,19.314460975646973,8.9326178125C19.314460975646973,8.5653478125,19.016760975646974,8.2676178125,18.649460975646974,8.2676178125L17.316860975646975,8.2676178125ZM10.008870975646973,12.1631278125L3.4634179756469727,12.1631278125C3.0961489756469724,12.1631278125,2.7984179856469726,12.4608578125,2.7984179856469726,12.8281278125C2.7984179856469726,13.1953978125,3.0961489756469724,13.4931278125,3.4634179756469727,13.4931278125L10.008870975646973,13.4931278125C10.376140975646972,13.4931278125,10.673870975646974,13.1953978125,10.673870975646974,12.8281278125C10.673870975646974,12.4608578125,10.376140975646972,12.1631278125,10.008870975646973,12.1631278125ZM3.459999975646973,18.8506078125L19.16906097564697,18.8506078125C19.53636097564697,18.8506078125,19.834060975646974,19.1483078125,19.834060975646974,19.5156078125C19.834060975646974,19.8829078125,19.53636097564697,20.1806078125,19.16906097564697,20.1806078125L3.459999975646973,20.1806078125C3.0927309756469725,20.1806078125,2.7950000166469726,19.8829078125,2.7950000166469726,19.5156078125C2.7950000166469726,19.1483078125,3.0927309756469725,18.8506078125,3.459999975646973,18.8506078125Z" fill-rule="evenodd" fill="#283248" fill-opacity="1" style="mix-blend-mode:passthrough"/></g></g></svg>