<svg width="24" height="24" viewBox="0 0 24 24" fill="none" xmlns="http://www.w3.org/2000/svg">
<path d="M7.66697 18.8441L15.5055 13.9916C16.0578 13.6497 16.4721 13.393 16.7686 13.1681V17.8436C16.7686 17.9738 16.7689 18.0427 16.7795 18.0969C16.825 18.3286 17.0076 18.5112 17.2394 18.5567C17.2935 18.5674 17.3624 18.5677 17.4926 18.5677H18.2342C18.3645 18.5677 18.4333 18.5674 18.4875 18.5567C18.7193 18.5112 18.9019 18.3286 18.9474 18.0969C18.958 18.0427 18.9583 17.9738 18.9583 17.8436V6.15324C18.9583 6.02301 18.958 5.95414 18.9474 5.89998C18.9019 5.66821 18.7193 5.4856 18.4875 5.44011C18.4333 5.42948 18.3645 5.42916 18.2342 5.42916H17.4926C17.3624 5.42916 17.2935 5.42948 17.2394 5.44011C17.0076 5.4856 16.825 5.66821 16.7795 5.89998C16.7689 5.95414 16.7686 6.02301 16.7686 6.15324V10.8317C16.4721 10.6068 16.0578 10.3501 15.5055 10.0082L7.66697 5.15565C6.82222 4.63271 6.38539 4.36501 6.03259 4.40354C5.72524 4.43712 5.44017 4.60512 5.25543 4.85881C5.0465 5.14569 5.0415 5.65372 5.0415 6.6284V17.3714C5.0415 18.3461 5.0465 18.8541 5.25543 19.141C5.44017 19.3947 5.72523 19.5627 6.03259 19.5962C6.38539 19.6348 6.82222 19.3671 7.66697 18.8441Z" fill="#283248"/>
</svg>
