<svg xmlns="http://www.w3.org/2000/svg" xmlns:xlink="http://www.w3.org/1999/xlink" fill="none" version="1.1" width="24" height="24" viewBox="0 0 24 24"><g><g><path d="M4,17.3333L4,6.66667C4,5.19391,5.19391,4,6.66667,4L17.3333,4C18.8061,4,20,5.19391,20,6.66667L20,17.3333C20,18.8061,18.8061,20,17.3333,20L6.66667,20C5.19391,20,4,18.8061,4,17.3333ZM5.33,17.3333Q5.33,17.887,5.7215,18.2785Q6.1129999999999995,18.67,6.66667,18.67L17.3333,18.67Q17.887,18.67,18.2785,18.2785Q18.67,17.887,18.67,17.3333L18.67,6.66667Q18.67,6.1129999999999995,18.2785,5.7215Q17.887,5.33,17.3333,5.33L6.66667,5.33Q6.1129999999999995,5.33,5.7215,5.7215Q5.33,6.1129999999999995,5.33,6.66667L5.33,17.3333ZM16,15.665L8,15.665C7.6327300000000005,15.665,7.335,15.3673,7.335,15C7.335,14.6327,7.6327300000000005,14.335,8,14.335L16,14.335C16.3673,14.335,16.665,14.6327,16.665,15C16.665,15.3673,16.3673,15.665,16,15.665Z" fill-rule="evenodd" fill="#283248" fill-opacity="1"/></g></g></svg>