<svg width="24" height="24" viewBox="0 0 24 24" fill="none" xmlns="http://www.w3.org/2000/svg">
<path d="M21.9473 14.4932C22.2272 14.1879 22.7015 14.1674 23.0068 14.4473C23.3121 14.7272 23.3326 15.2015 23.0527 15.5068L17.5527 21.5068C17.4146 21.6575 17.221 21.7455 17.0166 21.75C16.8121 21.7544 16.6144 21.6749 16.4697 21.5303L13.4697 18.5303L13.418 18.4736C13.1777 18.1791 13.1951 17.7443 13.4697 17.4697C13.7443 17.1951 14.1791 17.1777 14.4736 17.418L14.5303 17.4697L16.9756 19.915L21.9473 14.4932Z" fill="#283248"/>
<path d="M5.5957 7.71582C5.97363 7.75448 6.26855 8.07378 6.26855 8.46191V17.6553L6.81543 17.3438C7.17501 17.1385 7.63342 17.2635 7.83887 17.623C8.04372 17.9825 7.91883 18.4411 7.55957 18.6465L5.8916 19.5996C5.65971 19.732 5.37363 19.7305 5.14258 19.5967C4.9117 19.4626 4.76877 19.2152 4.76855 18.9482V9.21191H3.37402C2.96019 9.21178 2.62347 8.87568 2.62305 8.46191C2.62305 8.04778 2.95992 7.71205 3.37402 7.71191H5.51855L5.5957 7.71582Z" fill="#283248"/>
<path d="M14.5537 10.333C15.2327 10.3333 15.7831 10.8845 15.7832 11.5635V13C15.7831 13.4141 15.4473 13.7499 15.0332 13.75C14.6192 13.7498 14.2833 13.414 14.2832 13V11.833H11.0166V15C11.0165 15.4141 10.6807 15.7499 10.2666 15.75C9.85256 15.7499 9.5167 15.414 9.5166 15V11.5635C9.5167 10.8843 10.0679 10.3331 10.7471 10.333H14.5537Z" fill="#283248"/>
<path d="M17.5869 3.18262C18.5753 3.18275 19.3768 3.98426 19.377 4.97266V13C19.3768 13.414 19.041 13.7499 18.627 13.75C18.2131 13.7497 17.8771 13.4139 17.877 13V4.97266C17.8768 4.81269 17.7469 4.68275 17.5869 4.68262H10C9.58594 4.68249 9.25007 4.34669 9.25 3.93262C9.25013 3.5186 9.58598 3.18275 10 3.18262H17.5869Z" fill="#283248"/>
<path d="M15.1104 7C15.4882 7.03866 15.7831 7.35807 15.7832 7.74609C15.7831 8.13416 15.4882 8.45351 15.1104 8.49219L15.0332 8.49609H10.2666C9.85254 8.49596 9.51667 8.16017 9.5166 7.74609C9.51673 7.33207 9.85258 6.99623 10.2666 6.99609H15.0332L15.1104 7Z" fill="#283248"/>
<path d="M3.42383 3.51953C3.67248 3.22134 4.10388 3.16527 4.41895 3.37793L4.48047 3.42383L6.04004 4.72363L6.09668 4.77637C6.3621 5.04802 6.38417 5.48216 6.13574 5.78027C5.87055 6.09776 5.39806 6.14067 5.08008 5.87598L3.51953 4.57617L3.46387 4.52441C3.19774 4.25293 3.17547 3.81796 3.42383 3.51953Z" fill="#283248"/>
</svg>
