<svg xmlns="http://www.w3.org/2000/svg" xmlns:xlink="http://www.w3.org/1999/xlink" fill="none" version="1.1" width="24" height="24" viewBox="0 0 24 24"><g><g><path d="M9.901020038146973,11.030660038146973L19.628700038146974,11.030650038146973Q20.475200038146973,11.030650038146973,20.974000038146972,11.714610038146972Q21.47280003814697,12.398570038146973,21.214000038146974,13.204570038146972L19.511200038146974,18.508900038146972Q19.345400038146973,19.025600038146973,18.907000038146972,19.345300038146974Q18.46850003814697,19.66500003814697,17.92590003814697,19.66500003814697L5.000000038146973,19.66500003814697Q4.310334038146973,19.66500003814697,3.8226670381469727,19.177300038146974Q3.3349999785423727,18.689700038146974,3.3350000381469727,18.000000038146972L3.3350000381469727,6.000000038146973Q3.3350000381469727,5.310335038146973,3.8226670381469727,4.822667038146973Q4.310334038146973,4.335000038146973,5.000000038146973,4.335000038146973L7.678170038146972,4.335000038146973Q8.386260038146972,4.335000038146973,8.877450038146971,4.845030038146973L11.218470038146972,7.2758600381469725Q11.317290038146972,7.378480038146973,11.459760038146973,7.378480038146973L18.655200038146972,7.378480038146973C19.022400038146973,7.378480038146973,19.32020003814697,7.676210038146973,19.32020003814697,8.043480038146972C19.32020003814697,8.410750038146972,19.022400038146973,8.708480038146973,18.655200038146972,8.708480038146973L11.459760038146973,8.708480038146973Q10.751670038146973,8.708480038146973,10.260490038146973,8.198450038146973L7.919460038146973,5.767620038146973Q7.820640038146973,5.665000038146973,7.678170038146972,5.665000038146973L5.000000038146973,5.665000038146973Q4.665000038146973,5.665000038146973,4.665000038146973,6.000000038146973L4.665000038146973,18.000000038146972Q4.665000038146973,18.138800038146975,4.7631200381469725,18.23690003814697Q4.861240038146972,18.335000038146973,5.000000038146973,18.335000038146973L17.92590003814697,18.335000038146973Q18.170200038146973,18.335000038146973,18.244900038146973,18.102400038146975L19.947700038146973,12.798050038146974Q19.999700038146973,12.635880038146972,19.899400038146972,12.498270038146973Q19.79900003814697,12.360650038146973,19.628700038146974,12.360650038146973L9.901030038146972,12.360660038146973C9.533760038146973,12.360660038146973,9.236030038146973,12.062930038146973,9.236030038146973,11.695660038146972C9.236030038146973,11.328390038146972,9.533760038146973,11.030660038146973,9.901020038146973,11.030660038146973Z" fill-rule="evenodd" fill="#283248" fill-opacity="1"/></g></g></svg>