<svg xmlns="http://www.w3.org/2000/svg" xmlns:xlink="http://www.w3.org/1999/xlink" fill="none" version="1.1" width="24" height="24" viewBox="0 0 24 24"><g><g><path d="M17.747319960021972,8.91562937362671L20.926419960021974,6.927379373626708C21.248519960021973,6.725929373626709,21.248519960021973,6.267059373626709,20.926419960021974,6.065599373626709L17.747319960021972,4.077356873626709C17.404819960021975,3.8631343736267088,17.000019960021973,4.140709373626709,17.000019960021973,4.544715373626709L17.000019960021973,5.838229373626709L3.992958960021973,5.838229373626709C3.6256899600219725,5.838229373626709,3.3279590010219726,6.135959373626709,3.3279590010219726,6.503229373626709C3.3279590010219726,6.870499373626709,3.6256899600219725,7.168229373626708,3.992958960021973,7.168229373626708L17.000019960021973,7.168229373626708L17.000019960021973,8.448269373626708C17.000019960021973,8.852269373626708,17.404819960021975,9.129849373626708,17.747319960021972,8.91562937362671ZM17.747319960021972,19.85564937362671L20.926419960021974,17.86734937362671C21.248519960021973,17.66594937362671,21.248519960021973,17.20704937362671,20.926419960021974,17.00564937362671L17.747319960021972,15.01734937362671C17.404819960021975,14.80314937362671,17.000019960021973,15.080749373626709,17.000019960021973,15.484749373626709L17.000019960021973,16.83574937362671L4.000038960021973,16.83574937362671C3.6327699600219727,16.83574937362671,3.3350390800219727,17.13344937362671,3.3350390800219727,17.50074937362671C3.3350390800219727,17.86804937362671,3.6327699600219727,18.16574937362671,4.000038960021973,18.16574937362671L17.000019960021973,18.16574937362671L17.000019960021973,19.388249373626707C17.000019960021973,19.79224937362671,17.404819960021975,20.06984937362671,17.747319960021972,19.85564937362671Z" fill-rule="evenodd" fill="#283248" fill-opacity="1" style="mix-blend-mode:passthrough"/></g></g></svg>