<svg width="18" height="18" viewBox="0 0 18 18" fill="none" xmlns="http://www.w3.org/2000/svg">
<path d="M8.10608 5.18773C8.10658 4.07735 9.3387 3.40993 10.2689 4.01659L15.9613 7.7285C16.9887 8.39869 16.9885 9.90433 15.9613 10.5747L10.2689 14.2866C9.3386 14.8933 8.10631 14.2261 8.10608 13.1155V12.0051L4.60803 14.2866C3.67771 14.8933 2.44542 14.2261 2.44519 13.1155V5.18773C2.44569 4.07741 3.67783 3.41009 4.60803 4.01659L8.10608 6.29735V5.18773ZM4.06311 4.85228C3.79642 4.67851 3.44325 4.86955 3.44275 5.18773V13.1155C3.44298 13.4339 3.7963 13.6249 4.06311 13.4509L9.75549 9.739C10.1794 9.46225 10.1795 8.84085 9.75549 8.5642L8.12366 7.49999H8.10608V7.48827L4.06311 4.85228ZM9.724 4.85228C9.45729 4.67834 9.10414 4.86949 9.10364 5.18773V6.94774L10.3004 7.7285C11.328 8.39871 11.3279 9.90439 10.3004 10.5747L9.10364 11.3547V13.1155C9.10387 13.4339 9.45719 13.6249 9.724 13.4509L15.4164 9.739C15.84 9.4622 15.8402 8.84083 15.4164 8.5642L9.724 4.85228Z" fill="#283248" fill-opacity="0.7"/>
</svg>
