<svg width="24" height="24" viewBox="0 0 24 24" fill="none" xmlns="http://www.w3.org/2000/svg">
<path d="M16.333 18.8441L8.49451 13.9916C7.94218 13.6497 7.52795 13.393 7.23145 13.1681V17.8436C7.23145 17.9738 7.23113 18.0427 7.2205 18.0969C7.175 18.3286 6.99239 18.5112 6.76063 18.5567C6.70646 18.5674 6.6376 18.5677 6.50737 18.5677H5.76577C5.63554 18.5677 5.56667 18.5674 5.51251 18.5567C5.28074 18.5112 5.09813 18.3286 5.05264 18.0969C5.04201 18.0427 5.04169 17.9738 5.04169 17.8436L5.04169 6.15324C5.04169 6.02301 5.04201 5.95414 5.05264 5.89998C5.09813 5.66821 5.28074 5.4856 5.51251 5.44011C5.56667 5.42948 5.63554 5.42916 5.76577 5.42916H6.50737C6.6376 5.42916 6.70646 5.42948 6.76063 5.44011C6.99239 5.4856 7.175 5.66821 7.2205 5.89998C7.23113 5.95414 7.23145 6.02301 7.23145 6.15324V10.8317C7.52795 10.6068 7.94218 10.3501 8.49451 10.0082L16.333 5.15565C17.1778 4.63271 17.6146 4.36501 17.9674 4.40354C18.2748 4.43712 18.5598 4.60512 18.7446 4.85881C18.9535 5.14569 18.9585 5.65372 18.9585 6.6284V17.3714C18.9585 18.3461 18.9535 18.8541 18.7446 19.141C18.5598 19.3947 18.2748 19.5627 17.9674 19.5962C17.6146 19.6348 17.1778 19.3671 16.333 18.8441Z" fill="#283248"/>
</svg>
