<svg xmlns="http://www.w3.org/2000/svg" xmlns:xlink="http://www.w3.org/1999/xlink" fill="none" version="1.1" width="24" height="24" viewBox="0 0 24 24"><g><g><path d="M14.215499084472656,20.173899084472655L14.213999084472656,20.174399084472658Q12.781799084472656,20.664999084472655,11.250039084472656,20.664999084472655Q9.440499084472656,20.664999084472655,7.786419084472656,19.986599084472655Q6.187309084472656,19.330699084472656,4.9534690844726565,18.13429908447266Q3.7174690844726563,16.935699084472656,3.0388240844726564,15.379799084472657Q2.335037350672656,13.766299084472656,2.3350371718726564,12.000009084472657Q2.3350381850726563,10.233689084472656,3.038825084472656,8.620179084472657Q3.7174790844726564,7.064289084472657,4.9534690844726565,5.865749084472656Q6.187319084472657,4.669299084472656,7.786419084472656,4.013426084472656Q9.440499084472656,3.335006833072656,11.250039084472656,3.3350066542626564Q12.781899084472656,3.3350076079326563,14.214199084472657,3.8256650844726563L14.215499084472656,3.8260780844726563C14.473699084472656,3.914588084472656,14.651599084472656,4.1516500844726565,14.664299084472656,4.424129084472656C14.664299084472656,4.424129084472656,14.664999084472656,4.455219084472656,14.664999084472656,4.455219084472656C14.664999084472656,4.528579084472656,14.652899084472656,4.6014390844726565,14.629099084472657,4.670829084472656C14.571899084472657,4.837669084472656,14.450799084472656,4.974969084472656,14.292399084472656,5.052509084472656C14.203999084472656,5.095799084472656,14.106999084472656,5.118909084472657,14.008499084472657,5.120169084472656L13.999999084472655,5.120219084472656C13.926699084472656,5.120219084472656,13.853799084472657,5.108089084472656,13.784399084472657,5.084299084472656L13.782199084472657,5.0835390844726565Q12.559899084472656,4.665009084472656,11.250039084472656,4.665009084472656Q8.102259084472657,4.665009084472656,5.879339084472656,6.820559084472656Q3.665039084472656,8.967759084472657,3.665039084472656,12.000009084472657Q3.665039084472656,15.032299084472657,5.879339084472656,17.179499084472656Q8.102249084472657,19.334999084472656,11.250039084472656,19.334999084472656Q12.561099084472657,19.334999084472656,13.784399084472657,18.915699084472656C13.853299084472656,18.892099084472655,13.925499084472657,18.879999084472658,13.998299084472656,18.87979908447266L13.999999084472655,18.87979908447266C14.284199084472656,18.87979908447266,14.536999084472656,19.060399084472657,14.629099084472657,19.329199084472656C14.651999084472656,19.395999084472656,14.664099084472657,19.466099084472656,14.664999084472656,19.536799084472655L14.664999084472656,19.544799084472658C14.664999084472656,19.646099084472656,14.641899084472657,19.746099084472657,14.597299084472656,19.837199084472655C14.519799084472655,19.995599084472655,14.382499084472656,20.116699084472657,14.215499084472656,20.173899084472655ZM15.529799084472657,15.529799084472657L18.394599084472656,12.665009084472656L11.000039084472656,12.665009084472656C10.632769084472656,12.665009084472656,10.335039084472657,12.367279084472656,10.335039084472657,12.000009084472657C10.335039084472657,11.632739084472655,10.632769084472656,11.335009084472656,11.000039084472656,11.335009084472656L18.22719908447266,11.335009084472656L15.529799084472657,8.637669084472655C15.405099084472656,8.512949084472655,15.334999084472656,8.343809084472657,15.334999084472656,8.167439084472656C15.334999084472656,7.991069084472656,15.405099084472656,7.821929084472656,15.529799084472657,7.697219084472656C15.789499084472656,7.437519084472656,16.210599084472655,7.437519084472656,16.470299084472657,7.697219084472656L20.386499084472657,11.613499084472656C20.511299084472657,11.738209084472656,20.581299084472658,11.907359084472656,20.581299084472658,12.083719084472657C20.581299084472658,12.260089084472657,20.511299084472657,12.429239084472655,20.386499084472657,12.553949084472656L16.470299084472657,16.470199084472654C16.210599084472655,16.729899084472656,15.789499084472656,16.729899084472656,15.529799084472657,16.470199084472654C15.270099084472657,16.21049908447266,15.270099084472657,15.789499084472656,15.529799084472657,15.529799084472657Z" fill-rule="evenodd" fill="#283248" fill-opacity="1"/></g></g></svg>