<svg xmlns="http://www.w3.org/2000/svg" xmlns:xlink="http://www.w3.org/1999/xlink" fill="none" version="1.1" width="24" height="24" viewBox="0 0 24 24"><defs><clipPath id="master_svg0_13504_010782"><rect x="0" y="0" width="24" height="24" rx="0"/></clipPath></defs><g clip-path="url(#master_svg0_13504_010782)"><g><path d="M14.377424761581421,4.462413523330689L21.707224761581422,17.258223523330688C22.73362476158142,19.050023523330687,21.457224761581422,21.25352352333069,19.39222476158142,21.252223523330688L4.651014761581421,21.243623523330687C2.581343761581421,21.24242352333069,1.2800437615814209,19.037423523330688,2.3179027615814207,17.24682352333069L9.75131476158142,4.421823523330689C10.789544761581421,2.6305605233306886,13.348324761581422,2.6658945233306883,14.377424761581421,4.462413523330689ZM13.223424761581422,5.1235035233306885Q12.82892476158142,4.434813523330688,12.053724761581421,4.426623523330688Q11.29046476158142,4.418563523330689,10.902004761581422,5.088773523330689L7.1853047615814205,11.501273523330688L3.468594761581421,17.913723523330688Q3.080034761581421,18.58412352333069,3.466614761581421,19.24382352333069Q3.858874761581421,19.91312352333069,4.651794761581421,19.91362352333069L12.00062476158142,19.91792352333069L19.393024761581422,19.92222352333069Q20.17472476158142,19.92272352333069,20.55822476158142,19.26082352333069Q20.94212476158142,18.598323523330688,20.553124761581422,17.91932352333069L16.877424761581423,11.502443523330689L13.223424761581422,5.1235035233306885ZM11.335004761581422,9.23867352333069L11.335004761581422,14.275623523330689C11.335004761581422,14.642923523330689,11.632734761581421,14.940623523330688,12.000024761581422,14.940623523330688C12.36722476158142,14.940623523330688,12.66502476158142,14.642923523330689,12.66502476158142,14.275623523330689L12.66502476158142,9.23867352333069C12.66502476158142,8.871403523330688,12.36722476158142,8.573673523330688,12.000024761581422,8.573673523330688C11.632734761581421,8.573673523330688,11.335004761581422,8.871403523330688,11.335004761581422,9.23867352333069ZM12.000124761581421,17.910023523330686C12.497124761581421,17.910023523330686,12.90012476158142,17.50712352333069,12.90012476158142,17.010023523330688C12.90012476158142,16.513023523330688,12.497124761581421,16.11002352333069,12.000124761581421,16.11002352333069C11.503044761581421,16.11002352333069,11.10009476158142,16.513023523330688,11.10009476158142,17.010023523330688C11.10009476158142,17.50712352333069,11.503044761581421,17.910023523330686,12.000124761581421,17.910023523330686Z" fill-rule="evenodd" fill="#283248" fill-opacity="1" style="mix-blend-mode:passthrough"/></g></g></svg>