<svg xmlns="http://www.w3.org/2000/svg" xmlns:xlink="http://www.w3.org/1999/xlink" fill="none" version="1.1" width="16" height="16" viewBox="0 0 16 16"><g><g><path d="M14.0001,7.9999937060546875Q14.0001,8.147283706054687,13.9929,8.294403706054688Q13.9857,8.441513706054687,13.9712,8.588093706054687Q13.9568,8.734683706054687,13.9352,8.880383706054687Q13.9136,9.026083706054688,13.8848,9.170543706054687Q13.8561,9.315003706054688,13.8203,9.457883706054687Q13.7845,9.600763706054687,13.7418,9.741713706054687Q13.699,9.882663706054688,13.6494,10.021353706054688Q13.5998,10.160033706054687,13.5434,10.296113706054687Q13.487,10.432193706054688,13.4241,10.565343706054687Q13.3611,10.698503706054687,13.2917,10.828403706054688Q13.2222,10.958303706054688,13.1465,11.084633706054687Q13.0708,11.210973706054688,12.9889,11.333443706054688Q12.9071,11.455913706054687,12.8194,11.574223706054687Q12.7316,11.692533706054688,12.6382,11.806393706054687Q12.5447,11.920253706054687,12.4458,12.029423706054688Q12.3469,12.138523706054688,12.2428,12.242723706054688Q12.1386,12.346823706054687,12.0295,12.445723706054688Q11.92033,12.544623706054688,11.80647,12.638123706054687Q11.69261,12.731523706054688,11.5743,12.819323706054687Q11.45599,12.907023706054687,11.33352,12.988823706054687Q11.21105,13.070723706054688,11.08471,13.146423706054687Q10.95838,13.222123706054688,10.82848,13.291623706054688Q10.69858,13.361023706054688,10.56542,13.424023706054687Q10.43227,13.486923706054688,10.29619,13.543323706054688Q10.16011,13.599723706054688,10.02143,13.649323706054687Q9.88274,13.698923706054687,9.74179,13.741723706054687Q9.60084,13.784423706054687,9.45796,13.820223706054687Q9.31508,13.856023706054687,9.17062,13.884723706054688Q9.02616,13.913523706054688,8.88046,13.935123706054688Q8.73476,13.956723706054687,8.58817,13.971123706054687Q8.44159,13.985623706054687,8.29447,13.992823706054688Q8.147359999999999,14.000023706054687,8.000070000000001,14.000023706054687Q7.85277,14.000023706054687,7.70566,13.992823706054688Q7.55854,13.985623706054687,7.41196,13.971123706054687Q7.26537,13.956723706054687,7.11967,13.935123706054688Q6.97397,13.913523706054688,6.82951,13.884723706054688Q6.68505,13.856023706054687,6.54217,13.820223706054687Q6.39929,13.784423706054687,6.25834,13.741723706054687Q6.11739,13.698923706054687,5.9787,13.649323706054687Q5.84002,13.599723706054688,5.703939999999999,13.543323706054688Q5.56786,13.486923706054688,5.43471,13.424023706054687Q5.30156,13.361023706054688,5.17165,13.291623706054688Q5.04175,13.222123706054688,4.91542,13.146423706054687Q4.78908,13.070723706054688,4.66661,12.988823706054687Q4.5441400000000005,12.907023706054687,4.4258299999999995,12.819323706054687Q4.30752,12.731523706054688,4.1936599999999995,12.638123706054687Q4.0798000000000005,12.544623706054688,3.97067,12.445723706054688Q3.86153,12.346823706054687,3.75738,12.242723706054688Q3.6532299999999998,12.138523706054688,3.55431,12.029423706054688Q3.45539,11.920253706054687,3.36195,11.806393706054687Q3.26851,11.692533706054688,3.18077,11.574223706054687Q3.0930299999999997,11.455913706054687,3.01119,11.333443706054688Q2.929361,11.210973706054688,2.853638,11.084633706054687Q2.777914,10.958303706054688,2.7084799999999998,10.828403706054688Q2.639046,10.698503706054687,2.57607,10.565343706054687Q2.513094,10.432193706054688,2.456728,10.296113706054687Q2.400361,10.160033706054687,2.350739,10.021353706054688Q2.3011179999999998,9.882663706054688,2.258361,9.741713706054687Q2.215604,9.600763706054687,2.179814,9.457883706054687Q2.144025,9.315003706054688,2.11529,9.170543706054687Q2.0865541,9.026083706054688,2.0649416,8.880383706054687Q2.0433292,8.734683706054687,2.028892,8.588093706054687Q2.0144547,8.441513706054687,2.00722734,8.294393706054688Q2,8.147283706054687,2,7.9999937060546875Q2,7.852693706054687,2.00722734,7.7055837060546875Q2.0144547,7.558463706054687,2.028892,7.411883706054687Q2.0433292,7.265293706054687,2.0649416,7.119593706054688Q2.0865541,6.973893706054687,2.11529,6.8294337060546875Q2.144025,6.684973706054688,2.179814,6.542093706054687Q2.215604,6.399213706054687,2.258361,6.258263706054687Q2.3011179999999998,6.117313706054688,2.350739,5.978623706054687Q2.400361,5.8399437060546875,2.456728,5.703863706054687Q2.513094,5.567783706054687,2.57607,5.434633706054687Q2.639046,5.301483706054688,2.7084799999999998,5.171573706054687Q2.777914,5.041673706054688,2.853638,4.915343706054688Q2.929361,4.789003706054688,3.01119,4.666533706054688Q3.0930299999999997,4.544063706054688,3.18077,4.425753706054687Q3.26851,4.307443706054688,3.36195,4.193583706054687Q3.45539,4.079723706054688,3.55431,3.9705937060546876Q3.6532299999999998,3.8614537060546876,3.75738,3.7573037060546874Q3.86153,3.6531537060546873,3.97067,3.5542337060546876Q4.0798000000000005,3.4553137060546875,4.1936599999999995,3.3618737060546877Q4.30752,3.2684337060546875,4.4258299999999995,3.1806937060546874Q4.5441400000000005,3.0929537060546872,4.66661,3.0111137060546875Q4.78908,2.9292847060546876,4.91542,2.8535617060546876Q5.04175,2.7778377060546875,5.17165,2.7084037060546873Q5.30156,2.6389697060546875,5.43471,2.5759937060546876Q5.56786,2.5130177060546877,5.703939999999999,2.4566517060546875Q5.84002,2.4002847060546877,5.9787,2.3506627060546874Q6.11739,2.3010417060546873,6.25834,2.2582847060546873Q6.39929,2.2155277060546874,6.54217,2.1797377060546874Q6.68505,2.1439487060546876,6.82951,2.1152137060546874Q6.97397,2.0864778060546874,7.11967,2.0648653060546875Q7.26537,2.0432529060546876,7.41196,2.0288157060546874Q7.55854,2.0143784060546874,7.70566,2.0071510460546875Q7.85277,1.9999237060546875,8.000070000000001,1.9999237060546875Q8.147359999999999,1.9999237060546875,8.29448,2.0071510460546875Q8.44159,2.0143784060546874,8.58817,2.0288157060546874Q8.73476,2.0432529060546876,8.88046,2.0648653060546875Q9.02616,2.0864778060546874,9.17062,2.1152137060546874Q9.31508,2.1439487060546876,9.45796,2.1797377060546874Q9.60084,2.2155277060546874,9.74179,2.2582847060546873Q9.88274,2.3010417060546873,10.02143,2.3506627060546874Q10.16011,2.4002847060546877,10.29619,2.4566517060546875Q10.43227,2.5130177060546877,10.56542,2.5759937060546876Q10.69858,2.6389697060546875,10.82848,2.7084037060546873Q10.95838,2.7778377060546875,11.08471,2.8535617060546876Q11.21105,2.9292847060546876,11.33352,3.0111137060546875Q11.45599,3.0929537060546872,11.5743,3.1806937060546874Q11.69261,3.2684337060546875,11.80647,3.3618737060546877Q11.92033,3.4553137060546875,12.0295,3.5542337060546876Q12.1386,3.6531537060546873,12.2428,3.7573037060546874Q12.3469,3.8614537060546876,12.4458,3.9705937060546876Q12.5447,4.079723706054688,12.6382,4.193583706054687Q12.7316,4.307443706054688,12.8194,4.425753706054687Q12.9071,4.544063706054688,12.9889,4.666533706054688Q13.0708,4.789003706054688,13.1465,4.915343706054688Q13.2222,5.041673706054688,13.2917,5.171573706054687Q13.3611,5.301483706054688,13.4241,5.434633706054687Q13.487,5.567783706054687,13.5434,5.703863706054687Q13.5998,5.8399437060546875,13.6494,5.978623706054687Q13.699,6.117313706054688,13.7418,6.258263706054687Q13.7845,6.399213706054687,13.8203,6.542093706054687Q13.8561,6.684973706054688,13.8848,6.8294337060546875Q13.9136,6.973893706054687,13.9352,7.119593706054688Q13.9568,7.265293706054687,13.9712,7.411883706054687Q13.9857,7.558463706054687,13.9929,7.7055837060546875Q14.0001,7.852693706054687,14.0001,7.9999937060546875ZM13.0001,7.9999937060546875Q13.0001,7.877243706054688,12.9941,7.754643706054687Q12.9881,7.632053706054688,12.9761,7.5098937060546875Q12.964,7.387743706054687,12.946,7.2663237060546875Q12.928,7.1449137060546875,12.9041,7.024523706054688Q12.8801,6.9041337060546875,12.8503,6.785073706054687Q12.8205,6.6660037060546875,12.7848,6.548543706054687Q12.7492,6.431083706054688,12.7078,6.315513706054688Q12.6665,6.199943706054688,12.6195,6.086543706054687Q12.5726,5.973143706054687,12.5201,5.8621837060546875Q12.4676,5.751223706054688,12.4097,5.642973706054688Q12.3519,5.534723706054688,12.2888,5.429443706054688Q12.2257,5.324163706054687,12.1575,5.222103706054687Q12.0893,5.1200437060546875,12.0162,5.021453706054688Q11.94304,4.922863706054688,11.86517,4.827983706054687Q11.7873,4.733093706054687,11.70487,4.642153706054687Q11.62244,4.551203706054688,11.53565,4.464413706054687Q11.44885,4.377613706054687,11.3579,4.295183706054687Q11.26696,4.212753706054688,11.17207,4.134883706054687Q11.07719,4.057013706054688,10.9786,3.9839037060546874Q10.88001,3.9107837060546875,10.77795,3.8425837060546875Q10.67589,3.7743937060546875,10.57061,3.7112937060546876Q10.46533,3.6481837060546876,10.35708,3.5903237060546873Q10.24883,3.5324637060546875,10.13787,3.4799837060546874Q10.02691,3.4275037060546873,9.913509999999999,3.3805337060546874Q9.80011,3.333553706054688,9.68454,3.2922037060546874Q9.56897,3.250853706054688,9.451509999999999,3.2152237060546875Q9.334050000000001,3.1795937060546873,9.21498,3.1497737060546873Q9.09592,3.1199437060546877,8.97553,3.0959937060546876Q8.855139999999999,3.0720537060546875,8.733730000000001,3.0540437060546877Q8.61231,3.0360337060546874,8.49016,3.0240037060546876Q8.368,3.0119737060546874,8.24541,3.0059437060546874Q8.122810000000001,2.9999237060546875,8.000070000000001,2.9999237060546875Q7.87732,2.9999237060546875,7.75472,3.0059437060546874Q7.63213,3.0119737060546874,7.50997,3.0240037060546876Q7.38782,3.0360337060546874,7.2664,3.0540437060546877Q7.14499,3.0720537060546875,7.0246,3.0959937060546876Q6.90421,3.1199437060546877,6.78515,3.1497737060546873Q6.66608,3.1795937060546873,6.54862,3.2152237060546875Q6.43116,3.250853706054688,6.31559,3.2922037060546874Q6.20002,3.333553706054688,6.08662,3.3805337060546874Q5.9732199999999995,3.4275037060546873,5.86226,3.4799837060546874Q5.7513000000000005,3.5324637060546875,5.643050000000001,3.5903237060546873Q5.534800000000001,3.6481837060546876,5.42952,3.7112937060546876Q5.32424,3.7743937060546875,5.22218,3.8425837060546875Q5.12012,3.9107837060546875,5.02153,3.9839037060546874Q4.9229400000000005,4.057013706054688,4.82806,4.134883706054687Q4.733169999999999,4.212753706054688,4.64223,4.295183706054687Q4.55128,4.377613706054687,4.46449,4.464413706054687Q4.377689999999999,4.551203706054688,4.29526,4.642153706054687Q4.21283,4.733093706054687,4.1349599999999995,4.827983706054687Q4.0570900000000005,4.922863706054688,3.98398,5.021453706054688Q3.91086,5.1200437060546875,3.84266,5.222103706054687Q3.77447,5.324163706054687,3.71137,5.429443706054688Q3.64826,5.534723706054688,3.5904,5.642973706054688Q3.53254,5.751223706054688,3.48006,5.8621837060546875Q3.42758,5.973143706054687,3.38061,6.086543706054687Q3.3336300000000003,6.199943706054688,3.29228,6.315513706054688Q3.2509300000000003,6.431083706054688,3.2153,6.548543706054687Q3.1796699999999998,6.6660037060546875,3.14985,6.785073706054687Q3.1200200000000002,6.9041337060546875,3.09607,7.024523706054688Q3.07213,7.1449137060546875,3.05412,7.2663237060546875Q3.03611,7.387743706054687,3.02408,7.5098937060546875Q3.01205,7.632053706054688,3.00602,7.754643706054687Q3,7.877243706054688,3,7.9999937060546875Q3,8.122733706054689,3.00602,8.245333706054687Q3.01205,8.367923706054688,3.02408,8.490083706054687Q3.03611,8.612233706054688,3.05412,8.733653706054689Q3.07213,8.855063706054686,3.09607,8.975453706054687Q3.1200200000000002,9.095843706054687,3.14985,9.214903706054688Q3.1796699999999998,9.333973706054689,3.2153,9.451433706054686Q3.2509300000000003,9.568893706054688,3.29228,9.684463706054688Q3.3336300000000003,9.800033706054688,3.38061,9.913433706054686Q3.42758,10.026833706054688,3.48006,10.137793706054687Q3.53254,10.248753706054687,3.5904,10.357003706054687Q3.64826,10.465253706054687,3.71137,10.570533706054688Q3.77447,10.675813706054688,3.84266,10.777873706054688Q3.91086,10.879933706054688,3.98398,10.978523706054688Q4.0570900000000005,11.077113706054687,4.1349599999999995,11.171993706054687Q4.21283,11.266883706054687,4.29526,11.357823706054688Q4.377689999999999,11.448773706054688,4.46449,11.535573706054688Q4.55128,11.622363706054687,4.64223,11.704793706054687Q4.733169999999999,11.787223706054688,4.82806,11.865093706054688Q4.9229400000000005,11.942963706054687,5.02153,12.016123706054687Q5.12012,12.089223706054687,5.22218,12.157423706054688Q5.32424,12.225623706054687,5.42952,12.288723706054688Q5.534800000000001,12.351823706054688,5.643050000000001,12.409623706054688Q5.7513000000000005,12.467523706054687,5.86226,12.520023706054687Q5.9732199999999995,12.572523706054687,6.08662,12.619423706054688Q6.20002,12.666423706054687,6.31559,12.707723706054688Q6.43116,12.749123706054688,6.54862,12.784723706054688Q6.66608,12.820423706054687,6.78515,12.850223706054688Q6.90421,12.880023706054688,7.0246,12.904023706054687Q7.14499,12.927923706054688,7.2664,12.945923706054687Q7.38782,12.963923706054688,7.50997,12.976023706054688Q7.63213,12.988023706054687,7.75472,12.994023706054687Q7.87732,13.000023706054687,8.000070000000001,13.000023706054687Q8.122810000000001,13.000023706054687,8.24541,12.994023706054687Q8.368,12.988023706054687,8.49016,12.976023706054688Q8.61231,12.963923706054688,8.733730000000001,12.945923706054687Q8.855139999999999,12.927923706054688,8.97553,12.904023706054687Q9.09592,12.880023706054688,9.21498,12.850223706054688Q9.334050000000001,12.820423706054687,9.451509999999999,12.784723706054688Q9.56897,12.749123706054688,9.68454,12.707723706054688Q9.80011,12.666423706054687,9.913509999999999,12.619423706054688Q10.02691,12.572523706054687,10.13787,12.520023706054687Q10.24883,12.467523706054687,10.35708,12.409623706054688Q10.46533,12.351823706054688,10.57061,12.288723706054688Q10.67589,12.225623706054687,10.77795,12.157423706054688Q10.88001,12.089223706054687,10.9786,12.016123706054687Q11.07719,11.942963706054687,11.17207,11.865093706054688Q11.26696,11.787223706054688,11.3579,11.704793706054687Q11.44885,11.622363706054687,11.53565,11.535573706054688Q11.62244,11.448773706054688,11.70487,11.357823706054688Q11.7873,11.266883706054687,11.86517,11.171993706054687Q11.94304,11.077113706054687,12.0162,10.978523706054688Q12.0893,10.879933706054688,12.1575,10.777873706054688Q12.2257,10.675813706054688,12.2888,10.570533706054688Q12.3519,10.465253706054687,12.4097,10.357003706054687Q12.4676,10.248753706054687,12.5201,10.137793706054687Q12.5726,10.026833706054688,12.6195,9.913433706054686Q12.6665,9.800033706054688,12.7078,9.684463706054688Q12.7492,9.568893706054688,12.7848,9.451433706054686Q12.8205,9.333973706054689,12.8503,9.214903706054688Q12.8801,9.095843706054687,12.9041,8.975453706054687Q12.928,8.855063706054686,12.946,8.733653706054689Q12.964,8.612233706054688,12.9761,8.490083706054687Q12.9881,8.367923706054688,12.9941,8.245333706054687Q13.0001,8.122733706054689,13.0001,7.9999937060546875Z" fill-rule="evenodd" fill="#283248" fill-opacity="0.6000000238418579" style="mix-blend-mode:passthrough"/></g><g><path d="M7.5003251875,8.946909904632568L7.5003251875,9.099999904632568Q7.5003251875,9.149249904632569,7.5099331875,9.197549904632568Q7.5195401875,9.245839904632568,7.5383851875,9.291339904632569Q7.5572311875,9.33683990463257,7.5845901875,9.377779904632568Q7.6119501875,9.418729904632569,7.6467721875,9.453549904632569Q7.6815921875,9.488369904632568,7.7225421875,9.515729904632568Q7.7634821875,9.543089904632568,7.8089821875,9.561939904632569Q7.8544821875,9.580779904632568,7.9027821875,9.590389904632568Q7.9510821875,9.599999904632568,8.0003221875,9.599999904632568Q8.0495721875,9.599999904632568,8.0978721875,9.590389904632568Q8.1461721875,9.580779904632568,8.1916621875,9.561939904632569Q8.237162187500001,9.543089904632568,8.2781121875,9.515729904632568Q8.3190521875,9.488369904632568,8.3538821875,9.453549904632569Q8.3887021875,9.418729904632569,8.4160621875,9.377779904632568Q8.4434221875,9.33683990463257,8.4622621875,9.291339904632569Q8.481112187499999,9.245839904632568,8.4907221875,9.197549904632568Q8.5003221875,9.149249904632569,8.5003221875,9.099999904632568L8.5003221875,8.444199904632569Q8.5054821875,8.437299904632567,8.5162921875,8.425539904632569Q8.5709921875,8.366039904632569,8.7857821875,8.214159904632568Q9.2468721875,7.8881199046325685,9.4550321875,7.615299904632568Q9.8336621875,7.119049904632568,9.8336621875,6.4333299046325685Q9.8336621875,5.981965904632569,9.6142021875,5.543059904632568Q9.1426721875,4.599999904632568,8.0003221875,4.599999904632568Q7.0375421875,4.599999904632568,6.5278911875,5.307847904632569Q6.1669921875,5.809096904632568,6.1669921875,6.4333299046325685Q6.1669921875,6.482579904632568,6.1765991875,6.5308799046325685Q6.1862071875,6.579179904632568,6.2050521875,6.624669904632569Q6.2238981875,6.670169904632568,6.2512571875,6.711119904632568Q6.2786171875,6.752059904632569,6.3134391875,6.786889904632568Q6.3482611875,6.821709904632568,6.3892071875,6.849069904632568Q6.4301531875,6.876429904632568,6.4756501875,6.895269904632569Q6.5211471875,6.914119904632568,6.5694470875,6.923729904632569Q6.6177464875,6.9333299046325685,6.6669921875,6.9333299046325685Q6.7162378875,6.9333299046325685,6.7645372875,6.923729904632569Q6.8128371875,6.914119904632568,6.8583341875,6.895269904632569Q6.9038311875,6.876429904632568,6.9447771875,6.849069904632568Q6.9857231875,6.821709904632568,7.0205451875,6.786889904632568Q7.0553671875,6.752059904632569,7.0827271875,6.711119904632568Q7.1100861875,6.670169904632568,7.1289321875,6.624669904632569Q7.1477771875,6.579179904632568,7.1573851875,6.5308799046325685Q7.1669921875,6.482579904632568,7.1669921875,6.4333299046325685Q7.1669921875,6.131639904632568,7.3394261875,5.892151904632568Q7.5497761875,5.599999904632568,8.0003221875,5.599999904632568Q8.5246421875,5.599999904632568,8.7197821875,5.990272904632568Q8.8336621875,6.218029904632568,8.8336621875,6.4333299046325685Q8.8336621875,6.781119904632568,8.6600021875,7.008719904632568Q8.5446321875,7.159929904632568,8.2084321875,7.3976699046325685Q7.9068121875,7.610949904632568,7.7801221875,7.7487399046325685Q7.5003251875,8.053079904632568,7.5003251875,8.433329904632568L7.5003251875,8.946909904632568Z" fill-rule="evenodd" fill="#283248" fill-opacity="0.6000000238418579" style="mix-blend-mode:passthrough"/></g><g><ellipse cx="7.999902367591858" cy="10.799999833106995" rx="0.6000000238418579" ry="0.6000000238418579" fill="#283248" fill-opacity="0.6000000238418579" style="mix-blend-mode:passthrough"/></g></g></svg>