<svg xmlns="http://www.w3.org/2000/svg" xmlns:xlink="http://www.w3.org/1999/xlink" fill="none" version="1.1" width="24" height="24" viewBox="0 0 24 24"><defs><clipPath id="master_svg0_13504_011238"><rect x="0" y="0" width="24" height="24" rx="0"/></clipPath></defs><g clip-path="url(#master_svg0_13504_011238)"><g><path d="M11.305210767669678,2.279300304397583Q10.787630767669679,2.389317304397583,9.193450767669678,3.309731304397583L5.877070767669678,5.2244813043975835Q4.2829307676696775,6.144871304397583,3.9288787676696777,6.538091304397583Q3.4537257676696775,7.065811304397583,3.2342907676696777,7.741171304397583Q3.070780813689678,8.244401304397583,3.0707808732996775,10.085161304397584L3.0707811117196777,13.914791304397584Q3.0707811117196777,15.755591304397583,3.2342907676696777,16.258791304397583Q3.4537257676696775,16.934191304397583,3.9288787676696777,17.461891304397582Q4.2829307676696775,17.855091304397583,5.877070767669678,18.775491304397583L9.193450767669678,20.690191304397583Q10.787630767669679,21.610691304397584,11.305210767669678,21.720691304397583Q11.999820767669677,21.868291304397584,12.694420767669678,21.720691304397583Q13.211990767669677,21.610691304397584,14.806190767669678,20.690191304397583L18.122590767669678,18.775491304397583Q19.71669076766968,17.855091304397583,20.070790767669678,17.461891304397582Q20.54589076766968,16.934191304397583,20.76539076766968,16.258791304397583Q20.928890767669678,15.755591304397583,20.928890767669678,13.914791304397584L20.928890767669678,10.085161304397584Q20.928890767669678,8.244401304397583,20.76539076766968,7.741171304397583Q20.54589076766968,7.065821304397583,20.070790767669678,6.538091304397583Q19.71669076766968,6.144871304397583,18.122590767669678,5.2244813043975835L14.806190767669678,3.309731304397583Q13.211990767669677,2.389317304397583,12.694430767669678,2.279300104397583Q11.999820767669677,2.131654304397583,11.305210767669678,2.279300304397583ZM6.5790307676696775,6.440281304397583L9.895400767669678,4.5255313043975836Q11.297020767669677,3.7162913043975827,11.597100767669678,3.652511304397583Q11.999820767669677,3.566911304397583,12.402540767669677,3.652511304397583Q12.702620767669679,3.7162913043975827,14.104190767669678,4.5255313043975836L17.42059076766968,6.440281304397583Q18.822190767669678,7.249491304397583,19.027490767669676,7.477471304397583Q19.302990767669677,7.783431304397583,19.43019076766968,8.174991304397583Q19.524990767669678,8.466751304397583,19.524990767669678,10.085161304397584L19.524990767669678,13.914791304397584Q19.524990767669678,15.533191304397583,19.43019076766968,15.824991304397583Q19.302990767669677,16.216491304397582,19.027490767669676,16.522491304397583Q18.822190767669678,16.750491304397585,17.42059076766968,17.55969130439758L14.104190767669678,19.47439130439758Q12.702620767669679,20.283691304397582,12.402540767669677,20.347491304397582Q11.999820767669677,20.433091304397582,11.597090767669679,20.347491304397582Q11.297010767669677,20.283691304397582,9.895400767669678,19.47439130439758L6.5790307676696775,17.55969130439758Q5.1774507676696775,16.750491304397585,4.972180767669678,16.522491304397583Q4.696690767669677,16.216491304397582,4.569470767669678,15.824991304397583Q4.474670767669678,15.533191304397583,4.474670767669678,13.914791304397584L4.474670767669678,10.085161304397584Q4.474670767669678,8.466751304397583,4.569470767669678,8.174991304397583Q4.696690767669677,7.783431304397583,4.972180767669678,7.477471304397583Q5.1774507676696775,7.249491304397583,6.5790307676696775,6.440281304397583ZM15.315690767669677,11.999981304397583C15.315690767669677,13.831191304397583,13.831090767669679,15.315791304397584,11.999860767669677,15.315791304397584C10.168600767669677,15.315791304397584,8.684070767669677,13.831191304397583,8.684070767669677,11.999981304397583C8.684070767669677,10.168721304397582,10.168600767669677,8.684191304397583,11.999860767669677,8.684191304397583C13.831090767669679,8.684191304397583,15.315690767669677,10.168721304397582,15.315690767669677,11.999981304397583ZM13.985690767669677,11.999981304397583Q13.985690767669677,11.177441304397583,13.403990767669677,10.595811304397582Q12.822400767669677,10.014191304397583,11.999860767669677,10.014191304397583Q11.177320767669677,10.014191304397583,10.595700767669678,10.595811304397582Q10.014070767669677,11.177441304397583,10.014070767669677,11.999981304397583Q10.014070767669677,12.822491304397584,10.595700767669678,13.404191304397584Q11.177320767669677,13.985791304397583,11.999860767669677,13.985791304397583Q12.822400767669677,13.985791304397583,13.403990767669677,13.404191304397584Q13.985690767669677,12.822491304397584,13.985690767669677,11.999981304397583Z" fill-rule="evenodd" fill="#283248" fill-opacity="1"/></g></g></svg>