<!-- @no-use-convertColors -->
<svg xmlns="http://www.w3.org/2000/svg" xmlns:xlink="http://www.w3.org/1999/xlink" fill="none" version="1.1" width="24" height="24" viewBox="0 0 24 24"><defs><linearGradient x1="0.5" y1="1" x2="0.5" y2="0" id="master_svg0_4185_94282"><stop offset="2.857142873108387%" stop-color="#7F98CE" stop-opacity="1"/><stop offset="100%" stop-color="#A2B6E2" stop-opacity="1"/></linearGradient></defs><g><g></g><g><ellipse cx="12.2001953125" cy="12" rx="9" ry="9" fill="url(#master_svg0_4185_94282)" fill-opacity="1"/></g><g><g transform="matrix(0.7071072459220886,-0.7071062922477722,0.7071072459220886,0.7071062922477722,-5.1886230446980335,7.948186173045542)"><path d="M11.12815,12.770924687499999L11.12815,13.0524846875Q11.12815,13.0968046875,11.136790000000001,13.1402746875Q11.14544,13.183744687499999,11.1624,13.2246946875Q11.179359999999999,13.2656346875,11.203990000000001,13.3024846875Q11.22861,13.3393446875,11.25995,13.370684687499999Q11.29129,13.402024687499999,11.328140000000001,13.4266446875Q11.364989999999999,13.4512646875,11.405940000000001,13.4682246875Q11.44689,13.4851846875,11.490359999999999,13.4938346875Q11.53383,13.5024846875,11.57815,13.5024846875Q11.62247,13.5024846875,11.665939999999999,13.4938346875Q11.70941,13.4851846875,11.750350000000001,13.4682246875Q11.7913,13.4512646875,11.82815,13.4266446875Q11.86501,13.402024687499999,11.89635,13.370684687499999Q11.927679999999999,13.3393446875,11.95231,13.3024846875Q11.97693,13.2656346875,11.99389,13.2246946875Q12.01085,13.183744687499999,12.0195,13.1402746875Q12.02815,13.0968046875,12.02815,13.0524846875L12.02815,12.361394687499999Q12.02815,11.2852446875,11.21378,10.5295716875Q10.41386,9.7873046875,9.28907,9.7873046875Q8.16429,9.7873046875,7.364366,10.5295716875Q6.55,11.2852446875,6.55,12.361394687499999L6.55,13.7087346875Q6.55,14.7848846875,7.364366,15.5405546875Q8.16429,16.2828146875,9.28907,16.2828146875Q9.33339,16.2828146875,9.37686,16.2741746875Q9.42033,16.2655246875,9.46128,16.2485646875Q9.50223,16.2316046875,9.53908,16.2069746875Q9.57593,16.182354687500002,9.60727,16.151014687500002Q9.63861,16.1196746875,9.66323,16.0828246875Q9.68786,16.0459746875,9.70482,16.0050246875Q9.721779999999999,15.9640746875,9.73043,15.9206046875Q9.73907,15.8771346875,9.73907,15.8328146875Q9.73907,15.7884946875,9.73043,15.745024687499999Q9.721779999999999,15.7015546875,9.70482,15.6606146875Q9.68786,15.6196646875,9.66323,15.5828146875Q9.63861,15.5459546875,9.60727,15.5146246875Q9.57593,15.4832846875,9.53908,15.458654687500001Q9.50223,15.434034687499999,9.46128,15.417074687500001Q9.42033,15.4001146875,9.37686,15.391464687500001Q9.33339,15.3828146875,9.28907,15.3828146875Q8.51753,15.3828146875,7.976542,14.880824687499999Q7.45,14.3922346875,7.45,13.7087346875L7.45,12.361394687499999Q7.45,11.6778946875,7.976542,11.1892986875Q8.51753,10.6873046875,9.28907,10.6873046875Q10.06062,10.6873046875,10.6016,11.1892986875Q11.12815,11.6778946875,11.12815,12.361394687499999L11.12815,12.770924687499999Z" fill-rule="evenodd" fill="#FFFFFF" fill-opacity="1"/></g><g transform="matrix(0.7071072459220886,-0.7071062922477722,0.7071072459220886,0.7071062922477722,-6.353230616878136,10.748397474890226)"><path d="M10.2593795625,16.496212890625Q10.2478515625,15.931642890625,10.2478515625,15.785292890625Q10.2478515625,15.740972890625,10.2392045625,15.697502890625Q10.2305585625,15.654032890625,10.2135975625,15.613082890625Q10.1966365625,15.572142890624999,10.1720125625,15.535292890625Q10.1473895625,15.498432890625,10.1160495625,15.467092890625Q10.0847095625,15.435752890625,10.0478585625,15.411132890625Q10.0110065625,15.386512890625,9.9700595625,15.369552890625Q9.9291115625,15.352592890625,9.8856421625,15.343942890625Q9.8421726625,15.335292890625,9.7978515625,15.335292890625Q9.7535304625,15.335292890625,9.7100609625,15.343942890625Q9.6665915625,15.352592890625,9.6256435625,15.369552890625Q9.5846965625,15.386512890625,9.5478445625,15.411132890625Q9.5109935625,15.435752890625,9.4796535625,15.467092890625Q9.4483135625,15.498432890625,9.4236905625,15.535292890625Q9.3990665625,15.572142890624999,9.3821055625,15.613082890625Q9.3651445625,15.654032890625,9.3564985625,15.697502890625Q9.3478515625,15.740972890625,9.3478515625,15.785292890625Q9.3478515625,15.940832890625,9.3595675625,16.514592890625L9.3596765625,16.522392890625L9.3596955625,16.527232890625Q9.3647405625,17.598592890625,10.1780585625,18.350192890625Q10.9772415625,19.088722890625,12.0987315625,19.088722890625Q13.2235215625,19.088722890625,14.0234415625,18.346462890625Q14.8378115625,17.590792890625,14.8378115625,16.514642890624998L14.8378115625,15.167302890624999Q14.8378115625,14.091152890625,14.0234415625,13.335479890625Q13.2235215625,12.593212890625,12.0987315625,12.593212890625Q12.0544115625,12.593212890625,12.0109415625,12.601859890625Q11.9674715625,12.610505890625,11.9265315625,12.627466890625Q11.8855815625,12.644427890625,11.8487315625,12.669051890625Q11.8118815625,12.693674890625,11.7805415625,12.725014890625Q11.7492015625,12.756354890625,11.7245715625,12.793205890625Q11.6999515625,12.830057890625,11.6829915625,12.871004890625Q11.6660315625,12.911952890625,11.6573815625,12.955422290625Q11.6487315625,12.998891790625,11.6487315625,13.043212890625Q11.6487315625,13.087533990625,11.6573815625,13.131003490625Q11.6660315625,13.174472890625,11.6829915625,13.215420890625Q11.6999515625,13.256367890625,11.7245715625,13.293219890625Q11.7492015625,13.330070890625,11.7805415625,13.361410890625Q11.8118815625,13.392750890625,11.8487315625,13.417373890625Q11.8855815625,13.441997890625,11.9265315625,13.458958890625Q11.9674715625,13.475919890625,12.0109415625,13.484565890625Q12.0544115625,13.493212890625,12.0987315625,13.493212890625Q12.8702815625,13.493212890625,13.4112715625,13.995206890625Q13.9378115625,14.483802890625,13.9378115625,15.167302890624999L13.9378115625,16.514642890624998Q13.9378115625,17.198142890625,13.4112715625,17.686732890625Q12.8702815625,18.188722890625,12.0987315625,18.188722890625Q11.3294115625,18.188722890625,10.7888815625,17.689212890625Q10.2628875625,17.203132890625,10.2596745625,16.521002890625L10.2595765625,16.508962890625L10.2593795625,16.496212890625Z" fill-rule="evenodd" fill="#FFFFFF" fill-opacity="1"/></g></g></g></svg>