<!-- @no-use-convertColors -->
<svg xmlns="http://www.w3.org/2000/svg" xmlns:xlink="http://www.w3.org/1999/xlink" fill="none" version="1.1" width="24" height="24" viewBox="0 0 24 24"><defs><linearGradient x1="0.5" y1="1.0555555820465088" x2="0.5" y2="0" id="master_svg0_4185_94720"><stop offset="0%" stop-color="#1DD0BB" stop-opacity="1"/><stop offset="100%" stop-color="#20E5CE" stop-opacity="1"/></linearGradient></defs><g><g><g><g><ellipse cx="12" cy="12" rx="9" ry="9" fill="url(#master_svg0_4185_94720)" fill-opacity="1"/></g></g></g><g><g><path d="M15.037815312500001,12.64473C14.8221853125,12.64473,14.6474053125,12.46734,14.6474053125,12.248560000000001C14.6474053125,12.029779999999999,14.8221853125,11.85239,15.037815312500001,11.85239C15.2533453125,11.85239,15.4281153125,12.029779999999999,15.4281153125,12.248560000000001C15.4281153125,12.46734,15.2533453125,12.64473,15.037815312500001,12.64473ZM12.7845253125,12.64473C12.5688953125,12.64473,12.3941153125,12.46734,12.3941153125,12.248560000000001C12.3941153125,12.029779999999999,12.5688953125,11.85239,12.7845253125,11.85239C13.000155312499999,11.85239,13.1748353125,12.029779999999999,13.1748353125,12.248560000000001C13.1748353125,12.46734,13.000155312499999,12.64473,12.7845253125,12.64473ZM16.8002753125,13.18788C16.8002753125,11.79717,15.5068853125,10.669789999999999,13.9112653125,10.669789999999999C12.315745312499999,10.669789999999999,11.0223553125,11.79717,11.0223553125,13.18788C11.0223553125,14.578579999999999,12.315745312499999,15.70606,13.9112653125,15.70606C14.2631753125,15.70606,14.600285312499999,15.65104,14.9121153125,15.55059C14.9121153125,15.55059,15.9205153125,16,15.9205153125,16C15.9205153125,16,15.8184253125,15.07856,15.8184253125,15.07856C16.4200553125,14.6171,16.8002753125,13.9414,16.8002753125,13.18788ZM9.4043953125,10.37269C9.1616353125,10.37269,8.9648153125,10.17376,8.9648153125,9.92842C8.9648153125,9.68307,9.1616353125,9.48414,9.4043953125,9.48414C9.6471653125,9.48414,9.8438853125,9.68307,9.8438853125,9.92842C9.8438853125,10.17376,9.6471653125,10.37269,9.4043953125,10.37269ZM12.0495653125,9.48414C12.292325312500001,9.48414,12.4890553125,9.68307,12.4890553125,9.92842C12.4890553125,10.17376,12.292325312500001,10.37269,12.0495653125,10.37269C11.8067953125,10.37269,11.6099753125,10.17376,11.6099753125,9.92842C11.6099753125,9.68307,11.8067953125,9.48414,12.0495653125,9.48414ZM13.9341953125,10.22266C13.9969853125,10.22266,14.0591953125,10.22453,14.121115312499999,10.22759C13.7023953125,8.942182,12.3420953125,8,10.727475312500001,8C8.7794553125,8,7.2001953125,9.37095,7.2001953125,11.06211C7.2001953125,12.02632,7.7139443125,12.88583,8.5162153125,13.44715C8.5162153125,13.44715,8.3758253125,14.42163,8.3758253125,14.42163C8.3758253125,14.42163,9.4489753125,13.91602,9.4489753125,13.91602C9.8454553125,14.049949999999999,10.2763253125,14.12433,10.727475312500001,14.12433C10.751085312499999,14.12433,10.7742953125,14.12314,10.7978153125,14.12275C10.6881853125,13.828109999999999,10.6279353125,13.51323,10.6279353125,13.1856C10.6279353125,11.54916,12.1082453125,10.22266,13.9341953125,10.22266Z" fill-rule="evenodd" fill="#FFFFFF" fill-opacity="1"/></g></g></g></svg>