<!-- @no-use-convertColors -->
<svg xmlns="http://www.w3.org/2000/svg" xmlns:xlink="http://www.w3.org/1999/xlink" fill="none" version="1.1" width="24" height="24" viewBox="0 0 24 24"><defs><linearGradient x1="0.5" y1="1" x2="0.5" y2="0" id="master_svg0_4185_94071"><stop offset="0%" stop-color="#FF3108" stop-opacity="1"/><stop offset="100%" stop-color="#FF775C" stop-opacity="1"/></linearGradient></defs><g><g><ellipse cx="12" cy="12" rx="9" ry="9" fill="url(#master_svg0_4185_94071)" fill-opacity="1"/></g><g><g><path d="M11.37218,13.392990000000001C11.313880000000001,13.50259,11.18512,13.55527,11.08412,13.50959C10.98498,13.46467,10.95388,13.34202,11.01032,13.23431C11.06834,13.12716,11.19209,13.07487,11.29104,13.118089999999999C11.39158,13.15856,11.42778,13.282540000000001,11.37218,13.392990000000001ZM10.77286,14.08579C10.63027,14.3397,10.32495,14.451,10.09491,14.333739999999999C9.86822,14.21856,9.80129,13.9237,9.94397,13.676120000000001C10.08479,13.429590000000001,10.3799,13.319700000000001,10.608270000000001,13.42656C10.83923,13.53636,10.912939999999999,13.829419999999999,10.77286,14.08579ZM11.438369999999999,12.30075C10.711780000000001,12.11161,9.8905,12.47399,9.57487,13.11459C9.2534,13.767949999999999,9.5642,14.493179999999999,10.2984,14.730260000000001C11.05887,14.975660000000001,11.95516,14.59966,12.26679,13.89438C12.57416,13.20509,12.19039,12.49527,11.438369999999999,12.30075ZM11.236180000000001,15.14664C9.743269999999999,15.2969,8.454491,14.60865,8.357483,13.608979999999999C8.260474,12.6096,9.39255,11.67746,10.88537,11.52691C12.37847,11.37636,13.66725,12.06461,13.76407,13.06381C13.860890000000001,14.063749999999999,12.72928,14.995989999999999,11.236180000000001,15.14664ZM14.334430000000001,11.80096C14.20623,11.76219,14.11841,11.7358,14.18562,11.56606C14.3309,11.19734,14.345939999999999,10.87922,14.188310000000001,10.65235C13.89301,10.22661,13.08492,10.24969,12.15865,10.64091C12.15865,10.64034,11.86781,10.76924,11.942070000000001,10.53651C12.08457,10.07446,12.06312,9.68739,11.84135,9.46403C11.33885,8.956678,10.00245,9.48313,8.85645,10.63883C7.998318,11.50478,7.5,12.422360000000001,7.5,13.21577C7.5,14.73357,9.429310000000001,15.65626,11.31685,15.65626C13.79127,15.65626,15.43717,14.20608,15.43717,13.05463C15.43717,12.359,14.85632,11.964179999999999,14.334430000000001,11.80096ZM15.91609,9.114037C15.31649,8.44876,14.44192,8.218395,13.62547,8.4075286C13.43656,8.4075286,13.31579,8.595244,13.356259999999999,8.783999C13.396550000000001,8.972848,13.58231,9.074129,13.77122,9.033844C14.35206,8.910434,14.97849,9.081316,15.40477,9.55396C15.83068,10.02651,15.94765,10.661529999999999,15.76198,11.226659999999999C15.66915,11.410779999999999,15.79531,11.607759999999999,15.97949,11.66724C16.16283,11.72673,16.31897,11.6262,16.4118,11.44255C16.4118,11.44255,16.4118,11.441230000000001,16.4118,11.441230000000001C16.59747,10.6463,16.51596,9.77884,15.91609,9.114037ZM14.85948,11.288499999999999C15.01822,11.33787,15.188469999999999,11.232990000000001,15.23972,11.07866C15.36513,10.70181,15.2866,10.2617,14.99316,9.94622C14.70037,9.630749999999999,14.26787,9.50573,13.86869,9.5881C13.70559,9.62186,13.55696,9.77515,13.59196,9.93374C13.62677,10.09167,13.812529999999999,10.19049,13.90536,10.15616C13.90536,10.15616,13.90536,10.15645,13.90536,10.15645C14.18385,10.11644,14.35671,10.2164,14.49985,10.37036C14.643180000000001,10.52459,14.72636,10.7717,14.6649,10.96083C14.61375,11.0554,14.70083,11.238669999999999,14.85948,11.288499999999999Z" fill-rule="evenodd" fill="#FFFFFF" fill-opacity="1"/></g></g></g></svg>