<svg xmlns="http://www.w3.org/2000/svg" xmlns:xlink="http://www.w3.org/1999/xlink" fill="none" version="1.1" width="24" height="24" viewBox="0 0 24 24"><g><g><path d="M12.0000009375,4.16503197265625Q8.7546309375,4.16503197265625,6.4598209375,6.45985197265625Q4.1650009375,8.754661972656251,4.1650009375,12.00003197265625Q4.1650009375,15.24542197265625,6.4598209375,17.540221972656248Q8.7546309375,19.83502197265625,12.0000009375,19.83502197265625Q15.2453609375,19.83502197265625,17.540160937499998,17.540221972656248Q19.8349609375,15.24542197265625,19.8349609375,12.00003197265625C19.8349609375,11.63276197265625,20.1327609375,11.33503197265625,20.4999609375,11.33503197265625C20.8672609375,11.33503197265625,21.1649609375,11.63276197265625,21.1649609375,12.00002197265625Q21.1649609375,13.86422197265625,20.4444609375,15.56762197265625Q19.7487609375,17.212521972656248,18.480660937499998,18.48062197265625Q17.212460937499998,19.74882197265625,15.5676609375,20.44452197265625Q13.8641609375,21.16502197265625,12.0000009375,21.16502197265625Q10.1358309375,21.16502197265625,8.4323609375,20.44452197265625Q6.7875109375000005,19.74882197265625,5.5193709375,18.48062197265625Q4.2512209375,17.212521972656248,3.5555039375,15.56762197265625Q2.8349999189,13.86422197265625,2.8349999785,12.00003197265625Q2.8350000381,10.13586197265625,3.5555049375,8.43239197265625Q4.2512209375,6.78754197265625,5.5193709375,5.5193919726562495Q6.7875209375,4.25124197265625,8.4323609375,3.55553497265625Q10.1358309375,2.83503055572625,12.0000009375,2.83503049611625C12.3672709375,2.83503049611625,12.6650009375,3.13276097265625,12.6650009375,3.50003097265625C12.6650009375,3.86730197265625,12.3672709375,4.16503197265625,12.0000009375,4.16503197265625ZM17.4346609375,4.47670197265625L19.5524609375,6.33337197265625Q19.8409609375,6.586271972656251,19.8491609375,6.96981197265625Q19.8572609375,7.35336197265625,19.5798609375,7.61832197265625L17.573460937500002,9.53439197265625C17.4496609375,9.65253197265625,17.2852609375,9.71846197265625,17.1141609375,9.71846197265625C16.7468609375,9.71846197265625,16.4491609375,9.420731972656249,16.4491609375,9.053461972656251C16.4491609375,8.871781972656251,16.523460937499998,8.69801197265625,16.6548609375,8.57253197265625L17.6355609375,7.63604197265625Q15.6587609375,7.67561197265625,14.5044609375,8.57310197265625Q13.1142609375,9.65405197265625,12.8158509375,12.07994197265625L12.8158509375,12.07994197265625C12.7748209375,12.41378197265625,12.4916609375,12.66427197265625,12.1557609375,12.66427197265625C11.7884909375,12.66427197265625,11.4907609375,12.36654197265625,11.4907609375,11.99927197265625C11.4907609375,11.97213197265625,11.4924209375,11.94503197265625,11.4957309375,11.91812197265625L11.4957309375,11.91812197265625Q11.8616009375,8.943291972656251,13.6881609375,7.52313197265625Q15.1584609375,6.37987197265625,17.5071609375,6.30900197265625L16.5578609375,5.47680197265625C16.413660937499998,5.35040197265625,16.3310609375,5.16816197265625,16.3310609375,4.97662197265625C16.3310609375,4.60935197265625,16.6288609375,4.3116219726562495,16.996060937499998,4.3116219726562495C17.157360937500002,4.3116219726562495,17.3131609375,4.37024197265625,17.4346609375,4.47670197265625Z" fill-rule="evenodd" fill="#283248" fill-opacity="1" style="mix-blend-mode:passthrough"/></g></g></svg>