<!-- @no-use-convertColors -->
<svg xmlns="http://www.w3.org/2000/svg" xmlns:xlink="http://www.w3.org/1999/xlink" fill="none" version="1.1" width="24" height="24" viewBox="0 0 24 24"><defs><linearGradient x1="0.5" y1="0.02777777798473835" x2="0.5" y2="1" id="master_svg0_4185_94704"><stop offset="0%" stop-color="#FFDE6A" stop-opacity="1"/><stop offset="100%" stop-color="#FFC31E" stop-opacity="1"/></linearGradient></defs><g><g><g><g><ellipse cx="12" cy="12" rx="9" ry="9" fill="url(#master_svg0_4185_94704)" fill-opacity="1"/></g></g></g><g><g><path d="M16.48537,10.7972705859375C16.45027,10.6933105859375,16.35997,10.6253405859375,16.259059999999998,10.6136805859375C16.259259999999998,10.6121805859375,16.259259999999998,10.6106905859375,16.25936,10.6092905859375C16.25936,10.6092905859375,13.45205,10.3557305859375,13.45205,10.3557305859375C13.45205,10.3557305859375,12.24404,7.6670175859375,12.24404,7.6670175859375C12.24254,7.6676155859375,12.24094,7.6680145859375,12.23934,7.6686125859375C12.20044,7.5648551859375,12.10224,7.4906005859375,11.986239999999999,7.4906005859375C11.878029999999999,7.4906005859375,11.78533,7.5553863859375,11.74173,7.6483785859375C11.74053,7.6477805859375,11.73913,7.6472825859375,11.737829999999999,7.6466845859375C11.737829999999999,7.6466845859375,10.52053,10.3007105859375,10.52053,10.3007105859375C10.52053,10.3007105859375,7.757806,10.6506505859375,7.757806,10.6506505859375C7.757906,10.6522505859375,7.757806,10.6540405859375,7.757906,10.6556405859375C7.648505,10.6613205859375,7.5488046,10.7333805859375,7.5131043,10.8453105859375C7.4798041,10.9498705859375,7.5121043,11.0041905859375,7.5858048,11.0749505859375C7.5849048,11.0759505859375,7.5840048,11.0771405859375,7.5830048,11.0781405859375C7.5830048,11.0781405859375,9.65182,13.0004905859375,9.65182,13.0004905859375C9.65182,13.0004905859375,9.16462,15.8718005859375,9.16462,15.8718005859375C9.16622,15.8721905859375,9.16782,15.8726905859375,9.16942,15.8730905859375C9.14522,15.9814305859375,9.18652,16.0984505859375,9.282820000000001,16.1636305859375C9.37272,16.224430585937498,9.48492,16.222640585937498,9.57162,16.1697105859375C9.57232,16.1709105859375,9.57322,16.1721005859375,9.57402,16.1734005859375C9.57402,16.1734005859375,11.93063,14.708540585937499,11.93063,14.708540585937499C11.93063,14.708540585937499,11.97663,14.708540585937499,11.97663,14.708540585937499C11.97663,14.708540585937499,14.42145,16.1111005859375,14.42145,16.1111005859375C14.42235,16.109810585937502,14.423449999999999,16.1084105859375,14.42435,16.107020585937498C14.515450000000001,16.1686105859375,14.63785,16.171110585937498,14.73215,16.1029305859375C14.82025,16.039340585937502,14.858450000000001,15.9324005859375,14.84065,15.8312305859375C14.84195,15.8309305859375,14.84345,15.8305305859375,14.844850000000001,15.8302305859375C14.844850000000001,15.8302305859375,14.45925,13.7484105859375,14.45925,13.7484105859375C14.530750000000001,13.7160205859375,14.59595,13.6860205859375,14.64635,13.6617005859375C14.89466,13.542000585937501,15.10616,13.373450585937501,15.08076,13.3861105859375C15.05786,13.397570585937501,14.882349999999999,13.4208005859375,14.69525,13.4429205859375C14.41785,13.525450585937499,13.783249999999999,13.6738605859375,12.69204,13.7168205859375C11.36783,13.7687505859375,9.92332,13.6065805859375,9.92332,13.6065805859375C9.92332,13.6065805859375,12.80054,11.457690585937499,12.80054,11.457690585937499C12.80054,11.457690585937499,12.391539999999999,11.4049605859375,11.76913,11.3475505859375C10.71773,11.2504705859375,9.163219999999999,11.182200585937501,9.163219999999999,11.182200585937501C9.163219999999999,11.182200585937501,10.50422,10.9618305859375,11.82343,10.9618305859375C13.08154,10.9618305859375,14.32075,11.1270805859375,14.32075,11.1270805859375C14.32075,11.1270805859375,14.121649999999999,11.3173505859375,13.77785,11.5679205859375C13.26074,11.944680585937501,12.47224,12.4747205859375,11.986239999999999,12.8352305859375C11.69283,13.0528105859375,11.49773,13.220860585937501,11.49773,13.220860585937501C11.49773,13.220860585937501,12.44594,13.3420605859375,13.34354,13.3861105859375C13.73185,13.4052505859375,14.11185,13.4052505859375,14.39475,13.4004605859375C14.39475,13.4004605859375,14.32075,13.0004905859375,14.32075,13.0004905859375C14.32075,13.0004905859375,16.40457,11.1019605859375,16.40457,11.1019605859375C16.40347,11.1006705859375,16.40257,11.0992705859375,16.40147,11.0979805859375C16.48567,11.0270105859375,16.52297,10.9086005859375,16.48537,10.7972705859375Z" fill-rule="evenodd" fill="#FFFFFF" fill-opacity="1"/></g></g></g></svg>