<!-- @no-use-convertColors -->
<svg xmlns="http://www.w3.org/2000/svg" xmlns:xlink="http://www.w3.org/1999/xlink" fill="none" version="1.1" width="24" height="24" viewBox="0 0 24 24"><defs><linearGradient x1="0.5" y1="0" x2="0.5" y2="1" id="master_svg0_4185_94712"><stop offset="0%" stop-color="#45E0FF" stop-opacity="1"/><stop offset="100%" stop-color="#39CCEA" stop-opacity="1"/></linearGradient></defs><g><g><g><g><ellipse cx="12" cy="12" rx="9" ry="9" fill="url(#master_svg0_4185_94712)" fill-opacity="1"/></g></g></g><g><g><path d="M15.69118671875,14.89062C15.48811671875,14.91511,14.900806718750001,13.96354,14.900806718750001,13.96354C14.900806718750001,14.514520000000001,14.61650671875,15.2335,14.00134671875,15.75274C14.29808671875,15.84401,14.967616718750001,16.089660000000002,14.80834671875,16.357799999999997C14.67944671875,16.57477,12.596996718749999,16.49633,11.99580671875,16.42876C11.394616718750001,16.49633,9.31216671875,16.57477,9.18326571875,16.357799999999997C9.02390271875,16.08973,9.69276671875,15.84427,9.989916718749999,15.75285C9.37465671875,15.233609999999999,9.09030871875,14.51456,9.09030871875,13.96354C9.09030871875,13.96354,8.50300071875,14.91511,8.29994291875,14.89062C8.20532949875,14.8792,8.08104571875,14.36954,8.46462671875,13.138020000000001C8.64541371875,12.55752,8.85215371875,12.07493,9.17191971875,11.27862C9.11809371875,9.22376,9.96906671875,7.500105469,11.99555671875,7.5C13.99947671875,7.500105469,14.87018671875,9.18984,14.81923671875,11.27864C15.13844671875,12.07358,15.346246718749999,12.55921,15.526526718749999,13.138020000000001C15.910056718749999,14.36954,15.785806718749999,14.87918,15.69118671875,14.89062C15.69118671875,14.89062,15.69118671875,14.89062,15.69118671875,14.89062Z" fill="#FFFFFF" fill-opacity="1"/></g></g></g></svg>