<svg xmlns="http://www.w3.org/2000/svg" xmlns:xlink="http://www.w3.org/1999/xlink" fill="none" version="1.1" width="18" height="18" viewBox="0 0 18 18"><defs><clipPath id="master_svg0_71_03112"><rect x="0" y="0" width="18" height="18" rx="0"/></clipPath></defs><g clip-path="url(#master_svg0_71_03112)"><g><path d="M7.4454865625,13.48748427734375Q6.9003365625,12.94228427734375,6.1293665625,12.94228427734375Q5.3584065625,12.94228427734375,4.8132465625,13.48748427734375Q4.2680965625,14.03258427734375,4.2680965625,14.80358427734375Q4.2680965625,15.57458427734375,4.8132465625,16.11968427734375Q5.3584065625,16.664884277343752,6.1293765625,16.664884277343752Q6.9003365625,16.664884277343752,7.4454865625,16.11968427734375Q7.9906465625,15.57458427734375,7.9906465625,14.80358427734375Q7.9906465625,14.03258427734375,7.4454865625,13.48748427734375ZM5.5185865625,14.19278427734375Q5.7715865625,13.93978427734375,6.1293665625,13.93978427734375Q6.4871565625,13.93978427734375,6.7401565625,14.19278427734375Q6.9931465625,14.44578427734375,6.9931465625,14.80358427734375Q6.9931465625,15.16138427734375,6.7401565625,15.41438427734375Q6.4871565625,15.66738427734375,6.1293765625,15.66738427734375Q5.7715865625,15.66738427734375,5.5185865625,15.41438427734375Q5.2655965625,15.16138427734375,5.2655965625,14.80358427734375Q5.2655965625,14.44578427734375,5.5185865625,14.19278427734375ZM14.1925265625,13.48748427734375Q13.6474265625,12.94228427734375,12.8764265625,12.94228427734375Q12.1054265625,12.94228427734375,11.5603265625,13.48748427734375Q11.0151665625,14.03258427734375,11.0151665625,14.80358427734375Q11.0151665625,15.57458427734375,11.5603265625,16.11968427734375Q12.1054265625,16.664884277343752,12.8764265625,16.664884277343752Q13.6474265625,16.664884277343752,14.1925265625,16.11968427734375Q14.7377265625,15.57458427734375,14.7377265625,14.80358427734375Q14.7377265625,14.03258427734375,14.1925265625,13.48748427734375ZM12.2656265625,14.19278427734375Q12.5186265625,13.93978427734375,12.8764265625,13.93978427734375Q13.2342265625,13.93978427734375,13.4872265625,14.19278427734375Q13.7402265625,14.44578427734375,13.7402265625,14.80358427734375Q13.7402265625,15.16138427734375,13.4872265625,15.41438427734375Q13.2342265625,15.66738427734375,12.8764265625,15.66738427734375Q12.5186265625,15.66738427734375,12.2656265625,15.41438427734375Q12.0126265625,15.16138427734375,12.0126265625,14.80358427734375Q12.0126265625,14.44578427734375,12.2656265625,14.19278427734375ZM4.4105365625,4.6314542773437495L5.4652965625,10.66909427734375Q5.5315365625,11.04825427734375,5.9163965625,11.04825427734375L13.1136265625,11.04825427734375Q13.4472265625,11.04825427734375,13.5495265625,10.73068427734375L15.4215265625,4.91722427734375Q15.4556265625,4.81128427734375,15.3901265625,4.72134427734375Q15.3246265625,4.63140427734375,15.2133265625,4.63140427734375L4.4105365625,4.6314542773437495ZM4.2362765625000005,3.63395427734375L4.0015465625,2.29031027734375Q3.9402765625,1.93955427734375,3.6676865625,1.71046127734375Q3.3951065625,1.48136778174375,3.0390365625,1.48136773704375L1.5310055624999999,1.48136778174375C1.2555535625,1.48136778174375,1.0322558433,1.70466527734375,1.0322558433,1.98011827734375C1.0322558433,2.2555702773437503,1.2555535625,2.47886727734375,1.5310055624999999,2.47886727734375L3.0218865624999998,2.47886727734375L4.4826765625,10.84076427734375Q4.573956562499999,11.36321427734375,4.9799665625,11.70448427734375Q5.3860165625,12.04578427734375,5.9163965625,12.04578427734375L13.1136265625,12.04578427734375Q13.5875265625,12.04578427734375,13.9706265625,11.76668427734375Q14.3537265625,11.48758427734375,14.4990265625,11.03642427734375L16.3710265625,5.22298427734375Q16.560626562499998,4.6340542773437505,16.196326562499998,4.13399427734375Q15.8320265625,3.63390427734375,15.2133265625,3.63390427734375L4.2362765625000005,3.63395427734375Z" fill-rule="evenodd" fill="#283248" fill-opacity="0.8999999761581421" style="mix-blend-mode:passthrough"/></g></g></svg>