<svg xmlns="http://www.w3.org/2000/svg" xmlns:xlink="http://www.w3.org/1999/xlink" fill="none" version="1.1" width="24" height="24" viewBox="0 0 24 24"><g><g><path d="M17.717004725646973,8.217555032806397L20.89620472564697,6.229305032806396C21.218304725646973,6.0278550328063965,21.218304725646973,5.568985032806396,20.89620472564697,5.367525032806396L17.717004725646973,3.3792825328063967C17.374504725646972,3.1650600328063963,16.969804725646974,3.4426350328063964,16.969804725646974,3.8466410328063967L16.969804725646974,5.209655032806396Q14.140604725646973,5.239875032806396,12.373484725646973,7.548715032806396Q11.695444725646972,8.434605032806395,11.078344725646973,9.784725032806396Q10.718524725646972,10.571935032806397,10.097454725646973,12.210855032806396Q9.012204725646972,15.074675032806397,8.274214725646972,16.090075032806396Q7.163004725646973,17.619175032806396,5.481324725646973,17.619175032806396L3.112343725646973,17.619175032806396C2.7450747256469725,17.619175032806396,2.4473437666469726,17.916875032806395,2.4473437666469726,18.284175032806395C2.4473437666469726,18.651375032806396,2.7450747256469725,18.949175032806394,3.112343725646973,18.949175032806394L5.481324725646973,18.949175032806394Q7.840564725646972,18.949175032806394,9.350104725646972,16.871975032806397Q10.192784725646973,15.712475032806397,11.341144725646974,12.682155032806396Q11.946544725646973,11.084595032806398,12.287974725646972,10.337615032806397Q12.842704725646973,9.123885032806395,13.429604725646973,8.357075032806396Q14.797404725646972,6.570095032806396,16.969804725646974,6.539775032806396L16.969804725646974,7.750195032806396C16.969804725646974,8.154195032806395,17.374504725646972,8.431775032806396,17.717004725646973,8.217555032806397ZM4.430174725646973,5.209245032806397Q7.394794725646973,5.209245032806397,9.209944725646974,7.693495032806396C9.293154725646973,7.807375032806396,9.337994725646972,7.944775032806397,9.337994725646972,8.085815032806398C9.337994725646972,8.453085032806396,9.040264725646972,8.750815032806397,8.672994725646973,8.750815032806397C8.460754725646972,8.750815032806397,8.261264725646972,8.649505032806395,8.136054725646972,8.478145032806395Q6.719374725646973,6.539245032806397,4.430174725646973,6.539245032806397L3.113436725646973,6.539245032806397C2.7461677256469725,6.539245032806397,2.4484367356469727,6.241515032806396,2.4484367356469727,5.874245032806396C2.4484367356469727,5.506985032806396,2.7461677256469725,5.209245032806397,3.113436725646973,5.209245032806397L4.430174725646973,5.209245032806397ZM11.951594725646972,16.622875032806398C11.878564725646973,16.513575032806397,11.839594725646972,16.385075032806398,11.839594725646972,16.253575032806395C11.839594725646972,15.886275032806397,12.137324725646973,15.588575032806396,12.504604725646972,15.588575032806396C12.726704725646973,15.588575032806396,12.934204725646973,15.699475032806397,13.057604725646973,15.884175032806397Q14.216404725646973,17.619175032806396,15.993804725646973,17.619175032806396L16.969804725646974,17.619175032806396L16.969804725646974,16.227275032806396C16.969804725646974,15.823175032806397,17.374504725646972,15.545675032806397,17.717004725646973,15.759875032806397L20.89620472564697,17.748075032806398C21.218304725646973,17.949575032806397,21.218304725646973,18.408475032806397,20.89620472564697,18.609875032806396L17.717004725646973,20.598175032806395C17.374504725646972,20.812375032806397,16.969804725646974,20.534775032806397,16.969804725646974,20.130775032806397L16.969804725646974,18.949175032806394L15.993804725646973,18.949175032806394Q13.505704725646973,18.949175032806394,11.951594725646972,16.622875032806398L11.951594725646972,16.622875032806398Z" fill-rule="evenodd" fill="#283248" fill-opacity="1" style="mix-blend-mode:passthrough"/></g></g></svg>