<svg xmlns="http://www.w3.org/2000/svg" xmlns:xlink="http://www.w3.org/1999/xlink" fill="none" version="1.1" width="24" height="24" viewBox="0 0 24 24"><g><g><path d="M11.335039799728394,11.000010038146971L11.335039799728394,4.000009038146972C11.335039799728394,3.6327390381469726,11.632769799728393,3.3350085616069727,12.000039799728393,3.3350085616069727C12.367309799728394,3.3350085616069727,12.665039799728394,3.6327390381469726,12.665039799728394,4.000009038146972L12.665039799728394,11.000010038146971C12.665039799728394,11.367280038146973,12.367309799728394,11.665010038146972,12.000039799728393,11.665010038146972C11.632769799728393,11.665010038146972,11.335039799728394,11.367280038146973,11.335039799728394,11.000010038146971ZM8.222699799728392,5.568140038146973Q6.594999799728393,6.558350038146973,5.644589799728394,8.219950038146973Q4.665039799728394,9.932500038146973,4.665039799728394,11.923090038146972Q4.665039799728394,14.995100038146973,6.815659799728394,17.166400038146975Q8.963649799728394,19.335000038146973,12.000039799728393,19.335000038146973Q15.036399799728393,19.335000038146973,17.184399799728393,17.166400038146975Q19.334999799728394,14.995100038146973,19.334999799728394,11.923090038146972Q19.334999799728394,9.932500038146973,18.355499799728392,8.219950038146973Q17.405099799728394,6.558360038146972,15.777399799728393,5.568140038146973C15.626699799728394,5.476470038146973,15.518599799728394,5.328710038146973,15.476899799728393,5.157340038146973C15.465399799728393,5.110110038146972,15.459099799728394,5.061760038146973,15.458099799728394,5.013160038146973L15.457999799728393,5.000010038146973C15.457999799728393,4.878100038146973,15.491499799728393,4.758540038146973,15.554899799728394,4.654390038146973C15.671499799728393,4.462620038146973,15.877099799728393,4.342650038146973,16.101399799728394,4.335360038146972C16.101399799728394,4.335360038146972,16.122999799728394,4.335010038146972,16.122999799728394,4.335010038146972C16.244899799728394,4.335010038146972,16.364499799728392,4.368520038146973,16.468599799728395,4.431880038146973Q18.38929979972839,5.600330038146973,19.509999799728394,7.559600038146972Q20.664999799728392,9.579000038146972,20.664999799728392,11.923090038146972Q20.664999799728392,13.700000038146973,19.984699799728393,15.323900038146972Q19.327499799728393,16.892600038146973,18.129399799728393,18.10230003814697Q16.930499799728395,19.31270003814697,15.375199799728394,19.976900038146972Q13.763699799728393,20.66500003814697,12.000039799728393,20.66500003814697Q10.236399799728392,20.66500003814697,8.624919799728394,19.976900038146972Q7.069549799728394,19.31270003814697,5.8707097997283935,18.10230003814697Q4.672539799728393,16.892600038146973,4.015367799728393,15.323900038146972Q3.3350387811283935,13.700000038146973,3.3350386023283938,11.923090038146972Q3.3350386619283934,9.579000038146972,4.490099799728394,7.559600038146972Q5.610779799728394,5.600330038146973,7.531459799728394,4.431880038146973C7.634659799728394,4.369100038146973,7.753009799728393,4.335610038146973,7.873799799728394,4.335020038146973L7.877079799728394,4.335010038146972C7.9300897997283935,4.335010038146972,7.982909799728394,4.341350038146973,8.034419799728393,4.3538900381469725C8.205779799728393,4.395620038146973,8.353549799728395,4.503710038146973,8.445209799728394,4.654390038146973C8.507989799728394,4.757590038146972,8.541479799728393,4.875940038146973,8.542079799728395,4.996730038146973L8.542079799728395,5.000010038146973C8.542079799728395,5.053020038146973,8.535739799728393,5.105840038146972,8.523199799728394,5.157340038146973C8.481469799728394,5.328710038146973,8.373379799728394,5.476470038146973,8.222699799728392,5.568140038146973Z" fill-rule="evenodd" fill="#283248" fill-opacity="1"/></g></g></svg>