<svg xmlns="http://www.w3.org/2000/svg" xmlns:xlink="http://www.w3.org/1999/xlink" fill="none" version="1.1" width="24" height="24" viewBox="0 0 24 24"><g><g><path d="M20.895932069396974,6.229305271224975L17.716832069396972,8.217555271224976C17.374232069396975,8.431775271224975,16.969532069396973,8.154195271224975,16.969532069396973,7.7501952712249755L16.969532069396973,6.539295271224976L16.961132069396974,6.539365271224975L16.959432069396975,6.5393752712249755L9.994402069396973,6.557165271224976Q7.330772069396972,6.557165271224976,5.448842069396973,8.432595271224976Q3.5678720693969725,10.307065271224975,3.5678720693969725,12.957495271224976Q3.5678720693969725,15.607975271224976,5.448842069396973,17.482375271224974Q7.330772069396972,19.357775271224977,9.992702069396973,19.357775271224977L14.396332069396973,19.357675271224977Q17.05833206939697,19.357675271224977,18.940232069396973,17.482375271224974Q20.821232069396974,15.607975271224976,20.821232069396974,12.957515271224976C20.821232069396974,12.590245271224976,21.118932069396973,12.292515271224975,21.486232069396973,12.292515271224975C21.853532069396973,12.292515271224975,22.151232069396972,12.590245271224976,22.151232069396972,12.957515271224976Q22.151232069396972,16.160175271224976,19.879032069396974,18.424475271224978Q17.60783206939697,20.687675271224975,14.396432069396973,20.687675271224975L9.992702069396973,20.687775271224975Q6.781212069396973,20.687775271224975,4.510022069396973,18.424475271224978Q2.2378711699969727,16.160175271224976,2.2378711103969726,12.957495271224976Q2.2378711699969727,9.754805271224976,4.510022069396973,7.490515271224975Q6.781212069396973,5.227165271224976,9.991002069396973,5.227175271224976L16.957532069396972,5.2093752712249755L16.959432069396975,5.2093752712249755L16.969532069396973,5.2094452712249755L16.969532069396973,3.846641271224976C16.969532069396973,3.4426352712249755,17.374232069396975,3.1650602712249754,17.716832069396972,3.379282771224976L20.895932069396974,5.3675252712249755C21.218032069396973,5.568985271224975,21.218032069396973,6.0278552712249756,20.895932069396974,6.229305271224975ZM12.198122069396973,15.393575271224975L12.198122069396973,11.244905271224976L11.600702069396972,11.826075271224976C11.476562069396973,11.946845271224976,11.310202069396972,12.014415271224976,11.137002069396972,12.014415271224976C10.769732069396973,12.014415271224976,10.472002069396973,11.716685271224975,10.472002069396973,11.349415271224975C10.472002069396973,11.169875271224974,10.544602069396973,10.997955271224976,10.673302069396973,10.872755271224975L12.399432069396973,9.193565271224976C12.523532069396973,9.072795271224976,12.689932069396972,9.005225271224976,12.863132069396972,9.005225271224976C13.230432069396972,9.005225271224976,13.528132069396973,9.302955271224976,13.528132069396973,9.670225271224975L13.528132069396973,15.393575271224975C13.528132069396973,15.760875271224975,13.230432069396972,16.058575271224974,12.863132069396972,16.058575271224974C12.495832069396972,16.058575271224974,12.198122069396973,15.760875271224975,12.198122069396973,15.393575271224975Z" fill-rule="evenodd" fill="#283248" fill-opacity="1" style="mix-blend-mode:passthrough"/></g></g></svg>