<svg xmlns="http://www.w3.org/2000/svg" xmlns:xlink="http://www.w3.org/1999/xlink" fill="none" version="1.1" width="24" height="24" viewBox="0 0 24 24"><g><g><path d="M12.00030115234375,1.93311399221Q14.32128115234375,1.93311405182,15.96258115234375,3.57471546875Q17.60388115234375,5.21635546875,17.60388115234375,7.53813546875Q17.60388115234375,9.85988546875,15.96258115234375,11.50152546875Q15.83868115234375,11.62543546875,15.71088115234375,11.73998546875Q17.71658115234375,12.65420546875,19.07588115234375,14.48060546875Q20.80188115234375,16.79970546875,20.80188115234375,19.69440546875Q20.80188115234375,20.65950546875,20.12248115234375,21.35760546875Q19.43208115234375,22.06700546875,18.46058115234375,22.06700546875C18.09328115234375,22.06700546875,17.79558115234375,21.76930546875,17.79558115234375,21.40200546875C17.79558115234375,21.03480546875,18.09328115234375,20.73700546875,18.46058115234375,20.73700546875Q18.87058115234375,20.73700546875,19.16938115234375,20.43010546875Q19.47188115234375,20.11920546875,19.47188115234375,19.69440546875Q19.47188115234375,17.24030546875,18.00888115234375,15.27470546875Q16.596581152343752,13.37700546875,14.36338115234375,12.63930546875Q13.28618115234375,13.14310546875,12.00030115234375,13.14310546875Q10.71452115234375,13.14310546875,9.637431152343751,12.63950546875Q7.40304115234375,13.37730546875,5.99041115234375,15.27600546875Q4.52822115234375,17.24120546875,4.52822115234375,19.69450546875Q4.52822115234375,20.11920546875,4.8307211523437505,20.43010546875Q5.12947115234375,20.73710546875,5.53949115234375,20.73710546875C5.9067611523437495,20.73710546875,6.20449115234375,21.03480546875,6.20449115234375,21.40210546875C6.20449115234375,21.76930546875,5.9067611523437495,22.06710546875,5.53949115234375,22.06710546875Q4.56795115234375,22.06710546875,3.87758215234375,21.35770546875Q3.19822019334375,20.65960546875,3.19822067024375,19.69450546875Q3.19822072984375,16.80070546875,4.92336115234375,14.48210546875Q6.28294115234375,12.65470546875,8.28966115234375,11.74020546875Q8.16177115234375,11.62554546875,8.037771152343751,11.50150546875Q6.39671115234375,9.859975468750001,6.39671115234375,7.53813546875Q6.39671115234375,5.2162654687500005,8.037771152343751,3.57472546875Q9.67892115234375,1.93311393261,12.00030115234375,1.93311399221ZM12.00030115234375,3.2631154687499997Q10.229931152343749,3.2631154687499997,8.97836115234375,4.5150454687499995Q7.72671115234375,5.76705546875,7.72671115234375,7.53813546875Q7.72671115234375,9.30918546875,8.97836115234375,10.56118546875Q10.229931152343749,11.81311546875,12.00030115234375,11.81311546875Q13.77028115234375,11.81311546875,15.02198115234375,10.56116546875Q16.273881152343748,9.30906546875,16.273881152343748,7.53813546875Q16.273881152343748,5.76718546875,15.02198115234375,4.5150654687500005Q13.77028115234375,3.2631154687499997,12.00030115234375,3.2631154687499997ZM10.07444115234375,16.01940546875L10.07444115234375,17.61530546875Q10.07444115234375,18.40020546875,10.62947115234375,18.95530546875Q10.92556115234375,19.25140546875,11.28709115234375,19.38950546875L11.28709115234375,21.38170546875C11.28709115234375,21.74900546875,11.58482115234375,22.04670546875,11.95209115234375,22.04670546875C12.31936115234375,22.04670546875,12.61709115234375,21.74900546875,12.61709115234375,21.38170546875L12.61709115234375,19.40230546875Q12.99914115234375,19.26550546875,13.30938115234375,18.95530546875Q13.86438115234375,18.40020546875,13.86438115234375,17.61530546875L13.86438115234375,16.01940546875Q13.86438115234375,15.23450546875,13.30938115234375,14.67950546875Q12.75435115234375,14.12450546875,11.96942115234375,14.12450546875Q11.18449115234375,14.12450546875,10.62947115234375,14.67950546875Q10.07444115234375,15.23450546875,10.07444115234375,16.01940546875ZM11.56992115234375,18.01480546875Q11.40444115234375,17.84930546875,11.40444115234375,17.61530546875L11.40444115234375,16.01940546875Q11.40444115234375,15.78540546875,11.56992115234375,15.61990546875Q11.73540115234375,15.45450546875,11.96942115234375,15.45450546875Q12.20344115234375,15.45450546875,12.36892115234375,15.61990546875Q12.53440115234375,15.78540546875,12.53440115234375,16.01940546875L12.53440115234375,17.61530546875Q12.53440115234375,17.84930546875,12.36892115234375,18.01480546875Q12.20344115234375,18.18030546875,11.96942115234375,18.18030546875Q11.73540115234375,18.18030546875,11.56992115234375,18.01480546875Z" fill-rule="evenodd" fill="#283248" fill-opacity="1" style="mix-blend-mode:passthrough"/></g></g></svg>