<svg xmlns="http://www.w3.org/2000/svg" xmlns:xlink="http://www.w3.org/1999/xlink" fill="none" version="1.1" width="24" height="24" viewBox="0 0 24 24"><g transform="matrix(1,-4.214685134229512e-8,4.214685134229512e-8,1,0,0)"><g><path d="M17.34868965110779,12.91145179840088L18.05478965110779,12.205381798400879Q19.351289651107788,10.90887179840088,19.351289651107788,9.075331798400878Q19.351289651107788,7.241781798400879,18.05478965110779,5.945271798400879Q16.758189651107788,4.648731798400879,14.924689651107789,4.648761798400879Q13.091069651107787,4.648781798400879,11.794559651107788,5.945351798400878L11.088619651107788,6.651341798400878C10.82890965110779,6.911051798400878,10.407859651107788,6.911051798400878,10.148149651107788,6.651351798400879C10.023439651107788,6.526641798400879,9.953379651107788,6.357511798400878,9.953379651107788,6.181141798400879C9.953369651107788,6.004781798400879,10.023429651107788,5.835631798400879,10.148139651107787,5.710911798400879L10.854089651107788,5.004931798400879Q12.540129651107788,3.318790435800879,14.924589651107787,3.3187580109008787Q17.30908965110779,3.318726539600879,18.995189651107786,5.004821798400879Q20.68128965110779,6.690881798400879,20.68128965110779,9.075331798400878Q20.68128965110779,11.45978179840088,18.995189651107786,13.145841798400879L18.28918965110779,13.85194179840088C18.029489651107788,14.111641798400878,17.60838965110779,14.111641798400878,17.34868965110779,13.85194179840088C17.088989651107788,13.59224179840088,17.088989651107788,13.17115179840088,17.34868965110779,12.91145179840088ZM14.008689651107789,9.04851179840088L9.090559651107789,13.966641798400879C8.830859651107788,14.22634179840088,8.830859651107788,14.647341798400879,9.090559651107789,14.90704179840088C9.215279651107789,15.031741798400878,9.384419651107788,15.101841798400878,9.560789651107788,15.101841798400878C9.737159651107788,15.101841798400878,9.906299651107787,15.031741798400878,10.031019651107787,14.90704179840088L14.949089651107789,9.988971798400879C15.073789651107788,9.864251798400879,15.143889651107788,9.695111798400879,15.143889651107788,9.518741798400878C15.143889651107788,9.34237179840088,15.073789651107788,9.173231798400879,14.949089651107789,9.04851179840088C14.689389651107788,8.788811798400879,14.268389651107787,8.788811798400879,14.008689651107789,9.04851179840088ZM13.898689651107787,18.24234179840088L13.146399651107789,18.994641798400878Q11.460329651107788,20.680741798400877,9.075889651107788,20.680641798400877Q6.6914496511077886,20.680641798400877,5.005389651107788,18.994641798400878Q3.319301605107788,17.30854179840088,3.319331646107788,14.924041798400879Q3.319361925107788,12.539551798400879,5.0054996511077885,10.85350179840088L5.757679651107788,10.101361798400879C5.882409651107788,9.976631798400879,6.051559651107788,9.906581798400879,6.227919651107788,9.906581798400879C6.393249651107788,9.906591798400878,6.552639651107788,9.968171798400878,6.675019651107788,10.07932179840088C6.682899651107788,10.086481798400879,6.690609651107788,10.093831798400878,6.698129651107788,10.101361798400879C6.9248396511077885,10.32807179840088,6.957509651107788,10.68425179840088,6.775839651107788,10.94841179840088C6.752839651107788,10.981851798400879,6.7268296511077885,11.013111798400878,6.698129651107788,11.041811798400879L5.945919651107788,11.793981798400878Q4.649359651107789,13.090481798400878,4.649329651107788,14.924041798400879Q4.649309651107788,16.75764179840088,5.945849651107788,18.054141798400877Q7.242349651107788,19.35064179840088,9.075889651107788,19.35064179840088Q10.909439651107789,19.35074179840088,12.205949651107789,18.054141798400877L12.958239651107789,17.30194179840088C13.184939651107788,17.07524179840088,13.541089651107788,17.04254179840088,13.805289651107788,17.22424179840088C13.838689651107789,17.24724179840088,13.869989651107788,17.27324179840088,13.898689651107787,17.30194179840088C14.023389651107788,17.42664179840088,14.093489651107788,17.59574179840088,14.093489651107788,17.77214179840088C14.093489651107788,17.93744179840088,14.031889651107788,18.09684179840088,13.920689651107788,18.21924179840088C13.913589651107788,18.22714179840088,13.906189651107788,18.23484179840088,13.898689651107787,18.24234179840088Z" fill-rule="evenodd" fill="#283248" fill-opacity="1"/></g></g></svg>