<svg xmlns="http://www.w3.org/2000/svg" xmlns:xlink="http://www.w3.org/1999/xlink" fill="none" version="1.1" width="24" height="24" viewBox="0 0 24 24"><defs><clipPath id="master_svg0_13504_012211"><rect x="0" y="0" width="24" height="24" rx="0"/></clipPath></defs><g clip-path="url(#master_svg0_13504_012211)"><g><path d="M12.8479609375,10.748751972656251Q14.1649609375,9.39716197265625,14.1649609375,7.50003197265625Q14.1649609375,5.5677219726562495,12.7986609375,4.20138197265625Q11.4323109375,2.83503043651625,9.500000937500001,2.83503049611625Q7.5676909375,2.83503031730625,6.2013509375,4.20138197265625Q4.8350009375,5.5677219726562495,4.8350009375,7.50003197265625Q4.8350009375,9.40135197265625,6.1578809375,10.754721972656249Q1.8544167375,13.27472197265625,1.8516594375,19.01872197265625L1.8354225155,19.47632197265625C1.8354181645,19.47642197265625,1.8349999785,19.50002197265625,1.8349999785,19.50002197265625C1.8349998595,19.53272197265625,1.8374139475,19.56542197265625,1.8422225675,19.59772197265625C1.8893454375,19.91492197265625,2.1560209375,20.15322197265625,2.4764209375,20.16462197265625C2.4764209375,20.16462197265625,2.4999999375,20.16502197265625,2.4999999375,20.16502197265625L2.5083719374999998,20.16502197265625C2.6736799375,20.16292197265625,2.8322859375,20.09932197265625,2.9532609375,19.98662197265625C3.0823109375,19.86642197265625,3.1583309374999997,19.69982197265625,3.1645809375000002,19.52362197265625L3.1812409375,19.05402197265625C3.1812409375,19.05402197265625,3.1816609375000002,19.03032197265625,3.1816609375000002,19.03032197265625Q3.1801009375,13.87712197265625,7.0836609375,11.75941197265625L7.2246409375,11.68287197265625L7.3111209375,11.63423197265625Q8.2956309375,12.16503197265625,9.500000937500001,12.16503197265625Q10.7089909375,12.16503197265625,11.6964209375,11.63015197265625L11.7699509375,11.67077197265625L11.9324609375,11.75910197265625Q15.8263609375,13.87672197265625,15.8248609375,19.03032197265625L15.8351609375,19.51402197265625L15.8351609375,19.51402197265625C15.8420609375,19.83492197265625,16.076760937499998,20.10492197265625,16.3931609375,20.15642197265625C16.4284609375,20.16212197265625,16.4642609375,20.16502197265625,16.4999609375,20.16502197265625C16.4999609375,20.16502197265625,16.5143609375,20.16482197265625,16.5143609375,20.16482197265625C16.6906609375,20.16102197265625,16.8582609375,20.08732197265625,16.9802609375,19.96002197265625C17.094660937500002,19.84062197265625,17.160360937500002,19.68282197265625,17.1647609375,19.51762197265625C17.1647609375,19.51762197265625,17.1649609375,19.50002197265625,17.1649609375,19.50002197265625C17.1649609375,19.50002197265625,17.164860937500002,19.48562197265625,17.164860937500002,19.48562197265625L17.164860937500002,19.48562197265625L17.1548609375,19.03072197265625Q17.1565609375,13.27062197265625,12.8479609375,10.748751972656251ZM14.4999609375,2.83503049611625Q16.4322609375,2.83503043651625,17.7986609375,4.20138197265625Q19.1649609375,5.5677219726562495,19.1649609375,7.50003197265625Q19.1649609375,9.08300197265625,18.2039609375,10.33642197265625Q18.0355609375,10.55604197265625,17.8498609375,10.749881972656251Q22.1565609375,13.27192197265625,22.1548609375,19.03072197265625L22.1648609375,19.48522197265625L22.1648609375,19.48522197265625C22.1648609375,19.48562197265625,22.1649609375,19.50002197265625,22.1649609375,19.50002197265625C22.1649609375,19.50002197265625,22.1647609375,19.51762197265625,22.1647609375,19.51762197265625C22.1603609375,19.68282197265625,22.0946609375,19.84062197265625,21.9802609375,19.96002197265625C21.8582609375,20.08732197265625,21.6906609375,20.16102197265625,21.5143609375,20.16482197265625C21.5143609375,20.16482197265625,21.4999609375,20.16502197265625,21.4999609375,20.16502197265625C21.4642609375,20.16502197265625,21.4284609375,20.16212197265625,21.3931609375,20.15642197265625C21.0767609375,20.10492197265625,20.8420609375,19.83492197265625,20.8351609375,19.51442197265625L20.8351609375,19.51442197265625L20.8248609375,19.03032197265625Q20.8263609375,13.87672197265625,16.9324609375,11.75910197265625L16.769960937500002,11.67077197265625L16.689060937500003,11.62608197265625Q16.2616609375,11.85030197265625,15.7764609375,11.98807197265625C15.7218609375,12.00355197265625,15.6657609375,12.01199197265625,15.6092609375,12.01324197265625C15.6092609375,12.01324197265625,15.5946609375,12.01340197265625,15.5946609375,12.01340197265625C15.2973609375,12.01340197265625,15.0361609375,11.81603197265625,14.9549609375,11.53001197265625C14.9386609375,11.47266197265625,14.9301609375,11.41338197265625,14.9296609375,11.35377197265625L14.9296609375,11.34840197265625C14.9296609375,11.23501197265625,14.9586609375,11.12350197265625,15.0138609375,11.02447197265625C15.0997609375,10.87044197265625,15.2433609375,10.75685197265625,15.4130609375,10.708681972656251Q16.4732609375,10.40767197265625,17.148460937499998,9.52713197265625Q17.8349609375,8.63179197265625,17.8349609375,7.50003197265625Q17.8349609375,6.1186319726562495,16.8581609375,5.1418319726562505Q15.8813609375,4.16503197265625,14.4999609375,4.16503197265625C14.1327609375,4.16503197265625,13.8349609375,3.86730197265625,13.8349609375,3.50003097265625C13.8349609375,3.13276097265625,14.1327609375,2.83503049611625,14.4999609375,2.83503049611625ZM11.8581609375,5.1418319726562505Q12.8349609375,6.1186319726562495,12.8349609375,7.50003197265625Q12.8349609375,8.88143197265625,11.8581609375,9.858231972656249Q10.8814009375,10.83503197265625,9.500000937500001,10.83503197265625Q8.1186009375,10.83503197265625,7.1418009375,9.858231972656249Q6.1650009375,8.88143197265625,6.1650009375,7.50003197265625Q6.1650009375,6.1186319726562495,7.1418009375,5.1418319726562505Q8.1186009375,4.16503197265625,9.500000937500001,4.16503197265625Q10.8814009375,4.16503197265625,11.8581609375,5.1418319726562505ZM2.8947909375,5.28485197265625Q2.5362699375,6.33324197265625,2.5362699375,7.45087197265625Q2.5362699375,8.62829197265625,2.9332209375,9.72614197265625C3.0259709375,9.982671972656249,3.2659709374999997,10.15654197265625,3.5386309375,10.16473197265625C3.5386309375,10.16473197265625,3.5585909375,10.16503197265625,3.5585909375,10.16503197265625C3.6356909374999997,10.16503197265625,3.7122009375,10.151621972656251,3.7847109375,10.12541197265625C3.9505709375,10.065441972656249,4.0858109375,9.94204197265625,4.1606909375,9.782351972656251C4.2019009375,9.69446197265625,4.2233709375,9.598601972656251,4.2235909375,9.501531972656249L4.2235909375,9.500031972656249C4.2235909375,9.42293197265625,4.2101909375,9.34642197265625,4.1839709375,9.27391197265625Q3.8662709375,8.39523197265625,3.8662709375,7.45087197265625Q3.8662709375,6.55437197265625,4.1532409375,5.71520197265625C4.1767909375,5.64634197265625,4.1888709375,5.57409197265625,4.1890109375,5.50131197265625L4.1890109375,5.5000319726562505C4.1890109375,5.21569197265625,4.0082309375000005,4.96281197265625,3.7391909375,4.87080197265625C3.6703309375,4.84726197265625,3.5980709375,4.83517197265625,3.5252909375000003,4.83503197265625L3.5240109375,4.83503197265625C3.2396709374999997,4.83503197265625,2.9867909375,5.01581197265625,2.8947909375,5.28485197265625ZM21.1052609375,5.28485197265625Q21.4637609375,6.3332519726562495,21.4637609375,7.45087197265625Q21.4637609375,8.62823197265625,21.0668609375,9.726041972656251C20.9740609375,9.982661972656249,20.7340609375,10.15654197265625,20.4613609375,10.16473197265625C20.4613609375,10.16473197265625,20.4413609375,10.16503197265625,20.4413609375,10.16503197265625C20.3642609375,10.16503197265625,20.2877609375,10.151621972656251,20.2152609375,10.12541197265625C20.0494609375,10.065441972656249,19.9141609375,9.94204197265625,19.8392609375,9.782351972656251C19.7980609375,9.69446197265625,19.7766609375,9.598601972656251,19.7763609375,9.501531972656249L19.7763609375,9.500031972656249C19.7763609375,9.42293197265625,19.7898609375,9.34642197265625,19.8160609375,9.27391197265625L19.8160609375,9.27391197265625Q20.1337609375,8.395021972656249,20.1337609375,7.45087197265625Q20.1337609375,6.55437197265625,19.8467609375,5.71520197265625C19.8232609375,5.64634197265625,19.8111609375,5.57409197265625,19.8109609375,5.50131197265625L19.8109609375,5.5000319726562505C19.8109609375,5.21569197265625,19.9917609375,4.96281197265625,20.2607609375,4.87080197265625C20.3296609375,4.84726197265625,20.4019609375,4.83517197265625,20.4746609375,4.83503197265625L20.4759609375,4.83503197265625C20.7603609375,4.83503197265625,21.0131609375,5.01581197265625,21.1052609375,5.28485197265625Z" fill-rule="evenodd" fill="#283248" fill-opacity="1" style="mix-blend-mode:passthrough"/></g></g></svg>