<svg xmlns="http://www.w3.org/2000/svg" xmlns:xlink="http://www.w3.org/1999/xlink" fill="none" version="1.1" width="24" height="24" viewBox="0 0 24 24"><g><g><path d="M17.999999561309814,5.164980038146973L6.000038561309815,5.164980038146973C5.632769561309814,5.164980038146973,5.335038602309814,4.867250038146972,5.335038602309814,4.499978038146972C5.335038602309814,4.132709038146973,5.632769561309814,3.8349780440469727,6.000038561309815,3.8349780440469727L17.999999561309814,3.8349780440469727C18.367299561309814,3.8349780440469727,18.664999561309813,4.132709038146973,18.664999561309813,4.499978038146972C18.664999561309813,4.867250038146972,18.367299561309814,5.164980038146973,17.999999561309814,5.164980038146973ZM11.998799561309815,6.8349800381469725C11.820439561309815,6.833440038146973,11.648949561309815,6.903610038146972,11.522829561309814,7.0297300381469725L5.529812561309814,13.022750038146972C5.270113861309815,13.282440038146973,5.270113861309815,13.703500038146972,5.529812561309814,13.963200038146972C5.789511561309815,14.222900038146973,6.2105655613098145,14.222900038146973,6.470269561309815,13.963200038146972L11.335039561309815,9.098420038146973L11.335039561309815,19.500000038146972C11.335039561309815,19.867200038146972,11.632769561309814,20.16500003814697,12.000039561309816,20.16500003814697C12.367309561309813,20.16500003814697,12.665039561309815,19.867200038146972,12.665039561309815,19.500000038146972L12.665039561309815,9.112390038146973L17.529799561309815,13.977200038146973C17.789499561309814,14.236900038146972,18.210599561309813,14.236900038146972,18.470299561309815,13.977200038146973C18.729999561309814,13.717460038146973,18.729999561309814,13.296410038146973,18.470299561309815,13.036710038146973L12.523879561309816,7.0903300381469725C12.397849561309815,6.929160038146973,12.204639561309815,6.8349800381469725,12.000039561309816,6.8349800381469725L11.998799561309815,6.8349800381469725Z" fill-rule="evenodd" fill="#283248" fill-opacity="1"/></g></g></svg>