<svg xmlns="http://www.w3.org/2000/svg" xmlns:xlink="http://www.w3.org/1999/xlink" fill="none" version="1.1" width="24" height="24" viewBox="0 0 24 24"><g><g><path d="M13.820146522521974,7.841431566467286Q12.347446522521972,8.596681566467286,10.285786522521972,9.487691566467285C10.042266522521974,9.592941566467285,9.884596522521973,9.832841566467284,9.884596522521973,10.098121566467285C9.884596522521973,10.098121566467285,9.884916522521973,10.118721566467286,9.884916522521973,10.118721566467286C9.887516522521974,10.202491566467284,9.905916522521974,10.285011566467286,9.939166522521973,10.361941566467285C10.009136522521974,10.523841566467286,10.140556522521972,10.651311566467285,10.304506522521972,10.716311566467285C10.382516522521973,10.747241566467284,10.465676522521973,10.763121566467285,10.549596522521973,10.763121566467285L10.559726522521972,10.763051566467286C10.647046522521972,10.761721566467285,10.733256522521973,10.743201566467285,10.813416522521972,10.708561566467285Q13.440246522521972,9.573301566467286,15.149846522521973,8.643511566467286Q16.85944652252197,9.573301566467286,19.486246522521974,10.708561566467285C19.56634652252197,10.743201566467285,19.652546522521973,10.761721566467285,19.739946522521972,10.763051566467286L19.750046522521973,10.763121566467285C19.833946522521973,10.763121566467285,19.91714652252197,10.747241566467284,19.995146522521974,10.716311566467285C20.159046522521972,10.651311566467285,20.29054652252197,10.523841566467286,20.360446522521972,10.361941566467285C20.393746522521973,10.285011566467286,20.412146522521972,10.202491566467284,20.414746522521973,10.118721566467286C20.414746522521973,10.118721566467286,20.415046522521973,10.098121566467285,20.415046522521973,10.098121566467285C20.415046522521973,9.832841566467284,20.257346522521974,9.592941566467285,20.013846522521973,9.487691566467285Q17.95214652252197,8.596681566467286,16.47954652252197,7.841431566467286Q17.16914652252197,7.371831566467286,17.805346522521972,6.816091566467286Q19.192746522521972,5.6040815664672845,19.700446522521972,4.4636355664672855C19.77214652252197,4.3025115664672855,19.77694652252197,4.119492566467285,19.713746522521973,3.954840566467285C19.650546522521974,3.790188566467285,19.524546522521973,3.6573925664672853,19.363346522521972,3.5856643664672854C19.27824652252197,3.5477678664672854,19.186146522521973,3.5281848704372853,19.092946522521974,3.528184831147285L11.206776522521972,3.528184831147285L11.206776522521972,3.528184831147285L11.199416522521974,3.528225604667285C11.108696522521972,3.5292209764672853,11.019146522521973,3.548768166467285,10.936266522521972,3.585664466467285C10.775136522521972,3.6573925664672853,10.649106522521972,3.790188566467285,10.585896522521972,3.954840566467285C10.558576522521973,4.025991566467285,10.543696522521973,4.101308566467285,10.541896522521972,4.177501566467285C10.541896522521972,4.177501566467285,10.541716522521973,4.193189566467285,10.541716522521973,4.193189566467285C10.541716522521973,4.286369566467285,10.561296522521973,4.378509566467285,10.599196522521973,4.4636355664672855L10.599196522521973,4.4636355664672855L10.599666522521973,4.464703566467286Q11.107546522521973,5.604651566467285,12.494346522521973,6.816091566467286Q13.130446522521973,7.371831566467286,13.820146522521974,7.841431566467286ZM15.149846522521973,7.114541566467285Q16.090946522521975,6.547691566467285,16.930346522521972,5.814451566467286Q17.497446522521972,5.319001566467286,17.880746522521974,4.858181566467286L12.418946522521972,4.858181566467286Q12.802146522521973,5.319001566467286,13.369346522521973,5.814451566467286Q14.208646522521972,6.547691566467285,15.149846522521973,7.114541566467285ZM3.9692965225219727,5.118481566467285L6.572956522521973,6.8542415664672856C6.682196522521973,6.927071566467285,6.810546522521973,6.965931566467285,6.941826522521973,6.965931566467285L6.944386522521973,6.965921566467285C7.165826522521972,6.9650715664672855,7.372316522521973,6.854051566467286,7.495146522521972,6.669801566467285C7.5679665225219725,6.560561566467285,7.606826522521972,6.432221566467286,7.606836522521973,6.300931566467286L7.606826522521972,6.298961566467286C7.606696522521973,6.255831566467285,7.602376522521973,6.212811566467285,7.5939165225219725,6.170511566467285C7.559326522521973,5.997561566467285,7.457456522521973,5.845441566467285,7.310706522521973,5.747611566467285L4.707046522521972,4.011849566467285C4.597806522521973,3.9390245664672854,4.4694565225219725,3.900163566467285,4.338176522521973,3.900163566467285L4.335616522521972,3.9001685664672854C4.114176522521973,3.9010195664672853,3.907696522521973,4.012038566467285,3.784856522521973,4.1962885664672855C3.7120365225219727,4.305526566467285,3.6731765225219726,4.433876566467285,3.6731765225219726,4.565161566467285L3.6731765225219726,4.567721566467285C3.674026522521973,4.7891615664672855,3.7850465225219727,4.995641566467285,3.9692965225219727,5.118481566467285ZM8.643996522521974,19.048791566467287L6.040346522521973,20.323491566467286C5.881936522521973,20.400991566467287,5.699216522521972,20.412491566467285,5.532366522521972,20.355291566467287C5.365526522521973,20.298091566467285,5.228226522521973,20.176991566467287,5.150676522521973,20.018591566467286C5.106106522521973,19.927591566467285,5.0829365225219725,19.827591566467284,5.0829365225219725,19.726191566467286L5.0829365225219725,10.763121566467285L2.900185522521973,10.763121566467285C2.5329165225219725,10.763121566467285,2.2351855635219726,10.465391566467286,2.2351855635219726,10.098121566467285C2.2351855635219726,9.730851566467285,2.5329165225219725,9.433121566467285,2.900185522521973,9.433121566467285L5.7479365225219725,9.433121566467285C6.115206522521973,9.433121566467285,6.4129365225219725,9.730851566467285,6.4129365225219725,10.098121566467285L6.4129365225219725,18.660191566467283L8.059186522521973,17.854191566467286C8.147626522521973,17.810891566467284,8.244576522521973,17.787791566467284,8.343036522521974,17.786591566467287L8.351596522521973,17.786491566467284C8.424936522521973,17.786491566467284,8.497776522521972,17.798591566467287,8.567156522521973,17.822391566467285C8.734006522521973,17.879591566467283,8.871306522521973,18.000691566467285,8.948856522521972,18.159091566467286C8.990616522521972,18.244391566467286,9.013626522521973,18.337691566467285,9.016326522521972,18.432591566467288C9.016326522521972,18.432591566467288,9.016596522521972,18.451491566467283,9.016596522521972,18.451491566467283C9.016596522521972,18.705391566467284,8.872026522521972,18.937091566467284,8.643996522521974,19.048791566467287ZM14.343846522521973,13.780691566467285L14.343846522521973,15.913291566467285L9.500036522521974,15.913291566467285C9.132766522521973,15.913291566467285,8.835036522521973,16.211091566467285,8.835036522521973,16.578291566467286C8.835036522521973,16.945591566467286,9.132766522521973,17.243291566467285,9.500036522521974,17.243291566467285L14.343846522521973,17.243291566467285L14.343846522521973,20.513191566467285C14.343846522521973,20.880391566467285,14.641546522521972,21.178191566467284,15.008846522521972,21.178191566467284C15.376146522521973,21.178191566467284,15.673846522521973,20.880391566467285,15.673846522521973,20.513191566467285L15.673846522521973,17.243291566467285L20.500046522521973,17.243291566467285C20.867346522521974,17.243291566467285,21.165046522521973,16.945591566467286,21.165046522521973,16.578291566467286C21.165046522521973,16.211091566467285,20.867346522521974,15.913291566467285,20.500046522521973,15.913291566467285L15.673846522521973,15.913291566467285L15.673846522521973,13.780691566467285L18.943646522521973,13.780691566467285C18.98424652252197,13.780691566467285,19.024746522521973,13.776991566467284,19.064646522521972,13.769591566467286C19.379946522521973,13.711291566467285,19.608646522521973,13.436331566467285,19.608646522521973,13.115731566467286C19.608646522521973,12.795131566467285,19.379946522521973,12.520171566467285,19.064646522521972,12.461831566467286C19.024746522521973,12.454451566467284,18.98424652252197,12.450731566467285,18.943646522521973,12.450731566467285L15.673846522521973,12.450731566467285L15.673846522521973,11.069541566467286C15.673846522521973,10.702271566467285,15.376146522521973,10.404541566467286,15.008846522521972,10.404541566467286C14.641546522521972,10.404541566467286,14.343846522521973,10.702271566467285,14.343846522521973,11.069541566467286L14.343846522521973,12.450731566467285L11.074016522521973,12.450731566467285C10.706746522521973,12.450731566467285,10.409016522521974,12.748461566467284,10.409016522521974,13.115731566467286C10.409016522521974,13.483001566467285,10.706746522521973,13.780691566467285,11.074016522521973,13.780691566467285L14.343846522521973,13.780691566467285Z" fill-rule="evenodd" fill="#283248" fill-opacity="1"/></g></g></svg>