<svg xmlns="http://www.w3.org/2000/svg" xmlns:xlink="http://www.w3.org/1999/xlink" fill="none" version="1.1" width="24" height="24" viewBox="0 0 24 24"><g><g><path d="M20.98640003814697,15.557700038146972Q21.66500003814697,13.843600038146972,21.66500003814697,12.000040038146972Q21.66500003814697,10.156510038146973,20.98640003814697,8.442400038146973Q20.249600038146973,6.581260038146973,18.83420003814697,5.1658500381469725Q17.418800038146973,3.7504500381469725,15.557700038146972,3.0136350381469725Q13.843600038146972,2.3350391387469727,12.000040038146972,2.3350390791469726Q10.156500038146973,2.3350390791469726,8.442400038146973,3.0136350381469725Q6.581260038146973,3.7504500381469725,5.1658500381469725,5.1658500381469725Q3.7504500381469725,6.581260038146973,3.0136350381469725,8.442400038146973Q2.3350391387469727,10.156500038146973,2.3350390791469726,12.000040038146972Q2.3350390791469726,13.843600038146972,3.0136350381469725,15.557700038146972Q3.750440038146973,17.418800038146973,5.1658500381469725,18.83420003814697Q6.5812500381469725,20.249600038146973,8.442400038146973,20.98640003814697Q10.156500038146973,21.66500003814697,12.000040038146972,21.66500003814697Q13.843600038146972,21.66500003814697,15.557700038146972,20.98640003814697Q17.418800038146973,20.249600038146973,18.83420003814697,18.83420003814697Q20.249600038146973,17.418800038146973,20.98640003814697,15.557700038146972ZM19.749800038146972,8.931970038146972Q20.335000038146973,10.410190038146972,20.335000038146973,12.000040038146972Q20.335000038146973,13.589900038146972,19.749800038146972,15.068100038146973Q19.11440003814697,16.673100038146973,17.89380003814697,17.89380003814697Q16.673100038146973,19.11440003814697,15.068100038146973,19.749800038146972Q13.589900038146972,20.335000038146973,12.000040038146972,20.335000038146973Q10.410190038146972,20.335000038146973,8.931970038146972,19.749800038146972Q7.326930038146973,19.11440003814697,6.106300038146973,17.89380003814697Q4.885670038146973,16.673100038146973,4.250250038146973,15.068100038146973Q3.6650400381469725,13.589900038146972,3.6650400381469725,12.000040038146972Q3.6650400381469725,10.410190038146972,4.250250038146973,8.931970038146972Q4.885670038146973,7.326940038146972,6.106300038146973,6.106300038146973Q7.326940038146972,4.885670038146973,8.931970038146972,4.250250038146973Q10.410190038146972,3.6650400381469725,12.000040038146972,3.6650400381469725Q13.589900038146972,3.6650400381469725,15.068100038146973,4.250250038146973Q16.673100038146973,4.885670038146973,17.89380003814697,6.106300038146973Q19.11440003814697,7.326930038146973,19.749800038146972,8.931970038146972ZM10.762380038146972,9.904860038146973L10.762380038146972,9.904860038146973Q11.698620038146972,9.500980038146974,12.425100038146972,9.145800038146973Q12.298540038146973,9.043720038146972,12.175320038146973,8.936290038146971Q11.326820038146973,8.196430038146973,11.010190038146973,7.486500038146973C11.010190038146973,7.486500038146973,11.000290038146973,7.4629600381469725,11.000290038146973,7.4629600381469725C11.000290038146973,7.4629600381469725,10.998580038146972,7.458610038146973,10.998580038146972,7.458610038146973C10.863390038146973,7.3446000381469725,10.785370038146972,7.1767600381469725,10.785370038146972,6.999920038146973C10.785370038146972,6.6685500381469724,11.054000038146972,6.3999200381469725,11.385370038146972,6.3999200381469725L16.009300038146975,6.3999200381469725C16.09350003814697,6.3999200381469725,16.176800038146972,6.417640038146972,16.253700038146974,6.451950038146973C16.399000038146973,6.516760038146972,16.512700038146974,6.636660038146973,16.569600038146973,6.785260038146973C16.626500038146972,6.933850038146972,16.622100038146975,7.098980038146973,16.557300038146973,7.244310038146972Q16.240600038146972,7.954240038146972,15.392100038146973,8.694100038146972Q15.085300038146972,8.961610038146972,14.757800038146973,9.195890038146974Q15.610900038146973,9.631900038146973,16.804700038146972,10.146870038146972L16.804700038146972,10.146870038146972C17.02500003814697,10.241910038146973,17.167400038146972,10.458470038146972,17.167400038146972,10.697980038146973C17.167400038146972,10.697980038146973,17.167100038146973,10.716150038146973,17.167100038146973,10.716150038146973C17.164900038146975,10.791730038146973,17.14830003814697,10.866200038146973,17.118300038146973,10.935630038146973C17.02350003814697,11.155540038146972,16.80690003814697,11.297970038146973,16.56740003814697,11.297970038146973C16.56740003814697,11.297970038146973,16.54920003814697,11.297700038146973,16.54920003814697,11.297700038146973C16.473700038146973,11.295410038146972,16.399200038146972,11.278850038146972,16.32980003814697,11.248900038146973L16.32980003814697,11.248900038146973Q14.628800038146972,10.515110038146974,13.576700038146972,9.925410038146973Q13.568600038146972,9.920820038146973,13.560400038146973,9.916230038146972Q12.610400038146972,10.414520038146973,11.238150038146973,11.006520038146972L11.238150038146973,11.006520038146972C11.168270038146973,11.036660038146973,11.093800038146973,11.053220038146973,11.018220038146973,11.055510038146974C11.018220038146973,11.055510038146974,11.000040038146972,11.055790038146972,11.000040038146972,11.055790038146972C10.760540038146972,11.055790038146972,10.543980038146973,10.913360038146973,10.449110038146973,10.693450038146972C10.419160038146973,10.624010038146972,10.402610038146973,10.549550038146972,10.400310038146973,10.473970038146973C10.400310038146973,10.473970038146973,10.400040038146972,10.455790038146972,10.400040038146972,10.455790038146972C10.400040038146972,10.216290038146973,10.542470038146973,9.999730038146971,10.762380038146972,9.904860038146973ZM7.198430038146973,7.959290038146973L8.725030038146972,8.975130038146972C8.823500038146973,9.040650038146973,8.939140038146974,9.075610038146973,9.057420038146972,9.075610038146973L9.059710038146973,9.075610038146973C9.098630038146972,9.075460038146971,9.137440038146973,9.071530038146973,9.175590038146971,9.063860038146974C9.331610038146973,9.032520038146973,9.468780038146972,8.940480038146973,9.556940038146973,8.808010038146973C9.622460038146972,8.709530038146973,9.657420038146974,8.593890038146974,9.657420038146974,8.475610038146971L9.657420038146974,8.473320038146973C9.657270038146972,8.434410038146972,9.653330038146972,8.395600038146974,9.645670038146973,8.357440038146972C9.614330038146973,8.201430038146974,9.522290038146974,8.064250038146973,9.389810038146972,7.976100038146972L7.863220038146973,6.960260038146973C7.764720038146972,6.894720038146973,7.649080038146972,6.859760038146972,7.530800038146973,6.859760038146972L7.527980038146973,6.859760038146972C7.328190038146973,6.860700038146972,7.141970038146972,6.961030038146973,7.031290038146973,7.127360038146973C6.965760038146973,7.225830038146973,6.930800038146972,7.3414800381469725,6.930800038146972,7.459760038146973L6.930810038146973,7.462570038146973C6.931750038146973,7.662370038146973,7.032070038146973,7.848590038146972,7.198430038146973,7.959290038146973ZM14.603500038146972,7.789640038146973Q14.128500038146973,8.203800038146973,13.596500038146972,8.524500038146972Q13.268500038146973,8.297370038146973,12.964000038146972,8.031830038146973Q12.707600038146973,7.808250038146973,12.519800038146972,7.599920038146973L14.811600038146972,7.599920038146973Q14.713900038146972,7.6933700381469725,14.603500038146972,7.789640038146973ZM8.620710038146973,16.871800038146972L10.147330038146972,16.125800038146973C10.353290038146973,16.025200038146973,10.483900038146972,15.816000038146973,10.483900038146972,15.586700038146972C10.483900038146972,15.586700038146972,10.483670038146972,15.570100038146972,10.483670038146972,15.570100038146972C10.481300038146973,15.484500038146972,10.460600038146973,15.400300038146973,10.422970038146973,15.323300038146973C10.353110038146973,15.180300038146973,10.229310038146973,15.071000038146973,10.078810038146973,15.019300038146973C10.016080038146972,14.997700038146972,9.950220038146973,14.986700038146973,9.883900038146972,14.986700038146973L9.876620038146973,14.986800038146972C9.787780038146973,14.987900038146973,9.700290038146973,15.008600038146973,9.620470038146973,15.047700038146973L8.957280038146973,15.371700038146972L8.957280038146973,10.697920038146973C8.957280038146973,10.366540038146972,8.688650038146973,10.097920038146974,8.357280038146973,10.097920038146974L6.687540038146973,10.097920038146974C6.356170038146972,10.097920038146974,6.087540038146972,10.366540038146972,6.087540038146972,10.697920038146973C6.087540038146972,11.029290038146973,6.356170038146972,11.297920038146973,6.687540038146973,11.297920038146973L7.757280038146972,11.297920038146973L7.757280038146972,16.332700038146974C7.757280038146972,16.424100038146975,7.778120038146973,16.514200038146974,7.818200038146973,16.596200038146975C7.963690038146972,16.893900038146974,8.322990038146973,17.01730003814697,8.620710038146973,16.871800038146972ZM13.187100038146973,11.266520038146973L13.187100038146973,11.864030038146973L11.480020038146973,11.864030038146973C11.148650038146974,11.864030038146973,10.880020038146972,12.132660038146973,10.880020038146972,12.464000038146972C10.880020038146972,12.795400038146973,11.148650038146974,13.064000038146972,11.480020038146973,13.064000038146972L13.187100038146973,13.064000038146972L13.187100038146973,13.890500038146973L10.557170038146973,13.890500038146973C10.225800038146971,13.890500038146973,9.957170038146973,14.159100038146972,9.957170038146973,14.490500038146973C9.957170038146973,14.821900038146973,10.225800038146971,15.090500038146972,10.557170038146973,15.090500038146972L13.187100038146973,15.090500038146972L13.187100038146973,16.79340003814697C13.187100038146973,17.124800038146972,13.455800038146972,17.39340003814697,13.787100038146972,17.39340003814697C14.118500038146973,17.39340003814697,14.387100038146972,17.124800038146972,14.387100038146972,16.79340003814697L14.387100038146972,15.090500038146972L17.006900038146973,15.090500038146972C17.338200038146972,15.090500038146972,17.606900038146975,14.821900038146973,17.606900038146975,14.490500038146973C17.606900038146975,14.159100038146972,17.338200038146972,13.890500038146973,17.006900038146973,13.890500038146973L14.387100038146972,13.890500038146973L14.387100038146972,13.064000038146972L16.094300038146972,13.064000038146972C16.42570003814697,13.064000038146972,16.69430003814697,12.795400038146973,16.69430003814697,12.464000038146972C16.69430003814697,12.132660038146973,16.42570003814697,11.864030038146973,16.094300038146972,11.864030038146973L14.387100038146972,11.864030038146973L14.387100038146972,11.266520038146973C14.387100038146972,10.935150038146972,14.118500038146973,10.666520038146972,13.787100038146972,10.666520038146972C13.455800038146972,10.666520038146972,13.187100038146973,10.935150038146972,13.187100038146973,11.266520038146973Z" fill-rule="evenodd" fill="#283248" fill-opacity="1"/></g></g></svg>