<svg width="24" height="24" viewBox="0 0 24 24" fill="none" xmlns="http://www.w3.org/2000/svg">
<path d="M14.4697 13.4697C14.7626 13.1768 15.2374 13.1768 15.5303 13.4697L18.5 16.4395L21.4697 13.4697C21.7626 13.1772 22.2374 13.1772 22.5303 13.4697C22.8232 13.7626 22.8232 14.2384 22.5303 14.5312L19.5605 17.5L22.5303 20.4697L22.582 20.5264C22.822 20.8209 22.8048 21.2558 22.5303 21.5303C22.2559 21.8045 21.8219 21.8217 21.5273 21.582L21.4697 21.5303L18.5 18.5605L15.5303 21.5303L15.4727 21.583C15.1781 21.8226 14.7441 21.8046 14.4697 21.5303C14.1955 21.2558 14.178 20.8218 14.418 20.5273L14.4697 20.4697L17.4395 17.5L14.4697 14.5303C14.1769 14.2374 14.177 13.7626 14.4697 13.4697Z" fill="#283248"/>
<path d="M19.7578 4.01855C21.0002 4.01882 22.0078 5.02608 22.0078 6.26855V10C22.0076 10.4139 21.6717 10.7497 21.2578 10.75C20.8439 10.7498 20.508 10.4139 20.5078 10V6.26855C20.5078 5.8545 20.1718 5.51882 19.7578 5.51855H4.24609C3.83188 5.51855 3.49609 5.85434 3.49609 6.26855V17.7549C3.49643 18.1688 3.83209 18.5049 4.24609 18.5049H11.001L11.0771 18.5088C11.4551 18.5474 11.751 18.8667 11.751 19.2549C11.7507 19.6428 11.4549 19.9624 11.0771 20.001L11.001 20.0049H4.24609C3.00366 20.0049 1.99545 18.9972 1.99512 17.7549V6.26855C1.99512 5.02591 3.00345 4.01855 4.24609 4.01855H19.7578Z" fill="#283248"/>
<path d="M18 8.25C18.414 8.25007 18.7498 8.586 18.75 9C18.75 9.41417 18.4142 9.74993 18 9.75H13C12.5858 9.75 12.25 9.41421 12.25 9C12.2502 8.58595 12.5859 8.25 13 8.25H18Z" fill="#283248"/>
</svg>
