<svg width="24" height="24" viewBox="0 0 24 24" fill="none" xmlns="http://www.w3.org/2000/svg">
<path d="M22.002 14.4395C22.2858 14.1866 22.7206 14.1849 23.0068 14.4473C23.293 14.7096 23.3287 15.1426 23.1016 15.4473L23.0527 15.5068L17.5527 21.5068C17.4146 21.6575 17.221 21.7455 17.0166 21.75C16.8376 21.7539 16.6639 21.6932 16.5264 21.5811L16.4697 21.5303L13.4697 18.5303L13.418 18.4736C13.1777 18.1791 13.1951 17.7443 13.4697 17.4697C13.7443 17.1951 14.1791 17.1777 14.4736 17.418L14.5303 17.4697L16.9756 19.915L21.9473 14.4932L22.002 14.4395Z" fill="#283248"/>
<path d="M19.7578 4.01855C21.0002 4.01882 22.0078 5.02608 22.0078 6.26855V11C22.0078 11.4141 21.6718 11.7497 21.2578 11.75C20.8438 11.7498 20.5078 11.4141 20.5078 11V6.26855C20.5078 5.8545 20.1718 5.51882 19.7578 5.51855H4.24609C3.83188 5.51855 3.49609 5.85434 3.49609 6.26855V17.7549C3.49623 18.169 3.83197 18.5049 4.24609 18.5049H10.001L10.0771 18.5088C10.4551 18.5474 10.751 18.8667 10.751 19.2549C10.7508 19.6429 10.455 19.9624 10.0771 20.001L10.001 20.0049H4.24609C3.00354 20.0049 1.99526 18.9974 1.99512 17.7549V6.26855C1.99512 5.02591 3.00345 4.01855 4.24609 4.01855H19.7578Z" fill="#283248"/>
<path d="M18 8.25C18.4142 8.25 18.75 8.58579 18.75 9C18.75 9.41421 18.4142 9.75 18 9.75H13C12.5858 9.75 12.25 9.41421 12.25 9C12.25 8.58579 12.5858 8.25 13 8.25H18Z" fill="#283248"/>
</svg>
