<svg xmlns="http://www.w3.org/2000/svg" xmlns:xlink="http://www.w3.org/1999/xlink" fill="none" version="1.1" width="24" height="24" viewBox="0 0 24 24"><g><g><path d="M7.335,8.999980038146973L7.335,6.9740100381469725Q7.335,5.043210038146972,8.72091,3.6838200381469726Q10.09606,2.3349780440469727,12.03,2.3349780440469727L12.50877,2.3349780440469727Q14.2338,2.334978103646973,15.4502,3.555080038146973Q16.665,4.773590038146972,16.665,6.498940038146973L16.665,6.499980038146973C16.665,6.867250038146973,16.3673,7.164980038146973,16,7.164980038146973C15.6327,7.164980038146973,15.335,6.867250038146973,15.335,6.499980038146973L15.335,6.498940038146973Q15.335,5.323300038146973,14.5083,4.494090038146973Q13.68174,3.6649800381469726,12.50877,3.6649800381469726L12.03,3.6649800381469726Q10.63946,3.6649800381469726,9.652239999999999,4.6333100381469725Q8.665,5.6016600381469726,8.665,6.9740100381469725L8.665,8.999980038146973L8.664909999999999,9.010700038146972C9.210370000000001,8.999980038146973,9.88316,8.999980038146973,10.73508,8.999980038146973L13.26492,8.999980038146973C15.8638,8.999980038146973,16.7956,8.999980038146973,17.5307,9.304460038146972C18.5108,9.710440038146974,19.2895,10.489130038146973,19.6955,11.469240038146973C19.933999999999997,12.044970038146973,19.9857,12.741400038146972,19.9969,14.264900038146973C19.9986,14.490900038146973,19.999299999999998,14.735200038146973,19.9997,15.000000038146972C19.999299999999998,15.264800038146973,19.9986,15.509000038146972,19.9969,15.735100038146973C19.9857,17.258500038146973,19.933999999999997,17.95500003814697,19.6955,18.53070003814697C19.2895,19.51080003814697,18.5108,20.289500038146972,17.5307,20.69550003814697C16.7956,21.000000038146972,15.8638,21.000000038146972,13.26492,21.000000038146972L10.73508,21.000000038146972C8.136230000000001,21.000000038146972,7.20435,21.000000038146972,6.46927,20.69550003814697C5.48915,20.289500038146972,4.710457,19.51080003814697,4.304482,18.53070003814697C4.066009,17.95500003814697,4.0143102,17.258500038146973,4.00310232,15.735100038146973C4.00143932,15.509000038146972,4.000667773,15.264800038146973,4.000309813,15.000000038146972C4.000667773,14.735200038146973,4.00143932,14.490900038146973,4.00310232,14.264900038146973C4.0143102,12.741400038146972,4.066009,12.044970038146973,4.304482,11.469240038146973C4.710458,10.489130038146973,5.48915,9.710440038146974,6.46927,9.304460038146972C6.7181999999999995,9.201350038146973,6.9897,9.133160038146972,7.34086,9.088060038146972C7.3369599999999995,9.058860038146973,7.335,9.029440038146973,7.335,8.999980038146973ZM4.000309813,15.000000038146972C4,15.229100038146973,4,15.473700038146973,4,15.735100038146973L4,14.264900038146973C4,14.526300038146973,4,14.770800038146973,4.000309813,15.000000038146972ZM19.9997,15.000000038146972C20,14.770800038146973,20,14.526300038146973,20,14.264900038146973L20,15.735100038146973C20,15.473700038146973,20,15.229100038146973,19.9997,15.000000038146972ZM18.6342,12.981000038146973Q18.6634,13.479800038146973,18.668799999999997,15.000000038146972Q18.6634,16.520200038146974,18.6342,17.018900038146974Q18.593400000000003,17.716100038146973,18.4668,18.021700038146975Q18.0435,19.043500038146973,17.0218,19.46670003814697Q16.7161,19.593400038146974,16.019,19.63420003814697Q15.4081,19.670000038146974,13.26492,19.670000038146974L10.73508,19.670000038146974Q8.591899999999999,19.670000038146974,7.98104,19.63420003814697Q7.28393,19.593400038146974,6.9782399999999996,19.46670003814697Q5.9564699999999995,19.043500038146973,5.53324,18.021700038146975Q5.40662,17.716100038146973,5.36578,17.018900038146974Q5.33657,16.520200038146974,5.3312100000000004,15.000000038146972Q5.33657,13.479800038146973,5.36578,12.981000038146973Q5.40662,12.283900038146973,5.53324,11.978220038146972Q5.9564699999999995,10.956450038146972,6.9782399999999996,10.533220038146972Q7.28393,10.406600038146973,7.98104,10.365760038146973Q8.591899999999999,10.329980038146973,10.73508,10.329980038146973L13.26492,10.329980038146973Q15.4081,10.329980038146973,16.019,10.365760038146973Q16.7161,10.406600038146973,17.0218,10.533220038146972Q18.0435,10.956450038146972,18.4668,11.978210038146972Q18.593400000000003,12.283900038146973,18.6342,12.981000038146973ZM11.335,17.000000038146972L11.335,13.000000038146972C11.335,12.632700038146973,11.632729999999999,12.334980038146973,12,12.334980038146973C12.36727,12.334980038146973,12.665,12.632700038146973,12.665,13.000000038146972L12.665,17.000000038146972C12.665,17.367200038146972,12.36727,17.66500003814697,12,17.66500003814697C11.632729999999999,17.66500003814697,11.335,17.367200038146972,11.335,17.000000038146972Z" fill-rule="evenodd" fill="#283248" fill-opacity="1"/></g></g></svg>