<svg width="13" height="15" viewBox="0 0 13 15" fill="none" xmlns="http://www.w3.org/2000/svg">
<path fill-rule="evenodd" clip-rule="evenodd" d="M8.05968 1.43008C8.61225 1.54859 9.13026 1.75742 9.5967 2.04L2.04688 9.58982C2.05459 9.50967 2.05859 9.42232 2.05837 9.32683V6.16167C2.05837 3.84038 3.72038 1.90646 5.94246 1.43062V1.31759C5.94246 0.728453 6.4162 0.25 7.00056 0.25C7.58568 0.25 8.05968 0.726373 8.05968 1.31785V1.43008ZM12.2944 11.9961H3.88328L11.5695 4.3098C11.8107 4.88018 11.9437 5.50559 11.9437 6.16167V9.32683C11.938 9.98924 12.2422 10.235 12.5255 10.4639C12.7715 10.6627 13.0018 10.8488 12.9997 11.284C13.001 11.4721 12.9273 11.653 12.7949 11.7867C12.6625 11.9203 12.4824 11.9957 12.2944 11.9961ZM8.84249 13.1072C8.84249 14.1161 8.00875 14.3452 7.00058 14.3453H6.9998C5.98957 14.3452 5.19032 14.1166 5.19032 13.1072H8.84249ZM12.5771 2.15232L12.5832 2.1461C12.7061 2.02005 12.7748 1.85101 12.7748 1.67502C12.7748 1.496 12.7037 1.32431 12.5771 1.19772C12.4505 1.07113 12.2788 1.00002 12.0998 1.00002C11.9208 1.00002 11.7491 1.07113 11.6225 1.19772L1.12251 11.6977C0.995921 11.8243 0.924805 11.996 0.924805 12.175C0.924805 12.354 0.995921 12.5257 1.12251 12.6523C1.24909 12.7789 1.42078 12.85 1.5998 12.85C1.77883 12.85 1.95051 12.7789 2.0771 12.6523L12.5771 2.15232Z" fill="#283248" fill-opacity="0.7"/>
</svg>
