<svg xmlns="http://www.w3.org/2000/svg" xmlns:xlink="http://www.w3.org/1999/xlink" fill="none" version="1.1" width="24" height="24" viewBox="0 0 24 24"><g><g><path d="M16.335000038146973,5.664980038146973L16.335000038146973,6.999980038146973C16.335000038146973,7.367250038146972,16.632800038146975,7.664980038146973,17.000000038146972,7.664980038146973C17.367300038146972,7.664980038146973,17.66500003814697,7.367250038146972,17.66500003814697,6.999980038146973L17.66500003814697,4.999978038146972C17.66500003814697,4.632709038146973,17.367300038146972,4.334978044046973,17.000000038146972,4.334978044046973L5.000039038146973,4.334978044046973C4.6327700381469725,4.334978044046973,4.335039079146973,4.632709038146973,4.335039079146973,4.999978038146972L4.335039079146973,6.999980038146973C4.335039079146973,7.367250038146972,4.6327700381469725,7.664980038146973,5.000039038146973,7.664980038146973C5.3673100381469725,7.664980038146973,5.665040038146973,7.367250038146972,5.665040038146973,6.999980038146973L5.665040038146973,5.664980038146973L10.335040038146973,5.664980038146973L10.335040038146973,18.335000038146973L9.000040038146974,18.335000038146973C8.632770038146973,18.335000038146973,8.335040038146973,18.63270003814697,8.335040038146973,19.000000038146972C8.335040038146973,19.367200038146972,8.632770038146973,19.66500003814697,9.000040038146974,19.66500003814697L13.000040038146972,19.66500003814697C13.367310038146973,19.66500003814697,13.665040038146973,19.367200038146972,13.665040038146973,19.000000038146972C13.665040038146973,18.63270003814697,13.367310038146973,18.335000038146973,13.000040038146972,18.335000038146973L11.665040038146973,18.335000038146973L11.665040038146973,5.664980038146973L16.335000038146973,5.664980038146973ZM17.66500003814697,10.995950038146972L17.66500003814697,10.995950038146972C17.662400038146973,10.628180038146972,17.36300003814697,10.332760038146972,16.996000038146974,10.334980038146973L16.996000038146974,10.334980038146973C16.62820003814697,10.337660038146971,16.33280003814697,10.637060038146974,16.335000038146973,11.004000038146973L16.335000038146973,11.004000038146973L16.393500038146975,19.004200038146973L16.393500038146975,19.004200038146973C16.39360003814697,19.02160003814697,16.394300038146973,19.038200038146975,16.395700038146973,19.054700038146972C16.394100038146973,19.233100038146972,16.464300038146973,19.40470003814697,16.59050003814697,19.53080003814697L16.59050003814697,19.53080003814697C16.591000038146973,19.531400038146973,16.601600038146973,19.54170003814697,16.601600038146973,19.54170003814697C16.862900038146975,19.791100038146972,17.275500038146973,19.786200038146973,17.530900038146974,19.53080003814697L17.530900038146974,19.53080003814697C17.531500038146973,19.530200038146972,17.541800038146974,19.519700038146972,17.541800038146974,19.519700038146972L20.06420003814697,16.876000038146973C20.18600003814697,16.748300038146972,20.25210003814697,16.577600038146972,20.248000038146973,16.40130003814697C20.24400003814697,16.23030003814697,20.174300038146974,16.067500038146974,20.053400038146975,15.946600038146972L20.053400038146975,15.946600038146972C20.052900038146973,15.946200038146973,20.042200038146973,15.935700038146972,20.042200038146973,15.935700038146972C19.780900038146974,15.686400038146973,19.368300038146973,15.691200038146972,19.112900038146975,15.946600038146972L19.112900038146975,15.946600038146972C19.112300038146973,15.947200038146972,19.102000038146972,15.957800038146972,19.102000038146972,15.957800038146972L17.711900038146972,17.414700038146975L17.66500003814697,10.995950038146972Z" fill-rule="evenodd" fill="#283248" fill-opacity="1"/></g></g></svg>