<svg xmlns="http://www.w3.org/2000/svg" xmlns:xlink="http://www.w3.org/1999/xlink" fill="none" version="1.1" width="24" height="24" viewBox="0 0 24 24"><g><g><path d="M12.204294413146973,6.973420663146973L12.204494413146973,6.975150663146973C12.237714413146973,7.2687106631469725,12.460634413146973,7.505160663146973,12.751724413146972,7.555600663146973C12.765394413146973,7.557970663146973,12.779134413146974,7.559910663146972,12.792924413146972,7.561420663146973C12.816954413146973,7.564050663146973,12.841104413146972,7.565370663146973,12.865274413146972,7.565370663146973L12.872754413146973,7.565330663146972C12.872754413146973,7.565330663146972,12.889414413146973,7.564930663146972,12.889414413146973,7.564930663146972C12.906334413146972,7.564310663146973,12.923224413146972,7.5630506631469725,12.940054413146973,7.5611506631469725C13.048984413146973,7.548820663146973,13.153184413146972,7.509750663146972,13.243334413146973,7.447420663146973C13.256434413146973,7.438390663146973,13.269134413146972,7.4289006631469725,13.281534413146973,7.418960663146972C13.319934413146973,7.388170663146973,13.354734413146973,7.353210663146973,13.385434413146973,7.314730663146973C13.461534413146973,7.2191606631469725,13.509834413146972,7.104460663146972,13.525134413146972,6.983230663146973C13.525134413146972,6.983230663146973,13.526334413146973,6.972720663146973,13.526334413146973,6.972720663146973L13.526334413146973,6.972720663146973Q13.790234413146973,4.565370663146973,16.800734413146973,4.565370663146973L21.200234413146973,4.565370663146973L21.200234413146973,5.352950663146973Q21.200234413146973,6.688970663146973,20.155334413146974,7.642690663146973Q19.09763441314697,8.608130663146973,17.597134413146975,8.618130663146973C17.597134413146975,8.618130663146973,17.571234413146975,8.617600663146973,17.571234413146975,8.617600663146973Q16.548534413146974,8.616640663146972,15.867434413146972,9.302610663146972Q15.200234413146973,9.974480663146974,15.200234413146973,10.952520663146974L15.200234413146973,14.297190663146973C15.200234413146973,14.297190663146973,15.199934413146973,14.319390663146972,15.199934413146973,14.319390663146972Q15.199934413146973,16.440990663146973,13.721834413146972,17.939990663146972Q12.247694413146972,19.435190663146972,10.165204413146974,19.435190663146972Q8.082234413146972,19.435190663146972,6.607954413146972,17.939990663146972Q5.129884413146973,16.440990663146973,5.129884413146973,14.319390663146972Q5.129884413146973,13.087470663146973,5.6767544131469725,11.998640663146972C5.723264413146973,11.906020663146972,5.747494413146972,11.803820663146972,5.747494413146972,11.700170663146972L5.747444413146972,11.692360663146973C5.744524413146973,11.443730663146972,5.603154413146973,11.217510663146973,5.380964413146973,11.105910663146972C5.288344413146973,11.059400663146974,5.186134413146973,11.035170663146973,5.082494413146973,11.035170663146973L5.0746744131469725,11.035220663146973C4.826054413146973,11.038140663146972,4.599834413146972,11.179520663146974,4.488234413146973,11.401710663146973Q3.799882413146973,12.772240663146972,3.799882413146973,14.319390663146972Q3.799882413146973,16.986490663146974,5.660914413146973,18.873790663146973Q7.525844413146973,20.765190663146974,10.165204413146974,20.765190663146974Q12.804114413146973,20.765190663146974,14.668934413146973,18.873790663146973Q16.521734413146973,16.994690663146972,16.529834413146972,14.342790663146973C16.529834413146972,14.342790663146973,16.53023441314697,14.319590663146972,16.53023441314697,14.319590663146972L16.53023441314697,10.952520663146974Q16.53023441314697,10.522620663146974,16.811134413146974,10.239710663146973Q17.091834413146973,9.957060663146972,17.538434413146973,9.947900663146973C17.538434413146973,9.947900663146973,17.558334413146973,9.948230663146973,17.558334413146973,9.948230663146973Q19.599534413146973,9.950670663146973,21.051934413146974,8.625030663146973Q22.53023441314697,7.275740663146973,22.53023441314697,5.352950663146973L22.53023441314697,3.9003686631469727C22.53023441314697,3.533099663146973,22.232534413146972,3.2353686690469727,21.865234413146972,3.2353686690469727L16.800734413146973,3.2353686690469727Q14.612334413146973,3.2353686094469727,13.410634413146973,4.3171806631469725Q13.096954413146973,4.599520663146973,12.862574413146973,4.941760663146972Q12.627254413146973,4.5992506631469725,12.312924413146973,4.316670663146972Q11.110094413146973,3.2353689074469725,8.929614413146972,3.2353689074469725L3.865273413146973,3.2353686690469727C3.4980044131469725,3.2353686690469727,3.2002734541469726,3.533099663146973,3.2002734541469726,3.9003686631469727L3.2002734541469726,5.338110663146972Q3.2002733945469726,7.245960663146973,4.680994413146973,8.583400663146973Q6.132614413146973,9.894550663146973,8.171874413146973,9.892410663146972C8.171874413146973,9.892410663146972,8.192034413146972,9.892080663146974,8.192034413146972,9.892080663146974Q8.640894413146974,9.901150663146971,8.921904413146972,10.181180663146971Q9.200274413146973,10.458570663146972,9.200274413146973,10.879290663146973L9.200274413146973,12.900360663146973C9.200274413146973,13.267590663146972,9.498004413146973,13.565390663146973,9.865274413146974,13.565390663146973C10.232544413146972,13.565390663146973,10.530274413146973,13.267590663146972,10.530274413146973,12.900360663146973L10.530274413146973,10.879290663146973Q10.530274413146973,9.906290663146972,9.860704413146973,9.239070663146972Q9.180064413146972,8.560830663146973,8.159144413146972,8.561780663146973C8.159144413146972,8.561780663146973,8.133314413146973,8.562300663146972,8.133314413146973,8.562300663146972Q6.630684413146973,8.552220663146972,5.572474413146972,7.596400663146973Q4.530274413146973,6.655050663146973,4.530274413146973,5.338110663146972L4.530274413146973,4.565370663146973L8.929614413146972,4.565370663146973Q11.930254413146972,4.565370663146973,12.204294413146973,6.973420663146973L12.204294413146973,6.973420663146973Z" fill-rule="evenodd" fill="#283248" fill-opacity="1" style="mix-blend-mode:passthrough"/></g></g></svg>