<svg xmlns="http://www.w3.org/2000/svg" xmlns:xlink="http://www.w3.org/1999/xlink" fill="none" version="1.1" width="24" height="24" viewBox="0 0 24 24"><g><g><path d="M12.204011171875,6.9733815625L12.204211171875,6.9751115625C12.237431171875,7.2686715625,12.460351171875,7.5051215625,12.751441171875,7.5555615625C12.765111171875,7.5579315625,12.778851171875,7.5598715625,12.792641171875,7.5613815625C12.816671171875,7.5640115625,12.840821171875,7.5653315625,12.864991171875,7.5653315625L12.872471171875,7.5652915625C12.872471171875,7.5652915625,12.889131171875,7.5648915625,12.889131171875,7.5648915625C12.906051171875,7.5642715625,12.922941171875,7.5630115625,12.939771171875,7.5611115625C13.048701171875,7.5487815625,13.152901171875,7.5097115625,13.243051171875,7.4473815625C13.256151171875,7.4383515625,13.268851171875,7.4288615625,13.281251171875,7.4189215625C13.319651171875,7.3881315625,13.354451171875,7.3531715625,13.385151171875,7.3146915625C13.461251171875,7.2191215625,13.509551171875,7.1044215625,13.524851171875,6.9831915625C13.524851171875,6.9831915625,13.526051171875,6.9726815625,13.526051171875,6.9726815625L13.526051171875,6.9726815625Q13.789951171875,4.5653315625,16.800451171875,4.5653315625L21.199951171875,4.5653315625L21.199951171875,5.3529115625Q21.199951171875,6.6889315625000005,20.155051171875,7.6426515625Q19.097351171874998,8.6080915625,17.596851171875002,8.6180915625C17.596851171875002,8.6180915625,17.570951171875002,8.6175615625,17.570951171875002,8.6175615625Q16.548251171875002,8.6166015625,15.867151171875,9.302571562499999Q15.199951171875,9.974441562500001,15.199951171875,10.952481562500001C15.199951171875,11.3197515625,15.497751171875,11.6174815625,15.864951171875,11.6174815625C16.232251171875,11.6174815625,16.529951171875,11.3197515625,16.529951171875,10.952481562500001Q16.529951171875,10.522581562500001,16.810851171875,10.2396715625Q17.091551171875,9.9570215625,17.538151171875,9.9478615625C17.538151171875,9.9478615625,17.558051171875,9.9481915625,17.558051171875,9.9481915625Q19.599251171875,9.9506415625,21.051651171875,8.6249915625Q22.529951171875,7.2757115625,22.529951171875,5.3529115625L22.529951171875,3.9003295625C22.529951171875,3.5330605625000002,22.232251171875,3.2353295684,21.864951171875,3.2353295684L16.800451171875,3.2353295684Q14.612051171875,3.2353295088,13.410351171875,4.3171415625Q13.096671171875,4.5994815625,12.862291171875,4.9417215625Q12.626971171875,4.5992115625,12.312641171875,4.3166315625Q11.109811171875,3.2353298068,8.929331171874999,3.2353298068L3.864990171875,3.2353295684C3.497721171875,3.2353295684,3.199990212875,3.5330605625000002,3.199990212875,3.9003295625L3.199990212875,5.3380715625Q3.199990153275,7.2459215625,4.680711171875,8.5833615625Q6.132331171875,9.8945115625,8.171591171875,9.8923715625C8.171591171875,9.8923715625,8.191751171875,9.892041562500001,8.191751171875,9.892041562500001Q8.640611171875001,9.901111562499999,8.921621171875,10.181141562499999Q9.199991171875,10.4585315625,9.199991171875,10.8792515625L9.199991171875,12.9003215625C9.199991171875,13.2675515625,9.497721171875,13.5653515625,9.864991171875001,13.5653515625C10.232261171874999,13.5653515625,10.529991171875,13.2675515625,10.529991171875,12.9003215625L10.529991171875,10.8792515625Q10.529991171875,9.9062515625,9.860421171875,9.2390315625Q9.179781171875,8.5607915625,8.158861171875,8.5617415625C8.158861171875,8.5617415625,8.133031171875,8.5622615625,8.133031171875,8.5622615625Q6.630401171875,8.5521815625,5.572191171875,7.5963615625Q4.529991171875,6.6550115625,4.529991171875,5.3380715625L4.529991171875,4.5653315625L8.929331171874999,4.5653315625Q11.929971171875,4.5653315625,12.204011171875,6.9733815625L12.204011171875,6.9733815625ZM9.165241171875,20.6859515625L9.165241171875,20.6859515625C9.200751171875,20.6916515625,9.235831171874999,20.6944515625,9.270961171875001,20.6944515625C9.270961171875001,20.6944515625,9.294921171875,20.6940515625,9.294921171875,20.6940515625C9.426791171875,20.6892515625,9.554271171875001,20.6453515625,9.661121171875,20.5679515625C9.803951171875,20.4644515625,9.899811171875001,20.3085515625,9.927631171875,20.1343515625C9.933171171875,20.0996515625,9.935961171875,20.0645515625,9.935961171875,20.0294515625C9.935961171875,20.0294515625,9.935761171875,20.0131515625,9.935761171875,20.0131515625C9.927881171875,19.6926515625,9.692441171875,19.4233515625,9.375851171875,19.3727515625L9.375851171875,19.3727515625L9.374631171875,19.3725515625Q8.444071171874999,19.2237515625,7.629591171875,18.740351562500003Q6.4884611718750005,18.0631515625,5.819301171875,16.9053515625Q5.1296011718750005,15.7119515625,5.1296011718750005,14.3193515625Q5.1296011718750005,13.0874315625,5.676471171875,11.9986015625C5.722981171875,11.9059815625,5.747211171875,11.8037815625,5.747211171875,11.7001315625L5.747161171875,11.6923215625C5.744241171875,11.4436915625,5.602871171875,11.2174715625,5.3806811718750005,11.105871562499999C5.288061171875,11.059361562500001,5.185851171875,11.0351315625,5.0822111718750005,11.0351315625L5.074391171875,11.0351815625C4.825771171875,11.0381015625,4.5995511718749995,11.179481562500001,4.487951171875,11.4016715625Q3.799599171875,12.7722015625,3.799599171875,14.3193515625Q3.799599171875,16.0686515625,4.667781171875,17.5708515625Q5.510851171875,19.0296515625,6.950851171875,19.8841515625Q7.983811171875,20.4971515625,9.165241171875,20.6859515625ZM14.999951171875,12.7999915625C12.790861171875,12.7999915625,11.000001171874999,14.5908515625,11.000001171874999,16.7999515625C11.000001171874999,19.0091515625,12.790861171875,20.7999515625,14.999951171875,20.7999515625L19.999951171875,20.7999515625C22.209151171875,20.7999515625,23.999951171875,19.0091515625,23.999951171875,16.7999515625C23.999951171875,14.5908515625,22.209151171875,12.7999915625,19.999951171875,12.7999915625L14.999951171875,12.7999915625ZM21.524751171875,18.4001515625C21.524751171875,18.6210515625,21.345651171875,18.800151562499998,21.124751171875,18.800151562499998C21.009351171875,18.800151562499998,20.899651171875,18.7503515625,20.823651171875,18.6635515625L18.724751171875,16.264751562500003L18.724751171875,18.4001515625C18.724751171875,18.6210515625,18.545651171875,18.800151562499998,18.324751171875,18.800151562499998C18.103751171875,18.800151562499998,17.924751171875002,18.6210515625,17.924751171875002,18.4001515625L17.924751171875002,15.2001515625C17.924751171875002,15.0847515625,17.974451171875,14.9750515625,18.061351171875,14.8991515625C18.227551171875,14.7536515625,18.480251171875,14.7704515625,18.625751171875002,14.9367515625L20.724751171875,17.3355515625L20.724751171875,15.2001515625C20.724751171875,14.9792515625,20.903751171875,14.8001515625,21.124751171875,14.8001515625C21.345651171875,14.8001515625,21.524751171875,14.9792515625,21.524751171875,15.2001515625L21.524751171875,18.4001515625ZM16.999951171875,16.800151562499998Q16.999951171875,17.6285515625,16.414151171874998,18.2143515625Q15.828351171875,18.800151562499998,14.999951171875,18.800151562499998Q14.171451171875,18.800151562499998,13.585651171875,18.2143515625Q12.999901171875,17.6285515625,12.999901171875,16.800151562499998Q12.999901171875,15.9717515625,13.585651171875,15.3859515625Q14.171451171875,14.8001515625,14.999951171875,14.8001515625Q15.828351171875,14.8001515625,16.414151171874998,15.3859515625Q16.999951171875,15.9717515625,16.999951171875,16.800151562499998ZM16.199951171875,16.800151562499998Q16.199951171875,16.303051562500002,15.848451171875,15.9516515625Q15.496951171875,15.6001515625,14.999951171875,15.6001515625Q14.502851171875,15.6001515625,14.151351171875,15.9516515625Q13.799951171875,16.303051562500002,13.799951171875,16.800151562499998Q13.799951171875,17.297151562499998,14.151351171875,17.6486515625Q14.502851171875,18.0001515625,14.999951171875,18.0001515625Q15.496951171875,18.0001515625,15.848451171875,17.6486515625Q16.199951171875,17.297151562499998,16.199951171875,16.800151562499998Z" fill-rule="evenodd" fill="#283248" fill-opacity="0.8999999761581421" style="mix-blend-mode:passthrough"/></g></g></svg>