<svg xmlns="http://www.w3.org/2000/svg" xmlns:xlink="http://www.w3.org/1999/xlink" fill="none" version="1.1" width="24" height="24" viewBox="0 0 24 24"><g><g><path d="M12.204011171875,6.9733815625L12.204211171875,6.9751115625C12.237431171875,7.2686715625,12.460351171875,7.5051215625,12.751441171875,7.5555615625C12.765111171875,7.5579315625,12.778851171875,7.5598715625,12.792641171875,7.5613815625C12.816671171875,7.5640115625,12.840821171875,7.5653315625,12.864991171875,7.5653315625L12.872471171875,7.5652915625C12.872471171875,7.5652915625,12.889131171875,7.5648915625,12.889131171875,7.5648915625C12.906051171875,7.5642715625,12.922941171875,7.5630115625,12.939771171875,7.5611115625C13.048701171875,7.5487815625,13.152901171875,7.5097115625,13.243051171875,7.4473815625C13.256151171875,7.4383515625,13.268851171875,7.4288615625,13.281251171875,7.4189215625C13.319651171875,7.3881315625,13.354451171875,7.3531715625,13.385151171875,7.3146915625C13.461251171875,7.2191215625,13.509551171875,7.1044215625,13.524851171875,6.9831915625C13.524851171875,6.9831915625,13.526051171875,6.9726815625,13.526051171875,6.9726815625L13.526051171875,6.9726815625Q13.789951171875,4.5653315625,16.800451171875,4.5653315625L21.199951171875,4.5653315625L21.199951171875,5.3529115625Q21.199951171875,6.6889315625000005,20.155051171875,7.6426515625Q19.097351171874998,8.6080915625,17.596851171875002,8.6180915625C17.596851171875002,8.6180915625,17.570951171875002,8.6175615625,17.570951171875002,8.6175615625Q16.548251171875002,8.6166015625,15.867151171875,9.302571562499999Q15.199951171875,9.974441562500001,15.199951171875,10.952481562500001C15.199951171875,11.3197515625,15.497751171875,11.6174815625,15.864951171875,11.6174815625C16.232251171875,11.6174815625,16.529951171875,11.3197515625,16.529951171875,10.952481562500001Q16.529951171875,10.522581562500001,16.810851171875,10.2396715625Q17.091551171875,9.9570215625,17.538151171875,9.9478615625C17.538151171875,9.9478615625,17.558051171875,9.9481915625,17.558051171875,9.9481915625Q19.599251171875,9.9506415625,21.051651171875,8.6249915625Q22.529951171875,7.2757115625,22.529951171875,5.3529115625L22.529951171875,3.9003295625C22.529951171875,3.5330605625000002,22.232251171875,3.2353295684,21.864951171875,3.2353295684L16.800451171875,3.2353295684Q14.612051171875,3.2353295088,13.410351171875,4.3171415625Q13.096671171875,4.5994815625,12.862291171875,4.9417215625Q12.626971171875,4.5992115625,12.312641171875,4.3166315625Q11.109811171875,3.2353298068,8.929331171874999,3.2353298068L3.864990171875,3.2353295684C3.497721171875,3.2353295684,3.199990212875,3.5330605625000002,3.199990212875,3.9003295625L3.199990212875,5.3380715625Q3.199990153275,7.2459215625,4.680711171875,8.5833615625Q6.132331171875,9.8945115625,8.171591171875,9.8923715625C8.171591171875,9.8923715625,8.191751171875,9.892041562500001,8.191751171875,9.892041562500001Q8.640611171875001,9.901111562499999,8.921621171875,10.181141562499999Q9.199991171875,10.4585315625,9.199991171875,10.8792515625L9.199991171875,12.9003215625C9.199991171875,13.2675515625,9.497721171875,13.5653515625,9.864991171875001,13.5653515625C10.232261171874999,13.5653515625,10.529991171875,13.2675515625,10.529991171875,12.9003215625L10.529991171875,10.8792515625Q10.529991171875,9.9062515625,9.860421171875,9.2390315625Q9.179781171875,8.5607915625,8.158861171875,8.5617415625C8.158861171875,8.5617415625,8.133031171875,8.5622615625,8.133031171875,8.5622615625Q6.630401171875,8.5521815625,5.572191171875,7.5963615625Q4.529991171875,6.6550115625,4.529991171875,5.3380715625L4.529991171875,4.5653315625L8.929331171874999,4.5653315625Q11.929971171875,4.5653315625,12.204011171875,6.9733815625L12.204011171875,6.9733815625ZM9.165241171875,20.6859515625L9.165241171875,20.6859515625C9.200751171875,20.6916515625,9.235831171874999,20.6944515625,9.270961171875001,20.6944515625C9.270961171875001,20.6944515625,9.294921171875,20.6940515625,9.294921171875,20.6940515625C9.426791171875,20.6892515625,9.554271171875001,20.6453515625,9.661121171875,20.5679515625C9.803951171875,20.4644515625,9.899811171875001,20.3085515625,9.927631171875,20.1343515625C9.933171171875,20.0996515625,9.935961171875,20.0645515625,9.935961171875,20.0294515625C9.935961171875,20.0294515625,9.935761171875,20.0131515625,9.935761171875,20.0131515625C9.927881171875,19.6926515625,9.692441171875,19.4233515625,9.375851171875,19.3727515625L9.375851171875,19.3727515625L9.374631171875,19.3725515625Q8.444071171874999,19.2237515625,7.629591171875,18.740351562500003Q6.4884611718750005,18.0631515625,5.819301171875,16.9053515625Q5.1296011718750005,15.7119515625,5.1296011718750005,14.3193515625Q5.1296011718750005,13.0874315625,5.676471171875,11.9986015625C5.722981171875,11.9059815625,5.747211171875,11.8037815625,5.747211171875,11.7001315625L5.747161171875,11.6923215625C5.744241171875,11.4436915625,5.602871171875,11.2174715625,5.3806811718750005,11.105871562499999C5.288061171875,11.059361562500001,5.185851171875,11.0351315625,5.0822111718750005,11.0351315625L5.074391171875,11.0351815625C4.825771171875,11.0381015625,4.5995511718749995,11.179481562500001,4.487951171875,11.4016715625Q3.799599171875,12.7722015625,3.799599171875,14.3193515625Q3.799599171875,16.0686515625,4.667781171875,17.5708515625Q5.510851171875,19.0296515625,6.950851171875,19.8841515625Q7.983811171875,20.4971515625,9.165241171875,20.6859515625ZM11.000001171874999,16.7999515625C11.000001171874999,14.5908515625,12.790861171875,12.7999915625,14.999951171875,12.7999915625L19.999951171875,12.7999915625C22.209151171875,12.7999915625,23.999951171875,14.5908515625,23.999951171875,16.7999515625C23.999951171875,19.0091515625,22.209151171875,20.7999515625,19.999951171875,20.7999515625L14.999951171875,20.7999515625C12.790861171875,20.7999515625,11.000001171874999,19.0091515625,11.000001171874999,16.7999515625ZM14.299451171875,18.7538515625Q14.381451171875,18.9296515625,14.504451171875,18.9911515625Q14.627551171875,19.0526515625,14.744751171875,19.0526515625Q14.943951171875,19.0526515625,15.052351171875,18.958951562499998Q15.160751171875,18.8651515625,15.190051171875,18.7538515625L16.502551171874998,15.4022515625Q16.543551171875002,15.2557515625,16.543551171875002,15.1444515625Q16.543551171875002,14.9042515625,16.326751171875,14.8163515625Q16.127551171874998,14.7401515625,16.033751171875,14.7460515625Q15.705651171875,14.8104515625,15.658751171875,15.0507515625L14.744751171875,17.5350515625L13.807251171875,15.0507515625Q13.649051171875,14.7343515625,13.479151171875,14.7343515625Q13.432251171875,14.7343515625,13.408751171875,14.7460515625Q13.086521171875,14.8046515625,13.016211171875,14.9862515625Q12.945901171875,15.1679515625,12.963481171875,15.1913515625Q12.969331171875,15.3729515625,12.986911171875,15.4022515625L14.299451171875,18.7538515625ZM17.252551171874998,18.6366515625Q17.264251171875,18.8710515625,17.390251171875,18.9647515625Q17.516251171875,19.0585515625,17.650951171875,19.0585515625L17.697851171875,19.0526515625Q18.014251171875,19.0292515625,18.084551171875,18.8417515625Q18.154851171875002,18.6659515625,18.143151171874997,18.6366515625L18.143151171874997,15.2382515625Q18.119751171875002,14.9042515625,17.943951171875,14.8280515625Q17.774051171875,14.7577515625,17.697851171875,14.7694515625Q17.375551171875,14.7929515625,17.305251171875,15.0038515625Q17.234951171875,15.2089515625,17.252551171874998,15.2382515625L17.252551171874998,18.6366515625ZM18.998651171875,18.6366515625Q19.010351171875,18.8710515625,19.124651171875,18.9647515625Q19.238851171875,19.0585515625,19.385351171875,19.0585515625L19.443951171875,19.0526515625Q19.742751171875,19.0292515625,19.824851171875,18.859351562500002Q19.900951171875,18.7011515625,19.889251171875,18.6366515625L19.889251171875,17.6522515625L20.545551171875,17.6522515625Q21.037651171875,17.646451562499998,21.351151171875,17.470651562500002Q21.664651171875,17.2948515625,21.822851171875,17.0018515625Q21.957651171875,16.7499515625,22.004451171875,16.5155515625Q22.045551171875,16.3104515625,22.045551171875,16.2225515625Q22.033751171875,15.7597515625,21.849251171875,15.4608515625Q21.664651171875,15.1620515625,21.359951171875,15.0097515625Q21.119751171875,14.8866515625,20.891251171875,14.8397515625Q20.662651171875,14.7929515625,20.522051171875,14.7929515625L19.490851171875,14.7929515625Q19.139251171875,14.8163515625,19.057251171875002,15.0038515625Q18.981051171875002,15.1854515625,18.998651171875,15.2616515625L18.998651171875,18.6366515625ZM20.568951171875,15.5897515625Q20.779851171875,15.6073515625,20.905851171875,15.7186515625Q21.031851171875,15.8300515625,21.075751171875,15.9677515625Q21.119751171875,16.1054515625,21.108051171875,16.1991515625Q21.072851171875,16.6561515625,20.820851171875,16.7675515625Q20.563051171875,16.8847515625,20.498651171875,16.8554515625L19.889251171875,16.8554515625L19.889251171875,15.5897515625L20.568951171875,15.5897515625Z" fill-rule="evenodd" fill="#283248" fill-opacity="0.8999999761581421" style="mix-blend-mode:passthrough"/></g></g></svg>