<svg width="32" height="32" viewBox="0 0 32 32" fill="none" xmlns="http://www.w3.org/2000/svg">
<path d="M18.4832 15.1527V11.7584C18.4832 11.3395 18.8228 11 19.2416 11V11C19.6605 11 20 11.3395 20 11.7584V20.2416C20 20.6605 19.6605 21 19.2416 21V21C18.8228 21 18.4832 20.6605 18.4832 20.2416V16.5239H13.5168V20.2416C13.5168 20.6605 13.1772 21 12.7584 21V21C12.3395 21 12 20.6605 12 20.2416V11.7584C12 11.3395 12.3395 11 12.7584 11V11C13.1772 11 13.5168 11.3395 13.5168 11.7584V15.1527H18.4832Z" fill="#C17F73"/>
</svg>
