<svg width="32" height="32" viewBox="0 0 32 32" fill="none" xmlns="http://www.w3.org/2000/svg">
<path d="M19.4922 12.25C19.6146 12.25 19.7375 12.2565 19.8594 12.2686C19.981 12.2806 20.1018 12.2984 20.2217 12.3223C20.3418 12.3462 20.4609 12.3755 20.5781 12.4111C20.6951 12.4467 20.8099 12.4883 20.9229 12.5352C21.0359 12.5821 21.147 12.6345 21.2549 12.6924C21.3628 12.7502 21.4676 12.8137 21.5693 12.8818C21.671 12.95 21.7697 13.0228 21.8643 13.1006C21.9589 13.1785 22.0501 13.2618 22.1367 13.3486C22.2231 13.4353 22.3053 13.5263 22.3828 13.6211C22.4604 13.7159 22.5336 13.814 22.6016 13.916C22.6695 14.018 22.7324 14.1233 22.79 14.2314C22.8478 14.3397 22.9004 14.451 22.9473 14.5645C22.9941 14.6779 23.0348 14.7937 23.0703 14.9111C23.1058 15.0285 23.1353 15.1473 23.1592 15.2676C23.1831 15.388 23.2019 15.5096 23.2139 15.6318C23.2259 15.7539 23.2314 15.8763 23.2314 15.999C23.2314 16.1218 23.2259 16.245 23.2139 16.3672C23.2019 16.4892 23.183 16.6102 23.1592 16.7305C23.1353 16.8509 23.1059 16.9704 23.0703 17.0879C23.0348 17.2051 22.994 17.3204 22.9473 17.4336C22.9004 17.547 22.8477 17.6583 22.79 17.7666C22.7324 17.8748 22.6695 17.98 22.6016 18.082C22.5335 18.1841 22.4605 18.283 22.3828 18.3779C22.3784 18.3833 22.3736 18.3882 22.3691 18.3936L22.708 18.7334C22.9399 18.966 22.9399 19.3426 22.708 19.5752C22.4953 19.7884 22.1616 19.8066 21.9287 19.6289L21.8682 19.5752L21.4717 19.1777C21.4005 19.2223 21.3289 19.266 21.2549 19.3057C21.1469 19.3635 21.036 19.4159 20.9229 19.4629C20.8099 19.5098 20.6951 19.5513 20.5781 19.5869C20.4609 19.6226 20.3418 19.6528 20.2217 19.6768C20.1018 19.7007 19.981 19.7184 19.8594 19.7305C19.7375 19.7425 19.6146 19.748 19.4922 19.748C19.3698 19.748 19.2478 19.7425 19.126 19.7305C19.0041 19.7184 18.8828 19.7007 18.7627 19.6768C18.6427 19.6528 18.5243 19.6225 18.4072 19.5869C18.29 19.5513 18.1747 19.5099 18.0615 19.4629C17.9484 19.4159 17.8374 19.3635 17.7295 19.3057C17.6216 19.2478 17.5167 19.1844 17.415 19.1162C17.3133 19.048 17.2147 18.9753 17.1201 18.8975C17.0255 18.8196 16.9351 18.7371 16.8486 18.6504C16.7621 18.5637 16.6802 18.4728 16.6025 18.3779C16.5249 18.283 16.4518 18.1841 16.3838 18.082C16.3158 17.98 16.253 17.8748 16.1953 17.7666C16.1376 17.6583 16.0849 17.547 16.0381 17.4336C15.9913 17.3203 15.9496 17.2052 15.9141 17.0879C15.8785 16.9704 15.8491 16.8509 15.8252 16.7305C15.8014 16.6103 15.7835 16.4892 15.7715 16.3672C15.7595 16.245 15.7539 16.1218 15.7539 15.999C15.7539 15.8763 15.7595 15.7539 15.7715 15.6318C15.7835 15.5096 15.8013 15.388 15.8252 15.2676C15.8491 15.1473 15.8786 15.0285 15.9141 14.9111C15.9496 14.7936 15.9912 14.6779 16.0381 14.5645C16.0849 14.451 16.1376 14.3397 16.1953 14.2314C16.253 14.1233 16.3159 14.018 16.3838 13.916C16.4518 13.814 16.5249 13.7159 16.6025 13.6211C16.6802 13.5263 16.7621 13.4354 16.8486 13.3486C16.9352 13.2618 17.0255 13.1785 17.1201 13.1006C17.2147 13.0227 17.3133 12.95 17.415 12.8818C17.5168 12.8137 17.6216 12.7502 17.7295 12.6924C17.8375 12.6345 17.9484 12.5821 18.0615 12.5352C18.1747 12.4882 18.2901 12.4468 18.4072 12.4111C18.5242 12.3756 18.6428 12.3462 18.7627 12.3223C18.8828 12.2983 19.0041 12.2806 19.126 12.2686C19.2478 12.2565 19.3698 12.25 19.4922 12.25ZM14.251 12.25C14.5537 12.25 14.804 12.477 14.8408 12.7705L14.8447 12.8457V19.1533C14.8445 19.4821 14.5789 19.748 14.251 19.748C13.9482 19.748 13.6978 19.5212 13.6611 19.2275L13.6572 19.1533V16.5947H9.95605V19.1523C9.95605 19.4813 9.68941 19.748 9.36133 19.748C9.05863 19.7479 8.80912 19.5211 8.77246 19.2275L8.76758 19.1523V12.8457C8.76758 12.5168 9.03338 12.2502 9.36133 12.25C9.66403 12.25 9.91433 12.477 9.95117 12.7705L9.95605 12.8457V15.4033H13.6572V12.8457C13.6572 12.5167 13.9229 12.25 14.251 12.25ZM19.2432 13.4541C19.1602 13.4623 19.0779 13.4749 18.9961 13.4912C18.9142 13.5076 18.8329 13.5274 18.7529 13.5518C18.673 13.5761 18.5947 13.6047 18.5176 13.6367C18.4405 13.6687 18.3646 13.7037 18.291 13.7432C18.2173 13.7827 18.1456 13.8265 18.0762 13.873C18.0068 13.9196 17.9395 13.9694 17.875 14.0225C17.8105 14.0755 17.7484 14.1313 17.6895 14.1904C17.6304 14.2497 17.5745 14.3122 17.5215 14.377C17.4685 14.4417 17.4184 14.5085 17.3721 14.5781C17.3257 14.6478 17.2835 14.7201 17.2441 14.7939C17.2048 14.8678 17.1687 14.9432 17.1367 15.0205C17.1048 15.0978 17.077 15.1767 17.0527 15.2568C17.0285 15.3369 17.0075 15.418 16.9912 15.5C16.9749 15.5822 16.9633 15.6656 16.9551 15.749C16.9469 15.8322 16.9424 15.9155 16.9424 15.999C16.9424 16.0827 16.9469 16.1667 16.9551 16.25C16.9633 16.3332 16.975 16.416 16.9912 16.498C17.0075 16.5802 17.0285 16.662 17.0527 16.7422C17.077 16.8223 17.1048 16.9012 17.1367 16.9785C17.1687 17.0559 17.2048 17.1312 17.2441 17.2051C17.2835 17.2789 17.3257 17.3513 17.3721 17.4209C17.4184 17.4905 17.4685 17.5574 17.5215 17.6221C17.5745 17.6868 17.6304 17.7494 17.6895 17.8086C17.7484 17.8677 17.8105 17.9235 17.875 17.9766C17.9395 18.0297 18.0068 18.0795 18.0762 18.126C18.1456 18.1725 18.2174 18.2154 18.291 18.2549C18.3647 18.2944 18.4404 18.3302 18.5176 18.3623C18.5947 18.3943 18.6731 18.423 18.7529 18.4473C18.8329 18.4716 18.9142 18.4915 18.9961 18.5078C19.0779 18.5241 19.1602 18.5367 19.2432 18.5449C19.3262 18.5531 19.4097 18.5576 19.4932 18.5576C19.5766 18.5576 19.6601 18.5531 19.7432 18.5449C19.8263 18.5367 19.9093 18.5241 19.9912 18.5078C20.0729 18.4915 20.1537 18.4715 20.2334 18.4473C20.3133 18.423 20.3925 18.3944 20.4697 18.3623C20.5135 18.3441 20.555 18.3214 20.5977 18.3008L20.1211 17.8232C19.8892 17.5906 19.8892 17.2141 20.1211 16.9814C20.3337 16.7682 20.6675 16.75 20.9004 16.9277L20.9609 16.9814L21.5215 17.5439C21.5525 17.503 21.5857 17.4637 21.6143 17.4209C21.6607 17.3512 21.7038 17.279 21.7432 17.2051C21.7824 17.1314 21.8177 17.0557 21.8496 16.9785C21.8816 16.9012 21.9103 16.8223 21.9346 16.7422C21.9588 16.662 21.9788 16.5802 21.9951 16.498C22.0114 16.416 22.024 16.3332 22.0322 16.25C22.0404 16.1667 22.0439 16.0827 22.0439 15.999C22.0439 15.9155 22.0404 15.8322 22.0322 15.749C22.024 15.6656 22.0114 15.5822 21.9951 15.5C21.9788 15.418 21.9588 15.3368 21.9346 15.2568C21.9103 15.1767 21.8816 15.0979 21.8496 15.0205C21.8177 14.9433 21.7824 14.8677 21.7432 14.7939C21.7038 14.7201 21.6607 14.6478 21.6143 14.5781C21.5679 14.5086 21.5178 14.4416 21.4648 14.377C21.4119 14.3122 21.3559 14.2496 21.2969 14.1904C21.2379 14.1313 21.1758 14.0755 21.1113 14.0225C21.0468 13.9693 20.9796 13.9196 20.9102 13.873C20.8408 13.8266 20.7699 13.7826 20.6963 13.7432C20.6227 13.7037 20.5468 13.6687 20.4697 13.6367C20.3925 13.6047 20.3133 13.5761 20.2334 13.5518C20.1537 13.5275 20.0729 13.5075 19.9912 13.4912C19.9093 13.4749 19.8263 13.4623 19.7432 13.4541C19.6601 13.4459 19.5766 13.4414 19.4932 13.4414C19.4097 13.4414 19.3262 13.4459 19.2432 13.4541Z" fill="#0F0F24" fill-opacity="0.5"/>
</svg>
