<svg fill="none" height="16" viewBox="0 0 16 16" width="16" xmlns="http://www.w3.org/2000/svg" xmlns:xlink="http://www.w3.org/1999/xlink"><clipPath id="a"><path d="m0 0h16v16h-16z"/></clipPath><g clip-path="url(#a)"><path d="m16 8q0 .19639-.0096.39254-.0097.19615-.0289.3916-.0193.19544-.0481.3897-.0288.19427-.0671.38688-.0383.19262-.0861.38312-.0477.19046-.1047.37846-.057.1879-.1231.3728-.0662.1849-.1414.3664-.0751.1814-.1591.3589-.084.1776-.1765.3508-.0926.1732-.1936.3416-.1009.1685-.21.3318-.1092.1633-.2261.321-.117.1577-.2416.3095-.1246.1519-.2565.2974-.1319.1455-.2707.2844-.1389.1388-.2844.2707-.1455.1319-.2974.2565-.1518.1246-.3095.2416-.1577.1169-.321.2261-.1633.1091-.3318.21-.1684.101-.3416.1936-.1732.0925-.3508.1765-.1775.084-.3589.1591-.1815.0752-.3664.1414-.1849.0661-.3728.1231-.188.057-.37846.1047-.1905.0478-.38312.0861-.19261.0383-.38688.0671-.19426.0288-.3897.0481-.19545.0192-.3916.0289-.19615.0096-.39254.0096-.19639 0-.39254-.0096-.19615-.0097-.3916-.0289-.19544-.0193-.3897-.0481-.19427-.0288-.38688-.0671-.19262-.0383-.38312-.0861-.19051-.0477-.37844-.1047-.18793-.057-.37284-.1231-.18491-.0662-.36635-.1414-.18144-.0751-.35897-.1591-.17753-.084-.35073-.1765-.1732-.0926-.34165-.1936-.16845-.1009-.33174-.21-.16329-.1092-.32103-.2261-.15775-.117-.30956-.2416-.15181-.1246-.29732-.2565-.14552-.1319-.28438-.2707-.13887-.1389-.27076-.2844-.13189-.1455-.25647-.2974-.12459-.1518-.24158-.3095-.11699-.1577-.2261-.321-.1091-.1633-.21007-.3318-.10096-.1684-.19354-.3416-.092577-.1732-.176544-.3508-.083968-.1775-.159122-.3589-.075155-.1815-.141317-.3664-.066161-.1849-.12317-.3728-.057008-.188-.104727-.37846-.047719-.1905-.086032-.38312-.038314-.19261-.0671301-.38688-.0288162-.19426-.0480657-.3897-.0192495-.19545-.02888585-.3916-.00963635-.19615-.00963635-.39254 0-.19639.00963635-.39254.00963635-.19615.02888585-.3916.0192495-.19544.0480657-.3897.0288161-.19427.0671301-.38688.038313-.19262.086032-.38312.047719-.19051.104727-.37844.057009-.18793.12317-.37284.066162-.18491.141317-.36635.075154-.18144.159122-.35897.083967-.17753.176544-.35073.09258-.1732.19354-.34165.10097-.16845.21007-.33174.10911-.16329.2261-.32103.11699-.15775.24158-.30956.12458-.15181.25647-.29732.13189-.14552.27076-.28438.13886-.13887.28438-.27076.14551-.13189.29732-.25647.15181-.12459.30956-.24158.15774-.11699.32103-.2261.16329-.1091.33174-.21007.16845-.10096.34165-.19354.1732-.092577.35073-.176544.17753-.083968.35897-.159122.18144-.075155.36635-.141317.18491-.066161.37284-.12317.18793-.057008.37844-.104727.1905-.047719.38312-.086032.19261-.038314.38688-.0671301.19426-.0288162.3897-.0480657.19545-.0192495.3916-.02888585.19615-.00963635.39254-.00963635.19639 0 .39254.00963635.19615.00963635.3916.02888585.19544.0192495.3897.0480657.19427.0288161.38688.0671301.19262.038313.38312.086032.19046.047719.37846.104727.1879.057009.3728.12317.1849.066162.3664.141317.1814.075154.3589.159122.1776.083967.3508.176544.1732.09258.3416.19354.1685.10097.3318.21007.1633.10911.321.2261.1577.11699.3095.24158.1519.12458.2974.25647.1455.13189.2844.27076.1388.13886.2707.28438.1319.14551.2565.29732.1246.15181.2416.30956.1169.15774.2261.32103.1091.16329.21.33174.101.16845.1936.34165.0925.1732.1765.35073.084.17753.1591.35897.0752.18144.1414.36635.0661.18491.1231.37284.057.18793.1047.37844.0478.1905.0861.38312.0383.19261.0671.38688.0288.19426.0481.3897.0192.19545.0289.3916.0096.19615.0096.39254z" fill="#f55"/><g fill="#fff"><path d="m10.99999988 8.20000005c0 1.5-1.3 2.8-3 2.8s-3-1.3-3-2.8 1.3-2.8 3-2.8h1.8v-5.2c.3 0 1.1.3 1.2.3z"/><path d="m3.00000131 5.69999998c-.100001.2-.300001.3-.500001.3-.1 0-.1 0-.2 0-.2-.1-.4000004-.4-.3000004-.7.6000004-1.5 1.8000014-2.7 3.3000014-3.3.3-.1.5 0 .6.3s0 .5-.3.6c-1.2.5-2.2 1.5-2.6 2.8z"/></g></g></svg>