<svg fill="none" height="16" viewBox="0 0 78 16" width="78" xmlns="http://www.w3.org/2000/svg" xmlns:xlink="http://www.w3.org/1999/xlink"><filter id="a" color-interpolation-filters="sRGB" height="10.768" width="10.768" x="-.384" y="-.3456"><feFlood flood-opacity="0" result="BackgroundImageFix"/><feColorMatrix in="SourceAlpha" type="matrix" values="0 0 0 0 0 0 0 0 0 0 0 0 0 0 0 0 0 0 127 0"/><feOffset dx="0" dy=".0384"/><feGaussianBlur stdDeviation=".09599999338"/><feColorMatrix type="matrix" values="0 0 0 0 0.95686274766922 0 0 0 0 0.41960784792900085 0 0 0 0 0.3921568691730499 0 0 0 0.20000000298023224 0"/><feBlend in2="BackgroundImageFix" mode="normal" result="effect1_dropShadow"/><feBlend in="SourceGraphic" in2="effect1_dropShadow" mode="normal" result="shape"/><feColorMatrix in="SourceAlpha" result="hardAlpha" type="matrix" values="0 0 0 0 0 0 0 0 0 0 0 0 0 0 0 0 0 0 127 0"/><feOffset dx="0" dy=".0192"/><feGaussianBlur stdDeviation="0"/><feComposite in2="hardAlpha" k2="-1" k3="1" operator="arithmetic"/><feColorMatrix type="matrix" values="0 0 0 0 1 0 0 0 0 1 0 0 0 0 1 0 0 0 0.05999999865889549 0"/><feBlend in2="shape" mode="normal" result="effect2_innerShadow"/></filter><rect fill="#ff3a3a" height="16" rx="8" width="78"/><g filter="url(#a)"><path d="m14 8q0 .12274-.00602.24534-.00603.12259-.01806.24475-.01203.12215-.03004.24356-.01801.12142-.04196.2418-.02394.12039-.05377.23945-.02982.11906-.06545.23652-.03563.11746-.07698.23303-.04135.11557-.08832.22897-.04698.1134-.09945.22435-.05248.11096-.11034.21921-.05787.10825-.12097.21353-.0631.10528-.13129.20734-.0682.10206-.14131.20065-.07312.09858-.15099.19347-.07787.09488-.1603.18582-.08243.09095-.16922.17774-.08679.08679-.17774.16922-.09094.08243-.18582.1603-.09489.07787-.19347.15099-.09859.07311-.20065.14131-.10206.06819-.20734.13129-.10528.0631-.21353.12097-.10825.05786-.21921.11034-.11095.05247-.22435.09945-.1134.04697-.22897.08832-.11557.04135-.23303.07698-.11746.03563-.23652.06545-.11906.02983-.23945.05377-.12038.02395-.2418.04196-.12141.01801-.24356.03004-.12216.01203-.24475.01806-.1226.00602-.24534.00602-.12274 0-.24534-.00602-.12259-.00603-.24475-.01806-.12215-.01203-.24356-.03004-.12142-.01801-.2418-.04196-.12039-.02394-.23945-.05377-.11907-.02982-.23652-.06545-.11746-.03563-.23303-.07698-.11557-.04135-.22897-.08832-.1134-.04698-.22436-.09945-.11095-.05248-.2192-.11034-.10825-.05787-.21353-.12097-.10528-.0631-.20734-.13129-.10206-.0682-.20065-.14131-.09859-.07312-.19347-.15099-.09488-.07787-.18583-.1603-.09094-.08243-.17773-.16922-.0868-.08679-.16923-.17774-.08242-.09094-.16029-.18582-.07787-.09489-.150988-.19347-.073118-.09859-.14131-.20065-.068193-.10206-.131295-.20734-.063103-.10528-.120963-.21353-.057861-.10825-.110341-.21921-.052479-.11095-.099451-.22435-.046971-.1134-.088322-.22897-.041351-.11557-.076982-.23303-.03563-.11746-.065454-.23652-.029824-.11906-.0537704-.23945-.023946-.12038-.0419562-.2418-.0180101-.12141-.030041-.24356-.012031-.12216-.01805368-.24475-.00602272-.1226-.00602272-.24534 0-.12274.00602272-.24534.00602268-.12259.01805368-.24475.0120309-.12215.030041-.24356.0180102-.12142.0419562-.2418.0239464-.12039.0537704-.23945.029824-.11907.065454-.23652.035631-.11746.076982-.23303.041351-.11557.088322-.22897.046972-.1134.099451-.22436.05248-.11095.110341-.2192.05786-.10825.120963-.21353.063102-.10528.131295-.20734.068192-.10206.14131-.20065.073118-.09859.150988-.19347.07787-.09488.16029-.18583.08243-.09094.16923-.17773.08679-.0868.17773-.16923.09095-.08242.18583-.16029.09488-.07787.19347-.150988.09859-.073118.20065-.14131.10206-.068193.20734-.131295.10528-.063103.21353-.120963.10825-.057861.2192-.110341.11096-.052479.22436-.099451.1134-.046971.22897-.088322.11557-.041351.23303-.076982.11745-.03563.23652-.065454.11906-.029824.23945-.0537704.12038-.023946.2418-.0419562.12141-.0180101.24356-.030041.12216-.012031.24475-.01805368.1226-.00602272.24534-.00602272.50506 0 .99992.101004v3.232326h-1c-.92045 0-1.66667.74622-1.66667 1.66667 0 .92044.74622 1.66666 1.66667 1.66666.92044 0 1.66667-.74622 1.66667-1.66666v-4.714074q.18143.064142.35739.142039.17596.077897.34542.169088.16946.091191.3314.195137.16195.103946.31543.22003.15347.11609.29757.24363.14411.12753.27798.26577.13387.13824.25672.28635.12285.14812.23396.30524.1111.15713.2098.32232.0987.1652.18441.33749.08571.17229.15792.35067.07222.17837.13051.36176.05829.1834.10231.37073.04402.18733.07351.37749.0295.19016.04429.38203.01479.19186.01479.3843zm-7.90958-1.10393c-.05067.13311-.17711.21511-.31178.21511-.03933 0-.07911-.00689-.11822-.02178-.172-.06533-.25867-.25778-.19333-.42978.38333-1.01 1.18244-1.80911 2.19244-2.19244.172-.06556.36445.02133.43.19333.06534.172-.02133.36467-.19355.43-.83178.31556-1.48978.97378-1.80556 1.80556z" fill="#fff" fill-rule="evenodd"/></g></svg>