<svg width="32" height="32" viewBox="0 0 32 32" fill="none" xmlns="http://www.w3.org/2000/svg">
<path d="M10.0415 20.7381V19.6905C10.0415 19.6733 10.0432 19.6562 10.0466 19.6394C10.05 19.6225 10.055 19.6062 10.0617 19.5903C10.0683 19.5744 10.0765 19.5593 10.0861 19.545C10.0958 19.5307 10.1068 19.5174 10.1191 19.5053C10.1314 19.4931 10.1447 19.4823 10.1592 19.4727C10.1737 19.4631 10.1889 19.4551 10.205 19.4485C10.221 19.4419 10.2376 19.437 10.2547 19.4336C10.2717 19.4302 10.2889 19.4285 10.3063 19.4285H12.16C12.1774 19.4285 12.1946 19.4302 12.2117 19.4336C12.2287 19.437 12.2453 19.4419 12.2614 19.4485C12.2774 19.4551 12.2927 19.4631 12.3071 19.4727C12.3216 19.4823 12.335 19.4931 12.3473 19.5053C12.3596 19.5174 12.3705 19.5307 12.3802 19.545C12.3899 19.5593 12.398 19.5744 12.4047 19.5903C12.4113 19.6062 12.4164 19.6225 12.4197 19.6394C12.4231 19.6562 12.4248 19.6733 12.4248 19.6905V20.7381C12.4248 20.7553 12.4231 20.7723 12.4197 20.7892C12.4164 20.8061 12.4113 20.8225 12.4047 20.8383C12.398 20.8542 12.3899 20.8693 12.3802 20.8836C12.3705 20.8979 12.3596 20.9111 12.3473 20.9233C12.335 20.9354 12.3216 20.9463 12.3071 20.9558C12.2927 20.9654 12.2774 20.9735 12.2614 20.9801C12.2453 20.9866 12.2287 20.9916 12.2117 20.995C12.1946 20.9983 12.1774 21 12.16 21H10.3063C10.2889 21 10.2717 20.9983 10.2547 20.995C10.2376 20.9916 10.221 20.9866 10.205 20.9801C10.1889 20.9735 10.1737 20.9654 10.1592 20.9558C10.1447 20.9463 10.1314 20.9354 10.1191 20.9233C10.1068 20.9111 10.0958 20.8979 10.0861 20.8836C10.0765 20.8693 10.0683 20.8542 10.0617 20.8383C10.055 20.8225 10.05 20.8061 10.0466 20.7892C10.0432 20.7723 10.0415 20.7553 10.0415 20.7381ZM13.2193 20.7381V19.6905C13.2193 19.6733 13.221 19.6562 13.2244 19.6394C13.2278 19.6225 13.2328 19.6062 13.2394 19.5903C13.2461 19.5744 13.2543 19.5593 13.2639 19.545C13.2736 19.5307 13.2846 19.5174 13.2968 19.5053C13.3091 19.4931 13.3225 19.4823 13.337 19.4727C13.3514 19.4631 13.3667 19.4551 13.3828 19.4485C13.3988 19.4419 13.4154 19.437 13.4324 19.4336C13.4495 19.4302 13.4667 19.4285 13.4841 19.4285H15.3378C15.3552 19.4285 15.3724 19.4302 15.3895 19.4336C15.4065 19.437 15.4231 19.4419 15.4391 19.4485C15.4552 19.4551 15.4705 19.4631 15.4849 19.4727C15.4994 19.4823 15.5128 19.4931 15.5251 19.5053C15.5374 19.5174 15.5483 19.5307 15.558 19.545C15.5676 19.5593 15.5758 19.5744 15.5825 19.5903C15.5891 19.6062 15.5941 19.6225 15.5975 19.6394C15.6009 19.6562 15.6026 19.6733 15.6026 19.6905V20.7381C15.6026 20.7553 15.6009 20.7723 15.5975 20.7892C15.5941 20.8061 15.5891 20.8225 15.5825 20.8383C15.5758 20.8542 15.5676 20.8693 15.558 20.8836C15.5483 20.8979 15.5374 20.9111 15.5251 20.9233C15.5128 20.9354 15.4994 20.9463 15.4849 20.9558C15.4705 20.9654 15.4552 20.9735 15.4391 20.9801C15.4231 20.9866 15.4065 20.9916 15.3895 20.995C15.3724 20.9983 15.3552 21 15.3378 21H13.4841C13.4667 21 13.4495 20.9983 13.4324 20.995C13.4154 20.9916 13.3988 20.9866 13.3828 20.9801C13.3667 20.9735 13.3514 20.9654 13.337 20.9558C13.3225 20.9463 13.3091 20.9354 13.2968 20.9233C13.2846 20.9111 13.2736 20.8979 13.2639 20.8836C13.2543 20.8693 13.2461 20.8542 13.2394 20.8383C13.2328 20.8225 13.2278 20.8061 13.2244 20.7892C13.221 20.7723 13.2193 20.7553 13.2193 20.7381ZM16.397 20.7381V19.6905C16.397 19.6733 16.3987 19.6562 16.4021 19.6394C16.4055 19.6225 16.4106 19.6062 16.4172 19.5903C16.4239 19.5744 16.432 19.5593 16.4417 19.545C16.4513 19.5307 16.4623 19.5174 16.4746 19.5053C16.4869 19.4931 16.5003 19.4823 16.5147 19.4727C16.5292 19.4631 16.5445 19.4551 16.5605 19.4485C16.5766 19.4419 16.5931 19.437 16.6102 19.4336C16.6273 19.4302 16.6445 19.4285 16.6619 19.4285H18.5155C18.533 19.4285 18.5502 19.4302 18.5672 19.4336C18.5843 19.437 18.6008 19.4419 18.6169 19.4485C18.633 19.4551 18.6482 19.4631 18.6627 19.4727C18.6771 19.4823 18.6905 19.4931 18.7028 19.5053C18.7151 19.5174 18.7261 19.5307 18.7357 19.545C18.7454 19.5593 18.7535 19.5744 18.7602 19.5903C18.7669 19.6062 18.7719 19.6225 18.7753 19.6394C18.7787 19.6562 18.7804 19.6733 18.7804 19.6905V20.7381C18.7804 20.7553 18.7787 20.7723 18.7753 20.7892C18.7719 20.8061 18.7669 20.8225 18.7602 20.8383C18.7535 20.8542 18.7454 20.8693 18.7357 20.8836C18.7261 20.8979 18.7151 20.9111 18.7028 20.9233C18.6905 20.9354 18.6771 20.9463 18.6627 20.9558C18.6482 20.9654 18.633 20.9735 18.6169 20.9801C18.6008 20.9866 18.5843 20.9916 18.5672 20.995C18.5502 20.9983 18.533 21 18.5155 21H16.6619C16.6445 21 16.6273 20.9983 16.6102 20.995C16.5931 20.9916 16.5766 20.9866 16.5605 20.9801C16.5445 20.9735 16.5292 20.9654 16.5147 20.9558C16.5003 20.9463 16.4869 20.9354 16.4746 20.9233C16.4623 20.9111 16.4513 20.8979 16.4417 20.8836C16.432 20.8693 16.4239 20.8542 16.4172 20.8383C16.4106 20.8225 16.4055 20.8061 16.4021 20.7892C16.3987 20.7723 16.397 20.7553 16.397 20.7381ZM19.5748 20.7381V19.6905C19.5748 19.6733 19.5765 19.6562 19.5799 19.6394C19.5833 19.6225 19.5883 19.6062 19.595 19.5903C19.6016 19.5744 19.6098 19.5593 19.6194 19.545C19.6291 19.5307 19.6401 19.5174 19.6524 19.5053C19.6647 19.4931 19.678 19.4823 19.6925 19.4727C19.707 19.4631 19.7223 19.4551 19.7383 19.4485C19.7544 19.4419 19.7709 19.437 19.788 19.4336C19.805 19.4302 19.8223 19.4285 19.8396 19.4285H21.6934C21.7107 19.4285 21.7279 19.4302 21.745 19.4336C21.7621 19.437 21.7787 19.4419 21.7947 19.4485C21.8108 19.4551 21.826 19.4631 21.8405 19.4727C21.8549 19.4823 21.8683 19.4931 21.8806 19.5053C21.8929 19.5174 21.9039 19.5307 21.9135 19.545C21.9232 19.5593 21.9314 19.5744 21.938 19.5903C21.9447 19.6062 21.9497 19.6225 21.953 19.6394C21.9565 19.6562 21.9582 19.6733 21.9582 19.6905V20.7381C21.9582 20.7553 21.9565 20.7723 21.9531 20.7892C21.9497 20.8061 21.9447 20.8225 21.938 20.8383C21.9314 20.8542 21.9232 20.8693 21.9135 20.8836C21.9039 20.8979 21.8929 20.9111 21.8806 20.9233C21.8683 20.9354 21.8549 20.9463 21.8405 20.9558C21.826 20.9654 21.8108 20.9735 21.7947 20.9801C21.7787 20.9866 21.7621 20.9916 21.745 20.995C21.7279 20.9983 21.7107 21 21.6934 21H19.8396C19.8223 21 19.805 20.9983 19.788 20.995C19.7709 20.9916 19.7544 20.9866 19.7383 20.9801C19.7223 20.9735 19.707 20.9654 19.6925 20.9558C19.678 20.9463 19.6647 20.9354 19.6524 20.9233C19.6401 20.9111 19.6291 20.8979 19.6194 20.8836C19.6098 20.8693 19.6016 20.8542 19.595 20.8383C19.5883 20.8225 19.5833 20.8061 19.5799 20.7892C19.5765 20.7723 19.5748 20.7553 19.5748 20.7381ZM10.0415 18.381V17.3334C10.0415 17.3162 10.0432 17.2991 10.0466 17.2823C10.05 17.2654 10.055 17.249 10.0617 17.2331C10.0683 17.2173 10.0765 17.2022 10.0861 17.1879C10.0958 17.1736 10.1068 17.1603 10.1191 17.1482C10.1314 17.136 10.1447 17.1252 10.1592 17.1156C10.1737 17.1061 10.1889 17.098 10.205 17.0914C10.221 17.0848 10.2376 17.0799 10.2547 17.0765C10.2717 17.0731 10.2889 17.0715 10.3063 17.0715H12.16C12.1774 17.0715 12.1946 17.0731 12.2117 17.0765C12.2287 17.0799 12.2453 17.0848 12.2614 17.0914C12.2774 17.098 12.2927 17.1061 12.3071 17.1156C12.3216 17.1252 12.335 17.136 12.3473 17.1482C12.3596 17.1603 12.3705 17.1736 12.3802 17.1879C12.3899 17.2022 12.398 17.2173 12.4047 17.2331C12.4113 17.249 12.4164 17.2654 12.4197 17.2823C12.4231 17.2991 12.4248 17.3162 12.4248 17.3334V18.381C12.4248 18.3982 12.4231 18.4152 12.4197 18.4321C12.4164 18.449 12.4113 18.4653 12.4047 18.4812C12.398 18.4971 12.3899 18.5122 12.3802 18.5265C12.3705 18.5408 12.3596 18.554 12.3473 18.5662C12.335 18.5784 12.3216 18.5892 12.3071 18.5987C12.2927 18.6083 12.2774 18.6164 12.2614 18.6229C12.2453 18.6296 12.2287 18.6345 12.2117 18.6379C12.1946 18.6412 12.1774 18.6429 12.16 18.6429H10.3063C10.2889 18.6429 10.2717 18.6412 10.2547 18.6379C10.2376 18.6345 10.221 18.6296 10.205 18.6229C10.1889 18.6164 10.1737 18.6083 10.1592 18.5987C10.1447 18.5892 10.1314 18.5784 10.1191 18.5662C10.1068 18.554 10.0958 18.5408 10.0861 18.5265C10.0765 18.5122 10.0683 18.4971 10.0617 18.4812C10.055 18.4653 10.05 18.449 10.0466 18.4321C10.0432 18.4152 10.0415 18.3982 10.0415 18.381ZM13.2193 18.381V17.3334C13.2193 17.3162 13.221 17.2991 13.2244 17.2823C13.2278 17.2654 13.2328 17.249 13.2394 17.2331C13.2461 17.2173 13.2543 17.2022 13.2639 17.1879C13.2736 17.1736 13.2846 17.1603 13.2968 17.1482C13.3091 17.136 13.3225 17.1252 13.337 17.1156C13.3514 17.1061 13.3667 17.098 13.3828 17.0914C13.3988 17.0848 13.4154 17.0799 13.4324 17.0765C13.4495 17.0731 13.4667 17.0715 13.4841 17.0715H15.3378C15.3552 17.0715 15.3724 17.0731 15.3895 17.0765C15.4065 17.0799 15.4231 17.0848 15.4391 17.0914C15.4552 17.098 15.4705 17.1061 15.4849 17.1156C15.4994 17.1252 15.5128 17.136 15.5251 17.1482C15.5374 17.1603 15.5483 17.1736 15.558 17.1879C15.5676 17.2022 15.5758 17.2173 15.5825 17.2331C15.5891 17.249 15.5941 17.2654 15.5975 17.2823C15.6009 17.2991 15.6026 17.3162 15.6026 17.3334V18.381C15.6026 18.3982 15.6009 18.4152 15.5975 18.4321C15.5941 18.449 15.5891 18.4653 15.5825 18.4812C15.5758 18.4971 15.5676 18.5122 15.558 18.5265C15.5483 18.5408 15.5374 18.554 15.5251 18.5662C15.5128 18.5784 15.4994 18.5892 15.4849 18.5987C15.4705 18.6083 15.4552 18.6164 15.4391 18.6229C15.4231 18.6296 15.4065 18.6345 15.3895 18.6379C15.3724 18.6412 15.3552 18.6429 15.3378 18.6429H13.4841C13.4667 18.6429 13.4495 18.6412 13.4324 18.6379C13.4154 18.6345 13.3988 18.6296 13.3828 18.6229C13.3667 18.6164 13.3514 18.6083 13.337 18.5987C13.3225 18.5892 13.3091 18.5784 13.2968 18.5662C13.2846 18.554 13.2736 18.5408 13.2639 18.5265C13.2543 18.5122 13.2461 18.4971 13.2394 18.4812C13.2328 18.4653 13.2278 18.449 13.2244 18.4321C13.221 18.4152 13.2193 18.3982 13.2193 18.381ZM16.397 18.381V17.3334C16.397 17.3162 16.3987 17.2991 16.4021 17.2823C16.4055 17.2654 16.4106 17.249 16.4172 17.2331C16.4239 17.2173 16.432 17.2022 16.4417 17.1879C16.4513 17.1736 16.4623 17.1603 16.4746 17.1482C16.4869 17.136 16.5003 17.1252 16.5147 17.1156C16.5292 17.1061 16.5445 17.098 16.5605 17.0914C16.5766 17.0848 16.5931 17.0799 16.6102 17.0765C16.6273 17.0731 16.6445 17.0715 16.6619 17.0715H18.5155C18.533 17.0715 18.5502 17.0731 18.5672 17.0765C18.5843 17.0799 18.6008 17.0848 18.6169 17.0914C18.633 17.098 18.6482 17.1061 18.6627 17.1156C18.6771 17.1252 18.6905 17.136 18.7028 17.1482C18.7151 17.1603 18.7261 17.1736 18.7357 17.1879C18.7454 17.2022 18.7535 17.2173 18.7602 17.2331C18.7669 17.249 18.7719 17.2654 18.7753 17.2823C18.7787 17.2991 18.7804 17.3162 18.7804 17.3334V18.381C18.7804 18.3982 18.7787 18.4152 18.7753 18.4321C18.7719 18.449 18.7669 18.4653 18.7602 18.4812C18.7535 18.4971 18.7454 18.5122 18.7357 18.5265C18.7261 18.5408 18.7151 18.554 18.7028 18.5662C18.6905 18.5784 18.6771 18.5892 18.6627 18.5987C18.6482 18.6083 18.633 18.6164 18.6169 18.6229C18.6008 18.6296 18.5843 18.6345 18.5672 18.6379C18.5502 18.6412 18.533 18.6429 18.5155 18.6429H16.6619C16.6445 18.6429 16.6273 18.6412 16.6102 18.6379C16.5931 18.6345 16.5766 18.6296 16.5605 18.6229C16.5445 18.6164 16.5292 18.6083 16.5147 18.5987C16.5003 18.5892 16.4869 18.5784 16.4746 18.5662C16.4623 18.554 16.4513 18.5408 16.4417 18.5265C16.432 18.5122 16.4239 18.4971 16.4172 18.4812C16.4106 18.4653 16.4055 18.449 16.4021 18.4321C16.3987 18.4152 16.397 18.3982 16.397 18.381ZM19.5748 18.381V17.3334C19.5748 17.3162 19.5765 17.2991 19.5799 17.2823C19.5833 17.2654 19.5883 17.249 19.595 17.2331C19.6016 17.2173 19.6098 17.2022 19.6194 17.1879C19.6291 17.1736 19.6401 17.1603 19.6524 17.1482C19.6647 17.136 19.678 17.1252 19.6925 17.1156C19.707 17.1061 19.7223 17.098 19.7383 17.0914C19.7544 17.0848 19.7709 17.0799 19.788 17.0765C19.805 17.0731 19.8223 17.0715 19.8396 17.0715H21.6934C21.7107 17.0715 21.7279 17.0731 21.745 17.0765C21.7621 17.0799 21.7787 17.0848 21.7947 17.0914C21.8108 17.098 21.826 17.1061 21.8405 17.1156C21.8549 17.1252 21.8683 17.136 21.8806 17.1482C21.8929 17.1603 21.9039 17.1736 21.9135 17.1879C21.9232 17.2022 21.9314 17.2173 21.938 17.2331C21.9447 17.249 21.9497 17.2654 21.953 17.2823C21.9565 17.2991 21.9582 17.3162 21.9582 17.3334V18.381C21.9582 18.3982 21.9565 18.4152 21.9531 18.4321C21.9497 18.449 21.9447 18.4653 21.938 18.4812C21.9314 18.4971 21.9232 18.5122 21.9135 18.5265C21.9039 18.5408 21.8929 18.554 21.8806 18.5662C21.8683 18.5784 21.8549 18.5892 21.8405 18.5987C21.826 18.6083 21.8108 18.6164 21.7947 18.6229C21.7787 18.6296 21.7621 18.6345 21.745 18.6379C21.7279 18.6412 21.7107 18.6429 21.6934 18.6429H19.8396C19.8223 18.6429 19.805 18.6412 19.788 18.6379C19.7709 18.6345 19.7544 18.6296 19.7383 18.6229C19.7223 18.6164 19.707 18.6083 19.6925 18.5987C19.678 18.5892 19.6647 18.5784 19.6524 18.5662C19.6401 18.554 19.6291 18.5408 19.6194 18.5265C19.6098 18.5122 19.6016 18.4971 19.595 18.4812C19.5883 18.4653 19.5833 18.449 19.5799 18.4321C19.5765 18.4152 19.5748 18.3982 19.5748 18.381ZM13.2193 16.0239V14.9763C13.2193 14.9591 13.221 14.9421 13.2244 14.9252C13.2278 14.9083 13.2328 14.8919 13.2394 14.8761C13.2461 14.8602 13.2543 14.8451 13.2639 14.8308C13.2736 14.8165 13.2846 14.8032 13.2968 14.7911C13.3091 14.7789 13.3225 14.7681 13.337 14.7585C13.3514 14.749 13.3667 14.7409 13.3828 14.7343C13.3988 14.7277 13.4154 14.7228 13.4324 14.7194C13.4495 14.7161 13.4667 14.7144 13.4841 14.7144H15.3378C15.3552 14.7144 15.3724 14.7161 15.3895 14.7194C15.4065 14.7228 15.4231 14.7277 15.4391 14.7343C15.4552 14.7409 15.4705 14.749 15.4849 14.7585C15.4994 14.7681 15.5128 14.7789 15.5251 14.7911C15.5374 14.8032 15.5483 14.8165 15.558 14.8308C15.5676 14.8451 15.5758 14.8602 15.5825 14.8761C15.5891 14.8919 15.5941 14.9083 15.5975 14.9252C15.6009 14.9421 15.6026 14.9591 15.6026 14.9763V16.0239C15.6026 16.0411 15.6009 16.0581 15.5975 16.075C15.5941 16.0919 15.5891 16.1082 15.5825 16.1241C15.5758 16.14 15.5676 16.1551 15.558 16.1694C15.5483 16.1837 15.5374 16.1969 15.5251 16.2091C15.5128 16.2213 15.4994 16.2321 15.4849 16.2417C15.4705 16.2512 15.4552 16.2593 15.4391 16.2659C15.4231 16.2725 15.4065 16.2774 15.3895 16.2808C15.3724 16.2841 15.3552 16.2858 15.3378 16.2858H13.4841C13.4667 16.2858 13.4495 16.2841 13.4324 16.2808C13.4154 16.2774 13.3988 16.2725 13.3828 16.2659C13.3667 16.2593 13.3514 16.2512 13.337 16.2417C13.3225 16.2321 13.3091 16.2213 13.2968 16.2091C13.2846 16.1969 13.2736 16.1837 13.2639 16.1694C13.2543 16.1551 13.2461 16.14 13.2394 16.1241C13.2328 16.1082 13.2278 16.0919 13.2244 16.075C13.221 16.0581 13.2193 16.0411 13.2193 16.0239ZM16.397 16.0239V14.9763C16.397 14.9591 16.3987 14.9421 16.4021 14.9252C16.4055 14.9083 16.4106 14.8919 16.4172 14.8761C16.4239 14.8602 16.432 14.8451 16.4417 14.8308C16.4513 14.8165 16.4623 14.8032 16.4746 14.7911C16.4869 14.7789 16.5003 14.7681 16.5147 14.7585C16.5292 14.749 16.5445 14.7409 16.5605 14.7343C16.5766 14.7277 16.5931 14.7228 16.6102 14.7194C16.6273 14.7161 16.6445 14.7144 16.6619 14.7144H18.5155C18.533 14.7144 18.5502 14.7161 18.5672 14.7194C18.5843 14.7228 18.6008 14.7277 18.6169 14.7343C18.633 14.7409 18.6482 14.749 18.6627 14.7585C18.6771 14.7681 18.6905 14.7789 18.7028 14.7911C18.7151 14.8032 18.7261 14.8165 18.7357 14.8308C18.7454 14.8451 18.7535 14.8602 18.7602 14.8761C18.7669 14.8919 18.7719 14.9083 18.7753 14.9252C18.7787 14.9421 18.7804 14.9591 18.7804 14.9763V16.0239C18.7804 16.0411 18.7787 16.0581 18.7753 16.075C18.7719 16.0919 18.7669 16.1082 18.7602 16.1241C18.7535 16.14 18.7454 16.1551 18.7357 16.1694C18.7261 16.1837 18.7151 16.1969 18.7028 16.2091C18.6905 16.2213 18.6771 16.2321 18.6627 16.2417C18.6482 16.2512 18.633 16.2593 18.6169 16.2659C18.6008 16.2725 18.5843 16.2774 18.5672 16.2808C18.5502 16.2841 18.533 16.2858 18.5155 16.2858H16.6619C16.6445 16.2858 16.6273 16.2841 16.6102 16.2808C16.5931 16.2774 16.5766 16.2725 16.5605 16.2659C16.5445 16.2593 16.5292 16.2512 16.5147 16.2417C16.5003 16.2321 16.4869 16.2213 16.4746 16.2091C16.4623 16.1969 16.4513 16.1837 16.4417 16.1694C16.432 16.1551 16.4239 16.14 16.4172 16.1241C16.4106 16.1082 16.4055 16.0919 16.4021 16.075C16.3987 16.0581 16.397 16.0411 16.397 16.0239ZM19.5748 16.0239V14.9763C19.5748 14.9591 19.5765 14.9421 19.5799 14.9252C19.5833 14.9083 19.5883 14.8919 19.595 14.8761C19.6016 14.8602 19.6098 14.8451 19.6194 14.8308C19.6291 14.8165 19.6401 14.8032 19.6524 14.7911C19.6647 14.7789 19.678 14.7681 19.6925 14.7585C19.707 14.749 19.7223 14.7409 19.7383 14.7343C19.7544 14.7277 19.7709 14.7228 19.788 14.7194C19.805 14.7161 19.8223 14.7144 19.8396 14.7144H21.6934C21.7107 14.7144 21.7279 14.7161 21.745 14.7194C21.7621 14.7228 21.7787 14.7277 21.7947 14.7343C21.8108 14.7409 21.826 14.749 21.8405 14.7585C21.8549 14.7681 21.8683 14.7789 21.8806 14.7911C21.8929 14.8032 21.9039 14.8165 21.9135 14.8308C21.9232 14.8451 21.9314 14.8602 21.938 14.8761C21.9447 14.8919 21.9497 14.9083 21.953 14.9252C21.9565 14.9421 21.9582 14.9591 21.9582 14.9763V16.0239C21.9582 16.0411 21.9565 16.0581 21.9531 16.075C21.9497 16.0919 21.9447 16.1082 21.938 16.1241C21.9314 16.14 21.9232 16.1551 21.9135 16.1694C21.9039 16.1837 21.8929 16.1969 21.8806 16.2091C21.8683 16.2213 21.8549 16.2321 21.8405 16.2417C21.826 16.2512 21.8108 16.2593 21.7947 16.2659C21.7787 16.2725 21.7621 16.2774 21.745 16.2808C21.7279 16.2841 21.7107 16.2858 21.6934 16.2858H19.8396C19.8223 16.2858 19.805 16.2841 19.788 16.2808C19.7709 16.2774 19.7544 16.2725 19.7383 16.2659C19.7223 16.2593 19.707 16.2512 19.6925 16.2417C19.678 16.2321 19.6647 16.2213 19.6524 16.2091C19.6401 16.1969 19.6291 16.1837 19.6194 16.1694C19.6098 16.1551 19.6016 16.14 19.595 16.1241C19.5883 16.1082 19.5833 16.0919 19.5799 16.075C19.5765 16.0581 19.5748 16.0411 19.5748 16.0239ZM13.2193 13.6666V12.619C13.2193 12.6018 13.221 12.5848 13.2244 12.5679C13.2278 12.551 13.2328 12.5347 13.2394 12.5188C13.2461 12.5029 13.2543 12.4878 13.2639 12.4735C13.2736 12.4592 13.2846 12.446 13.2968 12.4338C13.3091 12.4216 13.3225 12.4108 13.337 12.4012C13.3514 12.3917 13.3667 12.3836 13.3828 12.377C13.3988 12.3705 13.4154 12.3655 13.4324 12.3621C13.4495 12.3588 13.4667 12.3571 13.4841 12.3571H15.3378C15.3552 12.3571 15.3724 12.3588 15.3895 12.3621C15.4065 12.3655 15.4231 12.3705 15.4391 12.377C15.4552 12.3836 15.4705 12.3917 15.4849 12.4012C15.4994 12.4108 15.5128 12.4216 15.5251 12.4338C15.5374 12.446 15.5483 12.4592 15.558 12.4735C15.5676 12.4878 15.5758 12.5029 15.5825 12.5188C15.5891 12.5347 15.5941 12.551 15.5975 12.5679C15.6009 12.5848 15.6026 12.6018 15.6026 12.619V13.6666C15.6026 13.6838 15.6009 13.7009 15.5975 13.7177C15.5941 13.7346 15.5891 13.751 15.5825 13.7669C15.5758 13.7827 15.5676 13.7978 15.558 13.8121C15.5483 13.8264 15.5374 13.8397 15.5251 13.8518C15.5128 13.864 15.4994 13.8748 15.4849 13.8844C15.4705 13.8939 15.4552 13.902 15.4391 13.9086C15.4231 13.9152 15.4065 13.9201 15.3895 13.9235C15.3724 13.9269 15.3552 13.9285 15.3378 13.9285H13.4841C13.4667 13.9285 13.4495 13.9269 13.4324 13.9235C13.4154 13.9201 13.3988 13.9152 13.3828 13.9086C13.3667 13.902 13.3514 13.8939 13.337 13.8844C13.3225 13.8748 13.3091 13.864 13.2968 13.8518C13.2846 13.8397 13.2736 13.8264 13.2639 13.8121C13.2543 13.7978 13.2461 13.7827 13.2394 13.7669C13.2328 13.751 13.2278 13.7346 13.2244 13.7177C13.221 13.7009 13.2193 13.6838 13.2193 13.6666ZM16.397 13.6666V12.619C16.397 12.6018 16.3987 12.5848 16.4021 12.5679C16.4055 12.551 16.4106 12.5347 16.4172 12.5188C16.4239 12.5029 16.432 12.4878 16.4417 12.4735C16.4513 12.4592 16.4623 12.446 16.4746 12.4338C16.4869 12.4216 16.5003 12.4108 16.5147 12.4012C16.5292 12.3917 16.5445 12.3836 16.5605 12.377C16.5766 12.3705 16.5931 12.3655 16.6102 12.3621C16.6273 12.3588 16.6445 12.3571 16.6619 12.3571H18.5155C18.533 12.3571 18.5502 12.3588 18.5672 12.3621C18.5843 12.3655 18.6008 12.3705 18.6169 12.377C18.633 12.3836 18.6482 12.3917 18.6627 12.4012C18.6771 12.4108 18.6905 12.4216 18.7028 12.4338C18.7151 12.446 18.7261 12.4592 18.7357 12.4735C18.7454 12.4878 18.7535 12.5029 18.7602 12.5188C18.7669 12.5347 18.7719 12.551 18.7753 12.5679C18.7787 12.5848 18.7804 12.6018 18.7804 12.619V13.6666C18.7804 13.6838 18.7787 13.7009 18.7753 13.7177C18.7719 13.7346 18.7669 13.751 18.7602 13.7669C18.7535 13.7827 18.7454 13.7978 18.7357 13.8121C18.7261 13.8264 18.7151 13.8397 18.7028 13.8518C18.6905 13.864 18.6771 13.8748 18.6627 13.8844C18.6482 13.8939 18.633 13.902 18.6169 13.9086C18.6008 13.9152 18.5843 13.9201 18.5672 13.9235C18.5502 13.9269 18.533 13.9285 18.5155 13.9285H16.6619C16.6445 13.9285 16.6273 13.9269 16.6102 13.9235C16.5931 13.9201 16.5766 13.9152 16.5605 13.9086C16.5445 13.902 16.5292 13.8939 16.5147 13.8844C16.5003 13.8748 16.4869 13.864 16.4746 13.8518C16.4623 13.8397 16.4513 13.8264 16.4417 13.8121C16.432 13.7978 16.4239 13.7827 16.4172 13.7669C16.4106 13.751 16.4055 13.7346 16.4021 13.7177C16.3987 13.7009 16.397 13.6838 16.397 13.6666ZM13.2193 11.3095V10.2619C13.2193 10.2447 13.221 10.2277 13.2244 10.2108C13.2278 10.1939 13.2328 10.1776 13.2394 10.1617C13.2461 10.1458 13.2543 10.1307 13.2639 10.1164C13.2736 10.1021 13.2846 10.0889 13.2968 10.0767C13.3091 10.0646 13.3225 10.0537 13.337 10.0441C13.3514 10.0346 13.3667 10.0265 13.3828 10.0199C13.3988 10.0134 13.4154 10.0084 13.4324 10.005C13.4495 10.0017 13.4667 10 13.4841 10H15.3378C15.3552 10 15.3724 10.0017 15.3895 10.005C15.4065 10.0084 15.4231 10.0134 15.4391 10.0199C15.4552 10.0265 15.4705 10.0346 15.4849 10.0441C15.4994 10.0537 15.5128 10.0646 15.5251 10.0767C15.5374 10.0889 15.5483 10.1021 15.558 10.1164C15.5676 10.1307 15.5758 10.1458 15.5825 10.1617C15.5891 10.1776 15.5941 10.1939 15.5975 10.2108C15.6009 10.2277 15.6026 10.2447 15.6026 10.2619V11.3095C15.6026 11.3267 15.6009 11.3438 15.5975 11.3606C15.5941 11.3775 15.5891 11.3939 15.5825 11.4098C15.5758 11.4256 15.5676 11.4407 15.558 11.455C15.5483 11.4693 15.5374 11.4826 15.5251 11.4947C15.5128 11.5069 15.4994 11.5177 15.4849 11.5273C15.4705 11.5369 15.4552 11.5449 15.4391 11.5515C15.4231 11.5581 15.4065 11.5631 15.3895 11.5664C15.3724 11.5698 15.3552 11.5714 15.3378 11.5714H13.4841C13.4667 11.5714 13.4495 11.5698 13.4324 11.5664C13.4154 11.5631 13.3988 11.5581 13.3828 11.5515C13.3667 11.5449 13.3514 11.5369 13.337 11.5273C13.3225 11.5177 13.3091 11.5069 13.2968 11.4947C13.2846 11.4826 13.2736 11.4693 13.2639 11.455C13.2543 11.4407 13.2461 11.4256 13.2394 11.4098C13.2328 11.3939 13.2278 11.3775 13.2244 11.3606C13.221 11.3438 13.2193 11.3267 13.2193 11.3095Z" fill="#C17F73"/>
</svg>
