<svg width="32" height="32" viewBox="0 0 32 32" fill="none" xmlns="http://www.w3.org/2000/svg">
<path d="M19.7202 12.25C20.764 12.2501 21.655 12.6166 22.3931 13.3486C23.131 14.0806 23.5004 14.9639 23.5005 15.999C23.5005 16.8337 23.2595 17.5695 22.7798 18.207L23.3296 18.752L23.3276 18.7539C23.3828 18.8086 23.4257 18.8719 23.4556 18.9434C23.4854 19.0148 23.5005 19.0896 23.5005 19.167C23.5005 19.2051 23.4963 19.2429 23.4888 19.2803C23.4812 19.3178 23.4703 19.3543 23.4556 19.3896C23.4408 19.4251 23.4223 19.4594 23.4009 19.4912C23.3795 19.5229 23.3548 19.5521 23.3276 19.5791C23.3004 19.6061 23.2708 19.6301 23.2388 19.6514C23.2067 19.6727 23.1729 19.6914 23.1372 19.7061C23.1016 19.7207 23.0647 19.7318 23.0269 19.7393C22.989 19.7467 22.9502 19.75 22.9116 19.75C22.8338 19.7499 22.7589 19.7356 22.687 19.7061C22.615 19.6765 22.5517 19.6337 22.4966 19.5791L22.4946 19.5811L21.9438 19.0352C21.3015 19.51 20.5609 19.749 19.7202 19.749C18.6764 19.749 17.7855 19.3824 17.0474 18.6504C16.3092 17.9183 15.9399 17.0344 15.9399 15.999C15.94 14.9638 16.3093 14.0807 17.0474 13.3486C17.7855 12.6165 18.6763 12.25 19.7202 12.25ZM12.1284 12.2578C12.5543 12.2795 12.9448 12.3341 13.3003 12.4219C13.6565 12.51 13.967 12.6176 14.231 12.7451C14.5079 12.8785 14.7318 13.0227 14.9019 13.1787C15.0048 13.2742 15.0869 13.3594 15.1489 13.4336L15.147 13.4355C15.2371 13.5435 15.2827 13.6675 15.2827 13.8076C15.2827 13.8459 15.2785 13.8843 15.271 13.9219C15.2635 13.9594 15.2525 13.9959 15.2378 14.0312C15.2231 14.0665 15.2054 14.1001 15.1841 14.1318C15.1626 14.1637 15.1381 14.1936 15.1108 14.2207C15.0835 14.2478 15.0531 14.2717 15.021 14.293C14.9889 14.3142 14.9551 14.332 14.9194 14.3467C14.8838 14.3613 14.847 14.3724 14.8091 14.3799C14.7713 14.3873 14.7333 14.3916 14.6948 14.3916C14.6072 14.3916 14.5231 14.3729 14.4438 14.3359C14.3649 14.2991 14.2974 14.2473 14.2417 14.1807L14.2397 14.1816C14.2096 14.1456 14.1626 14.0979 14.0991 14.0391C14.0148 13.9617 13.886 13.882 13.7134 13.7988C13.5236 13.7072 13.2909 13.6268 13.0151 13.5586C12.7335 13.4891 12.4178 13.4455 12.0679 13.4277C11.7452 13.4114 11.4391 13.4296 11.1499 13.4824C10.87 13.5336 10.6279 13.6099 10.4243 13.7119C10.2486 13.8003 10.1121 13.9073 10.0142 14.0322C9.93626 14.1322 9.89365 14.2422 9.88721 14.3613C9.88007 14.4941 9.89632 14.5965 9.93506 14.668C9.98961 14.7684 10.0734 14.8564 10.187 14.9307C10.33 15.0242 10.5406 15.1157 10.8179 15.2051C11.0922 15.2934 11.422 15.3604 11.8071 15.4072C11.9437 15.4239 12.1771 15.4413 12.5063 15.458C12.8585 15.4759 13.1121 15.4941 13.2671 15.5137C13.7514 15.575 14.1302 15.6868 14.4028 15.8477C14.7019 16.0236 14.9354 16.2395 15.103 16.4951C15.2865 16.7774 15.3674 17.1247 15.3452 17.5371C15.3217 17.9705 15.1679 18.3508 14.8843 18.6768C14.6731 18.9205 14.3953 19.1297 14.0513 19.3047C13.7389 19.463 13.3464 19.5875 12.8745 19.6777C12.5394 19.7414 12.1409 19.7619 11.6792 19.7383C11.2027 19.7142 10.7682 19.6456 10.3765 19.5332C9.98863 19.4219 9.65535 19.2913 9.37646 19.1416C9.09395 18.9894 8.86199 18.8286 8.68213 18.6592L8.68408 18.6572C8.6257 18.6022 8.58014 18.5382 8.54834 18.4648C8.51654 18.3914 8.50051 18.3143 8.50049 18.2344C8.50049 18.1961 8.50467 18.1577 8.51221 18.1201C8.51974 18.0826 8.53066 18.0461 8.54541 18.0107C8.56018 17.9754 8.57867 17.942 8.6001 17.9102C8.62156 17.8783 8.64602 17.8484 8.67334 17.8213C8.70056 17.7943 8.73022 17.7702 8.76221 17.749C8.79422 17.7278 8.82822 17.7099 8.86377 17.6953C8.89933 17.6807 8.93637 17.6696 8.97412 17.6621C9.01201 17.6546 9.05073 17.6504 9.08936 17.6504C9.16464 17.6504 9.2372 17.6647 9.30713 17.6924C9.37715 17.7201 9.43996 17.76 9.49463 17.8115L9.49561 17.8096C9.60024 17.9081 9.74859 18.0092 9.93994 18.1123C10.1431 18.2214 10.3982 18.3193 10.7046 18.4072C11.0086 18.4944 11.3536 18.5479 11.7388 18.5674C12.1056 18.5861 12.4103 18.5732 12.6519 18.5273C13.013 18.4583 13.3004 18.3696 13.5132 18.2617C13.719 18.157 13.8772 18.0407 13.9878 17.9131C14.0969 17.7877 14.1564 17.6415 14.1655 17.4746C14.1741 17.3147 14.1553 17.1998 14.1099 17.1299C14.0442 17.0298 13.9411 16.9383 13.8003 16.8555C13.6673 16.777 13.4396 16.7165 13.1177 16.6758C12.9923 16.6599 12.7683 16.6443 12.4458 16.6279C12.0889 16.6098 11.828 16.5903 11.6636 16.5703C11.2032 16.5144 10.7992 16.4309 10.4526 16.3193C10.0738 16.1972 9.76852 16.0599 9.53662 15.9082C9.25703 15.7253 9.0427 15.4969 8.89404 15.2227C8.75069 14.9583 8.68851 14.6497 8.70752 14.2979C8.72719 13.9357 8.85072 13.608 9.07861 13.3154C9.28621 13.0504 9.55761 12.8346 9.89111 12.667C10.1965 12.514 10.5449 12.4015 10.936 12.3301C11.316 12.2607 11.7137 12.2367 12.1284 12.2578ZM19.7202 13.4219C19.0025 13.4219 18.3898 13.6734 17.8823 14.1768C17.3749 14.68 17.1207 15.2874 17.1206 15.999C17.1206 16.7108 17.3749 17.3189 17.8823 17.8223C18.3898 18.3255 19.0026 18.5771 19.7202 18.5771C20.2319 18.5771 20.6884 18.4464 21.0933 18.1904L20.7222 17.8232L20.7241 17.8213C20.6691 17.7667 20.626 17.7041 20.5962 17.6328C20.5664 17.5614 20.5523 17.4865 20.5522 17.4092C20.5522 17.3709 20.5555 17.3325 20.563 17.2949C20.5705 17.2574 20.5814 17.2209 20.5962 17.1855C20.611 17.1502 20.6295 17.1168 20.6509 17.085C20.6723 17.0531 20.6968 17.0232 20.7241 16.9961C20.7513 16.9691 20.781 16.945 20.813 16.9238C20.845 16.9026 20.879 16.8847 20.9146 16.8701C20.9501 16.8555 20.9872 16.8444 21.0249 16.8369C21.0628 16.8294 21.1015 16.8252 21.1401 16.8252C21.2181 16.8252 21.2937 16.8405 21.3657 16.8701C21.4375 16.8997 21.5011 16.9416 21.5562 16.9961L21.5581 16.9951L21.9282 17.3623C22.1867 16.9605 22.3188 16.5071 22.3188 15.999C22.3188 15.2875 22.0653 14.68 21.5581 14.1768C21.0507 13.6735 20.4378 13.4219 19.7202 13.4219Z" fill="#C17F73"/>
</svg>
