<svg width="32" height="32" viewBox="0 0 32 32" fill="none" xmlns="http://www.w3.org/2000/svg">
<path d="M12.6592 10.251C12.8133 10.2681 12.9438 10.3259 13.0391 10.4307C13.1331 10.5342 13.1828 10.6739 13.1992 10.8379L13.2002 10.8486V12.6807H14.0977L14.2168 12.6992C14.3299 12.7247 14.4273 12.7714 14.5049 12.8418C14.6097 12.9371 14.6674 13.0675 14.6846 13.2217L14.6855 13.2324L14.6846 13.2432C14.6679 13.4095 14.6122 13.5508 14.5088 13.6543C14.4052 13.7577 14.264 13.8134 14.0977 13.8301L14.0879 13.8311V13.8301H13.2002V15.1592C13.2683 15.1278 13.3398 15.1094 13.4131 15.1094C13.5153 15.1095 13.6132 15.143 13.7051 15.2021L13.7939 15.2705L13.7998 15.2754C14.2178 15.6934 14.5054 15.9955 14.6592 16.1797C14.7741 16.311 14.8441 16.4517 14.8535 16.6006C14.8629 16.7503 14.8106 16.8939 14.71 17.0283L14.6963 17.0469L14.6777 17.0566C14.5331 17.137 14.3928 17.1802 14.2607 17.1709C14.1247 17.1612 14.0096 17.097 13.9189 16.9883V16.9873C13.6429 16.6653 13.4026 16.4082 13.2002 16.2129V21.1621H13.1992C13.1828 21.3261 13.1331 21.4658 13.0391 21.5693C12.9438 21.6741 12.8133 21.7319 12.6592 21.749L12.6484 21.75L12.6387 21.749C12.4724 21.7324 12.3311 21.6765 12.2275 21.5732C12.124 21.4697 12.0675 21.3285 12.0508 21.1621L12.0498 21.1514H12.0508V16.4971C11.8197 17.0701 11.5537 17.5913 11.25 18.0586L11.249 18.0576C11.1616 18.1969 11.0419 18.2856 10.8887 18.2959C10.7424 18.3056 10.5875 18.2422 10.4297 18.1318L10.4229 18.127L10.415 18.1191C10.3029 18.0066 10.251 17.859 10.251 17.6875C10.251 17.5095 10.3213 17.3379 10.4502 17.1758C11.1096 16.287 11.6314 15.1724 12.0156 13.8301H11.0176C10.8512 13.8134 10.71 13.7578 10.6064 13.6543C10.503 13.5508 10.4483 13.4095 10.4316 13.2432L10.4307 13.2324L10.4316 13.2217C10.4488 13.0676 10.5057 12.937 10.6104 12.8418C10.7139 12.7478 10.8536 12.6971 11.0176 12.6807L11.0283 12.6797V12.6807H12.0508V10.8379L12.0703 10.7178C12.0978 10.6031 12.1499 10.5044 12.2275 10.4268C12.3311 10.3235 12.4724 10.2676 12.6387 10.251L12.6484 10.25L12.6592 10.251ZM12.7432 21.6289H12.7441H12.7432ZM12.3789 21.5615C12.3913 21.5692 12.4046 21.5753 12.418 21.582C12.4046 21.5753 12.3913 21.5692 12.3789 21.5615ZM12.3135 21.5127C12.323 21.5214 12.3334 21.5292 12.3438 21.5371C12.3334 21.5292 12.323 21.5215 12.3135 21.5127ZM21.209 14.3604C21.3628 14.3776 21.4928 14.4354 21.5879 14.54C21.682 14.6436 21.7326 14.7832 21.749 14.9473L21.75 14.958L21.749 14.9697C21.7321 15.1209 21.6804 15.2502 21.585 15.3457C21.4895 15.4412 21.3602 15.4928 21.209 15.5098L21.1963 15.5107H18.5996V20.125C18.5849 20.5233 18.471 20.8432 18.2441 21.0703C17.9852 21.3293 17.597 21.4491 17.1025 21.4492C16.5918 21.4492 16.2543 21.4648 16.084 21.4932L16.0762 21.4941H16.0674C15.8856 21.4941 15.7292 21.4478 15.6084 21.3457C15.4878 21.2436 15.4148 21.0959 15.3818 20.915L15.3799 20.9062V20.8965C15.3799 20.7273 15.4269 20.5807 15.5303 20.4678C15.6326 20.3562 15.7802 20.2884 15.959 20.2559L15.9678 20.2539H16.748C16.9885 20.268 17.1418 20.2176 17.2324 20.127C17.323 20.0364 17.3734 19.8838 17.3594 19.6436V15.5107H14.7959V15.5098C14.6447 15.4929 14.5154 15.4411 14.4199 15.3457C14.3245 15.2502 14.2728 15.1209 14.2559 14.9697L14.2549 14.958L14.2559 14.9473C14.2723 14.7831 14.3229 14.6437 14.417 14.54C14.5122 14.4354 14.642 14.3775 14.7959 14.3604L14.8076 14.3594H21.209V14.3604ZM12.2529 21.4434C12.2627 21.4571 12.2731 21.47 12.2842 21.4824C12.2731 21.47 12.2627 21.4571 12.2529 21.4434ZM12.2119 21.3721C12.2195 21.388 12.2274 21.4034 12.2363 21.418C12.2274 21.4034 12.2195 21.3881 12.2119 21.3721ZM15.8486 21.3604C15.8805 21.3702 15.9143 21.3788 15.9502 21.3838C15.9142 21.3788 15.8806 21.3702 15.8486 21.3604ZM15.7666 21.3271C15.785 21.3364 15.8041 21.3443 15.8242 21.3516C15.8041 21.3443 15.785 21.3364 15.7666 21.3271ZM17.4336 21.3252C17.3307 21.3392 17.2204 21.3467 17.1025 21.3467L17.2666 21.3418C17.3243 21.3383 17.3799 21.3325 17.4336 21.3252ZM12.1777 21.2803C12.1835 21.301 12.1898 21.3209 12.1973 21.3398C12.1898 21.3208 12.1835 21.301 12.1777 21.2803ZM17.4727 21.3184C17.509 21.3127 17.5446 21.3073 17.5791 21.2998C17.5446 21.3073 17.509 21.3127 17.4727 21.3184ZM15.6846 21.2754C15.6987 21.2867 15.714 21.296 15.7295 21.3057C15.714 21.296 15.6987 21.2867 15.6846 21.2754ZM17.6221 21.2891C17.6549 21.281 17.6868 21.2725 17.7178 21.2627C17.6868 21.2725 17.6549 21.281 17.6221 21.2891ZM15.6172 21.208C15.6315 21.2253 15.6468 21.241 15.6631 21.2559C15.6468 21.241 15.6315 21.2253 15.6172 21.208ZM17.7549 21.249C17.785 21.2385 17.8145 21.228 17.8428 21.2158C17.8145 21.228 17.785 21.2385 17.7549 21.249ZM17.8818 21.1973C17.9087 21.1845 17.9349 21.1716 17.96 21.1572C17.9349 21.1716 17.9087 21.1845 17.8818 21.1973ZM15.5635 21.1309C15.5746 21.1506 15.5867 21.169 15.5996 21.1865C15.5867 21.169 15.5746 21.1506 15.5635 21.1309ZM17.9922 21.1377C18.0145 21.1238 18.0358 21.109 18.0566 21.0938C18.0358 21.109 18.0145 21.1238 17.9922 21.1377ZM15.5127 21.0166C15.5229 21.0476 15.5354 21.0764 15.5488 21.1035C15.5354 21.0764 15.5229 21.0476 15.5127 21.0166ZM18.1025 21.0576C18.1181 21.0448 18.1328 21.0313 18.1475 21.0176C18.1328 21.0313 18.1181 21.0448 18.1025 21.0576ZM18.1855 20.9805C18.2056 20.9594 18.225 20.9379 18.2432 20.915C18.225 20.9379 18.2056 20.9594 18.1855 20.9805ZM18.2588 20.8945C18.2763 20.8712 18.292 20.8465 18.3076 20.8213C18.292 20.8465 18.2763 20.8712 18.2588 20.8945ZM18.3281 20.7881C18.3453 20.7579 18.3614 20.7269 18.376 20.6943C18.3615 20.7269 18.3452 20.7579 18.3281 20.7881ZM18.3818 20.6816C18.3949 20.6514 18.4062 20.6201 18.417 20.5879C18.4062 20.6201 18.3948 20.6515 18.3818 20.6816ZM18.4629 20.4189C18.4708 20.3798 18.4772 20.3395 18.4824 20.2979C18.4772 20.3395 18.4708 20.3798 18.4629 20.4189ZM16.1016 16.167L16.2227 16.1846L16.2334 16.1865L16.2441 16.1914C16.3933 16.2578 16.507 16.3527 16.5576 16.4844C16.6082 16.616 16.5877 16.7619 16.5215 16.9111C16.2495 17.5755 15.7533 18.6133 15.0342 20.0215L15.0332 20.0205C14.9628 20.161 14.8583 20.2614 14.7168 20.3086C14.5783 20.3547 14.4165 20.346 14.2402 20.2979L14.2246 20.2939L14.21 20.2852C14.0614 20.186 13.9564 20.0631 13.9102 19.915C13.864 19.767 13.8813 19.6067 13.9473 19.4414L13.9512 19.4297L14.043 19.4795L13.9521 19.4297C14.6414 18.171 15.1355 17.2001 15.4336 16.5146L15.4365 16.5068L15.4404 16.5C15.5249 16.365 15.6348 16.2673 15.7705 16.2129C15.8719 16.1724 15.9832 16.1576 16.1016 16.167ZM19.4648 16.1396C19.6159 16.1061 19.7584 16.1131 19.8867 16.168C20.015 16.223 20.1207 16.3218 20.2041 16.4551L20.207 16.46C20.3587 16.733 20.5998 17.2165 20.9297 17.9062C21.0945 18.2509 21.2338 18.5475 21.3467 18.7959L21.6074 19.3965L21.6084 19.3994C21.6735 19.5787 21.6871 19.7484 21.6309 19.8984C21.5742 20.0492 21.4536 20.1633 21.2881 20.2461L21.2793 20.25C21.1135 20.3162 20.9536 20.33 20.8096 20.2725C20.6664 20.215 20.5564 20.0941 20.4746 19.9307L20.4727 19.9248C19.903 18.6055 19.4531 17.6021 19.124 16.9141L19.1191 16.9023V16.9014C19.0686 16.749 19.066 16.6018 19.123 16.4688C19.1797 16.3371 19.2892 16.2324 19.4365 16.1504L19.4502 16.1436L19.4648 16.1396ZM21.2422 20.1543C21.1696 20.1834 21.1009 20.1997 21.0371 20.2041C21.0678 20.202 21.1001 20.1973 21.1328 20.1895L21.2412 20.1553C21.2765 20.1376 21.3084 20.1168 21.3379 20.0967C21.3086 20.1167 21.2773 20.1368 21.2422 20.1543ZM20.9463 20.2012C20.9664 20.2038 20.9867 20.2043 21.0078 20.2041C20.9868 20.2043 20.9664 20.2038 20.9463 20.2012ZM20.8604 20.1797C20.8778 20.1861 20.8957 20.1904 20.9141 20.1943C20.8957 20.1905 20.8778 20.1861 20.8604 20.1797ZM14.1787 20.1309C14.2019 20.1511 14.2274 20.1705 14.2549 20.1895C14.2274 20.1705 14.2019 20.1511 14.1787 20.1309ZM20.7881 20.1445C20.8014 20.1527 20.8151 20.1595 20.8291 20.166C20.8151 20.1595 20.8015 20.1527 20.7881 20.1445ZM20.7148 20.0889C20.7269 20.1002 20.7393 20.1105 20.752 20.1201C20.7393 20.1105 20.7269 20.1002 20.7148 20.0889ZM14.1084 20.0596C14.1235 20.0774 14.1403 20.0944 14.1582 20.1113C14.1403 20.0944 14.1235 20.0774 14.1084 20.0596ZM21.3721 20.0703C21.3867 20.0589 21.4012 20.0483 21.4141 20.0361C21.4011 20.0483 21.3867 20.0589 21.3721 20.0703ZM20.6494 20.0156C20.6608 20.0306 20.6716 20.0454 20.6836 20.0586C20.6716 20.0454 20.6608 20.0306 20.6494 20.0156ZM14.0547 19.9844C14.065 20.0019 14.0771 20.0184 14.0898 20.0352C14.0771 20.0184 14.065 20.0019 14.0547 19.9844ZM21.4443 20.0029C21.4578 19.9879 21.4703 19.973 21.4814 19.957C21.4703 19.973 21.4578 19.9879 21.4443 20.0029ZM14.0176 19.9072C14.0226 19.9209 14.0288 19.934 14.0352 19.9473C14.0288 19.934 14.0226 19.9209 14.0176 19.9072ZM21.5 19.9287C21.5091 19.9132 21.5164 19.8972 21.5234 19.8809C21.5163 19.8972 21.5091 19.9132 21.5 19.9287ZM13.9951 19.8154C13.9976 19.8313 13.9999 19.8469 14.0039 19.8623C13.9999 19.8469 13.9976 19.8313 13.9951 19.8154ZM21.5391 19.8428C21.5434 19.8294 21.5458 19.8157 21.5488 19.8018C21.5458 19.8157 21.5434 19.8294 21.5391 19.8428ZM13.9893 19.7139C13.9882 19.7365 13.9875 19.7585 13.9893 19.7803C13.9875 19.7585 13.9882 19.7365 13.9893 19.7139ZM21.5586 19.75C21.561 19.7275 21.5622 19.7045 21.5615 19.6807C21.5621 19.7045 21.561 19.7275 21.5586 19.75ZM13.9902 19.6807C13.99 19.6833 13.9895 19.6859 13.9893 19.6885C13.9922 19.6561 13.9983 19.6229 14.0068 19.5889L13.9902 19.6807ZM21.5605 19.6572C21.5586 19.6285 21.5549 19.5989 21.5488 19.5684C21.555 19.5989 21.5586 19.6285 21.5605 19.6572ZM11.0361 18.1396H11.0371H11.0361ZM10.4375 17.9854C10.448 18.0006 10.4602 18.0144 10.4727 18.0283C10.4602 18.0144 10.448 18.0006 10.4375 17.9854ZM10.3955 17.9082C10.4021 17.9235 10.4099 17.9379 10.418 17.9521C10.4099 17.9379 10.402 17.9235 10.3955 17.9082ZM10.3789 17.8662C10.3801 17.8699 10.3816 17.8734 10.3828 17.877C10.3738 17.8506 10.3662 17.8231 10.3613 17.7939L10.3789 17.8662ZM14.2812 17.0674C14.2963 17.0679 14.3115 17.0675 14.3271 17.0664C14.3115 17.0675 14.2963 17.068 14.2812 17.0674ZM14.2129 17.0586C14.2245 17.0612 14.2361 17.063 14.248 17.0645C14.2361 17.063 14.2245 17.0612 14.2129 17.0586ZM14.3594 17.0635C14.3732 17.0616 14.3871 17.0588 14.4014 17.0557C14.3871 17.0588 14.3732 17.0616 14.3594 17.0635ZM14.1426 17.0352C14.1526 17.0398 14.1625 17.0442 14.1729 17.0479C14.1625 17.0442 14.1526 17.0398 14.1426 17.0352ZM14.0762 16.9951C14.088 17.004 14.0998 17.0123 14.1123 17.0195C14.0998 17.0123 14.088 17.004 14.0762 16.9951ZM13.998 16.9229C14.0153 16.9435 14.0339 16.9613 14.0527 16.9775C14.0339 16.9613 14.0153 16.9435 13.998 16.9229ZM14.6611 16.917C14.6683 16.9058 14.6754 16.895 14.6816 16.8838C14.6754 16.895 14.6683 16.9058 14.6611 16.917ZM14.6982 16.8496C14.7065 16.8326 14.7144 16.8159 14.7207 16.7988C14.7144 16.8159 14.7065 16.8325 14.6982 16.8496ZM16.4531 16.7998C16.4552 16.7936 16.4571 16.7874 16.459 16.7812C16.4571 16.7874 16.4552 16.7936 16.4531 16.7998ZM14.7334 16.7539C14.7372 16.7398 14.7417 16.7261 14.7441 16.7119C14.7417 16.7261 14.7372 16.7397 14.7334 16.7539ZM19.1836 16.6855C19.1839 16.7041 19.1861 16.7229 19.1885 16.7422C19.1861 16.7229 19.1839 16.7041 19.1836 16.6855ZM16.4688 16.7412C16.4726 16.7241 16.4766 16.7078 16.4785 16.6914C16.4766 16.7078 16.4726 16.7241 16.4688 16.7412ZM14.748 16.6758C14.7497 16.6578 14.7505 16.6401 14.75 16.6221C14.7505 16.6401 14.7497 16.6578 14.748 16.6758ZM16.4805 16.6523C16.4808 16.6394 16.4814 16.6267 16.4805 16.6143C16.4814 16.6268 16.4808 16.6393 16.4805 16.6523ZM19.1895 16.6074C19.1871 16.6221 19.1864 16.6371 19.1855 16.6523C19.1864 16.6371 19.1871 16.6221 19.1895 16.6074ZM14.749 16.5957C14.7471 16.5744 14.7432 16.5535 14.7383 16.5322C14.7432 16.5535 14.7471 16.5744 14.749 16.5957ZM16.4746 16.5742C16.4722 16.5621 16.4685 16.5507 16.4648 16.5391C16.4686 16.5507 16.4722 16.5621 16.4746 16.5742ZM19.2109 16.5264C19.2054 16.541 19.2011 16.556 19.1973 16.5713C19.2011 16.5561 19.2054 16.541 19.2109 16.5264ZM14.7334 16.5107C14.728 16.4917 14.7207 16.4731 14.7129 16.4541C14.7207 16.4731 14.728 16.4917 14.7334 16.5107ZM16.4531 16.5068C16.4477 16.4947 16.4415 16.4832 16.4346 16.4717C16.4415 16.4832 16.4477 16.4947 16.4531 16.5068ZM19.2461 16.4551C19.2381 16.4682 19.2311 16.4815 19.2246 16.4951C19.2311 16.4815 19.2381 16.4681 19.2461 16.4551ZM16.417 16.4434C16.4064 16.4293 16.394 16.4164 16.3809 16.4033C16.394 16.4164 16.4064 16.4293 16.417 16.4434ZM19.3086 16.375C19.2939 16.3905 19.2796 16.4055 19.2676 16.4219C19.2797 16.4055 19.2939 16.3905 19.3086 16.375ZM16.3633 16.3848C16.3488 16.372 16.3325 16.3604 16.3154 16.3486C16.3325 16.3604 16.3488 16.3719 16.3633 16.3848ZM13.2891 16.1553C13.3565 16.2208 13.428 16.2925 13.5029 16.3711C13.4279 16.2923 13.3566 16.22 13.2891 16.1543L13.0977 15.9775L13.2891 16.1553ZM19.335 16.3467C19.3768 16.308 19.4281 16.2731 19.4873 16.2402V16.2393L19.3936 16.2988C19.3725 16.3143 19.3529 16.3301 19.335 16.3467ZM15.9912 16.2676V16.2686V16.2676ZM13.7275 15.3477H13.7285H13.7275ZM14.5615 15.3271C14.5768 15.3369 14.5934 15.3445 14.6104 15.3525C14.5934 15.3445 14.5768 15.3369 14.5615 15.3271ZM14.5049 15.2822C14.5146 15.2912 14.5246 15.2996 14.5352 15.3076C14.5246 15.2996 14.5146 15.2912 14.5049 15.2822ZM14.4531 15.2236C14.4617 15.2354 14.4708 15.2462 14.4805 15.2568C14.4708 15.2462 14.4617 15.2354 14.4531 15.2236ZM13.4131 15.2119V15.2129V15.2119ZM14.4131 15.1572C14.4201 15.1718 14.4272 15.1859 14.4355 15.1992C14.4273 15.1859 14.4201 15.1718 14.4131 15.1572ZM14.3828 15.0781C14.3876 15.0942 14.3915 15.1101 14.3975 15.125C14.3915 15.1101 14.3876 15.0942 14.3828 15.0781ZM14.2842 13.6797C14.2267 13.7034 14.1617 13.7201 14.0879 13.7275H13.0977V13.7285H14.0879L14.1943 13.71C14.2264 13.7023 14.256 13.6913 14.2842 13.6797ZM10.8301 13.6797C10.8587 13.6916 10.8892 13.7021 10.9219 13.71L11.0283 13.7285H12.1533V13.7275H11.0283C10.9539 13.7201 10.8879 13.7038 10.8301 13.6797ZM14.2979 13.6729C14.3196 13.6631 14.3401 13.6528 14.3594 13.6406C14.3401 13.6528 14.3196 13.6631 14.2979 13.6729ZM10.7559 13.6406C10.7743 13.6523 10.7938 13.6625 10.8145 13.6719C10.7938 13.6625 10.7743 13.6523 10.7559 13.6406ZM10.6914 13.5908C10.7043 13.6028 10.718 13.6136 10.7324 13.624C10.718 13.6136 10.7043 13.6028 10.6914 13.5908ZM14.3877 13.6201C14.3991 13.6116 14.4104 13.6033 14.4209 13.5938C14.4104 13.6033 14.3991 13.6116 14.3877 13.6201ZM10.6387 13.5312C10.6468 13.5424 10.655 13.5533 10.6641 13.5635C10.6549 13.5533 10.6469 13.5424 10.6387 13.5312ZM14.4521 13.5615C14.4608 13.5518 14.4688 13.5418 14.4766 13.5312C14.4688 13.5418 14.4608 13.5518 14.4521 13.5615ZM10.5928 13.4541C10.5998 13.469 10.607 13.4834 10.6152 13.4971C10.607 13.4834 10.5998 13.469 10.5928 13.4541ZM14.5 13.4971C14.5074 13.4848 14.5141 13.4722 14.5205 13.459C14.5141 13.4722 14.5074 13.4848 14.5 13.4971ZM10.5586 13.3623C10.5642 13.3826 10.5698 13.4023 10.5771 13.4209C10.5698 13.4023 10.5643 13.3826 10.5586 13.3623ZM14.54 13.4141C14.5427 13.407 14.5454 13.3999 14.5479 13.3926C14.5454 13.3999 14.5427 13.407 14.54 13.4141ZM11.0283 12.7822V12.7832V12.7822ZM13.0977 12.7832H14.0879C14.1255 12.787 14.161 12.7923 14.1943 12.7998C14.161 12.7923 14.1255 12.786 14.0879 12.7822H13.0977V12.7832ZM15.2578 11.2402H20.667L20.7852 11.2598C20.8985 11.2853 20.9965 11.3318 21.0742 11.4023C21.1789 11.4976 21.2368 11.6282 21.2539 11.7822L21.2549 11.792L21.2539 11.8027C21.2373 11.9692 21.1816 12.1103 21.0781 12.2139C20.9745 12.3175 20.8336 12.374 20.667 12.3906L20.6572 12.3916V12.3906H15.2461V12.3896C15.0922 12.3725 14.9624 12.3155 14.8672 12.2109C14.773 12.1073 14.7225 11.967 14.7061 11.8027L14.7051 11.792L14.7061 11.7822C14.7229 11.6309 14.7747 11.5018 14.8701 11.4062C14.9657 11.3107 15.0947 11.2581 15.2461 11.2412L15.2578 11.2393V11.2402ZM20.8477 12.2422C20.8212 12.2528 20.7936 12.2633 20.7637 12.2705C20.7936 12.2633 20.8212 12.2528 20.8477 12.2422ZM20.8809 12.2266C20.8975 12.2185 20.9136 12.2107 20.9287 12.2012C20.9136 12.2107 20.8975 12.2185 20.8809 12.2266ZM15.0117 12.2012C15.0237 12.2096 15.0367 12.2164 15.0498 12.2236C15.0367 12.2164 15.0237 12.2096 15.0117 12.2012ZM14.9541 12.1514C14.9653 12.1628 14.9768 12.1736 14.9893 12.1836C14.9768 12.1735 14.9653 12.1628 14.9541 12.1514ZM20.9541 12.1826C20.9679 12.1725 20.9808 12.1619 20.9932 12.1504C20.9808 12.1619 20.9679 12.1725 20.9541 12.1826ZM21.0166 12.127C21.028 12.1145 21.0388 12.1018 21.0488 12.0879C21.0388 12.1017 21.028 12.1145 21.0166 12.127ZM14.9033 12.0889C14.9117 12.1015 14.9203 12.1136 14.9297 12.125C14.9203 12.1136 14.9117 12.1015 14.9033 12.0889ZM14.8643 12.0176C14.8704 12.0314 14.8767 12.0448 14.8838 12.0576C14.8767 12.0448 14.8704 12.0314 14.8643 12.0176ZM21.0703 12.0557C21.076 12.0462 21.0809 12.0364 21.0859 12.0264C21.0808 12.0364 21.076 12.0462 21.0703 12.0557ZM14.8359 11.9404C14.8397 11.9534 14.8433 11.9662 14.8477 11.9785C14.8433 11.9662 14.8397 11.9534 14.8359 11.9404ZM21.1094 11.9756C21.1159 11.9584 21.1218 11.9405 21.127 11.9219C21.1218 11.9405 21.116 11.9583 21.1094 11.9756ZM21.1348 11.8926C21.142 11.8612 21.1479 11.8281 21.1514 11.793C21.1479 11.8281 21.142 11.8612 21.1348 11.8926ZM21.0059 11.4785V11.4775V11.4785ZM15.2578 11.3428C15.1987 11.3494 15.1453 11.3618 15.0977 11.3799C15.118 11.3722 15.1396 11.366 15.1621 11.3604L15.2578 11.3428ZM12.7432 10.3711H12.7441L12.6484 10.3535L12.7432 10.3711ZM15.4824 20.8965C15.4897 20.9366 15.4995 20.9745 15.5107 21.0098C15.4995 20.9745 15.4897 20.9366 15.4824 20.8965ZM18.4287 20.5518C18.4394 20.5164 18.4488 20.4801 18.457 20.4424C18.4488 20.4801 18.4394 20.5164 18.4287 20.5518Z" fill="#0F0F24" fill-opacity="0.5"/>
</svg>
