<!-- @no-use-convertColors -->
<svg xmlns="http://www.w3.org/2000/svg" xmlns:xlink="http://www.w3.org/1999/xlink" fill="none" version="1.1" width="64.003173828125" height="14" viewBox="0 0 64.003173828125 14"><defs><linearGradient x1="0.5128160119056702" y1="0.19968926906585693" x2="0.007800706196576357" y2="0.8037259578704834" id="master_svg0_78_09985"><stop offset="0%" stop-color="#474035" stop-opacity="1"/><stop offset="100%" stop-color="#343131" stop-opacity="1"/></linearGradient><linearGradient x1="-3.403919990319082e-8" y1="0.8500000238418579" x2="1.0405446290969849" y2="0.3999999761581421" id="master_svg1_78_08842"><stop offset="0%" stop-color="#E3B36B" stop-opacity="1"/><stop offset="100%" stop-color="#FCE4AD" stop-opacity="1"/></linearGradient></defs><g style="mix-blend-mode:passthrough"><g style="mix-blend-mode:passthrough"><path d="M58.4308,14C58.4308,14,5.25981,14,5.25981,14C2.37207,14,0,11.6148,0,8.71111C0,8.60741,0,8.5037,0,8.4C0,7.88148,0.206267,7.36296,0.618801,6.94815C0.412534,6.42963,0.206267,5.91111,0.206267,5.39259C-1.93715e-7,4.04444,0.412534,2.59259,1.34073,1.65926C2.37207,0.518518,3.81594,0,5.36294,0C7.73501,0.103704,8.97261,1.55556,9.48828,2.59259C9.48828,2.59259,58.3277,2.59259,58.3277,2.59259C61.4217,2.59259,64,5.18518,64,8.2963C64.1031,11.4074,61.6279,14,58.4308,14Z" fill="url(#master_svg0_78_09985)" fill-opacity="1"/></g><g style="mix-blend-mode:passthrough"><g style="mix-blend-mode:passthrough"><path d="M3.660882,3.7713469997283133C4.16266,3.2297899997283133,4.88168,2.9666610997283134,5.63741,3.0033767797283133C7.12746,3.076808199728313,7.65983,4.230289999728313,7.81587,4.768789999728313L6.4421,4.768789999728313C6.35643,4.609689999728314,6.16979,4.386329999728313,5.81487,4.297599999728313C5.65271,4.2578299997283136,5.48749,4.248649999728313,5.33145,4.2578299997283136C5.01324,4.2792499997283135,4.744,4.4138699997283135,4.55736,4.637229999728313C4.40132,4.826919999728314,4.33706,5.111469999728314,4.3952,5.396019999728313C4.42273,5.521459999728313,4.49005,5.662209999728313,4.60325,5.775409999728313C4.71952,5.894739999728314,4.83578,5.952869999728313,5.034660000000001,6.026299999728313C5.14787,6.069139999728313,5.28861,6.1058499997283135,5.45077,6.145629999728314C5.606809999999999,6.185399999728313,5.82405,6.231299999728313,6.00457,6.2833099997283135C6.506349999999999,6.427109999728313,6.6165,6.488309999728314,6.6165,6.488309999728314L8.152429999999999,8.798339999728313L8.16162,8.798339999728313C8.164670000000001,8.838099999728314,8.164670000000001,8.877859999728313,8.164670000000001,8.917629999728312L8.164670000000001,8.917659999728313C8.164670000000001,10.343459999728314,7.00813,11.499999999728313,5.58234,11.499999999728313C4.15654,11.499999999728313,3,10.343459999728314,3,8.917659999728313C3,8.877889999728314,3,8.838109999728314,3.00305889,8.798339999728313L4.26975,8.798339999728313C4.2666900000000005,8.838109999728314,4.26363,8.877889999728314,4.26363,8.917659999728313C4.26363,9.648919999728314,4.8572,10.239429999728312,5.5854,10.239429999728312C6.31665,10.239429999728312,6.90716,9.645859999728312,6.90716,8.917659999728313C6.90716,8.877889999728314,6.9041,8.838109999728314,6.90104,8.798339999728313C6.85821,8.431179999728315,6.59814,8.070139999728314,6.362550000000001,7.883499999728313C5.946429999999999,7.556119999728313,5.5456199999999995,7.470449999728313,5.38652,7.427619999728313C5.267189999999999,7.393959999728313,5.09279,7.348069999728313,5.0469,7.335829999728313C4.76847,7.262399999728314,4.38908,7.1614299997283135,4.0005,6.904419999728313C3.642524,6.668829999728313,3.201936,6.1486899997283135,3.128504,5.457209999728313C3.0611923,4.829979999728313,3.25089,4.211939999728314,3.660882,3.7713469997283133ZM8.174009999999999,5.475099999728313L10.832840000000001,9.428149999728312L10.805299999999999,5.475099999728313L11.93737,5.475099999728313L11.93737,11.484229999728313L10.817540000000001,11.484229999728313L6.82471,5.475099999728313L8.174009999999999,5.475099999728313ZM13.9044,5.475099999728313L12.81519,5.475099999728313L12.81519,11.487289999728313L13.9044,11.487289999728313L13.9044,5.475099999728313ZM16.8604,5.481219999728314C16.9185,5.478159999728313,16.9675,5.475099999728313,17.0164,5.475099999728313C18.2464,5.475099999728313,19.2469,6.475599999728313,19.2438,7.708639999728313C19.2438,8.938609999728314,18.243299999999998,9.939109999728313,17.0134,9.939109999728313C16.6187,9.939109999728313,16.2331,9.835089999728314,15.8935,9.636209999728313L15.9119,11.487289999728313L14.7676,11.487289999728313L14.7676,5.475099999728313L15.8599,5.475099999728313L15.8599,5.481219999728314L16.8604,5.481219999728314ZM15.9547,7.705579999728314C15.9547,8.289969999728314,16.432000000000002,8.767269999728313,17.0164,8.767269999728313C17.6008,8.767269999728313,18.0781,8.289969999728314,18.0781,7.705579999728314C18.0781,7.121179999728313,17.6008,6.643879999728313,17.0164,6.643879999728313C16.432000000000002,6.643879999728313,15.9547,7.121179999728313,15.9547,7.705579999728314Z" fill-rule="evenodd" fill="url(#master_svg1_78_08842)" fill-opacity="1"/></g></g></g></svg>
