<!-- @no-use-convertColors -->
<svg xmlns="http://www.w3.org/2000/svg" xmlns:xlink="http://www.w3.org/1999/xlink" fill="none" version="1.1" width="39.072265625" height="14" viewBox="0 0 39.072265625 14"><defs><linearGradient x1="0.8400274515151978" y1="0.19968916475772858" x2="0.012778081931173801" y2="0.8037258982658386" id="master_svg0_78_08851"><stop offset="0%" stop-color="#474035" stop-opacity="1"/><stop offset="100%" stop-color="#343131" stop-opacity="1"/></linearGradient><linearGradient x1="-3.403919990319082e-8" y1="0.8500000238418579" x2="1.0405446290969849" y2="0.3999999761581421" id="master_svg1_78_08842"><stop offset="0%" stop-color="#E3B36B" stop-opacity="1"/><stop offset="100%" stop-color="#FCE4AD" stop-opacity="1"/></linearGradient></defs><g style="mix-blend-mode:passthrough"><g style="mix-blend-mode:passthrough"><g style="mix-blend-mode:passthrough"><path d="M33.5,14C33.5,14,5.25981,14,5.25981,14C2.37207,14,0,11.6148,0,8.71111C0,8.60741,0,8.5037,0,8.4C0,7.88148,0.206267,7.36296,0.618801,6.94815C0.412534,6.42963,0.206267,5.91111,0.206267,5.39259C-1.93715e-7,4.04444,0.412534,2.59259,1.34073,1.65926C2.37207,0.518518,3.81594,0,5.36294,0C7.73501,0.103704,8.97261,1.55556,9.48828,2.59259C9.48828,2.59259,33.3969,2.59259,33.3969,2.59259C36.4909,2.59259,39.0692,5.18518,39.0692,8.2963C39.1723,11.4074,36.6971,14,33.5,14Z" fill="url(#master_svg0_78_08851)" fill-opacity="1"/></g><g style="mix-blend-mode:passthrough"><g style="mix-blend-mode:passthrough"><path d="M3.660882,3.7713469997283133C4.16266,3.2297899997283133,4.88168,2.9666610997283134,5.63741,3.0033767797283133C7.12746,3.076808199728313,7.65983,4.230289999728313,7.81587,4.768789999728313L6.4421,4.768789999728313C6.35643,4.609689999728314,6.16979,4.386329999728313,5.81487,4.297599999728313C5.65271,4.2578299997283136,5.48749,4.248649999728313,5.33145,4.2578299997283136C5.01324,4.2792499997283135,4.744,4.4138699997283135,4.55736,4.637229999728313C4.40132,4.826919999728314,4.33706,5.111469999728314,4.3952,5.396019999728313C4.42273,5.521459999728313,4.49005,5.662209999728313,4.60325,5.775409999728313C4.71952,5.894739999728314,4.83578,5.952869999728313,5.034660000000001,6.026299999728313C5.14787,6.069139999728313,5.28861,6.1058499997283135,5.45077,6.145629999728314C5.606809999999999,6.185399999728313,5.82405,6.231299999728313,6.00457,6.2833099997283135C6.506349999999999,6.427109999728313,6.6165,6.488309999728314,6.6165,6.488309999728314L8.152429999999999,8.798339999728313L8.16162,8.798339999728313C8.164670000000001,8.838099999728314,8.164670000000001,8.877859999728313,8.164670000000001,8.917629999728312L8.164670000000001,8.917659999728313C8.164670000000001,10.343459999728314,7.00813,11.499999999728313,5.58234,11.499999999728313C4.15654,11.499999999728313,3,10.343459999728314,3,8.917659999728313C3,8.877889999728314,3,8.838109999728314,3.00305889,8.798339999728313L4.26975,8.798339999728313C4.2666900000000005,8.838109999728314,4.26363,8.877889999728314,4.26363,8.917659999728313C4.26363,9.648919999728314,4.8572,10.239429999728312,5.5854,10.239429999728312C6.31665,10.239429999728312,6.90716,9.645859999728312,6.90716,8.917659999728313C6.90716,8.877889999728314,6.9041,8.838109999728314,6.90104,8.798339999728313C6.85821,8.431179999728315,6.59814,8.070139999728314,6.362550000000001,7.883499999728313C5.946429999999999,7.556119999728313,5.5456199999999995,7.470449999728313,5.38652,7.427619999728313C5.267189999999999,7.393959999728313,5.09279,7.348069999728313,5.0469,7.335829999728313C4.76847,7.262399999728314,4.38908,7.1614299997283135,4.0005,6.904419999728313C3.642524,6.668829999728313,3.201936,6.1486899997283135,3.128504,5.457209999728313C3.0611923,4.829979999728313,3.25089,4.211939999728314,3.660882,3.7713469997283133ZM8.17389,5.475099999728313L10.83272,9.428149999728312L10.80518,5.475099999728313L11.93724,5.475099999728313L11.93724,11.484229999728313L10.81742,11.484229999728313L6.82458,5.475099999728313L8.17389,5.475099999728313ZM13.9044,5.475099999728313L12.81519,5.475099999728313L12.81519,11.487289999728313L13.9044,11.487289999728313L13.9044,5.475099999728313ZM16.8601,5.481219999728314C16.918300000000002,5.478159999728313,16.9672,5.475099999728313,17.016199999999998,5.475099999728313C18.2461,5.475099999728313,19.2466,6.475599999728313,19.2436,7.708639999728313C19.2436,8.938609999728314,18.2431,9.939109999728313,17.0131,9.939109999728313C16.6184,9.939109999728313,16.2329,9.835089999728314,15.8933,9.636209999728313L15.9116,11.487289999728313L14.7673,11.487289999728313L14.7673,5.475099999728313L15.8596,5.475099999728313L15.8596,5.481219999728314L16.8601,5.481219999728314ZM15.9545,7.705579999728314C15.9545,8.289969999728314,16.431800000000003,8.767269999728313,17.016199999999998,8.767269999728313C17.6006,8.767269999728313,18.0779,8.289969999728314,18.0779,7.705579999728314C18.0779,7.121179999728313,17.6006,6.643879999728313,17.016199999999998,6.643879999728313C16.431800000000003,6.643879999728313,15.9545,7.121179999728313,15.9545,7.705579999728314Z" fill-rule="evenodd" fill="url(#master_svg1_78_08842)" fill-opacity="1"/></g></g></g><g style="mix-blend-mode:passthrough"><path d="M21.587891,5.08087L21.587891,11.22866L22.0778,11.22866L22.0778,5.5639400000000006L23.23307,5.5639400000000006C23.05078,6.145,22.79102,6.80353,22.46289,7.53269C22.9528,8.12059,23.19661,8.65835,23.19661,9.13458C23.19661,9.282689999999999,23.14876,9.387509999999999,23.06445,9.44904C22.97331,9.506,22.79785,9.54018,22.53809,9.55613C22.46973,9.55613,22.37858,9.54018,22.26693,9.52651L22.43327,10.03921C22.93913,10.03009,23.28776,9.94806,23.483719999999998,9.78628C23.625,9.65411,23.7002,9.43536,23.7002,9.13458C23.67285,8.631,23.42904,8.07046,22.98014,7.45522C23.27409,6.76935,23.52702,6.11766,23.73665,5.48875L23.73665,5.08087L21.587891,5.08087ZM24.56152,6.83087L26.62825,6.83087L26.62825,7.62384L24.56152,7.62384L24.56152,6.83087ZM26.62825,6.37059L24.56152,6.37059L24.56152,5.5639400000000006L26.62825,5.5639400000000006L26.62825,6.37059ZM25.36816,8.08413C25.60514,9.39435,26.31152,10.42202,27.47363,11.16486L27.75391,10.72508C27.22298,10.40835,26.80143,10.03009,26.48014,9.590309999999999C26.87891,9.387509999999999,27.23665,9.09357,27.557940000000002,8.715309999999999L27.22982,8.38491C26.91536,8.76316,26.58496,9.04344,26.25,9.23256C26.0472,8.88393,25.905920000000002,8.498840000000001,25.82161,8.08413L27.11816,8.08413L27.11816,5.0877099999999995L24.06478,5.0877099999999995L24.06478,10.50633C24.06478,10.57697,24.010089999999998,10.63393,23.91211,10.66811L24.0306,11.10105C24.79395,10.89825,25.42285,10.68862,25.92643,10.47215L25.81478,10.00275C25.40234,10.19187,24.98307,10.35366,24.56152,10.47898L24.56152,8.08413L25.36816,8.08413ZM29.22363,6.86733L29.22363,8.84064L30.93262,8.84064C30.889319999999998,8.93862,30.848309999999998,9.04344,30.798180000000002,9.14142C30.40625,9.81362,29.59505,10.381,28.37598,10.8299L28.69954,11.22866C30.05762,10.70229,30.93262,10.03921,31.3109,9.22573C31.3656,9.1004,31.4225,8.97508,31.470399999999998,8.84064L31.835,8.84064L31.835,10.37417C31.835,10.86407,32.0514,11.11017,32.4867,11.11017L33.8584,11.11017C34.1045,11.11017,34.277699999999996,11.04637,34.3893,10.92104C34.5169,10.77293,34.6012,10.36049,34.649100000000004,9.68829L34.166,9.53335C34.1455,10.05971,34.1045,10.37417,34.0339,10.48582C33.9769,10.57013,33.8926,10.62026,33.7673,10.62026L32.6393,10.62026C32.4365,10.62026,32.338499999999996,10.49949,32.338499999999996,10.26935L32.338499999999996,8.84064L33.935900000000004,8.84064L33.935900000000004,6.71922L32.2201,6.71922C32.5072,6.46857,32.7943,6.15867,33.0882,5.79637L33.0882,5.41128L30.67285,5.41128C30.798180000000002,5.24266,30.918950000000002,5.0672,31.0306,4.88491L30.52702,4.76642C29.95964,5.63458,29.237299999999998,6.32729,28.35547,6.86049L28.67904,7.24559C28.85905,7.12482,29.041339999999998,6.99949,29.22363,6.86733ZM31.575200000000002,6.71922L29.41276,6.71922C29.73405,6.46173,30.027990000000003,6.18146,30.30143,5.8738399999999995L32.4297,5.8738399999999995C32.1494,6.19513,31.8691,6.4754,31.575200000000002,6.71922ZM33.452799999999996,8.3644L31.6117,8.3644C31.695999999999998,8.00893,31.737000000000002,7.617,31.750700000000002,7.18862L33.452799999999996,7.18862L33.452799999999996,8.3644ZM31.0853,8.3644L29.713540000000002,8.3644L29.713540000000002,7.18862L31.2471,7.18862C31.2334,7.617,31.1764,8.00893,31.0853,8.3644Z" fill="#F4D497" fill-opacity="1"/></g></g></svg>
