<svg xmlns="http://www.w3.org/2000/svg" xmlns:xlink="http://www.w3.org/1999/xlink" fill="none" version="1.1" width="77" height="22" viewBox="0 0 77 22"><defs><clipPath id="master_svg0_418_617"><rect x="0" y="0" width="77" height="22" rx="0"/></clipPath><linearGradient x1="0" y1="1" x2="0.9764296412467957" y2="0.15384618937969208" id="master_svg1_277_938"><stop offset="0%" stop-color="#E9C1B7" stop-opacity="1"/><stop offset="32.416749000549316%" stop-color="#E9C1B7" stop-opacity="1"/><stop offset="60.82406044006348%" stop-color="#FFD2C9" stop-opacity="1"/></linearGradient></defs><g clip-path="url(#master_svg0_418_617)"><g><path d="M29.945877374267578,2.29077C29.88887737426758,1.99276,29.58597737426758,0.411746,29.508477374267578,0L26.84807737426758,0.179713C26.93467737426758,0.568711,27.22617737426758,1.97456,27.283077374267577,2.27029L27.296777374267577,2.33854L24.06007737426758,2.33854L24.06007737426758,5.49602L33.262277374267576,5.49602L33.262277374267576,2.33854L29.957277374267576,2.33854L29.948077374267577,2.29304L29.945877374267578,2.29077ZM44.434777374267576,13.9993L48.27047737426758,0.386689L48.31837737426758,0.2229L52.57097737426758,0.2229L46.195477374267575,21.5746L42.78567737426758,21.5746L35.60157737426758,0.2229L39.90427737426758,0.2229L44.434777374267576,13.9993ZM58.43847737426758,0.2229L54.44557737426758,0.2229L54.44557737426758,21.5723L58.43847737426758,21.5723L58.43847737426758,0.2229ZM73.64487737426758,1.03957C74.67667737426758,1.58326,75.49437737426757,2.3658,76.09567737426758,3.38493L76.09567737426758,3.38266C76.69937737426758,4.40179,76.99997737426757,5.60745,76.99997737426757,6.99966C76.99997737426757,8.39186,76.69707737426758,9.59753,76.09567737426758,10.6167C75.49437737426757,11.6358,74.67667737426758,12.4229,73.64487737426758,12.9779C72.61297737426757,13.533,71.70647737426758,13.8105,70.42637737426757,13.8105L66.21927737426758,13.8105L66.21927737426758,21.5882L62.21727737426758,21.5882L62.21727737426758,0.2229L70.17577737426758,0.2229C71.45587737426757,0.2229,72.61297737426757,0.495881,73.64487737426758,1.03957ZM9.887797374267578,16.8565C11.110977374267579,16.8565,12.340977374267577,17.109,13.539077374267578,17.6095L14.996877374267578,17.6095L14.996877374267578,14.8091L9.026807374267579,14.8091L9.026807374267579,13.8219L14.996877374267578,13.8219L14.996877374267578,11.1171L9.042747374267577,11.1171L9.047307374267579,10.032L14.996877374267578,10.032L14.996877374267578,0.23877L0.7380003742675781,0.23877L0.7380003742675781,10.032L6.373197374267578,10.032L6.368647374267578,11.1171L0.7380003742675781,11.1171L0.7380003742675781,13.8219L6.359537374267578,13.8219L6.359537374267578,14.8091L0.7380003742675781,14.8091L0.7380003742675781,17.6095L5.735427374267578,17.6095C7.038307374267578,17.109,8.434587374267577,16.8565,9.887797374267578,16.8565ZM19.554677374267577,19.0108C19.49547737426758,19.4362,19.34507737426758,20.1278,19.108177374267576,21.0582L19.110477374267578,21.0582C19.00347737426758,21.3926,18.923677374267577,21.6656,18.866777374267578,21.8908C18.20617737426758,21.1446,17.57527737426758,20.4576,16.98987737426758,19.8457C17.75517737426758,17.6664,18.115077374267578,14.1791,18.055877374267578,9.48152L18.055877374267578,0.279785L23.586277374267578,0.279785L23.586277374267578,8.78315L23.684277374267577,8.68078C24.67737737426758,7.64573,25.540677374267577,6.62432,26.251277374267577,5.63932L28.223877374267577,7.24991C26.77747737426758,9.05841,25.599877374267578,10.4415,24.725177374267577,11.3605C24.378977374267578,10.8851,24.028177374267578,10.462,23.684277374267577,10.1003L23.586277374267578,9.99792L23.586277374267578,18.656L23.67287737426758,18.6036C24.923377374267577,17.8575,25.95287737426758,17.1318,26.72737737426758,16.4471L26.761477374267578,16.4175L26.738777374267578,16.3766C26.03267737426758,15.0845,25.406277374267578,13.4989,24.87547737426758,11.6631L27.189777374267578,10.5007C27.545077374267578,11.8451,27.92997737426758,12.9893,28.33997737426758,13.9015L28.39237737426758,14.0176L28.444777374267577,13.8993C29.05977737426758,12.5002,29.421977374267577,11.356,29.51537737426758,10.5007L31.906977374267576,11.5721C31.37397737426758,13.4147,30.74757737426758,15.0321,30.043777374267577,16.3766L30.02327737426758,16.4152L30.05517737426758,16.4448C30.94117737426758,17.2478,32.12797737426758,17.9644,33.58797737426758,18.5786C32.99117737426758,19.393,32.46727737426758,20.3939,32.03457737426758,21.5541C30.462877374267578,20.5782,29.251077374267577,19.6796,28.431077374267577,18.8857L28.390077374267577,18.8448L28.351377374267578,18.8857C27.588377374267576,19.6819,26.342377374267578,20.6737,24.652277374267577,21.8339C24.246877374267576,20.9922,23.89377737426758,20.3484,23.60227737426758,19.923L23.53387737426758,19.8252L23.499777374267577,19.939C23.26737737426758,20.7215,22.859677374267577,21.181,22.287977374267577,21.3016C21.830177374267578,21.3926,21.126277374267577,21.454,20.194677374267577,21.4859C20.019277374267578,20.5759,19.84167737426758,19.7411,19.66627737426758,19.0063L19.595677374267577,18.7128L19.554677374267577,19.0108ZM10.550677374267579,3.37123C10.484577374267579,3.49862,10.375277374267577,3.67378,10.220377374267578,3.90354C9.819467374267578,4.59282,9.464137374267578,5.17518,9.168027374267577,5.63242L9.063247374267577,5.79393L9.076917374267579,3.03683L12.450277374267579,3.03683L12.450277374267579,7.32945L9.056417374267578,7.32945L9.063247374267577,5.80986L10.785277374267578,6.9996C11.245377374267578,6.42634,11.769277374267578,5.62787,12.343277374267577,4.62012L12.397877374267578,4.52457L10.550677374267579,3.36895L10.550677374267579,3.37123ZM3.109157374267578,3.0391L6.4028173742675785,3.0391L6.391427374267578,5.73479L6.284367374267578,5.53233C5.806037374267578,4.62239,5.348207374267578,3.89444,4.924537374267578,3.3644L3.106877374267578,4.35851L3.106877374267578,3.04137L3.109157374267578,3.0391ZM21.456577374267578,3.15746L20.17877737426758,3.15746L20.17877737426758,6.26262L21.456577374267578,6.26262L21.456577374267578,3.15746ZM71.71557737426758,9.69307C72.21437737426758,9.44966,72.61077737426758,9.09706,72.90227737426758,8.63299L72.89997737426758,8.63527C73.19157737426758,8.1712,73.33737737426758,7.58656,73.33737737426758,6.94051C73.33737737426758,6.29445,73.19837737426758,5.78716,72.90687737426758,5.3231C71.99577737426758,3.95819,70.41267737426757,3.85355,69.80907737426757,3.85355L66.21707737426757,3.85355L66.21707737426757,10.057L70.05967737426758,10.057C70.66327737426758,10.057,71.21677737426758,9.9342,71.71557737426758,9.69307ZM3.109157374267578,7.32945L3.109157374267578,4.93859L3.207097374267578,5.03641C3.339217374267578,5.16835,3.737827374267578,5.78028,4.427987374267578,6.90633L6.391427374267578,5.8781L6.3845873742675785,7.32945L3.109157374267578,7.32945ZM33.865877374267576,9.38378C33.20987737426758,8.58076,32.059577374267576,7.31823,30.444677374267577,5.63257L28.558677374267578,7.24316C29.88887737426758,8.69678,31.06877737426758,10.0503,32.06417737426758,11.2674L33.865877374267576,9.38606L33.865877374267576,9.38378ZM21.456577374267578,9.14257L20.17877737426758,9.14257L20.17877737426758,12.1545L21.456577374267578,12.1545L21.456577374267578,9.14257ZM20.08997737426758,15.0867C20.03067737426758,16.2674,19.909977374267577,17.398,19.73227737426758,18.4467L19.734577374267577,18.4467L19.72317737426758,18.5126L20.68667737426758,18.5126C20.98057737426758,18.5126,21.19237737426758,18.4398,21.32217737426758,18.2943C21.442877374267578,18.1578,21.48847737426758,17.9576,21.45887737426758,17.7073L21.45887737426758,15.0321L20.08997737426758,15.0321L20.08997737426758,15.0867ZM4.207047374267578,19.4135L5.3208673742675785,21.6793C5.642037374267578,21.4768,7.297977374267578,20.5191,9.894637374267578,20.5191C12.063077374267579,20.5191,13.716777374267577,21.5701,14.069777374267579,21.8135L15.222377374267579,19.5773C14.901177374267577,19.3453,12.760077374267578,17.8757,9.896907374267577,17.8757C6.589587374267579,17.8757,4.523647374267578,19.1974,4.209317374267578,19.4135L4.207047374267578,19.4135ZM3.273157374267578,20.1938C3.2708773742675783,20.1665,3.266317374267578,20.1415,3.264047374267578,20.1142C3.2594873742675783,20.0869,3.2549373742675782,20.0619,3.250377374267578,20.0346C3.245817374267578,20.0073,3.238987374267578,19.9823,3.232157374267578,19.955C3.2253173742675783,19.9299,3.218487374267578,19.9026,3.211657374267578,19.8776C3.204817374267578,19.8526,3.1957073742675783,19.8253,3.186597374267578,19.8003C3.177487374267578,19.7752,3.1683773742675783,19.7502,3.1569873742675783,19.7252C3.147877374267578,19.7002,3.136487374267578,19.6751,3.125097374267578,19.6524C3.113707374267578,19.6274,3.102317374267578,19.6046,3.0886573742675782,19.5796C3.074987374267578,19.5569,3.063597374267578,19.5318,3.049937374267578,19.5091C3.0362673742675783,19.4863,3.022597374267578,19.4636,3.006657374267578,19.4408C2.992987374267578,19.4181,2.977047374267578,19.3976,2.961097374267578,19.3749C2.9451573742675783,19.3521,2.929207374267578,19.3316,2.9109873742675783,19.3112C2.892767374267578,19.2907,2.8768273742675783,19.2702,2.8585973742675783,19.2498C2.840377374267578,19.2293,2.822157374267578,19.2111,2.803937374267578,19.1906C2.785707374267578,19.1724,2.765207374267578,19.1519,2.7447073742675783,19.136C2.724217374267578,19.1178,2.7037073742675783,19.0996,2.6832173742675782,19.0837C2.662707374267578,19.0678,2.6422173742675783,19.0496,2.6194373742675783,19.0336C2.5966573742675783,19.0177,2.576157374267578,19.0018,2.553377374267578,18.9881C2.530597374267578,18.9722,2.507827374267578,18.9586,2.485047374267578,18.9449C2.462267374267578,18.9313,2.439487374267578,18.9176,2.414437374267578,18.9063C2.391657374267578,18.8926,2.366607374267578,18.8812,2.341547374267578,18.8699C2.3164873742675782,18.8585,2.2937173742675783,18.8471,2.268657374267578,18.838C2.243607374267578,18.8289,2.2185473742675783,18.8175,2.193487374267578,18.8084C2.168437374267578,18.7993,2.143377374267578,18.7902,2.1160473742675783,18.7834C2.090987374267578,18.7766,2.0636573742675783,18.7675,2.038607374267578,18.7607C2.0135473742675782,18.7538,1.9862173742675782,18.7493,1.961157374267578,18.7425C1.9338273742675782,18.7379,1.9087673742675781,18.7334,1.881437374267578,18.7288C1.8541073742675782,18.7243,1.8290473742675781,18.722,1.801717374267578,18.7197C1.7743773742675781,18.7174,1.747047374267578,18.7152,1.721997374267578,18.7129L1.5625473742675782,18.7129C1.535217374267578,18.7129,1.5101573742675782,18.7152,1.4828273742675782,18.7197C1.455497374267578,18.722,1.4304373742675782,18.7265,1.4031073742675781,18.7288C1.375777374267578,18.7334,1.3507173742675782,18.7379,1.3233873742675781,18.7425C1.2960473742675782,18.747,1.2709973742675782,18.7538,1.243657374267578,18.7607C1.218607374267578,18.7675,1.1912773742675782,18.7743,1.166217374267578,18.7811C1.141157374267578,18.788,1.1161073742675782,18.7971,1.0887773742675781,18.8062C1.063717374267578,18.8153,1.038667374267578,18.8244,1.0136073742675782,18.8357C0.9885513742675781,18.8471,0.9634963742675782,18.8562,0.9407183742675781,18.8676C0.9156633742675782,18.879,0.8928853742675781,18.8903,0.8678293742675781,18.904C0.8450523742675782,18.9176,0.8199963742675781,18.929,0.7972193742675782,18.9426C0.7744413742675781,18.9563,0.7516633742675781,18.9699,0.7288863742675781,18.9859C0.7061083742675781,19.0018,0.6856083742675781,19.0154,0.6628303742675781,19.0314C0.6423303742675781,19.0473,0.6195533742675782,19.0632,0.5990533742675781,19.0814C0.5785533742675781,19.0973,0.5580533742675782,19.1155,0.5375533742675781,19.1337C0.5170533742675781,19.1519,0.4988313742675781,19.1701,0.4783313742675781,19.1883C0.46010937426757814,19.2065,0.4396093742675781,19.227,0.42366437426757814,19.2475C0.4054423742675781,19.268,0.3872203742675781,19.2884,0.37127637426757815,19.3089C0.3553313742675781,19.3294,0.33710937426757814,19.3498,0.32116537426757813,19.3726C0.30522037426757814,19.3953,0.28927637426757813,19.4158,0.27560937426757814,19.4386C0.25966537426757813,19.4613,0.24599837426757812,19.4841,0.23233237426757813,19.5068C0.21866537426757812,19.5296,0.20499937426757814,19.5523,0.19361037426757813,19.5773C0.18222137426757812,19.6024,0.16855437426757813,19.6251,0.15716537426757812,19.6501C0.1457763742675781,19.6751,0.13438837426757813,19.6979,0.12527737426757812,19.7229C0.11388837426757813,19.7479,0.10477737426757812,19.773,0.09566597426757813,19.798C0.08655487426757813,19.823,0.07744377426757812,19.848,0.07061047426757812,19.8753C0.06377717426757812,19.9004,0.05466607426757813,19.9277,0.050110574267578124,19.9527C0.043277274267578124,19.9777,0.038721674267578124,20.005,0.03188837426757812,20.0323C0.027332874267578126,20.0596,0.022777274267578126,20.0846,0.018221774267578126,20.1119C0.013666174267578124,20.1392,0.011388454267578126,20.1642,0.009110684267578125,20.1915C0.006832914267578125,20.2188,0.004555144267578125,20.2461,0.002277374267578125,20.2712L0.002277374267578125,20.4304C0.002277374267578125,20.4577,0.004555144267578125,20.485,0.009110684267578125,20.51C0.011388454267578126,20.5373,0.015943974267578126,20.5646,0.018221774267578126,20.5896C0.022777274267578126,20.6169,0.027332874267578126,20.642,0.03188837426757812,20.6692C0.03644387426757813,20.6943,0.043277274267578124,20.7216,0.050110574267578124,20.7489C0.056943874267578125,20.7739,0.06377717426757812,20.8012,0.07061047426757812,20.8262C0.07744377426757812,20.8512,0.08655487426757813,20.8763,0.09566597426757813,20.9036C0.10477737426757812,20.9309,0.11388837426757813,20.9536,0.12527737426757812,20.9786C0.13438837426757813,21.0037,0.1457773742675781,21.0287,0.15716537426757812,21.0514C0.16855437426757813,21.0764,0.17994337426757812,21.0992,0.19361037426757813,21.1242C0.2072763742675781,21.1492,0.21866537426757812,21.172,0.23233237426757813,21.1947C0.24599837426757812,21.2175,0.25966537426757813,21.2402,0.27560937426757814,21.263C0.29155437426757813,21.2857,0.30522037426757814,21.3062,0.32116537426757813,21.329C0.33710937426757814,21.3517,0.3530533742675781,21.3722,0.37127637426757815,21.3926C0.3872203742675781,21.4131,0.4054423742675781,21.4336,0.42366437426757814,21.4541C0.4418873742675781,21.4745,0.46010937426757814,21.4927,0.4783313742675781,21.5132C0.4965533742675781,21.5314,0.5170533742675781,21.5519,0.5375533742675781,21.5678C0.5580533742675782,21.586,0.5785533742675781,21.6042,0.5990533742675781,21.6201C0.6195533742675782,21.6361,0.6400523742675781,21.6543,0.6628303742675781,21.6702C0.6856083742675781,21.6861,0.7061083742675781,21.702,0.7288853742675782,21.7157C0.7516633742675781,21.7316,0.7744413742675781,21.7452,0.7972193742675782,21.7589C0.8199963742675781,21.7725,0.8427743742675782,21.7862,0.8678293742675781,21.7976C0.8906073742675781,21.8112,0.9156633742675782,21.8226,0.9407183742675781,21.834C0.9657743742675782,21.8453,0.9885513742675781,21.8567,1.0136073742675782,21.8658C1.038667374267578,21.8749,1.063717374267578,21.8863,1.0887773742675781,21.8954C1.1138273742675782,21.9045,1.138887374267578,21.9136,1.166217374267578,21.9204C1.1912773742675782,21.9272,1.218607374267578,21.9363,1.243657374267578,21.9409C1.2709973742675782,21.9477,1.2960473742675782,21.9545,1.3233873742675781,21.9591C1.3507173742675782,21.9636,1.375777374267578,21.9682,1.4031073742675781,21.9727C1.4304373742675782,21.9773,1.455497374267578,21.9796,1.4828273742675782,21.9818C1.5101573742675782,21.9841,1.535217374267578,21.9864,1.5625473742675782,21.9887C1.614937374267578,21.9909,1.669607374267578,21.9909,1.724267374267578,21.9887C1.7516073742675782,21.9887,1.7766573742675782,21.9864,1.8039973742675781,21.9818C1.8313273742675782,21.9796,1.8563773742675782,21.975,1.8837173742675781,21.9727C1.9110473742675782,21.9682,1.936107374267578,21.9636,1.9634373742675781,21.9591C1.9907673742675782,21.9545,2.015827374267578,21.9477,2.0408773742675783,21.9409C2.065937374267578,21.9341,2.0932673742675783,21.9272,2.118327374267578,21.9204C2.143377374267578,21.9136,2.168437374267578,21.9045,2.1957673742675783,21.8954C2.220827374267578,21.8863,2.245877374267578,21.8772,2.2709373742675782,21.8658C2.295987374267578,21.8567,2.3210473742675783,21.8453,2.343827374267578,21.834C2.368877374267578,21.8226,2.391657374267578,21.8112,2.416717374267578,21.7976C2.439487374267578,21.7839,2.4645473742675783,21.7725,2.4873273742675783,21.7589C2.5100973742675783,21.7452,2.5328773742675783,21.7316,2.5556573742675783,21.7157C2.578437374267578,21.6998,2.598937374267578,21.6861,2.621717374267578,21.6702C2.644487374267578,21.6543,2.6649873742675783,21.6383,2.685487374267578,21.6201C2.705987374267578,21.6019,2.726487374267578,21.586,2.746987374267578,21.5678C2.7674873742675783,21.5496,2.785707374267578,21.5314,2.806207374267578,21.5132C2.824437374267578,21.495,2.8426573742675783,21.4745,2.860877374267578,21.4541C2.879097374267578,21.4336,2.897327374267578,21.4131,2.913267374267578,21.3926C2.929207374267578,21.3722,2.947437374267578,21.3517,2.963377374267578,21.329C2.9793273742675783,21.3062,2.995267374267578,21.2857,3.0089373742675782,21.263C3.022597374267578,21.2402,3.038547374267578,21.2175,3.052207374267578,21.1947C3.0658773742675782,21.172,3.079547374267578,21.1492,3.090937374267578,21.1242C3.1045973742675783,21.1015,3.1159873742675783,21.0764,3.1273773742675783,21.0514C3.138767374267578,21.0264,3.150157374267578,21.0014,3.159267374267578,20.9786C3.1683773742675783,20.9536,3.1797673742675783,20.9286,3.188877374267578,20.9036C3.197987374267578,20.8785,3.207097374267578,20.8535,3.2139373742675783,20.8262C3.220767374267578,20.8012,3.229877374267578,20.7739,3.234437374267578,20.7489C3.241267374267578,20.7238,3.245817374267578,20.6965,3.252657374267578,20.6692C3.257207374267578,20.642,3.261767374267578,20.6169,3.266317374267578,20.5896C3.2708773742675783,20.5623,3.273157374267578,20.5373,3.275437374267578,20.51C3.277707374267578,20.4827,3.279987374267578,20.4577,3.2822673742675783,20.4304L3.2822673742675783,20.2712C3.2822673742675783,20.2439,3.279987374267578,20.2166,3.275437374267578,20.1915L3.273157374267578,20.1938Z" fill-rule="evenodd" fill="#000000" fill-opacity="1"/><path d="M29.945877374267578,2.29077C29.88887737426758,1.99276,29.58597737426758,0.411746,29.508477374267578,0L26.84807737426758,0.179713C26.93467737426758,0.568711,27.22617737426758,1.97456,27.283077374267577,2.27029L27.296777374267577,2.33854L24.06007737426758,2.33854L24.06007737426758,5.49602L33.262277374267576,5.49602L33.262277374267576,2.33854L29.957277374267576,2.33854L29.948077374267577,2.29304L29.945877374267578,2.29077ZM44.434777374267576,13.9993L48.27047737426758,0.386689L48.31837737426758,0.2229L52.57097737426758,0.2229L46.195477374267575,21.5746L42.78567737426758,21.5746L35.60157737426758,0.2229L39.90427737426758,0.2229L44.434777374267576,13.9993ZM58.43847737426758,0.2229L54.44557737426758,0.2229L54.44557737426758,21.5723L58.43847737426758,21.5723L58.43847737426758,0.2229ZM73.64487737426758,1.03957C74.67667737426758,1.58326,75.49437737426757,2.3658,76.09567737426758,3.38493L76.09567737426758,3.38266C76.69937737426758,4.40179,76.99997737426757,5.60745,76.99997737426757,6.99966C76.99997737426757,8.39186,76.69707737426758,9.59753,76.09567737426758,10.6167C75.49437737426757,11.6358,74.67667737426758,12.4229,73.64487737426758,12.9779C72.61297737426757,13.533,71.70647737426758,13.8105,70.42637737426757,13.8105L66.21927737426758,13.8105L66.21927737426758,21.5882L62.21727737426758,21.5882L62.21727737426758,0.2229L70.17577737426758,0.2229C71.45587737426757,0.2229,72.61297737426757,0.495881,73.64487737426758,1.03957ZM9.887797374267578,16.8565C11.110977374267579,16.8565,12.340977374267577,17.109,13.539077374267578,17.6095L14.996877374267578,17.6095L14.996877374267578,14.8091L9.026807374267579,14.8091L9.026807374267579,13.8219L14.996877374267578,13.8219L14.996877374267578,11.1171L9.042747374267577,11.1171L9.047307374267579,10.032L14.996877374267578,10.032L14.996877374267578,0.23877L0.7380003742675781,0.23877L0.7380003742675781,10.032L6.373197374267578,10.032L6.368647374267578,11.1171L0.7380003742675781,11.1171L0.7380003742675781,13.8219L6.359537374267578,13.8219L6.359537374267578,14.8091L0.7380003742675781,14.8091L0.7380003742675781,17.6095L5.735427374267578,17.6095C7.038307374267578,17.109,8.434587374267577,16.8565,9.887797374267578,16.8565ZM19.554677374267577,19.0108C19.49547737426758,19.4362,19.34507737426758,20.1278,19.108177374267576,21.0582L19.110477374267578,21.0582C19.00347737426758,21.3926,18.923677374267577,21.6656,18.866777374267578,21.8908C18.20617737426758,21.1446,17.57527737426758,20.4576,16.98987737426758,19.8457C17.75517737426758,17.6664,18.115077374267578,14.1791,18.055877374267578,9.48152L18.055877374267578,0.279785L23.586277374267578,0.279785L23.586277374267578,8.78315L23.684277374267577,8.68078C24.67737737426758,7.64573,25.540677374267577,6.62432,26.251277374267577,5.63932L28.223877374267577,7.24991C26.77747737426758,9.05841,25.599877374267578,10.4415,24.725177374267577,11.3605C24.378977374267578,10.8851,24.028177374267578,10.462,23.684277374267577,10.1003L23.586277374267578,9.99792L23.586277374267578,18.656L23.67287737426758,18.6036C24.923377374267577,17.8575,25.95287737426758,17.1318,26.72737737426758,16.4471L26.761477374267578,16.4175L26.738777374267578,16.3766C26.03267737426758,15.0845,25.406277374267578,13.4989,24.87547737426758,11.6631L27.189777374267578,10.5007C27.545077374267578,11.8451,27.92997737426758,12.9893,28.33997737426758,13.9015L28.39237737426758,14.0176L28.444777374267577,13.8993C29.05977737426758,12.5002,29.421977374267577,11.356,29.51537737426758,10.5007L31.906977374267576,11.5721C31.37397737426758,13.4147,30.74757737426758,15.0321,30.043777374267577,16.3766L30.02327737426758,16.4152L30.05517737426758,16.4448C30.94117737426758,17.2478,32.12797737426758,17.9644,33.58797737426758,18.5786C32.99117737426758,19.393,32.46727737426758,20.3939,32.03457737426758,21.5541C30.462877374267578,20.5782,29.251077374267577,19.6796,28.431077374267577,18.8857L28.390077374267577,18.8448L28.351377374267578,18.8857C27.588377374267576,19.6819,26.342377374267578,20.6737,24.652277374267577,21.8339C24.246877374267576,20.9922,23.89377737426758,20.3484,23.60227737426758,19.923L23.53387737426758,19.8252L23.499777374267577,19.939C23.26737737426758,20.7215,22.859677374267577,21.181,22.287977374267577,21.3016C21.830177374267578,21.3926,21.126277374267577,21.454,20.194677374267577,21.4859C20.019277374267578,20.5759,19.84167737426758,19.7411,19.66627737426758,19.0063L19.595677374267577,18.7128L19.554677374267577,19.0108ZM10.550677374267579,3.37123C10.484577374267579,3.49862,10.375277374267577,3.67378,10.220377374267578,3.90354C9.819467374267578,4.59282,9.464137374267578,5.17518,9.168027374267577,5.63242L9.063247374267577,5.79393L9.076917374267579,3.03683L12.450277374267579,3.03683L12.450277374267579,7.32945L9.056417374267578,7.32945L9.063247374267577,5.80986L10.785277374267578,6.9996C11.245377374267578,6.42634,11.769277374267578,5.62787,12.343277374267577,4.62012L12.397877374267578,4.52457L10.550677374267579,3.36895L10.550677374267579,3.37123ZM3.109157374267578,3.0391L6.4028173742675785,3.0391L6.391427374267578,5.73479L6.284367374267578,5.53233C5.806037374267578,4.62239,5.348207374267578,3.89444,4.924537374267578,3.3644L3.106877374267578,4.35851L3.106877374267578,3.04137L3.109157374267578,3.0391ZM21.456577374267578,3.15746L20.17877737426758,3.15746L20.17877737426758,6.26262L21.456577374267578,6.26262L21.456577374267578,3.15746ZM71.71557737426758,9.69307C72.21437737426758,9.44966,72.61077737426758,9.09706,72.90227737426758,8.63299L72.89997737426758,8.63527C73.19157737426758,8.1712,73.33737737426758,7.58656,73.33737737426758,6.94051C73.33737737426758,6.29445,73.19837737426758,5.78716,72.90687737426758,5.3231C71.99577737426758,3.95819,70.41267737426757,3.85355,69.80907737426757,3.85355L66.21707737426757,3.85355L66.21707737426757,10.057L70.05967737426758,10.057C70.66327737426758,10.057,71.21677737426758,9.9342,71.71557737426758,9.69307ZM3.109157374267578,7.32945L3.109157374267578,4.93859L3.207097374267578,5.03641C3.339217374267578,5.16835,3.737827374267578,5.78028,4.427987374267578,6.90633L6.391427374267578,5.8781L6.3845873742675785,7.32945L3.109157374267578,7.32945ZM33.865877374267576,9.38378C33.20987737426758,8.58076,32.059577374267576,7.31823,30.444677374267577,5.63257L28.558677374267578,7.24316C29.88887737426758,8.69678,31.06877737426758,10.0503,32.06417737426758,11.2674L33.865877374267576,9.38606L33.865877374267576,9.38378ZM21.456577374267578,9.14257L20.17877737426758,9.14257L20.17877737426758,12.1545L21.456577374267578,12.1545L21.456577374267578,9.14257ZM20.08997737426758,15.0867C20.03067737426758,16.2674,19.909977374267577,17.398,19.73227737426758,18.4467L19.734577374267577,18.4467L19.72317737426758,18.5126L20.68667737426758,18.5126C20.98057737426758,18.5126,21.19237737426758,18.4398,21.32217737426758,18.2943C21.442877374267578,18.1578,21.48847737426758,17.9576,21.45887737426758,17.7073L21.45887737426758,15.0321L20.08997737426758,15.0321L20.08997737426758,15.0867ZM4.207047374267578,19.4135L5.3208673742675785,21.6793C5.642037374267578,21.4768,7.297977374267578,20.5191,9.894637374267578,20.5191C12.063077374267579,20.5191,13.716777374267577,21.5701,14.069777374267579,21.8135L15.222377374267579,19.5773C14.901177374267577,19.3453,12.760077374267578,17.8757,9.896907374267577,17.8757C6.589587374267579,17.8757,4.523647374267578,19.1974,4.209317374267578,19.4135L4.207047374267578,19.4135ZM3.273157374267578,20.1938C3.2708773742675783,20.1665,3.266317374267578,20.1415,3.264047374267578,20.1142C3.2594873742675783,20.0869,3.2549373742675782,20.0619,3.250377374267578,20.0346C3.245817374267578,20.0073,3.238987374267578,19.9823,3.232157374267578,19.955C3.2253173742675783,19.9299,3.218487374267578,19.9026,3.211657374267578,19.8776C3.204817374267578,19.8526,3.1957073742675783,19.8253,3.186597374267578,19.8003C3.177487374267578,19.7752,3.1683773742675783,19.7502,3.1569873742675783,19.7252C3.147877374267578,19.7002,3.136487374267578,19.6751,3.125097374267578,19.6524C3.113707374267578,19.6274,3.102317374267578,19.6046,3.0886573742675782,19.5796C3.074987374267578,19.5569,3.063597374267578,19.5318,3.049937374267578,19.5091C3.0362673742675783,19.4863,3.022597374267578,19.4636,3.006657374267578,19.4408C2.992987374267578,19.4181,2.977047374267578,19.3976,2.961097374267578,19.3749C2.9451573742675783,19.3521,2.929207374267578,19.3316,2.9109873742675783,19.3112C2.892767374267578,19.2907,2.8768273742675783,19.2702,2.8585973742675783,19.2498C2.840377374267578,19.2293,2.822157374267578,19.2111,2.803937374267578,19.1906C2.785707374267578,19.1724,2.765207374267578,19.1519,2.7447073742675783,19.136C2.724217374267578,19.1178,2.7037073742675783,19.0996,2.6832173742675782,19.0837C2.662707374267578,19.0678,2.6422173742675783,19.0496,2.6194373742675783,19.0336C2.5966573742675783,19.0177,2.576157374267578,19.0018,2.553377374267578,18.9881C2.530597374267578,18.9722,2.507827374267578,18.9586,2.485047374267578,18.9449C2.462267374267578,18.9313,2.439487374267578,18.9176,2.414437374267578,18.9063C2.391657374267578,18.8926,2.366607374267578,18.8812,2.341547374267578,18.8699C2.3164873742675782,18.8585,2.2937173742675783,18.8471,2.268657374267578,18.838C2.243607374267578,18.8289,2.2185473742675783,18.8175,2.193487374267578,18.8084C2.168437374267578,18.7993,2.143377374267578,18.7902,2.1160473742675783,18.7834C2.090987374267578,18.7766,2.0636573742675783,18.7675,2.038607374267578,18.7607C2.0135473742675782,18.7538,1.9862173742675782,18.7493,1.961157374267578,18.7425C1.9338273742675782,18.7379,1.9087673742675781,18.7334,1.881437374267578,18.7288C1.8541073742675782,18.7243,1.8290473742675781,18.722,1.801717374267578,18.7197C1.7743773742675781,18.7174,1.747047374267578,18.7152,1.721997374267578,18.7129L1.5625473742675782,18.7129C1.535217374267578,18.7129,1.5101573742675782,18.7152,1.4828273742675782,18.7197C1.455497374267578,18.722,1.4304373742675782,18.7265,1.4031073742675781,18.7288C1.375777374267578,18.7334,1.3507173742675782,18.7379,1.3233873742675781,18.7425C1.2960473742675782,18.747,1.2709973742675782,18.7538,1.243657374267578,18.7607C1.218607374267578,18.7675,1.1912773742675782,18.7743,1.166217374267578,18.7811C1.141157374267578,18.788,1.1161073742675782,18.7971,1.0887773742675781,18.8062C1.063717374267578,18.8153,1.038667374267578,18.8244,1.0136073742675782,18.8357C0.9885513742675781,18.8471,0.9634963742675782,18.8562,0.9407183742675781,18.8676C0.9156633742675782,18.879,0.8928853742675781,18.8903,0.8678293742675781,18.904C0.8450523742675782,18.9176,0.8199963742675781,18.929,0.7972193742675782,18.9426C0.7744413742675781,18.9563,0.7516633742675781,18.9699,0.7288863742675781,18.9859C0.7061083742675781,19.0018,0.6856083742675781,19.0154,0.6628303742675781,19.0314C0.6423303742675781,19.0473,0.6195533742675782,19.0632,0.5990533742675781,19.0814C0.5785533742675781,19.0973,0.5580533742675782,19.1155,0.5375533742675781,19.1337C0.5170533742675781,19.1519,0.4988313742675781,19.1701,0.4783313742675781,19.1883C0.46010937426757814,19.2065,0.4396093742675781,19.227,0.42366437426757814,19.2475C0.4054423742675781,19.268,0.3872203742675781,19.2884,0.37127637426757815,19.3089C0.3553313742675781,19.3294,0.33710937426757814,19.3498,0.32116537426757813,19.3726C0.30522037426757814,19.3953,0.28927637426757813,19.4158,0.27560937426757814,19.4386C0.25966537426757813,19.4613,0.24599837426757812,19.4841,0.23233237426757813,19.5068C0.21866537426757812,19.5296,0.20499937426757814,19.5523,0.19361037426757813,19.5773C0.18222137426757812,19.6024,0.16855437426757813,19.6251,0.15716537426757812,19.6501C0.1457763742675781,19.6751,0.13438837426757813,19.6979,0.12527737426757812,19.7229C0.11388837426757813,19.7479,0.10477737426757812,19.773,0.09566597426757813,19.798C0.08655487426757813,19.823,0.07744377426757812,19.848,0.07061047426757812,19.8753C0.06377717426757812,19.9004,0.05466607426757813,19.9277,0.050110574267578124,19.9527C0.043277274267578124,19.9777,0.038721674267578124,20.005,0.03188837426757812,20.0323C0.027332874267578126,20.0596,0.022777274267578126,20.0846,0.018221774267578126,20.1119C0.013666174267578124,20.1392,0.011388454267578126,20.1642,0.009110684267578125,20.1915C0.006832914267578125,20.2188,0.004555144267578125,20.2461,0.002277374267578125,20.2712L0.002277374267578125,20.4304C0.002277374267578125,20.4577,0.004555144267578125,20.485,0.009110684267578125,20.51C0.011388454267578126,20.5373,0.015943974267578126,20.5646,0.018221774267578126,20.5896C0.022777274267578126,20.6169,0.027332874267578126,20.642,0.03188837426757812,20.6692C0.03644387426757813,20.6943,0.043277274267578124,20.7216,0.050110574267578124,20.7489C0.056943874267578125,20.7739,0.06377717426757812,20.8012,0.07061047426757812,20.8262C0.07744377426757812,20.8512,0.08655487426757813,20.8763,0.09566597426757813,20.9036C0.10477737426757812,20.9309,0.11388837426757813,20.9536,0.12527737426757812,20.9786C0.13438837426757813,21.0037,0.1457773742675781,21.0287,0.15716537426757812,21.0514C0.16855437426757813,21.0764,0.17994337426757812,21.0992,0.19361037426757813,21.1242C0.2072763742675781,21.1492,0.21866537426757812,21.172,0.23233237426757813,21.1947C0.24599837426757812,21.2175,0.25966537426757813,21.2402,0.27560937426757814,21.263C0.29155437426757813,21.2857,0.30522037426757814,21.3062,0.32116537426757813,21.329C0.33710937426757814,21.3517,0.3530533742675781,21.3722,0.37127637426757815,21.3926C0.3872203742675781,21.4131,0.4054423742675781,21.4336,0.42366437426757814,21.4541C0.4418873742675781,21.4745,0.46010937426757814,21.4927,0.4783313742675781,21.5132C0.4965533742675781,21.5314,0.5170533742675781,21.5519,0.5375533742675781,21.5678C0.5580533742675782,21.586,0.5785533742675781,21.6042,0.5990533742675781,21.6201C0.6195533742675782,21.6361,0.6400523742675781,21.6543,0.6628303742675781,21.6702C0.6856083742675781,21.6861,0.7061083742675781,21.702,0.7288853742675782,21.7157C0.7516633742675781,21.7316,0.7744413742675781,21.7452,0.7972193742675782,21.7589C0.8199963742675781,21.7725,0.8427743742675782,21.7862,0.8678293742675781,21.7976C0.8906073742675781,21.8112,0.9156633742675782,21.8226,0.9407183742675781,21.834C0.9657743742675782,21.8453,0.9885513742675781,21.8567,1.0136073742675782,21.8658C1.038667374267578,21.8749,1.063717374267578,21.8863,1.0887773742675781,21.8954C1.1138273742675782,21.9045,1.138887374267578,21.9136,1.166217374267578,21.9204C1.1912773742675782,21.9272,1.218607374267578,21.9363,1.243657374267578,21.9409C1.2709973742675782,21.9477,1.2960473742675782,21.9545,1.3233873742675781,21.9591C1.3507173742675782,21.9636,1.375777374267578,21.9682,1.4031073742675781,21.9727C1.4304373742675782,21.9773,1.455497374267578,21.9796,1.4828273742675782,21.9818C1.5101573742675782,21.9841,1.535217374267578,21.9864,1.5625473742675782,21.9887C1.614937374267578,21.9909,1.669607374267578,21.9909,1.724267374267578,21.9887C1.7516073742675782,21.9887,1.7766573742675782,21.9864,1.8039973742675781,21.9818C1.8313273742675782,21.9796,1.8563773742675782,21.975,1.8837173742675781,21.9727C1.9110473742675782,21.9682,1.936107374267578,21.9636,1.9634373742675781,21.9591C1.9907673742675782,21.9545,2.015827374267578,21.9477,2.0408773742675783,21.9409C2.065937374267578,21.9341,2.0932673742675783,21.9272,2.118327374267578,21.9204C2.143377374267578,21.9136,2.168437374267578,21.9045,2.1957673742675783,21.8954C2.220827374267578,21.8863,2.245877374267578,21.8772,2.2709373742675782,21.8658C2.295987374267578,21.8567,2.3210473742675783,21.8453,2.343827374267578,21.834C2.368877374267578,21.8226,2.391657374267578,21.8112,2.416717374267578,21.7976C2.439487374267578,21.7839,2.4645473742675783,21.7725,2.4873273742675783,21.7589C2.5100973742675783,21.7452,2.5328773742675783,21.7316,2.5556573742675783,21.7157C2.578437374267578,21.6998,2.598937374267578,21.6861,2.621717374267578,21.6702C2.644487374267578,21.6543,2.6649873742675783,21.6383,2.685487374267578,21.6201C2.705987374267578,21.6019,2.726487374267578,21.586,2.746987374267578,21.5678C2.7674873742675783,21.5496,2.785707374267578,21.5314,2.806207374267578,21.5132C2.824437374267578,21.495,2.8426573742675783,21.4745,2.860877374267578,21.4541C2.879097374267578,21.4336,2.897327374267578,21.4131,2.913267374267578,21.3926C2.929207374267578,21.3722,2.947437374267578,21.3517,2.963377374267578,21.329C2.9793273742675783,21.3062,2.995267374267578,21.2857,3.0089373742675782,21.263C3.022597374267578,21.2402,3.038547374267578,21.2175,3.052207374267578,21.1947C3.0658773742675782,21.172,3.079547374267578,21.1492,3.090937374267578,21.1242C3.1045973742675783,21.1015,3.1159873742675783,21.0764,3.1273773742675783,21.0514C3.138767374267578,21.0264,3.150157374267578,21.0014,3.159267374267578,20.9786C3.1683773742675783,20.9536,3.1797673742675783,20.9286,3.188877374267578,20.9036C3.197987374267578,20.8785,3.207097374267578,20.8535,3.2139373742675783,20.8262C3.220767374267578,20.8012,3.229877374267578,20.7739,3.234437374267578,20.7489C3.241267374267578,20.7238,3.245817374267578,20.6965,3.252657374267578,20.6692C3.257207374267578,20.642,3.261767374267578,20.6169,3.266317374267578,20.5896C3.2708773742675783,20.5623,3.273157374267578,20.5373,3.275437374267578,20.51C3.277707374267578,20.4827,3.279987374267578,20.4577,3.2822673742675783,20.4304L3.2822673742675783,20.2712C3.2822673742675783,20.2439,3.279987374267578,20.2166,3.275437374267578,20.1915L3.273157374267578,20.1938Z" fill-rule="evenodd" fill="url(#master_svg1_277_938)" fill-opacity="1"/></g></g></svg>