<!-- @no-use-convertColors -->
<svg xmlns="http://www.w3.org/2000/svg" xmlns:xlink="http://www.w3.org/1999/xlink" fill="none" version="1.1" width="64" height="13" viewBox="0 0 64 13"><defs><linearGradient x1="0.9533527493476868" y1="-1.604901598284414e-7" x2="0.0524781160056591" y2="0.9999998211860657" id="master_svg0_6_680"><stop offset="0%" stop-color="#474035" stop-opacity="1"/><stop offset="0.009999999747378752%" stop-color="#473535" stop-opacity="1"/><stop offset="100%" stop-color="#343131" stop-opacity="1"/></linearGradient><linearGradient x1="0.00858865026384592" y1="0.8494802713394165" x2="0.9943768978118896" y2="0.13498008251190186" id="master_svg1_6_647"><stop offset="0%" stop-color="#E1C0B8" stop-opacity="1"/><stop offset="100%" stop-color="#F5E5E3" stop-opacity="1"/></linearGradient></defs><g style="mix-blend-mode:passthrough"><g style="mix-blend-mode:passthrough"><g style="mix-blend-mode:passthrough"><rect x="0" y="0" width="64" height="13" rx="6.5" fill="url(#master_svg0_6_680)" fill-opacity="1"/></g><g style="mix-blend-mode:passthrough"><path d="M17.1752,3.490000009536743L15.2222,3.490000009536743L15.2222,9.508520009536742L16.286099999999998,9.508520009536742L16.286099999999998,6.816010009536743C16.548000000000002,6.968030009536744,16.8509,7.056530009536743,17.1752,7.056530009536743C18.1572,7.056530009536743,18.9533,6.258070009536743,18.9533,5.2732600095367435C18.9533,4.288457009536743,18.1572,3.490000009536743,17.1752,3.490000009536743ZM5.35105,6.475250009536744C5.35105,7.406050009536743,6.10718,8.160670009536744,7.0398499999999995,8.160670009536744C7.8712,8.160670009536744,8.56068,7.560660009536743,8.70096,6.770990009536743L9.59671,8.111910009536743C9.05606,8.951470009536743,8.11416,9.509010009536743,7.0398499999999995,9.509010009536743C5.36095,9.509010009536743,4,8.150780009536742,4,6.475250009536744C4,4.980620009536743,5.08399,3.741279009536743,6.509790000000001,3.490488290536743L7.4046400000000006,4.830280009536743C7.28709,4.804440009536743,7.16528,4.789830009536743,7.0398499999999995,4.789830009536743C6.10718,4.789830009536743,5.35105,5.544450009536743,5.35105,6.475250009536744ZM11.6735,3.490488290536743L11.6735,7.725740009536743L8.783809999999999,3.490488290536743L7.4978,3.490488290536743L11.4986,9.509010009536743L12.73746,9.509010009536743L12.73746,3.490488290536743L11.6735,3.490488290536743ZM13.51929,9.509010009536743L14.5835,9.509010009536743L14.5835,3.490488290536743L13.51929,3.490488290536743L13.51929,9.509010009536743ZM17.9362,5.247510009536743Q17.9362,5.332940009536744,17.9197,5.416730009536743Q17.9032,5.500520009536743,17.8709,5.579440009536743Q17.8386,5.658370009536743,17.7917,5.729400009536743Q17.744799999999998,5.800430009536743,17.6851,5.860840009536743Q17.625500000000002,5.9212500095367435,17.555300000000003,5.968710009536743Q17.4851,6.016170009536744,17.4071,6.048860009536743Q17.3291,6.081550009536743,17.2464,6.098220009536743Q17.163600000000002,6.114890009536744,17.0792,6.114890009536744Q16.994799999999998,6.114890009536744,16.912,6.098220009536743Q16.8292,6.081550009536743,16.7512,6.048860009536743Q16.6732,6.016170009536744,16.603,5.968710009536743Q16.532899999999998,5.9212500095367435,16.4732,5.860840009536743Q16.4135,5.800430009536743,16.3666,5.729400009536743Q16.319699999999997,5.658370009536743,16.287399999999998,5.579440009536743Q16.2551,5.500510009536743,16.238599999999998,5.416730009536743Q16.2222,5.332940009536744,16.2222,5.247510009536743Q16.2222,5.162080009536743,16.238599999999998,5.078290009536743Q16.2551,4.994510009536743,16.287399999999998,4.915580009536743Q16.319699999999997,4.836660009536743,16.3666,4.765620009536743Q16.4135,4.694590009536743,16.4732,4.634180009536744Q16.532899999999998,4.573780009536743,16.603,4.526320009536743Q16.6732,4.478854009536743,16.7512,4.446162009536743Q16.8292,4.413469009536743,16.912,4.396803009536743Q16.994799999999998,4.380137009536743,17.0792,4.380137009536743Q17.163600000000002,4.380137009536743,17.2464,4.396803009536743Q17.3291,4.413469009536743,17.4071,4.446162009536743Q17.4851,4.478854009536743,17.555300000000003,4.526320009536743Q17.625500000000002,4.573780009536743,17.685200000000002,4.634180009536744Q17.744799999999998,4.694590009536743,17.7917,4.765620009536743Q17.8386,4.836660009536743,17.8709,4.915580009536743Q17.9032,4.994510009536743,17.9197,5.078290009536743Q17.9362,5.162080009536743,17.9362,5.247510009536743Z" fill-rule="evenodd" fill="url(#master_svg1_6_647)" fill-opacity="1"/></g><g style="mix-blend-mode:passthrough"><path d="M7.505174936065674,6.4745352734375Q7.505174936065674,6.5372992734375,7.493074936065674,6.5988572734375Q7.480974936065674,6.6604152734375,7.457244936065674,6.7184022734374995Q7.433514936065674,6.7763882734375,7.399064936065674,6.8285752734375Q7.364604936065674,6.8807602734375,7.320754936065674,6.9251402734375Q7.276904936065674,6.9695202734374995,7.225347936065674,7.0043902734375Q7.1737859360656735,7.0392602734375,7.116492936065674,7.0632802734375Q7.059200936065674,7.0873002734375,6.998378936065674,7.0995402734374995Q6.937557936065674,7.1117902734375,6.8755449360656735,7.1117902734375Q6.813531936065674,7.1117902734375,6.752709936065674,7.0995402734374995Q6.691887936065674,7.0873002734375,6.634595936065674,7.0632802734375Q6.577302936065674,7.0392602734375,6.525740936065674,7.0043902734375Q6.474178936065674,6.9695202734374995,6.430328936065674,6.9251402734375Q6.386478936065674,6.8807602734375,6.352026936065674,6.8285752734375Q6.317574036065674,6.7763882734375,6.293842636065674,6.7184022734374995Q6.270111236065674,6.6604152734375,6.258013136065673,6.5988572734375Q6.245914936065674,6.5372992734375,6.245914936065674,6.4745352734375Q6.245914936065674,6.4117712734375,6.258013136065673,6.3502132734375Q6.270111236065674,6.2886542734375,6.293842636065674,6.2306682734375Q6.317574036065674,6.1726812734375,6.352026936065674,6.1204952734375Q6.386478936065674,6.0683092734375,6.430328936065674,6.0239282734375Q6.474178936065674,5.9795472734375,6.525740936065674,5.9446772734375Q6.577302936065674,5.9098071734375,6.634595936065674,5.8857883734375Q6.691887936065674,5.8617695734375,6.752709936065674,5.8495249734375Q6.813531936065674,5.8372802734375,6.8755449360656735,5.8372802734375Q6.937557936065674,5.8372802734375,6.998378936065674,5.8495249734375Q7.059200936065674,5.8617695734375,7.116492936065674,5.8857883734375Q7.1737859360656735,5.9098071734375,7.225347936065674,5.9446772734375Q7.276904936065674,5.9795472734375,7.320754936065674,6.0239282734375Q7.364604936065674,6.0683092734375,7.399064936065674,6.1204952734375Q7.433514936065674,6.1726812734375,7.457244936065674,6.2306682734375Q7.480974936065674,6.2886542734375,7.493074936065674,6.3502132734375Q7.505174936065674,6.4117712734375,7.505174936065674,6.4745352734375Z" fill="#FC5053" fill-opacity="1"/></g></g></g></svg>
