<svg fill="none" height="16" viewBox="0 0 66 16" width="66" xmlns="http://www.w3.org/2000/svg" xmlns:xlink="http://www.w3.org/1999/xlink"><linearGradient id="a" x1=".953353" x2=".029412" y1="0" y2=".807692"><stop offset="0" stop-color="#262523"/><stop offset=".0001" stop-color="#3a2d2d"/><stop offset="1" stop-color="#262525"/></linearGradient><linearGradient id="b" x1="-.5" x2=".5" y1=".5" y2="1.5"><stop offset="0" stop-color="#fff"/><stop offset="1" stop-color="#fff"/></linearGradient><mask id="c"><rect fill="url(#b)" height="16" rx="8" width="66"/></mask><filter id="d" color-interpolation-filters="sRGB" height="67.410733" width="78.723789" x="-30" y="-25"><feFlood flood-opacity="0" result="BackgroundImageFix"/><feColorMatrix in="SourceAlpha" type="matrix" values="0 0 0 0 0 0 0 0 0 0 0 0 0 0 0 0 0 0 127 0"/><feOffset dx="0" dy="5"/><feGaussianBlur stdDeviation="7.5"/><feColorMatrix type="matrix" values="0 0 0 0 0.8823529481887817 0 0 0 0 0.7529411911964417 0 0 0 0 0.7215686440467834 0 0 0 0.20000000298023224 0"/><feBlend in2="BackgroundImageFix" mode="normal" result="effect1_dropShadow"/><feBlend in="SourceGraphic" in2="effect1_dropShadow" mode="normal" result="shape"/></filter><linearGradient id="e" x1=".008589" x2=".994377" y1=".84948" y2=".13498"><stop offset="0" stop-color="#e1c0b8"/><stop offset="1" stop-color="#f5e5e3"/></linearGradient><rect fill="url(#a)" height="16" rx="8" width="66"/><g mask="url(#c)"><g filter="url(#d)"><path d="m21.50698668 4.29241085h-2.4456v7.40741h1.3323v-3.31386c.3279.18711.7072.29602 1.1133.29602 1.2296 0 2.2265-.98271 2.2265-2.19478 0-1.212074-.9969-2.19479-2.2265-2.19479zm-6.88859.00082398v5.21261602l-3.61839-5.21261602h-1.6103l5.00969 7.40740602h1.55129v-7.40740602zm2.31139 7.40768602h1.3325v-7.40741137h-1.3325zm-10.22834-3.73163c0 1.1456.94681 2.07436 2.11468 2.07436 1.04099 0 1.90434-.73847 2.08-1.71038l1.12163 1.65037c-.67698 1.0333-1.85641 1.7195-3.20163 1.7195-2.10228 0-3.80642638-1.67166-3.80642638-3.73385 0-1.83954 1.35734638-3.364889 3.14269638-3.67355358l1.1205 1.64898358c-.14718-.03181-.29972-.04979-.45677-.04979-1.16787 0-2.11468.92876-2.11468 2.07436zm15.75784-1.51336q0 .05244-.0051.10463-.0052.0522-.0155.10363-.0103.05144-.0256.10163-.0153.05018-.0355.09864-.0201.04845-.045.0947-.0248.04625-.0541.08986-.0293.0436-.0628.08414-.0334.04054-.0707.07763-.0372.03708-.078.07035-.0408.03327-.0846.06241-.0438.02914-.0903.05386-.0465.02472-.0952.04479-.0487.02007-.0992.0353-.0504.01522-.1021.02545-.0517.01023-.1042.01537-.0525.00514-.1052.00514-.0527 0-.1052-.00514-.0524-.00514-.1041-.01537-.0517-.01023-.1022-.02545-.0504-.01523-.0991-.0353-.0487-.02007-.0952-.04479-.0465-.02472-.0904-.05386-.0438-.02914-.0845-.06241-.0408-.03327-.0781-.07035-.0373-.03709-.0707-.07763-.0334-.04054-.0627-.08414-.0293-.04361-.0542-.08986-.0248-.04625-.045-.0947-.0202-.04846-.0355-.09864-.0153-.05019-.0256-.10163-.0102-.05143-.0154-.10363-.0052-.05219-.0052-.10463 0-.05245.0052-.10464.0052-.05219.0154-.10363.0103-.05144.0256-.10162.0153-.05019.0355-.09864.0202-.04846.045-.09471.0249-.04625.0542-.08986.0293-.0436.0627-.08414.0334-.04054.0707-.07763.0373-.03708.0781-.07035.0407-.03327.0845-.06241.0439-.02914.0904-.05386.0465-.02472.0952-.04479.0487-.02007.0991-.03529.0505-.01523.1022-.02546.0517-.01023.1041-.01537.0525-.00514.1052-.00514.0527 0 .1052.00514.0525.00514.1042.01537.0517.01023.1021.02546.0505.01522.0992.03529.0487.02007.0952.04479.0465.02472.0903.05386.0438.02914.0846.06241.0408.03327.078.07035.0373.03709.0707.07763.0335.04054.0628.08414.0293.04361.0541.08986.0249.04625.045.09471.0202.04845.0355.09864.0153.05018.0256.10162.0103.05144.0155.10363.0051.05219.0051.10464z" fill="url(#e)" fill-rule="evenodd"/></g><path d="m9.39823878 7.96846565q0 .077248-.01515.153012-.01515.075764-.04486.147134-.02972.07137-.07286.13559-.04314.06423-.09805.11886-.05491.05462-.11947.09754-.06456.04291-.1363.07247-.07174.02957-.147904.04464-.076159.01507-.15381.01507-.077651 0-.153811-.01507-.076159-.01507-.147899-.04464-.07174-.02956-.136305-.07247-.064565-.04292-.119472-.09754-.054908-.05463-.098049-.11886-.0431404-.06422-.0728562-.13559-.0297158-.07137-.0448648-.147134-.015149-.075764-.015149-.153012 0-.077249.015149-.153012.015149-.075764.0448648-.147132.0297158-.071368.0728562-.135598.043141-.064229.098049-.118852.054907-.054623.119472-.097539.064565-.0429171.136305-.0724787.07174-.0295616.147899-.0446319.07616-.0150704.153811-.0150704.077651 0 .15381.0150704.076164.0150703.147904.0446319.07174.0295616.1363.0724787.06456.042916.11947.097539.05491.054623.09805.118852.04314.06423.07286.135598.02971.071368.04486.147132.01515.075763.01515.153012z" fill="#fc5053"/></g><path d="m30.2176317 4.73493439c-.73828 0-1.33301.32226-1.76367.98144-.433593.64746-.638671 1.49414-.638671 2.53711 0 .98145.196289 1.7461.591797 2.29688.416014.57422 1.007814.86426 1.801754.86426.62989 0 1.16895-.2168 1.60254-.63282.42188-.41308.63867-.94336.63867-1.58203 0-.62988-.19043-1.15429-.55957-1.55859-.37793-.39551-.88183-.59473-1.51171-.59473-.34278 0-.63868.06446-.89063.19922-.27832.13477-.50391.34277-.68262.62988h-.03808c-.00879-.05273-.00879-.09082-.00879-.11718 0-.62989.12597-1.14258.38672-1.55567.26074-.44238.6123-.65918 1.06347-.65918.64746 0 1.03418.30762 1.16895.9375h.95508c-.16114-1.16894-.87305-1.74609-2.11524-1.74609zm-.03515 3.10547c.3955 0 .71777.12597.95214.37793.23438.23437.35157.56543.35157.98144 0 .4043-.12598.73828-.36914 1.00782-.23438.26074-.54786.3955-.94336.3955-.38965 0-.70313-.12597-.9375-.37793-.24317-.25195-.36035-.58593-.36035-.99902 0-.42188.11718-.75586.35156-1.00781.23437-.25196.54785-.37793.95508-.37793zm3.36621-.82031v.82031h3.01465c-.14356.52148-.31348.95215-.52149 1.30371-.55664.9375-1.49414 1.7373-2.80957 2.42285l.54199.7002c1.43848-.78223 2.4668-1.70801 3.06739-2.78028.19921-.34277.36035-.76465.5039-1.26855.66801 1.7373 1.87501 3.08789 3.62991 4.04004l.5302-.69141c-1.7021-.87305-2.8623-2.11523-3.4921-3.72656h3.1933v-.82031h-3.5976c.0879-.55665.1611-1.17774.205-1.86329h3.1319v-.81738h-7.16311v.81738h3.16699c-.03515.67676-.10839 1.29786-.20507 1.86329zm13.42968 3.49218c-.5859.12598-1.1807.25196-1.7842.36035v-1.34179h1.5205v-.81739h-1.5205v-.95507h-.8642v.95507h-1.6641v.81739h1.6641v1.48535c-.6739.09961-1.3594.19043-2.0508.26074l.1963.82031c1.6025-.19922 3.0967-.45117 4.5029-.73828zm-4.5644-6.28125v.8086h1.3505c-.4863.95507-.873 1.55859-1.163 1.80175-.0704.03516-.1875.06153-.3311.07911l.1875.76757c1.3242-.13476 2.5488-.30761 3.6826-.51562.126.23437.252.45996.3692.67676l.7089-.49512c-.3134-.58594-.7734-1.26856-1.3652-2.0625l-.6592.4248c.1992.27832.378.55664.5596.82618-.6943.11718-1.3945.21679-2.1152.29004.3134-.42481.665-1.01661 1.0429-1.79297h2.2588v-.8086zm6.8671 7.90137c.6036 0 .9082-.30469.9082-.91699v-7.28321h-.8642v7.06641c0 .23438-.1172.35156-.3399.35156-.3867 0-.7939-.01757-1.2246-.04394l.1875.82617zm-1.7109-7.38867v5.5166h.8291v-5.5166zm4.3213-.79102v.92578h-.4863v.79102h.4863v3.60937h-.5859v.79395h4.3125v-.79395h-.5127v-3.60937h.4658v-.79102h-.4658v-.9082h-.8291v.9082h-1.5586v-.92578zm.8262 5.32617v-.70019h1.5586v.70019zm1.5586-3.60937v.71191h-1.5586v-.71191zm-1.5586 2.16211v-.70313h1.5586v.70313zm1.6025 2.34961-.6562.42187c.3779.53028.6826 1.0166.9082 1.46778l.5126-.36036.6124.56543c.5947-.79101.955-1.77246 1.081-2.95019h1.5293v1.63769c0 .24317-.0996.36915-.2959.36915-.2783 0-.5771-.01758-.8994-.03516l.2344.83496h.9345c.586 0 .8819-.28711.8819-.86426v-7.07226h-3.1846v4.30078c-.0117 1.16894-.2725 2.1416-.7764 2.93554-.2138-.36035-.5127-.78515-.8818-1.25097zm-1.9512.01758c-.3252.583-.7031 1.08691-1.1367 1.51171l.6768.48633c.4306-.46875.8174-1.02539 1.1425-1.66699zm4.4619-3.04395h1.4766v1.38574h-1.4766zm1.4766-.77344h-1.4766v-1.37695h1.4766z" fill="#ecd4cf"/></svg>