<svg width="65" height="28" viewBox="0 0 65 28" fill="none" xmlns="http://www.w3.org/2000/svg">
<mask id="mask0_3797_93434" style="mask-type:alpha" maskUnits="userSpaceOnUse" x="0" y="0" width="65" height="28">
<rect width="65" height="28" fill="#D9D9D9"/>
</mask>
<g mask="url(#mask0_3797_93434)">
<path d="M1.54395 20.8411C1.56727 20.843 1.58896 20.8459 1.6123 20.8499C1.63563 20.8538 1.65732 20.8576 1.68066 20.8616C1.70405 20.8675 1.72563 20.8712 1.74902 20.8772C1.77047 20.8812 1.79398 20.8868 1.81543 20.8948C1.83887 20.9007 1.86035 20.9093 1.88184 20.9172C1.90323 20.9252 1.92489 20.9327 1.94629 20.9426C1.96771 20.9506 1.98739 20.961 2.00879 20.9709C2.03023 20.9809 2.05178 20.9913 2.07129 21.0032C2.09085 21.0131 2.11325 21.0244 2.13281 21.0364C2.15233 21.0483 2.17189 21.0605 2.19141 21.0745C2.21092 21.0864 2.23048 21.1006 2.24805 21.1145C2.26756 21.1284 2.28517 21.1445 2.30273 21.1584C2.32031 21.1724 2.33789 21.1884 2.35547 21.2043C2.37305 21.2183 2.39062 21.2343 2.40625 21.2522C2.42188 21.2701 2.4375 21.286 2.45312 21.304C2.46872 21.3218 2.48246 21.3398 2.49805 21.3577C2.5136 21.3755 2.52741 21.3955 2.54102 21.4133C2.55667 21.4333 2.56834 21.452 2.58203 21.4719C2.59567 21.4918 2.60744 21.5116 2.61914 21.5315C2.63083 21.5513 2.64259 21.5731 2.65234 21.593C2.66398 21.6148 2.6739 21.6348 2.68359 21.6565C2.69338 21.6764 2.70409 21.699 2.71191 21.7209C2.72162 21.7428 2.72952 21.7646 2.7373 21.7864C2.74513 21.8083 2.75292 21.8308 2.75879 21.8528C2.76462 21.8746 2.77054 21.8984 2.77637 21.9202C2.7822 21.9439 2.78808 21.9658 2.79199 21.9895C2.79591 22.0134 2.7998 22.0359 2.80371 22.0598C2.80566 22.0816 2.80956 22.1054 2.81152 22.1292H2.80957C2.81348 22.1511 2.81543 22.1755 2.81543 22.1995V22.3411C2.81349 22.3629 2.81151 22.3866 2.80957 22.4104C2.80761 22.4343 2.80567 22.4568 2.80176 22.4807C2.79787 22.5045 2.79393 22.5263 2.79004 22.55C2.78613 22.574 2.78028 22.5984 2.77441 22.6204C2.7705 22.6422 2.76268 22.6659 2.75684 22.6877C2.75097 22.7117 2.74318 22.7342 2.73535 22.7561C2.72755 22.7779 2.71775 22.7997 2.70996 22.8215C2.70215 22.8434 2.69141 22.8651 2.68164 22.887C2.67186 22.9089 2.66017 22.9315 2.65039 22.9514C2.64065 22.9732 2.62885 22.9931 2.61719 23.0129C2.60548 23.0328 2.59178 23.0526 2.58008 23.0725C2.56838 23.0924 2.55467 23.1103 2.54102 23.1301C2.52732 23.1501 2.51174 23.1688 2.49805 23.1868C2.48441 23.2046 2.46868 23.2226 2.45312 23.2405C2.43754 23.2584 2.4238 23.2744 2.40625 23.2922C2.38868 23.3101 2.37305 23.3261 2.35547 23.342C2.33787 23.358 2.32033 23.372 2.30273 23.3879C2.28319 23.4039 2.26564 23.4179 2.24805 23.4319C2.2285 23.4478 2.21094 23.4599 2.19141 23.4739C2.17201 23.4877 2.15221 23.4991 2.13281 23.511C2.11325 23.5229 2.09085 23.5332 2.07129 23.5452C2.05179 23.5571 2.03022 23.5675 2.01074 23.5774C1.98934 23.5873 1.96769 23.5948 1.94629 23.6047C1.92478 23.6147 1.90334 23.6231 1.88184 23.6311C1.85844 23.6391 1.83688 23.6466 1.81543 23.6526C1.79392 23.6586 1.77249 23.6652 1.74902 23.6711C1.72757 23.6771 1.70601 23.6828 1.68262 23.6868C1.65927 23.6907 1.63568 23.6945 1.61426 23.6985C1.59091 23.7005 1.56923 23.7053 1.5459 23.7073C1.52242 23.7113 1.50004 23.7131 1.47656 23.7131C1.42978 23.7151 1.38469 23.7151 1.33789 23.7131C1.31449 23.7111 1.29294 23.7093 1.26953 23.7073C1.24608 23.7053 1.22462 23.7025 1.20117 23.6985C1.17775 23.6945 1.15623 23.6907 1.13281 23.6868C1.11137 23.6808 1.08978 23.6771 1.06641 23.6711C1.04496 23.6672 1.02146 23.6586 1 23.6526C0.978615 23.6466 0.956932 23.639 0.935547 23.6311C0.914028 23.6231 0.891636 23.6127 0.870117 23.6047C0.848798 23.5968 0.828966 23.5873 0.807617 23.5774C0.786166 23.5675 0.764618 23.5571 0.745117 23.5452C0.723694 23.5352 0.704059 23.5229 0.68457 23.511C0.665146 23.4991 0.645401 23.4858 0.625977 23.4739C0.606463 23.46 0.588839 23.4458 0.569336 23.4319C0.549832 23.418 0.532202 23.4038 0.514648 23.3879C0.497105 23.374 0.479458 23.3579 0.461914 23.342C0.44439 23.3262 0.426728 23.3101 0.411133 23.2922C0.395575 23.2764 0.379816 23.2602 0.364258 23.2424C0.348731 23.2246 0.334832 23.2065 0.319336 23.1887C0.303686 23.1708 0.289085 23.15 0.275391 23.1321C0.25995 23.1143 0.247946 23.0942 0.234375 23.0745C0.220783 23.0546 0.208935 23.0347 0.197266 23.0149C0.185585 22.995 0.175745 22.9752 0.164062 22.9534C0.152325 22.9314 0.142594 22.9109 0.132812 22.8889C0.123109 22.8671 0.115195 22.8453 0.105469 22.8235C0.0957427 22.8017 0.0878612 22.7799 0.0800781 22.7581C0.0722529 22.7361 0.0664189 22.7116 0.0585938 22.6897C0.0527586 22.6679 0.0468507 22.6461 0.0410156 22.6223C0.0351467 22.6004 0.0293032 22.5759 0.0253906 22.554C0.0215023 22.5302 0.0175602 22.5084 0.0136719 22.4846C0.0117156 22.4627 0.00781567 22.4382 0.00585938 22.4143C0.00199155 22.3905 3.72803e-06 22.3687 0 22.345V22.2034C0.0019563 22.1814 0.00390308 22.157 0.00585938 22.1331C0.00780281 22.1093 0.00978517 22.0875 0.0136719 22.0637C0.0175602 22.0399 0.0215023 22.0181 0.0253906 21.9944C0.0312595 21.9705 0.0351467 21.948 0.0410156 21.9241C0.0468495 21.9023 0.0527599 21.8785 0.0585938 21.8567C0.0644627 21.8328 0.0722529 21.8103 0.0800781 21.7883C0.0878621 21.7665 0.0957491 21.7447 0.105469 21.7229C0.113238 21.7011 0.123101 21.6812 0.132812 21.6594C0.142594 21.6375 0.152325 21.6149 0.164062 21.595C0.173803 21.5731 0.185581 21.5533 0.197266 21.5334C0.20892 21.5136 0.220805 21.4937 0.234375 21.4739C0.246113 21.4539 0.259743 21.4332 0.273438 21.4153C0.287124 21.3973 0.303699 21.3776 0.317383 21.3596C0.331009 21.3418 0.346763 21.3237 0.362305 21.3059C0.377881 21.288 0.393609 21.27 0.411133 21.2542C0.428666 21.2383 0.444368 21.2222 0.461914 21.2063C0.479476 21.1904 0.497086 21.1763 0.514648 21.1604C0.532228 21.1445 0.551764 21.1324 0.569336 21.1165C0.586918 21.1005 0.606448 21.0884 0.625977 21.0745C0.645509 21.0605 0.665038 21.0483 0.68457 21.0364C0.704013 21.0245 0.725663 21.015 0.745117 21.0032C0.76655 20.9913 0.788117 20.9809 0.807617 20.9709C0.827111 20.961 0.848674 20.9506 0.870117 20.9426C0.891636 20.9327 0.914028 20.9252 0.935547 20.9172C0.956944 20.9093 0.978603 20.9007 1 20.8948C1.02138 20.8888 1.04309 20.8831 1.06641 20.8772C1.08786 20.8712 1.11137 20.8655 1.13281 20.8616C1.15623 20.8576 1.17775 20.8538 1.20117 20.8499C1.22462 20.8479 1.24609 20.8431 1.26953 20.8411C1.29293 20.8371 1.3145 20.8352 1.33789 20.8352H1.47461C1.49613 20.8372 1.52047 20.8391 1.54395 20.8411ZM20.1777 12.1233L20.2617 12.0334C21.1145 11.1283 21.8555 10.2307 22.4658 9.36743L24.1602 10.7795C22.9181 12.3645 21.9084 13.5765 21.1553 14.3821C20.858 13.9655 20.557 13.5925 20.2617 13.2776L20.1777 13.1877V20.7776L20.252 20.7317C21.3259 20.0777 22.2099 19.4412 22.875 18.8411L22.9043 18.8157L22.8848 18.7815C22.2783 17.6489 21.74 16.2588 21.2842 14.6497L23.2725 13.6311C23.5756 14.8092 23.9058 15.8101 24.2578 16.6116L24.3027 16.7131L24.3486 16.6096C24.8786 15.3837 25.1873 14.3807 25.2695 13.6311L27.3242 14.5696C26.8665 16.1847 26.3281 17.6031 25.7236 18.7815L25.7061 18.8157L25.708 18.8137L25.7354 18.8391C26.4963 19.543 27.5156 20.1709 28.7695 20.7092C28.2571 21.423 27.8072 22.3009 27.4355 23.3176C26.0858 22.4623 25.0451 21.6746 24.3408 20.9788L24.3047 20.9446L24.2715 20.9807C23.6161 21.6786 22.5461 22.5479 21.0947 23.5647C20.7466 22.8272 20.4437 22.2627 20.1934 21.8899L20.1348 21.804L20.1055 21.9036C19.906 22.5894 19.5554 22.9931 19.0645 23.0989C18.6693 23.1786 18.0646 23.2341 17.2666 23.26C17.116 22.4585 16.9631 21.7262 16.8125 21.0862L16.752 20.8293L16.7168 21.0901C16.6659 21.4649 16.5364 22.0696 16.333 22.885C16.2412 23.1778 16.1729 23.4192 16.124 23.6145C15.5548 22.9606 15.0144 22.3588 14.5117 21.8225C15.169 19.9122 15.4786 16.8551 15.4277 12.7375V4.67212H20.1777V12.1233ZM8.5 20.0959C10.9512 20.0959 12.7984 21.3838 13.0742 21.5872L12.084 23.5471C11.7804 23.3355 10.3582 22.4124 8.49805 22.4124C6.27024 22.4124 4.84644 23.2523 4.57031 23.4299L3.61328 21.4436H3.61523C3.8852 21.2542 5.6615 20.096 8.5 20.0959ZM59.1387 4.64185C60.238 4.64187 61.2321 4.88119 62.1182 5.35767C63.0043 5.83422 63.7072 6.52009 64.2236 7.41333V7.41138C64.742 8.30468 65 9.36198 65 10.5823C65 11.8023 64.7399 12.859 64.2236 13.7522C63.7072 14.6455 63.0043 15.336 62.1182 15.8225C61.2321 16.309 60.238 16.552 59.1387 16.552H55.7412V23.3694H52.3037V4.64185H59.1387ZM37.377 16.7161L40.6729 4.7854L40.7129 4.64185H44.3672L38.8916 23.3577H35.9629L29.79 4.64185H33.4863L37.377 16.7161ZM49.4824 23.3557H46.0537V4.64185H49.4824V23.3557ZM17.1748 17.6526C17.1239 18.6894 17.0198 19.6807 16.8672 20.5979L16.8574 20.6555H17.6846C17.9369 20.6555 18.119 20.5917 18.2305 20.4641C18.336 20.3445 18.376 20.1687 18.3506 19.9495V17.6047H17.1748V17.6526ZM12.8809 13.2219H7.77051L7.7666 14.1731H12.8809V16.5413H7.75293V17.4075H12.8809V19.8616H11.6279C10.5972 19.4251 9.54247 19.2014 8.49219 19.2014V19.1995C7.24421 19.1995 6.04467 19.421 4.92578 19.8596H0.633789V17.4055H5.46191V16.5393H0.633789V14.1711H5.46973L5.47363 13.22H0.633789V4.63501H12.8809V13.2219ZM17.2529 15.0803H18.3506V12.4407H17.2529V15.0803ZM26.0693 9.36353C27.4562 10.8409 28.4444 11.9477 29.0078 12.6516L27.4609 14.301C26.6063 13.2346 25.5951 12.0483 24.4512 10.7747L26.0693 9.36353ZM55.6406 13.262H58.7266C59.2448 13.2619 59.7202 13.1539 60.1484 12.9426C60.5767 12.7293 60.9176 12.4206 61.168 12.0139V12.0178C61.4183 11.6111 61.5429 11.0986 61.543 10.5325C61.543 9.96624 61.4183 9.47926 61.168 9.07251C60.9176 8.66583 60.5767 8.35516 60.1484 8.1438C59.7182 7.93051 59.2448 7.82454 58.7266 7.82446H55.6406V13.262ZM2.6709 10.8528H5.48535L5.49121 9.58032L3.80469 10.4817C3.21071 9.49588 2.86859 8.95922 2.75488 8.84302L2.6709 8.75708V10.8528ZM7.78418 9.50708L7.87402 9.36548C8.12831 8.96671 8.43408 8.45592 8.77832 7.84985C8.91125 7.6486 9.00482 7.49467 9.06152 7.38306L9.06348 7.3811L10.6504 8.3938L10.6035 8.47778C10.1087 9.36093 9.65878 10.0613 9.26367 10.5637L7.78418 9.52075L7.77832 10.8528H10.6934V7.09009H7.7959L7.78418 9.50708ZM17.2529 9.91626H18.3506V7.19458H17.2529V9.91626ZM2.66895 8.24634L4.22949 7.37524C4.5933 7.83977 4.98671 8.47822 5.39746 9.27563L5.48926 9.45337L5.49902 7.09204H2.66895V8.24634ZM25.6416 6.43677L25.6494 6.47681H28.4873V9.24438L28.4893 9.24634H20.5859V6.47876H23.3662L23.3545 6.41821C23.3035 6.15819 23.0548 4.92702 22.9805 4.58618L25.2656 4.42896C25.3322 4.79041 25.5927 6.17563 25.6416 6.43677Z" fill="url(#paint0_linear_3797_93434)"/>
</g>
<defs>
<linearGradient id="paint0_linear_3797_93434" x1="65.397" y1="25.2548" x2="68.7766" y2="7.94672" gradientUnits="userSpaceOnUse">
<stop stop-color="#E1C0B8"/>
<stop offset="1" stop-color="#F5E5E3"/>
</linearGradient>
</defs>
</svg>
