<!-- @no-use-convertColors -->
<svg xmlns="http://www.w3.org/2000/svg" xmlns:xlink="http://www.w3.org/1999/xlink" fill="none" version="1.1" width="39" height="13" viewBox="0 0 39 13"><defs><linearGradient x1="0.9533527493476868" y1="-1.604901598284414e-7" x2="0.0524781160056591" y2="0.9999998211860657" id="master_svg0_6_680"><stop offset="0%" stop-color="#474035" stop-opacity="1"/><stop offset="0.009999999747378752%" stop-color="#473535" stop-opacity="1"/><stop offset="100%" stop-color="#343131" stop-opacity="1"/></linearGradient><linearGradient x1="0.00858865026384592" y1="0.8494802713394165" x2="0.9943768978118896" y2="0.13498008251190186" id="master_svg1_6_647"><stop offset="0%" stop-color="#E1C0B8" stop-opacity="1"/><stop offset="100%" stop-color="#F5E5E3" stop-opacity="1"/></linearGradient></defs><g style="mix-blend-mode:passthrough"><g style="mix-blend-mode:passthrough"><g style="mix-blend-mode:passthrough"><g style="mix-blend-mode:passthrough"><rect x="0" y="0" width="39" height="13" rx="6.5" fill="url(#master_svg0_6_680)" fill-opacity="1"/></g><g style="mix-blend-mode:passthrough"><path d="M17.1752,3.490000009536743L15.2222,3.490000009536743L15.2222,9.508520009536742L16.286099999999998,9.508520009536742L16.286099999999998,6.816010009536743C16.548000000000002,6.968030009536744,16.8509,7.056530009536743,17.1752,7.056530009536743C18.1572,7.056530009536743,18.9533,6.258070009536743,18.9533,5.2732600095367435C18.9533,4.288457009536743,18.1572,3.490000009536743,17.1752,3.490000009536743ZM5.35105,6.475250009536744C5.35105,7.406050009536743,6.10718,8.160670009536744,7.0398499999999995,8.160670009536744C7.8712,8.160670009536744,8.56068,7.560660009536743,8.70096,6.770990009536743L9.59671,8.111910009536743C9.05606,8.951470009536743,8.11416,9.509010009536743,7.0398499999999995,9.509010009536743C5.36095,9.509010009536743,4,8.150780009536742,4,6.475250009536744C4,4.980620009536743,5.08399,3.741279009536743,6.509790000000001,3.490488290536743L7.4046400000000006,4.830280009536743C7.28709,4.804440009536743,7.16528,4.789830009536743,7.0398499999999995,4.789830009536743C6.10718,4.789830009536743,5.35105,5.544450009536743,5.35105,6.475250009536744ZM11.6735,3.490488290536743L11.6735,7.725740009536743L8.783809999999999,3.490488290536743L7.4978,3.490488290536743L11.4986,9.509010009536743L12.73746,9.509010009536743L12.73746,3.490488290536743L11.6735,3.490488290536743ZM13.51929,9.509010009536743L14.5835,9.509010009536743L14.5835,3.490488290536743L13.51929,3.490488290536743L13.51929,9.509010009536743ZM17.9362,5.247510009536743Q17.9362,5.332940009536744,17.9197,5.416730009536743Q17.9032,5.500520009536743,17.8709,5.579440009536743Q17.8386,5.658370009536743,17.7917,5.729400009536743Q17.744799999999998,5.800430009536743,17.6851,5.860840009536743Q17.625500000000002,5.9212500095367435,17.555300000000003,5.968710009536743Q17.4851,6.016170009536744,17.4071,6.048860009536743Q17.3291,6.081550009536743,17.2464,6.098220009536743Q17.163600000000002,6.114890009536744,17.0792,6.114890009536744Q16.994799999999998,6.114890009536744,16.912,6.098220009536743Q16.8292,6.081550009536743,16.7512,6.048860009536743Q16.6732,6.016170009536744,16.603,5.968710009536743Q16.532899999999998,5.9212500095367435,16.4732,5.860840009536743Q16.4135,5.800430009536743,16.3666,5.729400009536743Q16.319699999999997,5.658370009536743,16.287399999999998,5.579440009536743Q16.2551,5.500510009536743,16.238599999999998,5.416730009536743Q16.2222,5.332940009536744,16.2222,5.247510009536743Q16.2222,5.162080009536743,16.238599999999998,5.078290009536743Q16.2551,4.994510009536743,16.287399999999998,4.915580009536743Q16.319699999999997,4.836660009536743,16.3666,4.765620009536743Q16.4135,4.694590009536743,16.4732,4.634180009536744Q16.532899999999998,4.573780009536743,16.603,4.526320009536743Q16.6732,4.478854009536743,16.7512,4.446162009536743Q16.8292,4.413469009536743,16.912,4.396803009536743Q16.994799999999998,4.380137009536743,17.0792,4.380137009536743Q17.163600000000002,4.380137009536743,17.2464,4.396803009536743Q17.3291,4.413469009536743,17.4071,4.446162009536743Q17.4851,4.478854009536743,17.555300000000003,4.526320009536743Q17.625500000000002,4.573780009536743,17.685200000000002,4.634180009536744Q17.744799999999998,4.694590009536743,17.7917,4.765620009536743Q17.8386,4.836660009536743,17.8709,4.915580009536743Q17.9032,4.994510009536743,17.9197,5.078290009536743Q17.9362,5.162080009536743,17.9362,5.247510009536743Z" fill-rule="evenodd" fill="url(#master_svg1_6_647)" fill-opacity="1"/></g><g style="mix-blend-mode:passthrough"><path d="M7.505174936065674,6.4745352734375Q7.505174936065674,6.5372992734375,7.493074936065674,6.5988572734375Q7.480974936065674,6.6604152734375,7.457244936065674,6.7184022734374995Q7.433514936065674,6.7763882734375,7.399064936065674,6.8285752734375Q7.364604936065674,6.8807602734375,7.320754936065674,6.9251402734375Q7.276904936065674,6.9695202734374995,7.225347936065674,7.0043902734375Q7.1737859360656735,7.0392602734375,7.116492936065674,7.0632802734375Q7.059200936065674,7.0873002734375,6.998378936065674,7.0995402734374995Q6.937557936065674,7.1117902734375,6.8755449360656735,7.1117902734375Q6.813531936065674,7.1117902734375,6.752709936065674,7.0995402734374995Q6.691887936065674,7.0873002734375,6.634595936065674,7.0632802734375Q6.577302936065674,7.0392602734375,6.525740936065674,7.0043902734375Q6.474178936065674,6.9695202734374995,6.430328936065674,6.9251402734375Q6.386478936065674,6.8807602734375,6.352026936065674,6.8285752734375Q6.317574036065674,6.7763882734375,6.293842636065674,6.7184022734374995Q6.270111236065674,6.6604152734375,6.258013136065673,6.5988572734375Q6.245914936065674,6.5372992734375,6.245914936065674,6.4745352734375Q6.245914936065674,6.4117712734375,6.258013136065673,6.3502132734375Q6.270111236065674,6.2886542734375,6.293842636065674,6.2306682734375Q6.317574036065674,6.1726812734375,6.352026936065674,6.1204952734375Q6.386478936065674,6.0683092734375,6.430328936065674,6.0239282734375Q6.474178936065674,5.9795472734375,6.525740936065674,5.9446772734375Q6.577302936065674,5.9098071734375,6.634595936065674,5.8857883734375Q6.691887936065674,5.8617695734375,6.752709936065674,5.8495249734375Q6.813531936065674,5.8372802734375,6.8755449360656735,5.8372802734375Q6.937557936065674,5.8372802734375,6.998378936065674,5.8495249734375Q7.059200936065674,5.8617695734375,7.116492936065674,5.8857883734375Q7.1737859360656735,5.9098071734375,7.225347936065674,5.9446772734375Q7.276904936065674,5.9795472734375,7.320754936065674,6.0239282734375Q7.364604936065674,6.0683092734375,7.399064936065674,6.1204952734375Q7.433514936065674,6.1726812734375,7.457244936065674,6.2306682734375Q7.480974936065674,6.2886542734375,7.493074936065674,6.3502132734375Q7.505174936065674,6.4117712734375,7.505174936065674,6.4745352734375Z" fill="#FC5053" fill-opacity="1"/></g></g></g><g style="mix-blend-mode:passthrough"><path d="M21.587891,3.08087L21.587891,9.22866L22.0778,9.22866L22.0778,3.56394L23.23307,3.56394C23.05078,4.145,22.79102,4.80353,22.46289,5.53269C22.9528,6.12059,23.19661,6.65835,23.19661,7.13458C23.19661,7.28269,23.14876,7.38751,23.06445,7.44904C22.97331,7.506,22.79785,7.54018,22.53809,7.55613C22.46973,7.55613,22.37858,7.54018,22.26693,7.52651L22.43327,8.03921C22.93913,8.03009,23.28776,7.94806,23.483719999999998,7.78628C23.625,7.65411,23.7002,7.43536,23.7002,7.13458C23.67285,6.631,23.42904,6.07046,22.98014,5.45522C23.27409,4.76935,23.52702,4.11766,23.73665,3.48875L23.73665,3.08087L21.587891,3.08087ZM24.56152,4.83087L26.62825,4.83087L26.62825,5.62384L24.56152,5.62384L24.56152,4.83087ZM26.62825,4.37059L24.56152,4.37059L24.56152,3.56394L26.62825,3.56394L26.62825,4.37059ZM25.36816,6.08413C25.60514,7.39435,26.31152,8.42202,27.47363,9.16486L27.75391,8.72508C27.22298,8.40835,26.80143,8.03009,26.48014,7.59031C26.87891,7.38751,27.23665,7.09357,27.557940000000002,6.71531L27.22982,6.38491C26.91536,6.76316,26.58496,7.04344,26.25,7.23256C26.0472,6.88393,25.905920000000002,6.49884,25.82161,6.08413L27.11816,6.08413L27.11816,3.08771L24.06478,3.08771L24.06478,8.50633C24.06478,8.57697,24.010089999999998,8.63393,23.91211,8.66811L24.0306,9.10105C24.79395,8.89825,25.42285,8.68862,25.92643,8.47215L25.81478,8.00275C25.40234,8.19187,24.98307,8.35366,24.56152,8.47898L24.56152,6.08413L25.36816,6.08413ZM29.22363,4.86733L29.22363,6.84064L30.93262,6.84064C30.889319999999998,6.93862,30.848309999999998,7.04344,30.798180000000002,7.14142C30.40625,7.81362,29.59505,8.381,28.37598,8.8299L28.69954,9.22866C30.05762,8.70229,30.93262,8.03921,31.3109,7.22573C31.3656,7.1004,31.4225,6.97508,31.470399999999998,6.84064L31.835,6.84064L31.835,8.37417C31.835,8.86407,32.0514,9.11017,32.4867,9.11017L33.8584,9.11017C34.1045,9.11017,34.277699999999996,9.04637,34.3893,8.92104C34.5169,8.77293,34.6012,8.36049,34.649100000000004,7.68829L34.166,7.53335C34.1455,8.05971,34.1045,8.37417,34.0339,8.48582C33.9769,8.57013,33.8926,8.62026,33.7673,8.62026L32.6393,8.62026C32.4365,8.62026,32.338499999999996,8.49949,32.338499999999996,8.26935L32.338499999999996,6.84064L33.935900000000004,6.84064L33.935900000000004,4.71922L32.2201,4.71922C32.5072,4.46857,32.7943,4.15867,33.0882,3.79637L33.0882,3.41128L30.67285,3.41128C30.798180000000002,3.24266,30.918950000000002,3.0672,31.0306,2.88491L30.52702,2.76642C29.95964,3.63458,29.237299999999998,4.32729,28.35547,4.86049L28.67904,5.24559C28.85905,5.12482,29.041339999999998,4.99949,29.22363,4.86733ZM31.575200000000002,4.71922L29.41276,4.71922C29.73405,4.46173,30.027990000000003,4.18146,30.30143,3.87384L32.4297,3.87384C32.1494,4.19513,31.8691,4.4754,31.575200000000002,4.71922ZM33.452799999999996,6.3644L31.6117,6.3644C31.695999999999998,6.00893,31.737000000000002,5.617,31.750700000000002,5.18862L33.452799999999996,5.18862L33.452799999999996,6.3644ZM31.0853,6.3644L29.713540000000002,6.3644L29.713540000000002,5.18862L31.2471,5.18862C31.2334,5.617,31.1764,6.00893,31.0853,6.3644Z" fill="#FFE3DF" fill-opacity="1"/></g></g></svg>
