<svg width="65" height="28" viewBox="0 0 65 28" fill="none" xmlns="http://www.w3.org/2000/svg">
<mask id="mask0_3797_93410" style="mask-type:alpha" maskUnits="userSpaceOnUse" x="0" y="0" width="65" height="28">
<rect width="65" height="28" fill="#D9D9D9"/>
</mask>
<g mask="url(#mask0_3797_93410)">
<path d="M1.54395 20.7874C1.56725 20.7893 1.58897 20.7912 1.6123 20.7952C1.63566 20.7991 1.65729 20.8029 1.68066 20.8069C1.70408 20.8128 1.7256 20.8175 1.74902 20.8235C1.77049 20.8275 1.79397 20.8331 1.81543 20.8411C1.83883 20.847 1.86039 20.8546 1.88184 20.8625C1.90333 20.8705 1.9248 20.879 1.94629 20.8889C1.96769 20.8968 1.98741 20.9064 2.00879 20.9163C2.03022 20.9262 2.05179 20.9366 2.07129 20.9485C2.09085 20.9584 2.11325 20.9698 2.13281 20.9817C2.15233 20.9936 2.17188 21.0059 2.19141 21.0198C2.21091 21.0317 2.23049 21.0459 2.24805 21.0598C2.26752 21.0737 2.28519 21.0899 2.30273 21.1038C2.32026 21.1176 2.33794 21.1338 2.35547 21.1497C2.37291 21.1635 2.39073 21.1788 2.40625 21.1965C2.42182 21.2143 2.43756 21.2305 2.45312 21.2483C2.46868 21.2661 2.48251 21.2842 2.49805 21.302C2.51358 21.3198 2.52742 21.3399 2.54102 21.3577C2.55667 21.3776 2.56834 21.3964 2.58203 21.4163C2.59568 21.4361 2.60744 21.456 2.61914 21.4758C2.63086 21.4957 2.64258 21.5175 2.65234 21.5374C2.66405 21.5592 2.67384 21.579 2.68359 21.6008C2.69338 21.6207 2.70409 21.6424 2.71191 21.6643C2.72166 21.6861 2.72951 21.7079 2.7373 21.7297C2.74513 21.7516 2.75292 21.7743 2.75879 21.7961C2.76462 21.8179 2.77054 21.8418 2.77637 21.8635C2.78221 21.8873 2.78809 21.9091 2.79199 21.9329C2.79588 21.9566 2.79982 21.9785 2.80371 22.0022C2.80567 22.0241 2.80957 22.0486 2.81152 22.0725H2.80957C2.81345 22.0943 2.81543 22.1181 2.81543 22.1418V22.2834C2.81348 22.3053 2.81152 22.329 2.80957 22.3528C2.80762 22.3765 2.80564 22.3984 2.80176 22.4221C2.79784 22.446 2.79395 22.4686 2.79004 22.4924C2.78613 22.5162 2.78026 22.54 2.77441 22.5618C2.77051 22.5836 2.76269 22.6073 2.75684 22.6292C2.75101 22.6528 2.74312 22.6748 2.73535 22.6965C2.72753 22.7184 2.71779 22.7411 2.70996 22.7629C2.70215 22.7848 2.6914 22.8065 2.68164 22.8284C2.67189 22.8502 2.66013 22.872 2.65039 22.8918C2.64062 22.9137 2.6289 22.9335 2.61719 22.9534C2.60547 22.9732 2.5918 22.9931 2.58008 23.0129C2.56837 23.0328 2.55468 23.0507 2.54102 23.0706C2.52737 23.0904 2.51171 23.1084 2.49805 23.1262C2.4844 23.1441 2.46872 23.1621 2.45312 23.1799C2.43753 23.1978 2.42377 23.2139 2.40625 23.2317C2.38871 23.2495 2.373 23.2656 2.35547 23.2815C2.33792 23.2974 2.32029 23.3115 2.30273 23.3274C2.28322 23.3433 2.26561 23.3574 2.24805 23.3713C2.22852 23.3872 2.21093 23.3994 2.19141 23.4133C2.17201 23.4271 2.1522 23.4386 2.13281 23.4504C2.11325 23.4624 2.09085 23.4727 2.07129 23.4846C2.0518 23.4965 2.03021 23.5069 2.01074 23.5168C1.98936 23.5267 1.96767 23.5343 1.94629 23.5442C1.92481 23.5541 1.90331 23.5626 1.88184 23.5706C1.85844 23.5785 1.83688 23.5861 1.81543 23.592C1.79396 23.598 1.77243 23.6037 1.74902 23.6096C1.72755 23.6156 1.70604 23.6222 1.68262 23.6262C1.65925 23.6302 1.6357 23.634 1.61426 23.6379C1.59092 23.6399 1.56921 23.6438 1.5459 23.6458C1.52242 23.6497 1.50004 23.6516 1.47656 23.6516C1.42977 23.6536 1.3847 23.6536 1.33789 23.6516C1.3145 23.6496 1.29293 23.6477 1.26953 23.6458C1.2461 23.6438 1.2246 23.6419 1.20117 23.6379C1.17775 23.634 1.15623 23.6302 1.13281 23.6262C1.11133 23.6203 1.08984 23.6156 1.06641 23.6096C1.04498 23.6057 1.02144 23.598 1 23.592C0.978645 23.5861 0.956902 23.5785 0.935547 23.5706C0.914028 23.5626 0.891636 23.5521 0.870117 23.5442C0.848771 23.5363 0.82899 23.5267 0.807617 23.5168C0.786147 23.5069 0.764635 23.4965 0.745117 23.4846C0.723683 23.4747 0.704068 23.4623 0.68457 23.4504C0.665132 23.4386 0.645414 23.4252 0.625977 23.4133C0.606433 23.3994 0.588876 23.3853 0.569336 23.3713C0.549777 23.3574 0.532251 23.3433 0.514648 23.3274C0.497042 23.3135 0.479521 23.2974 0.461914 23.2815C0.444312 23.2656 0.426779 23.2496 0.411133 23.2317C0.39549 23.2158 0.379901 23.1998 0.364258 23.1819C0.348625 23.164 0.334972 23.1461 0.319336 23.1282C0.30369 23.1103 0.289082 23.0904 0.275391 23.0725C0.259932 23.0547 0.247957 23.0346 0.234375 23.0149C0.220796 22.9951 0.208927 22.9751 0.197266 22.9553C0.185604 22.9355 0.175743 22.9156 0.164062 22.8938C0.152366 22.872 0.142567 22.8521 0.132812 22.8303C0.123064 22.8085 0.115205 22.7867 0.105469 22.7649C0.0956873 22.743 0.0879033 22.7204 0.0800781 22.6985C0.0723267 22.6767 0.0663696 22.6528 0.0585938 22.6311C0.0527463 22.6093 0.0468631 22.5875 0.0410156 22.5637C0.0351753 22.5419 0.0293031 22.5181 0.0253906 22.4963C0.021478 22.4725 0.0175845 22.4499 0.0136719 22.426C0.0117054 22.4042 0.00780528 22.3804 0.00585938 22.3567C0.00196588 22.3329 1.24368e-05 22.3111 0 22.2874V22.1458C0.00194811 22.124 0.00391127 22.1002 0.00585938 22.0764C0.00780372 22.0527 0.00980689 22.0308 0.0136719 22.0071C0.0175845 21.9832 0.021478 21.9606 0.0253906 21.9368C0.0312248 21.913 0.0351729 21.8912 0.0410156 21.8674C0.0468574 21.8457 0.052752 21.8218 0.0585938 21.8C0.0644627 21.7762 0.0722529 21.7536 0.0800781 21.7317C0.0878635 21.7099 0.0957371 21.688 0.105469 21.6663C0.113279 21.6444 0.123059 21.6246 0.132812 21.6028C0.142556 21.581 0.152385 21.5591 0.164062 21.5393C0.173784 21.5176 0.185599 21.4976 0.197266 21.4778C0.208914 21.458 0.220815 21.438 0.234375 21.4182C0.246 21.3985 0.259876 21.3784 0.273438 21.3606C0.287132 21.3427 0.303689 21.3219 0.317383 21.304C0.330983 21.2862 0.346803 21.268 0.362305 21.2502C0.377803 21.2325 0.393703 21.2152 0.411133 21.1995C0.428719 21.1836 0.444332 21.1675 0.461914 21.1516C0.479509 21.1357 0.497054 21.1216 0.514648 21.1057C0.532255 21.0898 0.551729 21.0777 0.569336 21.0618C0.586941 21.0459 0.606415 21.0337 0.625977 21.0198C0.645522 21.0059 0.665025 20.9936 0.68457 20.9817C0.704025 20.9698 0.725653 20.9603 0.745117 20.9485C0.766574 20.9366 0.788099 20.9262 0.807617 20.9163C0.827038 20.9064 0.848755 20.8968 0.870117 20.8889C0.891636 20.879 0.914028 20.8705 0.935547 20.8625C0.956912 20.8546 0.978635 20.847 1 20.8411C1.02143 20.8351 1.04303 20.8294 1.06641 20.8235C1.0879 20.8175 1.11132 20.8109 1.13281 20.8069C1.15623 20.8029 1.17774 20.7991 1.20117 20.7952C1.22461 20.7932 1.2461 20.7893 1.26953 20.7874C1.29293 20.7834 1.3145 20.7815 1.33789 20.7815H1.47461C1.49613 20.7835 1.52047 20.7854 1.54395 20.7874ZM20.1777 12.0901L20.2617 12.0002C21.1144 11.0974 21.8556 10.2022 22.4658 9.34106L24.1602 10.7493C22.9181 12.3305 21.9084 13.5404 21.1553 14.344C20.8579 13.9283 20.5571 13.5557 20.2617 13.2415L20.1777 13.1516V20.7229L20.252 20.678C21.3259 20.0255 22.2099 19.39 22.875 18.7913L22.9043 18.7659L22.8848 18.7317C22.2784 17.6019 21.7399 16.2157 21.2842 14.6106L23.2725 13.594C23.5756 14.7694 23.9058 15.7681 24.2578 16.5676L24.3027 16.6692L24.3486 16.5657C24.8786 15.3426 25.1873 14.3419 25.2695 13.594L27.3242 14.5305C26.8665 16.1416 26.328 17.5561 25.7236 18.7317L25.7061 18.7659L25.708 18.7639L25.7354 18.7893C26.4963 19.4915 27.5156 20.1184 28.7695 20.6555C28.257 21.3676 27.8072 22.2436 27.4355 23.2581C26.0858 22.4047 25.0451 21.6183 24.3408 20.9241L24.3047 20.8909L24.2715 20.926C23.6161 21.6222 22.5462 22.4897 21.0947 23.5042C20.7466 22.7683 20.4437 22.2052 20.1934 21.8333L20.1348 21.7483L20.1055 21.8469C19.906 22.5311 19.5554 22.9338 19.0645 23.0393C18.6693 23.1189 18.0646 23.1746 17.2666 23.2004C17.116 22.4008 16.9631 21.67 16.8125 21.0315L16.752 20.7747L16.7168 21.0354C16.6659 21.4094 16.5364 22.0129 16.333 22.8264C16.2412 23.1185 16.1729 23.3592 16.124 23.554C15.5548 22.9015 15.0145 22.301 14.5117 21.7659C15.169 19.8601 15.4786 16.8102 15.4277 12.7024V4.65552H20.1777V12.0901ZM8.5 20.0432C10.9512 20.0432 12.7984 21.3286 13.0742 21.5315L12.084 23.4866C11.7804 23.2755 10.3581 22.3547 8.49805 22.3547C6.27064 22.3548 4.84681 23.192 4.57031 23.3694L3.61328 21.3879H3.61523C3.88532 21.1989 5.66163 20.0433 8.5 20.0432ZM59.1387 4.62622C60.2379 4.62624 61.2321 4.86476 62.1182 5.34009C63.0042 5.81549 63.7072 6.49981 64.2236 7.39087V7.38892C64.742 8.28003 65 9.33472 65 10.552C65 11.7693 64.74 12.824 64.2236 13.7151C63.7072 14.6063 63.0043 15.2951 62.1182 15.7805C61.2321 16.2658 60.2379 16.508 59.1387 16.5081H55.7412V23.3098H52.3037V4.62622H59.1387ZM37.377 16.6711L40.6729 4.76978L40.7129 4.62622H44.3672L38.8916 23.2981H35.9629L29.79 4.62622H33.4863L37.377 16.6711ZM49.4824 23.2961H46.0537V4.62622H49.4824V23.2961ZM17.1748 17.6057C17.1239 18.64 17.0198 19.6292 16.8672 20.5442L16.8574 20.6018H17.6846C17.9366 20.6018 18.1189 20.5384 18.2305 20.4114C18.336 20.292 18.376 20.1164 18.3506 19.8977V17.5588H17.1748V17.6057ZM12.8809 13.1858H7.77051L7.7666 14.134H12.8809V16.4973H7.75293V17.3616H12.8809V19.8098H11.6279C10.5972 19.3744 9.54248 19.1516 8.49219 19.1516V19.1497C7.24421 19.1497 6.04467 19.3703 4.92578 19.8079H0.633789V17.3586H5.46191V16.4954H0.633789V14.1321H5.46973L5.47363 13.1838H0.633789V4.61938H12.8809V13.1858ZM17.2529 15.0403H18.3506V12.4065H17.2529V15.0403ZM26.0693 9.33716C27.4563 10.8112 28.4444 11.9152 29.0078 12.6174L27.4609 14.262C26.6063 13.1981 25.5951 12.015 24.4512 10.7444L26.0693 9.33716ZM55.6406 13.2258H58.7266C59.2448 13.2258 59.7202 13.1183 60.1484 12.9075C60.5768 12.6946 60.9176 12.3865 61.168 11.9807V11.9846C61.4183 11.5788 61.543 11.0671 61.543 10.5022C61.5429 9.93744 61.4183 9.45185 61.168 9.04614C60.9176 8.6404 60.5768 8.33024 60.1484 8.11938C59.7182 7.90661 59.2448 7.8011 58.7266 7.80103H55.6406V13.2258ZM2.6709 10.8225H5.48535L5.49121 9.55298L3.80469 10.4524C3.21015 9.468 2.86833 8.93201 2.75488 8.81665L2.6709 8.73169V10.8225ZM7.78418 9.47974L7.87402 9.33813C8.12831 8.94031 8.43408 8.43104 8.77832 7.82642C8.91123 7.62566 9.00482 7.47193 9.06152 7.3606L9.06348 7.35864L10.6504 8.36938L10.6035 8.45337C10.1088 9.33417 9.6587 10.0322 9.26367 10.5334L7.78418 9.49341L7.77832 10.8225H10.6934V7.0686H7.7959L7.78418 9.47974ZM17.2529 9.88794H18.3506V7.17212H17.2529V9.88794ZM2.66895 8.22192L4.22949 7.35278C4.59324 7.81614 4.98679 8.45294 5.39746 9.24829L5.48926 9.42603L5.49902 7.07056H2.66895V8.22192ZM25.6416 6.41626L25.6494 6.4563H28.4873V9.21704L28.4893 9.21899H20.5859V6.45825H23.3662L23.3545 6.39868C23.3036 6.1401 23.0548 4.91086 22.9805 4.57056L25.2656 4.41333C25.3321 4.77342 25.5926 6.15529 25.6416 6.41626Z" fill="url(#paint0_linear_3797_93410)"/>
</g>
<defs>
<linearGradient id="paint0_linear_3797_93410" x1="65.397" y1="25.1896" x2="68.7612" y2="7.91971" gradientUnits="userSpaceOnUse">
<stop stop-color="#493F3F"/>
<stop offset="1" stop-color="#5B4D4D"/>
</linearGradient>
</defs>
</svg>
