<svg width="32" height="32" viewBox="0 0 32 32" fill="none" xmlns="http://www.w3.org/2000/svg">
<path d="M12.1064 13.5264L16.9951 22.2451C16.9751 22.2463 16.9548 22.25 16.9346 22.25H14.1836C13.8134 22.25 13.4704 22.0537 13.2832 21.7344L8.58984 13.7305C8.55178 13.6656 8.52387 13.5962 8.50098 13.5264H12.1064ZM23.4951 10.707C23.5112 10.8961 23.4774 11.0936 23.3779 11.2812L17.8564 21.6963C17.8148 21.7748 17.7624 21.8453 17.7041 21.9092L13.0029 13.5264H18.75C19.2662 13.5263 19.7704 13.365 20.1904 13.0654L23.4951 10.707ZM11.6689 12.7451H8.55469C8.56482 12.7244 8.57337 12.7028 8.58496 12.6826L9.9707 10.2734C10.0205 10.1869 10.0824 10.1093 10.1523 10.042L11.6689 12.7451ZM22.457 9.75C22.724 9.75008 22.957 9.84819 23.1357 10.0029L19.7354 12.4297C19.448 12.6346 19.1031 12.745 18.75 12.7451H12.5654L10.8857 9.75H22.457Z" fill="#EBB52A"/>
</svg>
