<svg width="32" height="13" viewBox="0 0 32 13" fill="none" xmlns="http://www.w3.org/2000/svg">
<path d="M3 0.25H29C30.5188 0.25 31.75 1.48122 31.75 3V10C31.75 11.5188 30.5188 12.75 29 12.75H3C1.48122 12.75 0.25 11.5188 0.25 10V3C0.25 1.48122 1.48122 0.25 3 0.25Z" stroke="#D3A03B" stroke-width="0.5"/>
<path d="M6.694 2.111H7.306C8.431 3.272 9.727 4.19 11.194 4.856L10.771 5.621C10.321 5.405 9.907 5.18 9.511 4.928V5.738H7.432V7.088H9.961V7.916H7.432V9.338H10.78V10.175H3.229V9.338H6.568V7.916H4.03V7.088H6.568V5.738H4.489V4.928C4.075 5.18 3.643 5.414 3.193 5.639L2.779 4.892C4.345 4.145 5.65 3.218 6.694 2.111ZM4.507 4.919H9.493C8.557 4.343 7.72 3.659 7 2.885C6.316 3.641 5.479 4.316 4.507 4.919ZM13.129 6.53H18.961V8.447H16.54V9.527C16.54 10.103 16.27 10.391 15.748 10.391H14.65L14.47 9.599C14.821 9.635 15.154 9.653 15.469 9.653C15.613 9.653 15.694 9.545 15.694 9.329V8.447H13.129V6.53ZM18.124 7.781V7.187H13.957V7.781H18.124ZM12.949 2.345H19.06V5.054H16.333C16.396 5.18 16.459 5.315 16.513 5.45H20.005V6.161H11.995V5.45H15.586C15.514 5.306 15.433 5.18 15.352 5.054H12.949V2.345ZM18.223 4.388V4.001H13.786V4.388H18.223ZM13.786 3.398H18.223V3.011H13.786V3.398ZM17.593 8.654C18.466 8.861 19.312 9.167 20.122 9.563L19.816 10.346C18.988 9.914 18.133 9.572 17.242 9.329L17.593 8.654ZM14.092 8.591L14.623 9.14C14.029 9.635 13.282 10.04 12.364 10.355L11.887 9.653C12.859 9.365 13.597 9.005 14.092 8.591ZM21.067 2.786H24.568V2.129H25.432V2.786H28.924V3.56H25.432V4.199H28.456V4.964H21.562V4.199H24.568V3.56H21.067V2.786ZM24.658 6.233H22.588V6.782C22.588 6.89 22.579 7.007 22.579 7.115H24.658V6.233ZM25.522 7.115H27.466V6.233H25.522V7.115ZM22.507 7.871C22.372 8.861 22.057 9.734 21.553 10.499L20.842 9.869C21.436 9.077 21.733 8.042 21.742 6.782V5.486H28.294V7.871H22.507Z" fill="#D3A03B"/>
</svg>
