<svg width="36" height="16" viewBox="0 0 36 16" fill="none" xmlns="http://www.w3.org/2000/svg">
<path d="M3.69238 0.5H32.3076C34.0707 0.5 35.5 1.92932 35.5 3.69238V12.3076C35.5 14.0707 34.0707 15.5 32.3076 15.5H3.69238C1.92932 15.5 0.5 14.0707 0.5 12.3076V3.69238C0.5 1.92932 1.92932 0.5 3.69238 0.5Z" stroke="#D3A03B"/>
<path d="M7.9598 3.79H8.63981C9.88981 5.08 11.3298 6.1 12.9598 6.84L12.4898 7.69C11.9898 7.45 11.5298 7.2 11.0898 6.92V7.82H8.77981V9.32H11.5898V10.24H8.77981V11.82H12.4998V12.75H4.1098V11.82H7.8198V10.24H4.9998V9.32H7.8198V7.82H5.5098V6.92C5.0498 7.2 4.5698 7.46 4.0698 7.71L3.6098 6.88C5.3498 6.05 6.7998 5.02 7.9598 3.79ZM5.5298 6.91H11.0698C10.0298 6.27 9.09981 5.51 8.2998 4.65C7.5398 5.49 6.6098 6.24 5.5298 6.91ZM15.1098 8.7H21.5898V10.83H18.8998V12.03C18.8998 12.67 18.5998 12.99 18.0198 12.99H16.7998L16.5998 12.11C16.9898 12.15 17.3598 12.17 17.7098 12.17C17.8698 12.17 17.9598 12.05 17.9598 11.81V10.83H15.1098V8.7ZM20.6598 10.09V9.43H16.0298V10.09H20.6598ZM14.9098 4.05H21.6998V7.06H18.6698C18.7398 7.2 18.8098 7.35 18.8698 7.5H22.7498V8.29H13.8498V7.5H17.8398C17.7598 7.34 17.6698 7.2 17.5798 7.06H14.9098V4.05ZM20.7698 6.32V5.89H15.8398V6.32H20.7698ZM15.8398 5.22H20.7698V4.79H15.8398V5.22ZM20.0698 11.06C21.0398 11.29 21.9798 11.63 22.8798 12.07L22.5398 12.94C21.6198 12.46 20.6698 12.08 19.6798 11.81L20.0698 11.06ZM16.1798 10.99L16.7698 11.6C16.1098 12.15 15.2798 12.6 14.2598 12.95L13.7298 12.17C14.8098 11.85 15.6298 11.45 16.1798 10.99ZM23.9298 4.54H27.8198V3.81H28.7798V4.54H32.6598V5.4H28.7798V6.11H32.1398V6.96H24.4798V6.11H27.8198V5.4H23.9298V4.54ZM27.9198 8.37H25.6198V8.98C25.6198 9.1 25.6098 9.23 25.6098 9.35H27.9198V8.37ZM28.8798 9.35H31.0398V8.37H28.8798V9.35ZM25.5298 10.19C25.3798 11.29 25.0298 12.26 24.4698 13.11L23.6798 12.41C24.3398 11.53 24.6698 10.38 24.6798 8.98V7.54H31.9598V10.19H25.5298Z" fill="#D3A03B"/>
</svg>
