<svg xmlns="http://www.w3.org/2000/svg" xmlns:xlink="http://www.w3.org/1999/xlink" fill="none" version="1.1" width="60" height="16" viewBox="0 0 60 16"><defs><filter id="master_svg0_396_37351" filterUnits="objectBoundingBox" color-interpolation-filters="sRGB" x="0" y="0" width="14.666666984558105" height="14.66666030883789"><feFlood flood-opacity="0" result="BackgroundImageFix"/><feBlend mode="normal" in="SourceGraphic" in2="BackgroundImageFix" result="shape"/><feColorMatrix in="SourceAlpha" type="matrix" result="hardAlpha" values="0 0 0 0 0 0 0 0 0 0 0 0 0 0 0 0 0 0 127 0"/><feOffset dy="0" dx="0"/><feGaussianBlur stdDeviation="0"/><feComposite in2="hardAlpha" operator="arithmetic" k2="-1" k3="1"/><feColorMatrix type="matrix" values="0 0 0 0 1 0 0 0 0 1 0 0 0 0 1 0 0 0 0.05999999865889549 0"/><feBlend mode="normal" in2="shape" result="effect1_innerShadow"/></filter><radialGradient cx="0" cy="0" r="1" gradientUnits="userSpaceOnUse" id="master_svg1_42_4211" gradientTransform="translate(7.999593257904053 7.999528884887695) rotate(90) scale(7.333330154418945 7.333333492279054)"><stop offset="6.128883361816406%" stop-color="#D7D7D7" stop-opacity="1"/><stop offset="14.380735158920288%" stop-color="#E5E5E5" stop-opacity="1"/><stop offset="27.444058656692505%" stop-color="#D7D7D7" stop-opacity="1"/><stop offset="34.643688797950745%" stop-color="#E5E5E5" stop-opacity="1"/><stop offset="40.43620526790619%" stop-color="#FFFFFF" stop-opacity="1"/><stop offset="46.415191888809204%" stop-color="#E5E5E5" stop-opacity="1"/><stop offset="54.77601885795593%" stop-color="#D7D7D7" stop-opacity="1"/><stop offset="65.18139839172363%" stop-color="#E5E5E5" stop-opacity="1"/><stop offset="74.55604672431946%" stop-color="#D7D7D7" stop-opacity="1"/><stop offset="82.65019059181213%" stop-color="#E5E5E5" stop-opacity="1"/><stop offset="89.39043879508972%" stop-color="#FFFFFF" stop-opacity="1"/><stop offset="95.66594362258911%" stop-color="#E5E5E5" stop-opacity="1"/></radialGradient></defs><g><g><path d="M16.115038828125,2.523383359375C16.114328828125,2.520703359375,16.113618828125,2.518013359375,16.112918828125,2.515333359375C17.344238828125,1.323102359375,19.045298828125,0.585693359375,20.924228828125,0.585693359375C22.960158828125,0.585693359375,24.787248828125,1.451475359375,26.034148828124998,2.823533359375L53.448948828125,2.823543359375C56.827548828125,2.823543359375,59.555548828125,5.562503359375,59.555548828125,8.941173359375C59.555548828125,12.319793359375,56.827548828125,15.058693359375,53.448948828125,15.058693359375L13.487548828125,15.058793359375C15.666308828125,13.364893359375,16.940748828125,10.759693359375,16.940748828125,7.999973359375C16.940748828125,7.072493359375,16.796518828125,6.156503359375,16.518048828125,5.283313359375C16.378808828125,4.846723359375,16.206018828125,4.420833359375,16.000908828125,4.009563359375Q15.931168828125,3.869733359375,15.826658828125,3.687883359375C15.703048828125,3.512493359375,15.714348828125,2.905953359375,16.115038828125,2.523383359375Z" fill-rule="evenodd" fill="#CCCCCC" fill-opacity="1"/></g><g><path d="M20.0728564453125,5.879356083984375C20.0728564453125,6.5069860839843745,20.4662664453125,6.7501360839843745,21.4330264453125,7.194276083984375L21.4336764453125,7.193626083984375C22.3810864453125,7.628686083984375,23.6787064453125,8.224546083984375,23.6787064453125,9.938866083984376C23.6787064453125,11.251186083984376,22.5565064453125,12.319066083984374,21.1782764453125,12.319066083984374C19.8000464453125,12.319066083984374,18.6785010283125,11.251836083984376,18.6778564453125,9.940166083984375L18.6778564453125,9.571886083984374L19.8400364453125,9.571886083984374L19.8400364453125,9.940166083984375L19.8387464453125,9.940166083984375C19.8393864453125,10.608646083984375,20.4398264453125,11.151986083984376,21.1782764453125,11.151986083984376C21.9167364453125,11.151986083984376,22.5178164453125,10.607346083984375,22.5178164453125,9.938866083984376C22.5178164453125,9.019466083984376,21.951556445312498,8.714726083984374,20.9512664453125,8.255026083984376C20.0431864453125,7.838116083984375,18.9126144453125,7.3187560839843755,18.9126144453125,5.878706083984375C18.9126144453125,4.724591083984375,19.9006564453125,3.785736083984375,21.1157264453125,3.785736083984375C22.2456464453125,3.785736083984375,23.1646864453125,4.563792083984375,23.3143164453125,5.642696083984375C23.3188264453125,5.676416083984375,23.3239864453125,5.707536083984375,23.3265664453125,5.741896083984375L22.1514864453125,5.741896083984375C22.1450364453125,5.7062360839843755,22.1302064453125,5.6705760839843755,22.1198864453125,5.636216083984375C21.9992864453125,5.243296083984375,21.5949064453125,4.953466083984375,21.1150764453125,4.953466083984375C20.5404364453125,4.953466083984375,20.0728564453125,5.369086083984375,20.0728564453125,5.879356083984375ZM26.1617164453125,9.976486083984376L27.2477864453125,6.096576083984375L27.2613264453125,6.049896083984375L28.465426445312502,6.049896083984375L26.6602464453125,12.135596083984375L25.6947764453125,12.135596083984375L23.6606464453125,6.049896083984375L24.8789264453125,6.049896083984375L26.1617164453125,9.976486083984376ZM30.1525564453125,6.049896083984375L29.021956445312497,6.049896083984375L29.021956445312497,12.134946083984374L30.1525564453125,12.134946083984374L30.1525564453125,6.049896083984375ZM34.3569564453125,6.282666083984375C34.6491564453125,6.437626083984375,34.880656445312496,6.660666083984375,35.0509564453125,6.951146083984375L35.0509564453125,6.950496083984374C35.2218564453125,7.240966083984375,35.3069564453125,7.5846160839843755,35.3069564453125,7.981416083984375C35.3069564453125,8.378226083984375,35.2212564453125,8.721866083984375,35.0509564453125,9.012346083984376C34.880656445312496,9.302816083984375,34.6491564453125,9.527156083984375,34.3569564453125,9.685366083984375C34.0648564453125,9.843566083984374,33.7371564453125,9.922676083984374,33.3747564453125,9.922676083984374L32.2544564453125,9.922676083984374L32.2544564453125,12.139486083984375L31.1213564453125,12.139486083984375L31.1213564453125,6.049896083984375L33.3747564453125,6.049896083984375C33.7371564453125,6.049896083984375,34.0648564453125,6.127706083984375,34.3569564453125,6.282666083984375ZM33.7075564453125,8.749106083984376C33.8487564453125,8.679726083984374,33.9609564453125,8.579226083984375,34.043556445312504,8.446956083984375L34.043556445312504,8.448256083984376C34.1260564453125,8.315986083984374,34.1673564453125,8.149356083984376,34.1673564453125,7.965216083984375C34.1673564453125,7.781076083984376,34.1260564453125,7.622866083984375,34.043556445312504,7.490596083984375C33.9609564453125,7.358326083984375,33.8487564453125,7.257176083984374,33.7075564453125,7.188456083984375C33.5656564453125,7.119076083984375,33.409556445312504,7.084716083984375,33.2386564453125,7.084716083984375L32.2215564453125,7.084716083984375L32.2215564453125,8.852846083984375L33.2386564453125,8.852846083984375C33.409556445312504,8.852846083984375,33.566256445312504,8.817836083984375,33.7075564453125,8.749106083984376Z" fill-rule="evenodd" fill="#FFFFFF" fill-opacity="1"/></g><g><g><ellipse cx="7.999999046325684" cy="7.999941349029541" rx="7.999999046325684" ry="7.999941349029541" fill="#CCCCCC" fill-opacity="1"/></g><g filter="url(#master_svg0_396_37351)"><path d="M7.999589765625,15.33289873046875Q8.179619765624999,15.33289873046875,8.359419765624999,15.32399873046875Q8.539229765624999,15.31519873046875,8.718389765625,15.29749873046875Q8.897539765625,15.27989873046875,9.075619765625,15.25349873046875Q9.253689765625,15.22709873046875,9.430259765625,15.19199873046875Q9.606819765625,15.15679873046875,9.781449765625,15.11309873046875Q9.956079765625,15.06929873046875,10.128349765625,15.01709873046875Q10.300619765625,14.96479873046875,10.470119765625,14.90419873046875Q10.639619765625,14.84349873046875,10.805959765625,14.77459873046875Q10.972259765625,14.70569873046875,11.134959765625,14.62879873046875Q11.297759765625,14.55179873046875,11.456459765625,14.46689873046875Q11.615259765625,14.38209873046875,11.769659765625,14.28949873046875Q11.924059765625,14.19699873046875,12.073759765625,14.09699873046875Q12.223459765625,13.99699873046875,12.368059765625,13.88969873046875Q12.512659765625,13.78249873046875,12.651859765625,13.66829873046875Q12.790959765625,13.55409873046875,12.924359765625,13.43319873046875Q13.057759765625,13.31229873046875,13.185059765625,13.18499873046875Q13.312359765625,13.05769873046875,13.433259765625,12.92429873046875Q13.554159765625,12.79089873046875,13.668359765625,12.65169873046875Q13.782559765625,12.51259873046875,13.889759765625,12.36799873046875Q13.997059765625,12.22339873046875,14.097059765625,12.07369873046875Q14.197059765625,11.92399873046875,14.289559765625,11.76959873046875Q14.382159765625,11.61519873046875,14.467059765625,11.45639873046875Q14.551859765625,11.29769873046875,14.628859765625,11.13489873046875Q14.705859765625,10.97219873046875,14.774659765625,10.80589873046875Q14.843559765625,10.63954873046875,14.904259765625,10.47004873046875Q14.964859765625,10.30054873046875,15.017159765625,10.12827873046875Q15.069459765625,9.95600873046875,15.113159765625,9.78137873046875Q15.156859765625,9.60675873046875,15.192059765625,9.43018873046875Q15.227159765625,9.25362873046875,15.253559765625,9.07554873046875Q15.279959765625,8.89747873046875,15.297659765625,8.71831873046875Q15.315259765625,8.539168730468749,15.324059765625,8.359358730468749Q15.332959765625,8.179548730468749,15.332959765625,7.99952873046875Q15.332959765625,7.81950873046875,15.324059765625,7.63969873046875Q15.315259765625,7.45988873046875,15.297659765625,7.28073873046875Q15.279959765625,7.10157873046875,15.253559765625,6.92350873046875Q15.227159765625,6.74542873046875,15.192059765625,6.56886873046875Q15.156859765625,6.39229873046875,15.113159765625,6.21767873046875Q15.069459765625,6.04304873046875,15.017159765625,5.87077873046875Q14.964859765625,5.69849873046875,14.904259765625,5.52900873046875Q14.843559765625,5.35950873046875,14.774659765625,5.19318873046875Q14.705859765625,5.02686873046875,14.628859765625,4.86412873046875Q14.551859765625,4.70138873046875,14.467059765625,4.5426187304687495Q14.382159765625,4.38385873046875,14.289559765625,4.22943873046875Q14.197059765625,4.07502873046875,14.097059765625,3.92534873046875Q13.997059765625,3.77566873046875,13.889759765625,3.63106873046875Q13.782559765625,3.48646873046875,13.668359765625,3.34730873046875Q13.554159765625,3.20814873046875,13.433259765625,3.07476873046875Q13.312359765625,2.94137873046875,13.185059765625,2.81407873046875Q13.057759765625,2.68678873046875,12.924359765625,2.56588873046875Q12.790959765625,2.44498873046875,12.651859765625,2.33078873046875Q12.512659765625,2.21657873046875,12.368059765625,2.10933873046875Q12.223459765625,2.00209873046875,12.073759765625,1.90208873046875Q11.924059765625,1.80206873046875,11.769659765625,1.70951873046875Q11.615259765625,1.61697073046875,11.456459765625,1.53210873046875Q11.297759765625,1.44724673046875,11.134959765625,1.37027673046875Q10.972259765625,1.29330673046875,10.805959765625,1.22441473046875Q10.639619765625,1.15552373046875,10.470119765625,1.09487573046875Q10.300619765625,1.03422773046875,10.128349765625,0.98196973046875Q9.956069765625,0.92971173046875,9.781449765625,0.8859697304687499Q9.606819765625,0.84222773046875,9.430259765625,0.80710673046875Q9.253689765625,0.77198573046875,9.075619765625,0.74557093046875Q8.897539765625,0.71915603046875,8.718389765625,0.70151073046875Q8.539229765624999,0.68386533046875,8.359419765624999,0.67503205046875Q8.179619765624999,0.66619873046875,7.999589765625,0.66619873046875Q7.819569765625,0.66619873046875,7.639759765625,0.67503205046875Q7.459959765625,0.68386533046875,7.280799765625,0.70151073046875Q7.101639765625,0.71915603046875,6.923569765625,0.74557093046875Q6.745499765625,0.77198573046875,6.568929765625,0.80710673046875Q6.392369765625,0.84222773046875,6.217739765625,0.8859697304687499Q6.043109765625,0.92971173046875,5.870839765625,0.98196973046875Q5.698569765625,1.03422773046875,5.529069765625,1.09487573046875Q5.359569765625,1.15552373046875,5.193249765625,1.22441473046875Q5.026929765625,1.29330673046875,4.864189765625,1.37027673046875Q4.701449765625,1.44724673046875,4.5426797656249995,1.53210873046875Q4.383919765625,1.61697073046875,4.229509765625,1.70951873046875Q4.075099765625,1.80206873046875,3.925409765625,1.90208873046875Q3.775729765625,2.00209873046875,3.631129765625,2.10933873046875Q3.486539765625,2.21657873046875,3.347379765625,2.33078873046875Q3.208219765625,2.44498873046875,3.074829765625,2.56588873046875Q2.941439765625,2.68678873046875,2.814139765625,2.81407873046875Q2.686849765625,2.94137873046875,2.565949765625,3.07476873046875Q2.445059765625,3.20814873046875,2.330849765625,3.34730873046875Q2.216639765625,3.48646873046875,2.109399765625,3.63106873046875Q2.002159765625,3.77566873046875,1.902149765625,3.92534873046875Q1.802129765625,4.07502873046875,1.709579765625,4.22943873046875Q1.6170327656249999,4.38385873046875,1.532170765625,4.5426187304687495Q1.447307765625,4.70138873046875,1.370337765625,4.86412873046875Q1.293368765625,5.02686873046875,1.224476765625,5.19318873046875Q1.155584765625,5.35950873046875,1.094936765625,5.52900873046875Q1.034288765625,5.69850873046875,0.982030765625,5.87077873046875Q0.929772765625,6.04304873046875,0.8860307656249999,6.21767873046875Q0.842288765625,6.39229873046875,0.807167765625,6.56886873046875Q0.772046765625,6.74542873046875,0.745632065625,6.92350873046875Q0.719217165625,7.10157873046875,0.701571765625,7.28073873046875Q0.683926365625,7.45988873046875,0.675093085625,7.63969873046875Q0.666259765625,7.81950873046875,0.666259765625,7.99952873046875Q0.666259765625,8.179548730468749,0.675093085625,8.359358730468749Q0.683926365625,8.539168730468749,0.701571765625,8.71831873046875Q0.719217165625,8.89747873046875,0.745632065625,9.07554873046875Q0.772046765625,9.25362873046875,0.807167765625,9.43018873046875Q0.842288765625,9.60675873046875,0.8860307656249999,9.78137873046875Q0.929772765625,9.95600873046875,0.982030765625,10.12827873046875Q1.034288765625,10.30054873046875,1.094936765625,10.47004873046875Q1.155584765625,10.63954873046875,1.224476765625,10.80589873046875Q1.293368765625,10.97219873046875,1.370337765625,11.13489873046875Q1.447307765625,11.29769873046875,1.532170765625,11.45639873046875Q1.6170327656249999,11.61519873046875,1.709579765625,11.76959873046875Q1.802129765625,11.92399873046875,1.902149765625,12.07369873046875Q2.002159765625,12.22339873046875,2.109399765625,12.36799873046875Q2.216639765625,12.51259873046875,2.330849765625,12.65169873046875Q2.445059765625,12.79089873046875,2.565949765625,12.92429873046875Q2.686849765625,13.05769873046875,2.814139765625,13.18499873046875Q2.941439765625,13.31229873046875,3.074829765625,13.43319873046875Q3.208219765625,13.55409873046875,3.347379765625,13.66829873046875Q3.486539765625,13.78249873046875,3.631129765625,13.88969873046875Q3.775729765625,13.99699873046875,3.925409765625,14.09699873046875Q4.075099765625,14.19699873046875,4.229509765625,14.28949873046875Q4.383919765625,14.38209873046875,4.5426797656249995,14.46689873046875Q4.701449765625,14.55179873046875,4.864189765625,14.62879873046875Q5.026929765625,14.70579873046875,5.193249765625,14.77459873046875Q5.359569765625,14.84349873046875,5.529069765625,14.90419873046875Q5.698569765625,14.96479873046875,5.870839765625,15.01709873046875Q6.043109765625,15.06929873046875,6.217739765625,15.11309873046875Q6.392369765625,15.15679873046875,6.568929765625,15.19199873046875Q6.745499765625,15.22709873046875,6.923569765625,15.25349873046875Q7.101639765625,15.27989873046875,7.280799765625,15.29749873046875Q7.459959765625,15.31519873046875,7.639759765625,15.32399873046875Q7.819569765625,15.33289873046875,7.999589765625,15.33289873046875ZM7.999529765625,11.55499873046875Q8.174199765625,11.55499873046875,8.348029765625,11.53789873046875Q8.521859765624999,11.52079873046875,8.693179765625,11.48669873046875Q8.864499765625,11.45259873046875,9.031649765625,11.40189873046875Q9.198799765625,11.35119873046875,9.360179765625,11.28439873046875Q9.521549765625,11.21749873046875,9.675599765625,11.13519873046875Q9.829649765625,11.05279873046875,9.974889765625,10.95579873046875Q10.120119765625,10.85879873046875,10.255149765625,10.74789873046875Q10.390169765625,10.63712873046875,10.513679765625,10.51361873046875Q10.637189765625,10.39010873046875,10.747959765625,10.25507873046875Q10.858859765625,10.12005873046875,10.955859765625,9.97481873046875Q11.052859765625,9.82958873046875,11.135259765625,9.67553873046875Q11.217559765625,9.52148873046875,11.284459765625,9.36010873046875Q11.351259765625,9.19873873046875,11.401959765625,9.03158873046875Q11.452659765625,8.86442873046875,11.486759765625,8.69311873046875Q11.520859765625,8.521798730468749,11.537959765625,8.34796873046875Q11.555059765625,8.17413873046875,11.555059765625,7.99945873046875Q11.555059765625,7.82478873046875,11.537959765625,7.65095873046875Q11.520859765625,7.47712873046875,11.486759765625,7.30580873046875Q11.452659765625,7.13448873046875,11.401959765625,6.96733873046875Q11.351259765625,6.80018873046875,11.284459765625,6.63880873046875Q11.217559765625,6.47742873046875,11.135259765625,6.32338873046875Q11.052859765625,6.16933873046875,10.955859765625,6.02409873046875Q10.858859765625,5.87886873046875,10.747959765625,5.74383873046875Q10.637189765625,5.60881873046875,10.513679765625,5.48530873046875Q10.390169765625,5.36179873046875,10.255149765625,5.25097873046875Q10.120119765625,5.14016873046875,9.974879765625,5.04312873046875Q9.829649765625,4.94608873046875,9.675599765625,4.86374873046875Q9.521549765625,4.78140873046875,9.360179765625,4.71455873046875Q9.198799765625,4.64771873046875,9.031649765625,4.59700873046875Q8.864499765625,4.54630873046875,8.693179765625,4.51222873046875Q8.521859765624999,4.4781487304687495,8.348029765625,4.46102873046875Q8.174199765625,4.44390873046875,7.999529765625,4.44390873046875Q7.824849765625,4.44390873046875,7.651019765625,4.46102873046875Q7.477189765625,4.4781487304687495,7.305869765625,4.51222873046875Q7.134549765625,4.54630873046875,6.967399765625,4.59700873046875Q6.800249765625,4.64771873046875,6.638869765625,4.71455873046875Q6.477499765625,4.78140873046875,6.323449765625,4.86374873046875Q6.169399765625,4.94608873046875,6.024159765625,5.04312873046875Q5.878929765625,5.14016873046875,5.743899765625,5.25097873046875Q5.608879765625,5.36179873046875,5.485369765625,5.48530873046875Q5.361859765625,5.60881873046875,5.251039765625,5.74383873046875Q5.140229765625,5.87886873046875,5.043189765625,6.02409873046875Q4.946149765625,6.16933873046875,4.863809765625,6.32338873046875Q4.781469765625,6.47742873046875,4.714619765625,6.63880873046875Q4.647779765625,6.80018873046875,4.597069765625,6.96733873046875Q4.546369765625,7.13448873046875,4.512289765625,7.30580873046875Q4.4782097656249995,7.47712873046875,4.461089765625,7.65095873046875Q4.443969765625,7.82478873046875,4.443969765625,7.99945873046875Q4.443969765625,8.17413873046875,4.461089765625,8.34796873046875Q4.4782097656249995,8.521798730468749,4.512289765625,8.69311873046875Q4.546369765625,8.86442873046875,4.597069765625,9.03158873046875Q4.647779765625,9.19873873046875,4.714619765625,9.36010873046875Q4.781469765625,9.52148873046875,4.863809765625,9.67553873046875Q4.946149765625,9.82958873046875,5.043189765625,9.97481873046875Q5.140229765625,10.12005873046875,5.251039765625,10.25507873046875Q5.361859765625,10.39010873046875,5.485369765625,10.51361873046875Q5.608879765625,10.63712873046875,5.743909765625,10.74789873046875Q5.878929765625,10.85879873046875,6.024159765625,10.95579873046875Q6.169399765625,11.05279873046875,6.323449765625,11.13519873046875Q6.477499765625,11.21749873046875,6.638869765625,11.28439873046875Q6.800249765625,11.35119873046875,6.967399765625,11.40189873046875Q7.134549765625,11.45259873046875,7.305869765625,11.48669873046875Q7.477189765625,11.52079873046875,7.651019765625,11.53789873046875Q7.824849765625,11.55499873046875,7.999529765625,11.55499873046875Z" fill-rule="evenodd" fill="url(#master_svg1_42_4211)" fill-opacity="1"/></g><g><ellipse cx="8.000040531158447" cy="7.99997878074646" rx="2.6666665077209473" ry="2.66666579246521" fill="#E2E2E2" fill-opacity="1"/></g><g><ellipse cx="7.999640882015228" cy="7.999945908784866" rx="0.47058814764022827" ry="0.47058799862861633" fill="#CCCCCC" fill-opacity="1"/></g></g><g><path d="M39.439846015625,10.7275851953125C38.821786015625,10.968325195312499,38.104196015625,11.167395195312501,37.277805015625,11.3109151953125L37.356509015625,11.9706351953125C38.131976015625,11.815545195312499,38.828726015625,11.6164751953125,39.439846015625,11.3664751953125L39.439846015625,10.7275851953125ZM38.259286015625,5.7484151953125C38.032436015625,6.5030451953125,37.761601015625,7.1928651953125,37.462990015625,7.8109151953125C37.377342015625,7.9382351953125,37.287064015625,8.0169351953125,37.187527015625,8.0609151953125L37.349564015625,8.6720251953125C37.678268015625,8.6211051953125,38.004656015625,8.5724951953125,38.317156015625,8.5215651953125C38.004656015625,9.063235195312501,37.740768015625,9.4474951953125,37.527805015625,9.667395195312501C37.442157015625,9.753045195312499,37.342620015625,9.815545195312499,37.222249015625,9.8595251953125L37.407435015625,10.4706351953125C38.018546015625,10.3849951953125,38.666696015625,10.229895195312501,39.349566015625,10.000735195312501L39.349566015625,9.389625195312501C38.965306015625,9.5238851953125,38.587986015625,9.639625195312501,38.217616015625,9.722955195312501C38.601876015625,9.2414751953125,39.078726015625,8.472955195312501,39.648176015625,7.426655195312501L39.027806015625,7.1928651953125C38.900486015625,7.440545195312501,38.773176015625,7.6836051953125,38.657436015625,7.9104551953125C38.423636015625,7.9521251953125,38.196786015625,7.989155195312501,37.967616015625,8.0169351953125C38.282436015625,7.4984151953125,38.594936015625,6.8224951953125,38.900486015625,5.9984151953125L38.259286015625,5.7484151953125ZM39.930586015624996,6.1673951953124995L39.930586015624996,6.7808251953125005L41.303266015625,6.7808251953125005L41.303266015625,7.271565195312499L39.710676015625,7.271565195312499L39.710676015625,7.896565195312499L42.861136015625,7.896565195312499C42.761606015625,8.2530451953125,42.648176015625,8.5724951953125,42.506976015625,8.850265195312499L43.152806015625,9.0331351953125C43.317156015625,8.593325195312499,43.451416015625,8.1442551953125,43.550956015625,7.690545195312501L43.550956015625,7.271565195312499L41.958356015625,7.271565195312499L41.958356015625,6.7808251953125005L43.430586015624996,6.7808251953125005L43.430586015624996,6.1673951953124995L41.958356015625,6.1673951953124995L41.958356015625,5.7484151953125L41.303266015625,5.7484151953125L41.303266015625,6.1673951953124995L39.930586015624996,6.1673951953124995ZM39.555586015624996,9.8317551953125L39.555586015624996,10.4567551953125L41.310216015625,10.4567551953125C41.240766015625,10.614155195312499,41.162066015625,10.7623051953125,41.069476015625,10.896565195312501C40.798636015625,11.253045195312499,40.294006015625,11.544715195312499,39.548636015625,11.771565195312501L39.923636015625,12.361845195312501C40.692156015625,12.1211051953125,41.254656015625,11.778505195312501,41.594936015625,11.3386951953125C41.625026015625,11.294715195312499,41.659746015625004,11.2461051953125,41.687526015625,11.195175195312501C42.270856015625,11.493785195312501,42.840306015625,11.878045195312499,43.409746015625004,12.361845195312501L43.787066015625,11.778505195312501C43.224566015625,11.3664751953125,42.606506015625,11.0053651953125,41.937526015625,10.690545195312499C41.965306015625,10.6211051953125,41.986136015625,10.542395195312501,42.016236015625,10.4567551953125L43.729196015625,10.4567551953125L43.729196015625,9.8317551953125L42.136606015625,9.8317551953125C42.150486015625,9.702125195312501,42.157436015625,9.5748051953125,42.164376015625,9.4336051953125L42.164376015625,8.0886951953125L41.509286015625,8.0886951953125L41.509286015625,9.4336051953125C41.502346015625,9.5678651953125,41.488456015625,9.702125195312501,41.474566015625,9.8317551953125L40.636606015625,9.8317551953125L40.935216015625,9.375735195312501C40.620396015625,9.104895195312501,40.273176015625,8.8849951953125,39.895856015625,8.6998051953125L39.583356015625,9.162765195312499C39.916696015625,9.334065195312501,40.245396015625,9.5539751953125,40.571786015625,9.8317551953125L39.555586015624996,9.8317551953125ZM40.451416015625,7.9822151953125005L40.152806015625,8.4220251953125C40.472246015625004,8.579435195312499,40.791696015625,8.792395195312501,41.104196015625,9.077125195312501L41.419006015625,8.600265195312499C41.118086015624996,8.3525851953125,40.798636015625,8.1442551953125,40.451416015625,7.9822151953125005ZM45.613456015625,7.4775851953125L46.423636015625,7.4775851953125C46.409746015625004,7.5979551953125,46.388916015625,7.7113851953125,46.358826015625,7.8248051953125L45.513916015625,7.8248051953125L45.613456015625,7.4775851953125ZM47.078716015625,7.4775851953125L48.002316015625,7.4775851953125L48.002316015625,7.8248051953125L47.034716015625,7.8248051953125C47.057916015625,7.7113851953125,47.071816015625004,7.5979551953125,47.078716015625,7.4775851953125ZM48.657416015625,7.4775851953125L50.164416015625,7.4775851953125L50.164416015625,6.0609151953125L48.657416015625,6.0609151953125L48.657416015625,5.7484151953125L48.002316015625,5.7484151953125L48.002316015625,6.0609151953125L47.085716015624996,6.0609151953125L47.085716015624996,5.7484151953125L46.430586015624996,5.7484151953125L46.430586015624996,6.0609151953125L44.851876015625,6.0609151953125L44.851876015625,6.6095251953125L46.430586015624996,6.6095251953125L46.430586015624996,6.9567551953125L45.064846015625,6.9567551953125L44.789376015625,8.3363851953125L46.083356015625,8.3363851953125C46.069476015625,8.3525851953125,46.046326015625,8.3803651953125,46.018546015625,8.4081351953125C45.761606015625,8.6511951953125,45.280116015625,8.850265195312499,44.560216015625,9.0053651953125L44.902806015625,9.5331351953125C45.057896015625,9.4961051953125,45.208356015625,9.454435195312499,45.349566015625,9.410455195312501L45.349566015625,11.188235195312501L46.011606015625,11.188235195312501L46.011606015625,9.8086051953125L49.282416015625,9.8086051953125L49.282416015625,11.188235195312501L49.951416015625,11.188235195312501L49.951416015625,9.2113851953125L45.891226015625,9.2113851953125C46.152806015625,9.084065195312501,46.368086015624996,8.9498051953125,46.530116015625,8.792395195312501C46.659746015625004,8.6650851953125,46.766226015625,8.5076751953125,46.858826015625,8.3363851953125L48.002316015625,8.3363851953125L48.002316015625,9.077125195312501L48.657416015625,9.077125195312501L48.657416015625,8.3363851953125L49.893516015624996,8.3363851953125C49.893516015624996,8.452125195312501,49.872716015625,8.528515195312501,49.838016015625,8.5863851953125C49.794016015625,8.6349951953125,49.680616015625,8.6650851953125,49.495416015625,8.6650851953125C49.375016015625,8.6650851953125,49.247716015625,8.6581351953125,49.120416015625,8.6442551953125L49.240816015625,9.104895195312501C49.347216015625,9.111845195312501,49.460716015624996,9.118785195312501,49.574116015625,9.118785195312501C49.986116015625,9.111845195312501,50.250016015625,9.0331351953125,50.363416015625,8.878045195312499C50.476916015625,8.7275851953125,50.534716015625,8.3803651953125,50.534716015625,7.8248051953125L48.657416015625,7.8248051953125L48.657416015625,7.4775851953125ZM47.085716015624996,6.6095251953125L48.002316015625,6.6095251953125L48.002316015625,6.9567551953125L47.085716015624996,6.9567551953125L47.085716015624996,6.6095251953125ZM48.657416015625,6.6095251953125L49.539416015625,6.6095251953125L49.539416015625,6.9567551953125L48.657416015625,6.9567551953125L48.657416015625,6.6095251953125ZM48.081016015624996,11.0470251953125L47.740816015625,11.5586051953125C48.592616015625,11.757675195312501,49.419016015625,12.028505195312501,50.222216015625,12.3849951953125L50.590316015625,11.8224951953125C49.838016015625,11.516935195312499,48.997716015625,11.2599951953125,48.081016015624996,11.0470251953125ZM47.291716015625,9.986845195312501C47.233816015625,10.597955195312501,47.057916015625,11.0331351953125,46.743086015624996,11.287765195312499C46.388916015625,11.544715195312499,45.648176015625,11.695175195312501,44.532436015625,11.743785195312501L44.803266015625,12.347955195312501C46.125026015625,12.2484151953125,46.965316015625,12.021565195312501,47.319516015625,11.6789751953125C47.655116015625,11.410455195312501,47.868116015625,10.868785195312501,47.960716015624996,10.051655195312499L47.291716015625,9.986845195312501Z" fill="#FFFFFF" fill-opacity="1"/></g><g><path d="M52.604615015625,7.231258015625Q52.528262015625,7.167850015625,52.486089015625,7.078007015625Q52.443916015625,6.988164615625,52.443916015625,6.888916015625Q52.443916015625,6.845087315625,52.452467015625,6.802100815625Q52.461017015625,6.759114015625,52.477790015625,6.718622015625Q52.494562015625,6.678129015625,52.518912015625,6.641687015625Q52.543262015625,6.605245015625,52.574253015625,6.574253015625Q52.605245015625,6.543262015625,52.641687015625,6.518912015625Q52.678129015625,6.494562015625,52.718622015625,6.477790015625Q52.759114015625,6.461017015625,52.802100815625,6.452467015625Q52.845087315625,6.443916015625,52.888916015625,6.443916015625Q52.978309915625,6.443916015625,53.060769015625,6.478439015625Q53.143227015625,6.512961015625,53.205957015625,6.576650015625L55.509616015625,8.692866015625Q55.523336015625,8.705466015625,55.535956015625,8.719176015624999Q55.565606015625,8.751376015625,55.588396015625,8.788756015625Q55.611186015625,8.826126015625,55.626246015625,8.867226015625Q55.641316015625,8.908326015625,55.648066015625,8.951576015625001Q55.654826015625,8.994826015625,55.653016015625,9.038566015625Q55.651196015625,9.082296015625,55.640886015625,9.124836015625Q55.630576015625,9.167386015625,55.612166015625,9.207096015625Q55.593756015625,9.246816015625,55.567956015625,9.282166015625Q55.542146015625,9.317526015624999,55.509936015625,9.347176015625L53.206299015625,11.467536015625Q53.143552015625,11.531366015625,53.061005015625,11.565976015625Q52.978456915625,11.600586015625,52.888948053125,11.600586015625Q52.845119415625,11.600586015625,52.802132915625,11.592036015625Q52.759146015625,11.583486015624999,52.718654015625,11.566706015625Q52.678162015625,11.549936015625,52.641719015625,11.525586015624999Q52.605277015625,11.501236015625,52.574286015625,11.470246015625001Q52.543294015625,11.439256015625,52.518944015625,11.402816015625Q52.494594015625,11.366366015625001,52.477822015625,11.325876015625Q52.461049015625,11.285386015625,52.452499015625,11.242396015625001Q52.443948015625,11.199416015625001,52.443948015625,11.155586015625001Q52.443948015625,11.056446015625,52.486028015625,10.966686015625001Q52.528109015625,10.876926015625,52.604311015625,10.813516015625L54.552336015625,9.020486015625L52.604615015625,7.231258015625Z" fill-rule="evenodd" fill="#FFFFFF" fill-opacity="1"/></g></g></svg>