<svg xmlns="http://www.w3.org/2000/svg" xmlns:xlink="http://www.w3.org/1999/xlink" fill="none" version="1.1" width="36" height="16" viewBox="0 0 36 16"><defs><linearGradient x1="0.953352689743042" y1="-1.0828357233094721e-7" x2="0.029411742463707924" y2="0.807692289352417" id="master_svg0_42_3838"><stop offset="0%" stop-color="#262523" stop-opacity="1"/><stop offset="0.009999999747378752%" stop-color="#3A2D2D" stop-opacity="1"/><stop offset="100%" stop-color="#262525" stop-opacity="1"/></linearGradient><linearGradient x1="0.00858865026384592" y1="0.8494802713394165" x2="0.9943768978118896" y2="0.13498008251190186" id="master_svg1_201_7361"><stop offset="0%" stop-color="#E1C0B8" stop-opacity="1"/><stop offset="100%" stop-color="#F5E5E3" stop-opacity="1"/></linearGradient><filter id="master_svg2_396_37751" filterUnits="objectBoundingBox" color-interpolation-filters="sRGB" x="0" y="0" width="14.666667938232422" height="14.666667938232422"><feFlood flood-opacity="0" result="BackgroundImageFix"/><feBlend mode="normal" in="SourceGraphic" in2="BackgroundImageFix" result="shape"/><feColorMatrix in="SourceAlpha" type="matrix" result="hardAlpha" values="0 0 0 0 0 0 0 0 0 0 0 0 0 0 0 0 0 0 127 0"/><feOffset dy="0" dx="0"/><feGaussianBlur stdDeviation="0"/><feComposite in2="hardAlpha" operator="arithmetic" k2="-1" k3="1"/><feColorMatrix type="matrix" values="0 0 0 0 1 0 0 0 0 1 0 0 0 0 1 0 0 0 0.05999999865889549 0"/><feBlend mode="normal" in2="shape" result="effect1_innerShadow"/></filter><linearGradient x1="0.8005221486091614" y1="1" x2="0.1780475229024887" y2="0.11369553208351135" id="master_svg3_1_0269"><stop offset="0%" stop-color="#646464" stop-opacity="0"/><stop offset="51.616716384887695%" stop-color="#646464" stop-opacity="0.9599999785423279"/><stop offset="99.99997019767761%" stop-color="#646464" stop-opacity="0"/></linearGradient><radialGradient cx="0" cy="0" r="1" gradientUnits="userSpaceOnUse" id="master_svg4_1_0037" gradientTransform="translate(8.13141267287972 7.971662075264419) rotate(99.96580482581263) scale(7.5812154231497395 7.5820724512482025)"><stop offset="32.26161003112793%" stop-color="#FFFFFF" stop-opacity="0"/><stop offset="35.70320904254913%" stop-color="#FFFFFF" stop-opacity="0.4000000059604645"/><stop offset="38.2797509431839%" stop-color="#FFFFFF" stop-opacity="0.6000000238418579"/><stop offset="41.35252237319946%" stop-color="#FFFFFF" stop-opacity="0.4000000059604645"/><stop offset="45.89686393737793%" stop-color="#FFFFFF" stop-opacity="0"/><stop offset="79.9826443195343%" stop-color="#FFFFFF" stop-opacity="0"/><stop offset="86.74278855323792%" stop-color="#FFFBF3" stop-opacity="0.8999999761581421"/><stop offset="93.06068420410156%" stop-color="#FFFFFF" stop-opacity="0"/></radialGradient></defs><g><g><path d="M14.285031223938281,14.28569443359375Q14.593857844238281,13.97699443359375,14.870928844238282,13.63939443359375Q15.147999844238281,13.30179443359375,15.39064284423828,12.93869443359375Q15.633292844238282,12.57559443359375,15.83917284423828,12.19049443359375Q16.04505284423828,11.80529443359375,16.21219284423828,11.40184443359375Q16.37933284423828,10.99838443359375,16.50611284423828,10.58047443359375Q16.63290284423828,10.16256443359375,16.71810284423828,9.73424443359375Q16.80331284423828,9.305914433593749,16.84612284423828,8.87130443359375Q16.88893284423828,8.43669443359375,16.88893284423828,7.99997443359375Q16.88893284423828,7.56326443359375,16.84612284423828,7.12866443359375Q16.80331284423828,6.69405443359375,16.71811284423828,6.26573443359375Q16.63290284423828,5.83741443359375,16.50613284423828,5.419514433593751Q16.37935284423828,5.001614433593749,16.21221284423828,4.59815443359375Q16.04508284423828,4.1946944335937495,15.839202844238281,3.80955443359375Q15.633332844238282,3.42441443359375,15.39069284423828,3.06131443359375Q15.14805084423828,2.69821443359375,14.87098784423828,2.3606464335937503Q14.593925844238282,2.02307843359375,14.285107145348281,1.71429443359375L29.142802844238282,1.71429443359375C32.61430284423828,1.71429443359375,35.42850284423828,4.52850443359375,35.42850284423828,8.000014433593751C35.42850284423828,11.47152443359375,32.61430284423828,14.28569443359375,29.142802844238282,14.28569443359375L14.285031223938281,14.28569443359375Z" fill-rule="evenodd" fill="url(#master_svg0_42_3838)" fill-opacity="1"/></g><g><path d="M24.624093651123047,4.89398193359375L25.767913651123045,4.89398193359375L25.767913651123045,11.10649193359375L24.624093651123047,11.10649193359375L24.624093651123047,4.89398193359375ZM22.829693651123048,4.94164313359375L21.730253651123046,8.90216193359375L20.432453651123048,4.89398193359375L19.199901581123047,4.89398193359375L21.258503651123046,11.10715193359375L22.235283651123048,11.10715193359375L24.061593651123047,4.89398193359375L22.842743651123047,4.89398193359375L22.829693651123048,4.94164313359375ZM30.684523651123047,5.81410893359375C30.512323651123047,5.51754993359375,30.278023651123046,5.28983493359375,29.98242365112305,5.13162593359375C29.686923651123045,4.97341733359375,29.355423651123047,4.89398193359375,28.98873365112305,4.89398193359375L26.708933651123047,4.89398193359375L26.708933651123047,11.11112193359375L27.855353651123046,11.11112193359375L27.855353651123046,8.84788193359375L28.98873365112305,8.84788193359375C29.355423651123047,8.84788193359375,29.686923651123045,8.76712193359375,29.98242365112305,8.60560193359375C30.278023651123046,8.44408193359375,30.512323651123047,8.21504193359375,30.684523651123047,7.91848193359375C30.856823651123047,7.62192193359375,30.943623651123048,7.27108193359375,30.943623651123048,6.86596193359375C30.943623651123048,6.46084193359375,30.85742365112305,6.11000193359375,30.684523651123047,5.81344693359375L30.684523651123047,5.81410893359375ZM29.665323651123046,7.34125193359375C29.581823651123045,7.47629193359375,29.468323651123047,7.57890193359375,29.325423651123046,7.64973193359375C29.18252365112305,7.71989193359375,29.023963651123047,7.7556419335937505,28.85106365112305,7.7556419335937505L27.822083651123044,7.7556419335937505L27.822083651123044,5.95047193359375L28.85106365112305,5.95047193359375C29.023963651123047,5.95047193359375,29.18187365112305,5.98555193359375,29.325423651123046,6.05638193359375C29.468323651123047,6.12655193359375,29.581823651123045,6.22982193359375,29.665323651123046,6.36486193359375C29.748923651123047,6.49990193359375,29.79062365112305,6.66142193359375,29.79062365112305,6.84941193359375C29.79062365112305,7.03741193359375,29.748923651123047,7.20754193359375,29.665323651123046,7.34258193359375L29.665323651123046,7.34125193359375Z" fill="#000000" fill-opacity="1"/><path d="M24.624093651123047,4.89398193359375L25.767913651123045,4.89398193359375L25.767913651123045,11.10649193359375L24.624093651123047,11.10649193359375L24.624093651123047,4.89398193359375ZM22.829693651123048,4.94164313359375L21.730253651123046,8.90216193359375L20.432453651123048,4.89398193359375L19.199901581123047,4.89398193359375L21.258503651123046,11.10715193359375L22.235283651123048,11.10715193359375L24.061593651123047,4.89398193359375L22.842743651123047,4.89398193359375L22.829693651123048,4.94164313359375ZM30.684523651123047,5.81410893359375C30.512323651123047,5.51754993359375,30.278023651123046,5.28983493359375,29.98242365112305,5.13162593359375C29.686923651123045,4.97341733359375,29.355423651123047,4.89398193359375,28.98873365112305,4.89398193359375L26.708933651123047,4.89398193359375L26.708933651123047,11.11112193359375L27.855353651123046,11.11112193359375L27.855353651123046,8.84788193359375L28.98873365112305,8.84788193359375C29.355423651123047,8.84788193359375,29.686923651123045,8.76712193359375,29.98242365112305,8.60560193359375C30.278023651123046,8.44408193359375,30.512323651123047,8.21504193359375,30.684523651123047,7.91848193359375C30.856823651123047,7.62192193359375,30.943623651123048,7.27108193359375,30.943623651123048,6.86596193359375C30.943623651123048,6.46084193359375,30.85742365112305,6.11000193359375,30.684523651123047,5.81344693359375L30.684523651123047,5.81410893359375ZM29.665323651123046,7.34125193359375C29.581823651123045,7.47629193359375,29.468323651123047,7.57890193359375,29.325423651123046,7.64973193359375C29.18252365112305,7.71989193359375,29.023963651123047,7.7556419335937505,28.85106365112305,7.7556419335937505L27.822083651123044,7.7556419335937505L27.822083651123044,5.95047193359375L28.85106365112305,5.95047193359375C29.023963651123047,5.95047193359375,29.18187365112305,5.98555193359375,29.325423651123046,6.05638193359375C29.468323651123047,6.12655193359375,29.581823651123045,6.22982193359375,29.665323651123046,6.36486193359375C29.748923651123047,6.49990193359375,29.79062365112305,6.66142193359375,29.79062365112305,6.84941193359375C29.79062365112305,7.03741193359375,29.748923651123047,7.20754193359375,29.665323651123046,7.34258193359375L29.665323651123046,7.34125193359375Z" fill="url(#master_svg1_201_7361)" fill-opacity="1"/></g><g><g><ellipse cx="8" cy="7.9999470710754395" rx="8" ry="7.9999470710754395" fill="#262523" fill-opacity="1"/></g><g filter="url(#master_svg2_396_37751)"><path d="M7.99952873046875,15.3325935546875Q8.179558730468749,15.3325935546875,8.359358730468749,15.3236935546875Q8.539168730468749,15.3148935546875,8.71832873046875,15.2972935546875Q8.89747873046875,15.2795935546875,9.07555873046875,15.2531935546875Q9.25362873046875,15.2267935546875,9.43019873046875,15.1916935546875Q9.60675873046875,15.1564935546875,9.78138873046875,15.1127935546875Q9.95601873046875,15.0690935546875,10.12828873046875,15.0167935546875Q10.30055873046875,14.9644935546875,10.47005873046875,14.9038935546875Q10.63955873046875,14.8431935546875,10.80589873046875,14.7742935546875Q10.97219873046875,14.7054935546875,11.13489873046875,14.6284935546875Q11.29769873046875,14.5514935546875,11.45639873046875,14.4666935546875Q11.61519873046875,14.3817935546875,11.76959873046875,14.2891935546875Q11.92399873046875,14.1966935546875,12.07369873046875,14.0966935546875Q12.22339873046875,13.9966935546875,12.36799873046875,13.8893935546875Q12.51259873046875,13.7821935546875,12.65179873046875,13.6679935546875Q12.79089873046875,13.5537935546875,12.92429873046875,13.4328935546875Q13.05769873046875,13.3119935546875,13.18499873046875,13.1846935546875Q13.31229873046875,13.0573935546875,13.43319873046875,12.9239935546875Q13.55409873046875,12.7905935546875,13.66829873046875,12.6514935546875Q13.78249873046875,12.5122935546875,13.88969873046875,12.3676935546875Q13.99699873046875,12.2230935546875,14.09699873046875,12.0733935546875Q14.19699873046875,11.9236935546875,14.28949873046875,11.7692935546875Q14.38209873046875,11.6148935546875,14.46699873046875,11.4560935546875Q14.55179873046875,11.2973935546875,14.62879873046875,11.1345935546875Q14.70579873046875,10.9718935546875,14.77459873046875,10.8055935546875Q14.84349873046875,10.6392535546875,14.90419873046875,10.4697535546875Q14.96479873046875,10.3002535546875,15.01709873046875,10.1279835546875Q15.06939873046875,9.9557135546875,15.11309873046875,9.7810835546875Q15.15679873046875,9.6064535546875,15.19199873046875,9.4298935546875Q15.22709873046875,9.2533235546875,15.25349873046875,9.0752535546875Q15.27989873046875,8.8971735546875,15.29759873046875,8.7180235546875Q15.31519873046875,8.538863554687499,15.32399873046875,8.359053554687499Q15.33289873046875,8.179253554687499,15.33289873046875,7.9992235546875Q15.33289873046875,7.8192035546875,15.32399873046875,7.6393935546875Q15.31519873046875,7.4595935546875,15.29759873046875,7.2804335546875Q15.27989873046875,7.1012835546875,15.25349873046875,6.9232035546875Q15.22709873046875,6.7451335546875,15.19199873046875,6.5685635546875Q15.15679873046875,6.3920035546875,15.11309873046875,6.2173735546875Q15.06939873046875,6.0427435546875,15.01709873046875,5.8704735546875Q14.96479873046875,5.6982035546875,14.90419873046875,5.5287035546875Q14.84349873046875,5.3592035546875,14.77459873046875,5.1928835546875Q14.70579873046875,5.0265635546875,14.62879873046875,4.8638235546875Q14.55179873046875,4.7010835546875,14.46699873046875,4.5423135546874995Q14.38209873046875,4.3835535546875,14.28949873046875,4.2291435546875Q14.19699873046875,4.0747335546875,14.09699873046875,3.9250435546875Q13.99699873046875,3.7753635546875,13.88969873046875,3.6307635546875Q13.78249873046875,3.4861735546875,13.66829873046875,3.3470135546875Q13.55409873046875,3.2078535546875,13.43319873046875,3.0744635546875Q13.31229873046875,2.9410735546875,13.18499873046875,2.8137735546875Q13.05769873046875,2.6864835546875,12.92429873046875,2.5655835546875Q12.79089873046875,2.4446935546875,12.65179873046875,2.3304835546875Q12.51259873046875,2.2162735546875,12.36799873046875,2.1090335546875Q12.22339873046875,2.0017935546875,12.07369873046875,1.9017835546875Q11.92399873046875,1.8017635546875,11.76959873046875,1.7092135546875Q11.61519873046875,1.6166665546874999,11.45639873046875,1.5318045546875Q11.29769873046875,1.4469415546875,11.13489873046875,1.3699715546875Q10.97219873046875,1.2930025546875,10.80589873046875,1.2241105546875Q10.63955873046875,1.1552185546875,10.47005873046875,1.0945705546875Q10.30055873046875,1.0339225546875,10.12828873046875,0.9816645546875Q9.95601873046875,0.9294065546875,9.78138873046875,0.8856645546874999Q9.60675873046875,0.8419225546875,9.43019873046875,0.8068015546875Q9.25362873046875,0.7716805546875,9.07555873046875,0.7452658546875Q8.89747873046875,0.7188509546875,8.71832873046875,0.7012055546875Q8.539168730468749,0.6835601546875,8.359358730468749,0.6747268746875Q8.179558730468749,0.6658935546875,7.99952873046875,0.6658935546875Q7.81950873046875,0.6658935546875,7.63969873046875,0.6747268746875Q7.45989873046875,0.6835601546875,7.28073873046875,0.7012055546875Q7.10158873046875,0.7188509546875,6.92350873046875,0.7452658546875Q6.74543873046875,0.7716805546875,6.56886873046875,0.8068015546875Q6.39230873046875,0.8419225546875,6.21767873046875,0.8856645546874999Q6.04304873046875,0.9294065546875,5.87077873046875,0.9816645546875Q5.69850873046875,1.0339225546875,5.52900873046875,1.0945705546875Q5.35950873046875,1.1552185546875,5.19318873046875,1.2241105546875Q5.02686873046875,1.2930025546875,4.86412873046875,1.3699715546875Q4.70138873046875,1.4469415546875,4.5426187304687495,1.5318045546875Q4.38385873046875,1.6166665546874999,4.22944873046875,1.7092135546875Q4.07503873046875,1.8017635546875,3.92534873046875,1.9017835546875Q3.77566873046875,2.0018035546875,3.63106873046875,2.1090335546875Q3.48647873046875,2.2162735546875,3.34731873046875,2.3304835546875Q3.20815873046875,2.4446935546875,3.07476873046875,2.5655835546875Q2.94137873046875,2.6864835546875,2.81407873046875,2.8137735546875Q2.68678873046875,2.9410735546875,2.56588873046875,3.0744635546875Q2.44499873046875,3.2078535546875,2.33078873046875,3.3470135546875Q2.21657873046875,3.4861735546875,2.10933873046875,3.6307635546875Q2.00209873046875,3.7753635546875,1.90208873046875,3.9250435546875Q1.80206873046875,4.0747335546875,1.70951873046875,4.2291435546875Q1.6169717304687499,4.3835535546875,1.53210973046875,4.5423135546874995Q1.44724673046875,4.7010835546875,1.37027673046875,4.8638235546875Q1.29330773046875,5.0265635546875,1.22441573046875,5.1928835546875Q1.15552373046875,5.3592035546875,1.09487573046875,5.5287035546875Q1.03422773046875,5.6982035546875,0.98196973046875,5.8704735546875Q0.92971173046875,6.0427435546875,0.8859697304687499,6.2173735546875Q0.84222773046875,6.3920035546875,0.80710673046875,6.5685635546875Q0.77198573046875,6.7451335546875,0.74557103046875,6.9232035546875Q0.71915613046875,7.1012835546875,0.70151073046875,7.2804335546875Q0.68386533046875,7.4595935546875,0.67503205046875,7.6393935546875Q0.66619873046875,7.8192035546875,0.66619873046875,7.9992235546875Q0.66619873046875,8.179253554687499,0.67503205046875,8.359053554687499Q0.68386533046875,8.538863554687499,0.70151073046875,8.7180235546875Q0.71915613046875,8.8971735546875,0.74557103046875,9.0752535546875Q0.77198573046875,9.2533235546875,0.80710673046875,9.4298935546875Q0.84222773046875,9.6064535546875,0.8859697304687499,9.7810835546875Q0.92971173046875,9.9557135546875,0.98196973046875,10.1279835546875Q1.03422773046875,10.3002535546875,1.09487573046875,10.4697535546875Q1.15552373046875,10.6392535546875,1.22441573046875,10.8055935546875Q1.29330773046875,10.9718935546875,1.37027673046875,11.1345935546875Q1.44724673046875,11.2973935546875,1.53210973046875,11.4560935546875Q1.6169717304687499,11.6148935546875,1.70951873046875,11.7692935546875Q1.80206873046875,11.9236935546875,1.90208873046875,12.0733935546875Q2.00210873046875,12.2230935546875,2.10933873046875,12.3676935546875Q2.21657873046875,12.5122935546875,2.33078873046875,12.6514935546875Q2.44499873046875,12.7905935546875,2.56588873046875,12.9239935546875Q2.68678873046875,13.0573935546875,2.81407873046875,13.1846935546875Q2.94137873046875,13.3119935546875,3.07476873046875,13.4328935546875Q3.20815873046875,13.5537935546875,3.34731873046875,13.6679935546875Q3.48647873046875,13.7821935546875,3.63106873046875,13.8893935546875Q3.77566873046875,13.9966935546875,3.92534873046875,14.0966935546875Q4.07503873046875,14.1966935546875,4.22944873046875,14.2891935546875Q4.38385873046875,14.3817935546875,4.5426187304687495,14.4666935546875Q4.70138873046875,14.5514935546875,4.86412873046875,14.6284935546875Q5.02686873046875,14.7054935546875,5.19318873046875,14.7742935546875Q5.35950873046875,14.8431935546875,5.52900873046875,14.9038935546875Q5.69850873046875,14.9644935546875,5.87077873046875,15.0167935546875Q6.04304873046875,15.0690935546875,6.21767873046875,15.1127935546875Q6.39230873046875,15.1564935546875,6.56886873046875,15.1916935546875Q6.74543873046875,15.2267935546875,6.92350873046875,15.2531935546875Q7.10158873046875,15.2795935546875,7.28073873046875,15.2972935546875Q7.45989873046875,15.3148935546875,7.63969873046875,15.3236935546875Q7.81950873046875,15.3325935546875,7.99952873046875,15.3325935546875ZM7.99968873046875,10.4612835546875Q8.12062873046875,10.4612835546875,8.24099873046875,10.4494335546875Q8.36135873046875,10.4375735546875,8.479978730468751,10.4139835546875Q8.598598730468751,10.3903835546875,8.71433873046875,10.3552735546875Q8.83007873046875,10.3201635546875,8.94180873046875,10.2738835546875Q9.05354873046875,10.2276035546875,9.16021873046875,10.1705835546875Q9.26687873046875,10.1135735546875,9.36744873046875,10.0463735546875Q9.46800873046875,9.9791835546875,9.56149873046875,9.9024535546875Q9.65498873046875,9.8257335546875,9.74051873046875,9.7402135546875Q9.82603873046875,9.6546935546875,9.90275873046875,9.5611935546875Q9.97948873046875,9.4677035546875,10.04667873046875,9.3671435546875Q10.11387873046875,9.2665835546875,10.17088873046875,9.1599135546875Q10.22790873046875,9.0532535546875,10.27418873046875,8.9415135546875Q10.32046873046875,8.8297735546875,10.35557873046875,8.7140335546875Q10.39068873046875,8.598293554687501,10.41428873046875,8.479673554687501Q10.43787873046875,8.3610535546875,10.44973873046875,8.2406935546875Q10.46158873046875,8.1203235546875,10.46158873046875,7.9993835546875Q10.46158873046875,7.8784335546875,10.44973873046875,7.7580735546875Q10.43787873046875,7.6377035546875,10.41428873046875,7.5190835546875Q10.39068873046875,7.4004635546875,10.35557873046875,7.2847235546875Q10.32046873046875,7.1689935546875,10.27418873046875,7.0572535546875Q10.22790873046875,6.9455135546875,10.17088873046875,6.8388435546875Q10.11387873046875,6.7321835546875,10.04667873046875,6.6316235546875Q9.97948873046875,6.5310535546875,9.90275873046875,6.4375635546875Q9.82603873046875,6.3440735546875,9.74051873046875,6.2585535546875Q9.65499873046875,6.1730335546875,9.56149873046875,6.0963035546875Q9.46800873046875,6.0195735546875,9.36744873046875,5.9523835546875Q9.26688873046875,5.8851835546875,9.16021873046875,5.8281735546875Q9.05355873046875,5.7711635546875,8.94181873046875,5.7248735546875Q8.83007873046875,5.6785935546875,8.71433873046875,5.6434835546875Q8.598598730468751,5.6083735546875,8.479978730468751,5.5847835546875Q8.36135873046875,5.5611835546875,8.24099873046875,5.5493335546875Q8.12062873046875,5.5374735546875,7.99968873046875,5.5374735546875Q7.87873873046875,5.5374735546875,7.75837873046875,5.5493335546875Q7.63800873046875,5.5611835546875,7.51938873046875,5.5847835546875Q7.40076873046875,5.6083735546875,7.28502873046875,5.6434835546875Q7.16929873046875,5.6785935546875,7.05755873046875,5.7248735546875Q6.94581873046875,5.7711635546875,6.83914873046875,5.8281735546875Q6.73248873046875,5.8851835546875,6.63192873046875,5.9523835546875Q6.53135873046875,6.0195735546875,6.43786873046875,6.0963035546875Q6.34437873046875,6.1730335546875,6.25885873046875,6.2585535546875Q6.17333873046875,6.3440735546875,6.09660873046875,6.4375635546875Q6.01987873046875,6.5310535546875,5.95268873046875,6.6316235546875Q5.88548873046875,6.7321835546875,5.82847873046875,6.8388435546875Q5.77146873046875,6.9455135546875,5.72517873046875,7.0572535546875Q5.67889873046875,7.1689935546875,5.64378873046875,7.2847235546875Q5.60867873046875,7.4004635546875,5.58508873046875,7.5190835546875Q5.56148873046875,7.6377035546875,5.54963873046875,7.7580735546875Q5.53777873046875,7.8784335546875,5.53777873046875,7.9993835546875Q5.53777873046875,8.1203235546875,5.54963873046875,8.2406935546875Q5.56148873046875,8.3610535546875,5.58508873046875,8.479673554687501Q5.60867873046875,8.598293554687501,5.64378873046875,8.7140335546875Q5.67889873046875,8.8297735546875,5.72517873046875,8.9415035546875Q5.77146873046875,9.0532435546875,5.82847873046875,9.1599135546875Q5.88548873046875,9.2665735546875,5.95268873046875,9.3671435546875Q6.01987873046875,9.4677035546875,6.09660873046875,9.5611935546875Q6.17333873046875,9.6546835546875,6.25885873046875,9.7402135546875Q6.34437873046875,9.8257335546875,6.43786873046875,9.9024535546875Q6.53135873046875,9.9791835546875,6.63192873046875,10.0463735546875Q6.73248873046875,10.1135735546875,6.83914873046875,10.1705835546875Q6.94581873046875,10.2276035546875,7.05755873046875,10.2738835546875Q7.16929873046875,10.3201635546875,7.28502873046875,10.3552735546875Q7.40076873046875,10.3903835546875,7.51938873046875,10.4139835546875Q7.63800873046875,10.4375735546875,7.75837873046875,10.4494335546875Q7.87873873046875,10.4612835546875,7.99968873046875,10.4612835546875Z" fill-rule="evenodd" fill="#463C3C" fill-opacity="1"/></g><g><path d="M8.025809486236572,11.354436385040284Q8.190619486236573,11.354436385040284,8.354639486236572,11.338286385040284Q8.518659486236572,11.322126385040283,8.680309486236572,11.289976385040283Q8.841949486236572,11.257826385040282,8.999669486236574,11.209986385040283Q9.157379486236572,11.162136385040284,9.309649486236573,11.099066385040283Q9.461919486236571,11.035996385040283,9.607269486236572,10.958306385040284Q9.752619486236572,10.880616385040284,9.889659486236571,10.789046385040283Q10.026689486236572,10.697486385040282,10.154099486236571,10.592926385040283Q10.281499486236573,10.488376385040283,10.398039486236573,10.371836385040282Q10.514579486236572,10.255296385040284,10.619129486236572,10.127896385040284Q10.723689486236573,10.000496385040282,10.815249486236572,9.863456385040283Q10.906819486236571,9.726426385040284,10.984509486236572,9.581066385040284Q11.062199486236572,9.435716385040283,11.125279486236572,9.283456385040283Q11.188349486236572,9.131186385040284,11.236189486236572,8.973476385040282Q11.284029486236573,8.815756385040284,11.316189486236572,8.654116385040282Q11.348339486236572,8.492466385040283,11.364489486236572,8.328456385040283Q11.380649486236571,8.164436385040283,11.380649486236571,7.999626385040283Q11.380649486236571,7.834806385040283,11.364489486236572,7.670796385040283Q11.348339486236572,7.506776385040283,11.316179486236571,7.345126385040283Q11.284029486236573,7.183486385040283,11.236189486236572,7.025766385040283Q11.188349486236572,6.868056385040283,11.125269486236572,6.715786385040284Q11.062199486236572,6.563526385040284,10.984509486236572,6.418176385040283Q10.906819486236571,6.2728263850402834,10.815249486236572,6.135786385040284Q10.723689486236573,5.998746385040283,10.619129486236572,5.871346385040283Q10.514579486236572,5.743946385040283,10.398039486236573,5.627409385040283Q10.281499486236573,5.510869385040284,10.154099486236571,5.406314385040283Q10.026689486236572,5.301759385040283,9.889659486236571,5.210194385040284Q9.752619486236572,5.118630385040284,9.607269486236572,5.040938385040283Q9.461919486236571,4.963247385040283,9.309649486236573,4.900176385040283Q9.157379486236572,4.837106385040284,8.999669486236574,4.789263385040283Q8.841949486236572,4.741421385040283,8.680309486236572,4.709268185040283Q8.518659486236572,4.677115085040283,8.354639486236572,4.660960785040283Q8.190619486236573,4.644806385040283,8.025809486236572,4.644806385040283Q7.860999486236572,4.644806385040283,7.696979486236572,4.660960785040283Q7.532959486236573,4.677115085040283,7.371309486236573,4.709268185040283Q7.209669486236573,4.741421385040283,7.051949486236572,4.789263385040283Q6.894229486236572,4.837106385040284,6.741969486236572,4.900176385040283Q6.589699486236572,4.963247385040283,6.444349486236572,5.040938385040283Q6.298999486236572,5.118630385040284,6.161959486236572,5.210194385040284Q6.0249194862365725,5.301759385040283,5.897519486236572,5.406314385040283Q5.770119486236572,5.510869385040284,5.6535794862365725,5.627409385040283Q5.537038486236572,5.743946385040283,5.432482486236572,5.871346385040283Q5.3279264862365725,5.998746385040283,5.236361486236572,6.135786385040284Q5.144796486236572,6.2728263850402834,5.067104486236572,6.418176385040283Q4.9894124862365725,6.563526385040284,4.926341486236573,6.715786385040284Q4.863270486236572,6.868056385040283,4.8154274862365725,7.025766385040283Q4.767585086236572,7.183486385040283,4.735431786236572,7.345126385040283Q4.703278386236573,7.506776385040283,4.687123986236572,7.670796385040283Q4.670969486236572,7.834806385040283,4.670969486236572,7.999626385040283Q4.670969486236572,8.164436385040283,4.687123986236572,8.328456385040283Q4.703278386236573,8.492466385040283,4.735431786236572,8.654116385040282Q4.767585086236572,8.815756385040284,4.8154274862365725,8.973476385040282Q4.863270486236572,9.131186385040284,4.926341486236573,9.283456385040283Q4.9894124862365725,9.435716385040283,5.067104486236572,9.581066385040284Q5.144796486236572,9.726426385040284,5.236361486236572,9.863456385040283Q5.3279264862365725,10.000496385040282,5.432482486236572,10.127896385040284Q5.537038486236572,10.255296385040284,5.6535794862365725,10.371836385040282Q5.770119486236572,10.488376385040283,5.897519486236572,10.592926385040283Q6.0249194862365725,10.697486385040282,6.161959486236572,10.789046385040283Q6.298999486236572,10.880616385040284,6.444349486236572,10.958306385040284Q6.589699486236572,11.035996385040283,6.741969486236572,11.099066385040283Q6.894229486236572,11.162136385040284,7.051949486236572,11.209986385040283Q7.209669486236573,11.257826385040282,7.371309486236573,11.289976385040283Q7.532959486236573,11.322126385040283,7.696979486236572,11.338286385040284Q7.860999486236572,11.354436385040284,8.025809486236572,11.354436385040284ZM8.025729486236573,10.425646385040285Q8.144899486236572,10.425646385040285,8.263499486236572,10.413966385040283Q8.382099486236573,10.402286385040284,8.498979486236571,10.379036385040283Q8.615869486236573,10.355786385040282,8.729909486236572,10.321196385040283Q8.843949486236571,10.286596385040284,8.954049486236572,10.240996385040283Q9.064149486236573,10.195386385040283,9.169249486236573,10.139216385040283Q9.274349486236572,10.083036385040284,9.373439486236572,10.016826385040282Q9.472529486236573,9.950616385040284,9.564649486236572,9.875016385040283Q9.656769486236573,9.799416385040283,9.741039486236573,9.715146385040283Q9.825299486236572,9.630886385040284,9.900909486236571,9.538756385040283Q9.976509486236573,9.446636385040282,10.042719486236571,9.347556385040283Q10.108919486236573,9.248466385040283,10.165099486236572,9.143366385040284Q10.221279486236572,9.038266385040284,10.266879486236572,8.928166385040283Q10.312489486236572,8.818066385040282,10.347079486236574,8.704026385040283Q10.381679486236571,8.589986385040284,10.404929486236572,8.473106385040284Q10.428179486236573,8.356226385040284,10.439859486236571,8.237626385040283Q10.451539486236573,8.119026385040282,10.451539486236573,7.9998563850402835Q10.451539486236573,7.880686385040283,10.439859486236571,7.762086385040283Q10.428179486236573,7.643486385040283,10.404929486236572,7.526606385040283Q10.381679486236571,7.409726385040283,10.347079486236574,7.295686385040283Q10.312489486236572,7.181646385040283,10.266879486236572,7.071546385040284Q10.221279486236572,6.961446385040283,10.165099486236572,6.856346385040283Q10.108919486236573,6.751246385040283,10.042719486236571,6.652156385040284Q9.976509486236573,6.553076385040283,9.900909486236571,6.460956385040284Q9.825299486236572,6.3688263850402835,9.741039486236573,6.284566385040283Q9.656769486236573,6.200296385040283,9.564649486236572,6.124696385040283Q9.472529486236573,6.049096385040283,9.373439486236572,5.982886385040283Q9.274349486236572,5.916676385040283,9.169249486236573,5.860496385040284Q9.064149486236573,5.804326385040284,8.954049486236572,5.758716385040283Q8.843949486236571,5.7131163850402835,8.729909486236572,5.678516385040283Q8.615869486236573,5.643926385040283,8.498979486236571,5.620677385040283Q8.382099486236573,5.597428385040283,8.263499486236572,5.585747385040284Q8.144899486236572,5.574066385040283,8.025729486236573,5.574066385040283Q7.9065594862365725,5.574066385040283,7.787959486236572,5.585747385040284Q7.669359486236573,5.597428385040283,7.552479486236573,5.620677385040283Q7.435599486236573,5.643926385040283,7.321559486236572,5.678516385040283Q7.207519486236572,5.7131163850402835,7.097419486236572,5.758716385040283Q6.9873094862365726,5.804326385040284,6.882209486236572,5.860496385040284Q6.777109486236572,5.916676385040283,6.678029486236572,5.982886385040283Q6.578939486236572,6.049096385040283,6.4868194862365725,6.124696385040283Q6.394689486236572,6.200296385040283,6.310429486236572,6.284566385040283Q6.226159486236572,6.3688263850402835,6.150559486236572,6.460956385040284Q6.074959486236573,6.553076385040283,6.008749486236573,6.652156385040284Q5.942539486236573,6.751246385040283,5.8863594862365725,6.856346385040283Q5.830179486236572,6.961446385040283,5.784579486236572,7.071546385040284Q5.738969486236572,7.181646385040283,5.704379486236572,7.295686385040283Q5.669785486236572,7.409726385040283,5.646535486236572,7.526606385040283Q5.623286486236572,7.643486385040283,5.611605486236572,7.762086385040283Q5.5999244862365725,7.880686385040283,5.5999244862365725,7.9998563850402835Q5.5999244862365725,8.119026385040282,5.611605486236572,8.237626385040283Q5.623286486236572,8.356226385040284,5.646535486236572,8.473106385040284Q5.669785486236572,8.589986385040284,5.704379486236572,8.704026385040283Q5.738969486236572,8.818066385040282,5.784579486236572,8.928166385040283Q5.830179486236572,9.038266385040284,5.8863594862365725,9.143366385040284Q5.942539486236573,9.248466385040283,6.008749486236573,9.347556385040283Q6.074959486236573,9.446636385040282,6.150559486236572,9.538766385040283Q6.226159486236572,9.630886385040284,6.310429486236572,9.715146385040283Q6.394689486236572,9.799416385040283,6.4868194862365725,9.875016385040283Q6.578939486236572,9.950616385040284,6.678029486236572,10.016826385040282Q6.777109486236572,10.083036385040284,6.882209486236572,10.139216385040283Q6.9873094862365726,10.195386385040283,7.097419486236572,10.240996385040283Q7.207519486236572,10.286596385040284,7.321559486236572,10.321196385040283Q7.435599486236573,10.355786385040282,7.552479486236573,10.379036385040283Q7.669359486236573,10.402286385040284,7.787959486236572,10.413966385040283Q7.9065594862365725,10.425646385040285,8.025729486236573,10.425646385040285Z" fill-rule="evenodd" fill="#000000" fill-opacity="0.75"/></g><g><path d="M8.025786539611817,10.425451612548828Q8.144956539611815,10.425451612548828,8.263556539611816,10.413771612548828Q8.382156539611817,10.402091612548828,8.499036539611817,10.378841612548829Q8.615916539611817,10.355591612548828,8.729956539611816,10.321001612548828Q8.843996539611815,10.28640161254883,8.954096539611816,10.240801612548829Q9.064196539611817,10.195191612548829,9.169296539611816,10.139021612548827Q9.274396539611816,10.082841612548828,9.373486539611816,10.016631612548828Q9.472576539611817,9.950421612548828,9.564696539611816,9.874821612548828Q9.656816539611818,9.799221612548827,9.741086539611818,9.714951612548827Q9.825356539611818,9.630691612548828,9.900956539611816,9.538561612548829Q9.976556539611817,9.446441612548828,10.042766539611815,9.347361612548827Q10.108976539611817,9.248271612548828,10.165156539611816,9.143171612548828Q10.221326539611816,9.038071612548828,10.266936539611816,8.927971612548827Q10.312536539611816,8.817871612548828,10.347136539611817,8.703831612548829Q10.381726539611815,8.589791612548828,10.404976539611816,8.472911612548828Q10.428226539611817,8.35603161254883,10.439906539611815,8.237431612548828Q10.451586539611817,8.118831612548828,10.451586539611817,7.999661612548828Q10.451586539611817,7.880491612548829,10.439906539611815,7.761891612548828Q10.428226539611817,7.643291612548828,10.404976539611816,7.526411612548828Q10.381726539611815,7.409531612548828,10.347136539611817,7.295491612548828Q10.312536539611816,7.181451612548829,10.266936539611816,7.071351612548828Q10.221326539611816,6.961251612548828,10.165156539611816,6.856151612548828Q10.108976539611817,6.751051612548828,10.042766539611815,6.651961612548828Q9.976556539611817,6.552877612548828,9.900956539611816,6.4607566125488285Q9.825356539611818,6.368635612548828,9.741086539611818,6.284368612548828Q9.656816539611818,6.200101612548828,9.564696539611816,6.124500612548828Q9.472576539611817,6.048898612548828,9.373486539611816,5.982690612548828Q9.274396539611816,5.916482612548828,9.169296539611816,5.860305612548828Q9.064196539611817,5.804128612548828,8.954096539611816,5.758523612548828Q8.843996539611815,5.712918612548828,8.729956539611816,5.678325612548828Q8.615916539611817,5.643731712548828,8.499036539611817,5.620482512548828Q8.382156539611817,5.597233312548828,8.263556539611816,5.585552412548828Q8.144956539611815,5.573871612548828,8.025786539611817,5.573871612548828Q7.906606539611817,5.573871612548828,7.788016539611816,5.585552412548828Q7.669416539611817,5.597233312548828,7.5525365396118165,5.620482512548828Q7.435646539611817,5.643731712548828,7.321606539611817,5.678325612548828Q7.2075665396118165,5.712918612548828,7.097466539611816,5.758523612548828Q6.987366539611816,5.804128612548828,6.882266539611816,5.860305612548828Q6.777166539611816,5.916482612548828,6.6780765396118165,5.982690612548828Q6.5789895396118165,6.048898612548828,6.486867539611817,6.124500612548828Q6.394746539611816,6.200101612548828,6.310478539611816,6.284368612548828Q6.226211539611817,6.368635612548828,6.150609539611817,6.4607566125488285Q6.075007539611816,6.552877612548828,6.008798539611816,6.651961612548828Q5.942590539611817,6.751051612548828,5.8864125396118165,6.856151612548828Q5.830235539611817,6.961251612548828,5.7846305396118165,7.071351612548828Q5.739024539611816,7.181451612548829,5.704430539611816,7.295491612548828Q5.669837039611816,7.409531612548828,5.6465877396118165,7.526411612548828Q5.623338339611816,7.643291612548828,5.611657439611816,7.761891612548828Q5.599976539611816,7.880491612548829,5.599976539611816,7.999661612548828Q5.599976539611816,8.118831612548828,5.611657439611816,8.237431612548828Q5.623338339611816,8.35603161254883,5.6465877396118165,8.472911612548828Q5.669837039611816,8.589791612548828,5.704430539611816,8.703831612548829Q5.739024539611816,8.817871612548828,5.7846305396118165,8.927971612548827Q5.830235539611817,9.038071612548828,5.8864125396118165,9.143171612548828Q5.942590539611817,9.248271612548828,6.008798539611816,9.347361612548827Q6.075007539611816,9.446441612548828,6.150609539611817,9.538561612548829Q6.226211539611817,9.630691612548828,6.310478539611816,9.714951612548827Q6.394746539611816,9.799221612548827,6.486867539611817,9.874821612548828Q6.5789895396118165,9.950421612548828,6.6780765396118165,10.016631612548828Q6.777166539611816,10.082841612548828,6.882266539611816,10.139021612548827Q6.987366539611816,10.195191612548829,7.097466539611816,10.240801612548829Q7.2075665396118165,10.28640161254883,7.321606539611817,10.321001612548828Q7.435646539611817,10.355591612548828,7.5525365396118165,10.378841612548829Q7.669416539611817,10.402091612548828,7.788016539611816,10.413771612548828Q7.906606539611817,10.425451612548828,8.025786539611817,10.425451612548828ZM7.999766539611816,8.470551612548828Q8.046116539611816,8.470551612548828,8.091566539611817,8.46151161254883Q8.137026539611817,8.452471612548829,8.179846539611816,8.434731612548829Q8.222666539611817,8.416991612548827,8.261206539611816,8.391241612548828Q8.299746539611817,8.365491612548828,8.332516539611817,8.332721612548827Q8.365296539611816,8.299951612548828,8.391046539611816,8.261411612548828Q8.416796539611816,8.222871612548829,8.434526539611817,8.180051612548828Q8.452266539611816,8.137231612548828,8.461306539611817,8.091771612548829Q8.470356539611817,8.046311612548829,8.470356539611817,7.999961612548828Q8.470356539611817,7.953611612548828,8.461306539611817,7.908161612548828Q8.452266539611816,7.862701612548828,8.434526539611817,7.819881612548828Q8.416796539611816,7.777061612548828,8.391046539611816,7.738521612548828Q8.365296539611816,7.699981612548829,8.332516539611817,7.667211612548828Q8.299746539611817,7.634431612548829,8.261206539611816,7.608681612548828Q8.222666539611817,7.582931612548828,8.179846539611816,7.565201612548828Q8.137026539611817,7.547461612548828,8.091566539611817,7.538421612548828Q8.046116539611816,7.529381612548828,7.999766539611816,7.529381612548828Q7.953416539611816,7.529381612548828,7.907956539611817,7.538421612548828Q7.862496539611817,7.547461612548828,7.819676539611816,7.565201612548828Q7.776856539611817,7.582931612548828,7.738316539611816,7.608681612548828Q7.6997765396118165,7.634431612548829,7.667006539611816,7.667211612548828Q7.634236539611816,7.699981612548829,7.608486539611816,7.738521612548828Q7.582736539611816,7.777061612548828,7.564996539611816,7.819881612548828Q7.5472565396118165,7.862701612548828,7.538216539611817,7.908161612548828Q7.529176539611816,7.953611612548828,7.529176539611816,7.999961612548828Q7.529176539611816,8.046311612548829,7.538216539611817,8.091771612548829Q7.5472565396118165,8.137231612548828,7.564996539611816,8.180051612548828Q7.582736539611816,8.222871612548829,7.608486539611816,8.261411612548828Q7.634236539611816,8.299951612548828,7.667006539611816,8.332721612548827Q7.6997765396118165,8.365491612548828,7.738316539611816,8.391241612548828Q7.776856539611817,8.416991612548827,7.819676539611816,8.434731612548829Q7.862496539611817,8.452471612548829,7.907956539611817,8.46151161254883Q7.953416539611816,8.470551612548828,7.999766539611816,8.470551612548828Z" fill-rule="evenodd" fill="#FC5053" fill-opacity="1"/></g><g><ellipse cx="7.999835968017578" cy="7.99922513961792" rx="5.176471710205078" ry="5.17647123336792" stroke="url(#master_svg3_1_0269)" fill-opacity="0" fill="none" stroke-width="0.17777779698371887"/></g><g style="opacity:0.4000000059604645;"><path d="M15.49119375,9.311127626447677C16.21569375,5.202417626447677,13.47219375,1.2843526264476774,9.36343375,0.5598766264476776C5.25470375,-0.16459937355232235,1.33660475,2.5788676264476775,0.61212375,6.687567626447677C-0.11235724999999996,10.796247626447677,2.63112375,14.714347626447678,6.73986375,15.438847626447677C10.84859375,16.163347626447678,14.76669375,13.419847626447678,15.49119375,9.311127626447677ZM8.05178375,10.425187626447677Q8.170953749999999,10.425187626447677,8.28955375,10.413507626447677Q8.40815375,10.401827626447677,8.52503375,10.378577626447678Q8.64191375,10.355327626447677,8.75595375,10.320737626447677Q8.86999375,10.286137626447678,8.98009375,10.240537626447678Q9.09020375,10.194927626447678,9.19530375,10.138757626447678Q9.30040375,10.082577626447678,9.39949375,10.016367626447678Q9.49857375,9.950157626447677,9.59070375,9.874557626447677Q9.68282375,9.798957626447677,9.76708375,9.714687626447677Q9.85135375,9.630427626447677,9.92695375,9.538307626447677Q10.00255375,9.446177626447678,10.06876375,9.347097626447677Q10.13497375,9.248007626447677,10.19115375,9.142907626447677Q10.24733375,9.037807626447677,10.29293375,8.927707626447678Q10.33854375,8.817607626447678,10.37313375,8.703567626447677Q10.40773375,8.589527626447678,10.43098375,8.472647626447678Q10.45423375,8.355767626447678,10.46591375,8.237167626447677Q10.47759375,8.118567626447678,10.47759375,7.999397626447678Q10.47759375,7.880227626447677,10.46591375,7.761627626447678Q10.45423375,7.643027626447678,10.43098375,7.526147626447678Q10.40773375,7.409267626447678,10.37313375,7.295227626447677Q10.33854375,7.181187626447677,10.29293375,7.071087626447677Q10.24733375,6.960987626447678,10.19115375,6.855887626447678Q10.13497375,6.750787626447678,10.06876375,6.651697626447677Q10.00255375,6.552617626447677,9.92695375,6.460497626447678Q9.85135375,6.368367626447678,9.76708375,6.284107626447677Q9.68282375,6.199837626447677,9.59070375,6.124237626447678Q9.49857375,6.048637626447678,9.39949375,5.982427626447677Q9.30040375,5.916217626447677,9.19530375,5.860037626447678Q9.09020375,5.803867626447677,8.98009375,5.758257626447677Q8.86999375,5.712657626447678,8.75595375,5.678057626447678Q8.64191375,5.643467626447678,8.52503375,5.620217626447678Q8.40815375,5.596967626447678,8.28955375,5.585287626447678Q8.170953749999999,5.573607626447678,8.05178375,5.573607626447678Q7.93261375,5.573607626447678,7.81401375,5.585287626447678Q7.69541375,5.596967626447678,7.57853375,5.620217626447678Q7.46165375,5.643467626447678,7.34760375,5.678057626447678Q7.23356375,5.712657626447678,7.12346375,5.758257626447677Q7.01336375,5.803867626447677,6.90826375,5.860037626447678Q6.80316375,5.916217626447677,6.70407375,5.982427626447677Q6.60499375,6.048637626447678,6.51286375,6.124237626447678Q6.42074375,6.199837626447677,6.33647375,6.284107626447677Q6.25221375,6.368367626447678,6.17661375,6.460497626447678Q6.10100375,6.552617626447677,6.03479375,6.651697626447677Q5.96859375,6.750787626447678,5.91241375,6.855887626447678Q5.85623375,6.960987626447678,5.81063375,7.071087626447677Q5.76502375,7.181187626447677,5.73043375,7.295227626447677Q5.69583375,7.409267626447678,5.67258375,7.526147626447678Q5.64933375,7.643027626447678,5.63765375,7.761627626447678Q5.62597375,7.880227626447677,5.62597375,7.999397626447678Q5.62597375,8.118567626447678,5.63765375,8.237167626447677Q5.64933375,8.355767626447678,5.67258375,8.472647626447678Q5.69583375,8.589527626447678,5.73043375,8.703567626447677Q5.76502375,8.817607626447678,5.81063375,8.927707626447678Q5.85623375,9.037807626447677,5.91241375,9.142907626447677Q5.96859375,9.248007626447677,6.03479375,9.347097626447677Q6.10100375,9.446177626447678,6.17661375,9.538307626447677Q6.25221375,9.630427626447677,6.33647375,9.714687626447677Q6.42074375,9.798957626447677,6.51286375,9.874557626447677Q6.60499375,9.950157626447677,6.70407375,10.016367626447678Q6.80316375,10.082577626447678,6.90826375,10.138757626447678Q7.01336375,10.194927626447678,7.12346375,10.240537626447678Q7.23356375,10.286137626447678,7.34760375,10.320737626447677Q7.46165375,10.355327626447677,7.57853375,10.378577626447678Q7.69541375,10.401827626447677,7.81401375,10.413507626447677Q7.93261375,10.425187626447677,8.05178375,10.425187626447677Z" fill-rule="evenodd" fill="url(#master_svg4_1_0037)" fill-opacity="1"/></g></g></g></svg>