<svg xmlns="http://www.w3.org/2000/svg" xmlns:xlink="http://www.w3.org/1999/xlink" fill="none" version="1.1" width="48" height="16" viewBox="0 0 48 16"><defs><linearGradient x1="0.953352689743042" y1="-1.0828357233094721e-7" x2="0.029411742463707924" y2="0.807692289352417" id="master_svg0_42_3838"><stop offset="0%" stop-color="#262523" stop-opacity="1"/><stop offset="0.009999999747378752%" stop-color="#3A2D2D" stop-opacity="1"/><stop offset="100%" stop-color="#262525" stop-opacity="1"/></linearGradient><linearGradient x1="0.00858865026384592" y1="0.8494802713394165" x2="0.9943768978118896" y2="0.13498008251190186" id="master_svg1_201_7361"><stop offset="0%" stop-color="#E1C0B8" stop-opacity="1"/><stop offset="100%" stop-color="#F5E5E3" stop-opacity="1"/></linearGradient><filter id="master_svg2_396_36796" filterUnits="objectBoundingBox" color-interpolation-filters="sRGB" x="0" y="0" width="14.666667938232422" height="14.666667938232422"><feFlood flood-opacity="0" result="BackgroundImageFix"/><feBlend mode="normal" in="SourceGraphic" in2="BackgroundImageFix" result="shape"/><feColorMatrix in="SourceAlpha" type="matrix" result="hardAlpha" values="0 0 0 0 0 0 0 0 0 0 0 0 0 0 0 0 0 0 127 0"/><feOffset dy="0" dx="0"/><feGaussianBlur stdDeviation="0"/><feComposite in2="hardAlpha" operator="arithmetic" k2="-1" k3="1"/><feColorMatrix type="matrix" values="0 0 0 0 1 0 0 0 0 1 0 0 0 0 1 0 0 0 0.05999999865889549 0"/><feBlend mode="normal" in2="shape" result="effect1_innerShadow"/></filter><linearGradient x1="0.8005221486091614" y1="1" x2="0.1780475229024887" y2="0.11369553208351135" id="master_svg3_1_0269"><stop offset="0%" stop-color="#646464" stop-opacity="0"/><stop offset="51.616716384887695%" stop-color="#646464" stop-opacity="0.9599999785423279"/><stop offset="99.99997019767761%" stop-color="#646464" stop-opacity="0"/></linearGradient><radialGradient cx="0" cy="0" r="1" gradientUnits="userSpaceOnUse" id="master_svg4_1_0037" gradientTransform="translate(8.13141267287972 7.971662075264419) rotate(99.96580482581263) scale(7.5812154231497395 7.5820724512482025)"><stop offset="32.26161003112793%" stop-color="#FFFFFF" stop-opacity="0"/><stop offset="35.70320904254913%" stop-color="#FFFFFF" stop-opacity="0.4000000059604645"/><stop offset="38.2797509431839%" stop-color="#FFFFFF" stop-opacity="0.6000000238418579"/><stop offset="41.35252237319946%" stop-color="#FFFFFF" stop-opacity="0.4000000059604645"/><stop offset="45.89686393737793%" stop-color="#FFFFFF" stop-opacity="0"/><stop offset="79.9826443195343%" stop-color="#FFFFFF" stop-opacity="0"/><stop offset="86.74278855323792%" stop-color="#FFFBF3" stop-opacity="0.8999999761581421"/><stop offset="93.06068420410156%" stop-color="#FFFFFF" stop-opacity="0"/></radialGradient><linearGradient x1="0.00858865026384592" y1="0.8494802713394165" x2="0.9943768978118896" y2="0.13498008251190186" id="master_svg5_1_2447"><stop offset="0%" stop-color="#E1C0B8" stop-opacity="1"/><stop offset="100%" stop-color="#F5E5E3" stop-opacity="1"/></linearGradient></defs><g><g><path d="M14.28512026976836,14.28569443359375Q14.59394588256836,13.97689443359375,14.87101588256836,13.63939443359375Q15.14808588256836,13.30179443359375,15.39073088256836,12.93869443359375Q15.633370882568359,12.57559443359375,15.83926088256836,12.19049443359375Q16.045140882568358,11.80529443359375,16.212280882568358,11.40184443359375Q16.379410882568358,10.99837443359375,16.506200882568358,10.58046443359375Q16.632980882568358,10.16256443359375,16.718190882568358,9.73423443359375Q16.803390882568358,9.305914433593749,16.84620088256836,8.87130443359375Q16.88901088256836,8.43669443359375,16.88901088256836,7.99997443359375Q16.88901088256836,7.56326443359375,16.84620088256836,7.12866443359375Q16.803390882568358,6.69405443359375,16.718190882568358,6.26573443359375Q16.632990882568357,5.83741443359375,16.50621088256836,5.419514433593751Q16.37943088256836,5.001614433593749,16.21230088256836,4.59815443359375Q16.04516088256836,4.1946944335937495,15.83928088256836,3.80955443359375Q15.63341088256836,3.42441443359375,15.39077088256836,3.06131443359375Q15.14813088256836,2.69821443359375,14.87106788256836,2.3606464335937503Q14.594005882568359,2.02307843359375,14.28518725356836,1.71429443359375L41.14286088256836,1.71429443359375C44.61436088256836,1.71429443359375,47.42856088256836,4.52850443359375,47.42856088256836,8.00000443359375C47.42856088256836,11.47151443359375,44.61436088256836,14.28569443359375,41.14286088256836,14.28569443359375L14.28512026976836,14.28569443359375Z" fill-rule="evenodd" fill="url(#master_svg0_42_3838)" fill-opacity="1"/></g><g><path d="M24.6241432421875,4.89398193359375L25.7679632421875,4.89398193359375L25.7679632421875,11.10649193359375L24.6241432421875,11.10649193359375L24.6241432421875,4.89398193359375ZM22.8298732421875,4.94164313359375L21.7304232421875,8.90216193359375L20.4326232421875,4.89398193359375L19.2000732421875,4.89398193359375L21.2586732421875,11.10715193359375L22.2354532421875,11.10715193359375L24.0617632421875,4.89398193359375L22.8429132421875,4.89398193359375L22.8298732421875,4.94164313359375ZM30.6844732421875,5.81410893359375C30.5121732421875,5.51754993359375,30.2779732421875,5.28983493359375,29.9823732421875,5.13162593359375C29.6867732421875,4.97341733359375,29.3553732421875,4.89398193359375,28.9886632421875,4.89398193359375L26.7088632421875,4.89398193359375L26.7088632421875,11.11112193359375L27.8552832421875,11.11112193359375L27.8552832421875,8.84788193359375L28.9886632421875,8.84788193359375C29.3553732421875,8.84788193359375,29.6867732421875,8.76712193359375,29.9823732421875,8.60560193359375C30.2779732421875,8.44408193359375,30.5121732421875,8.21504193359375,30.6844732421875,7.91848193359375C30.8567732421875,7.62192193359375,30.9434732421875,7.27108193359375,30.9434732421875,6.86596193359375C30.9434732421875,6.46084193359375,30.8573732421875,6.11000193359375,30.6844732421875,5.81344693359375L30.6844732421875,5.81410893359375ZM29.6652732421875,7.34125193359375C29.581773242187502,7.47629193359375,29.4682732421875,7.57890193359375,29.3253732421875,7.64973193359375C29.1824532421875,7.71989193359375,29.023893242187498,7.7556419335937505,28.8509832421875,7.7556419335937505L27.822013242187502,7.7556419335937505L27.822013242187502,5.95047193359375L28.8509832421875,5.95047193359375C29.023893242187498,5.95047193359375,29.1818032421875,5.98555193359375,29.3253732421875,6.05638193359375C29.4682732421875,6.12655193359375,29.581773242187502,6.22982193359375,29.6652732421875,6.36486193359375C29.7487732421875,6.49990193359375,29.7905732421875,6.66142193359375,29.7905732421875,6.84941193359375C29.7905732421875,7.03741193359375,29.7487732421875,7.20754193359375,29.6652732421875,7.34258193359375L29.6652732421875,7.34125193359375Z" fill="#000000" fill-opacity="1"/><path d="M24.6241432421875,4.89398193359375L25.7679632421875,4.89398193359375L25.7679632421875,11.10649193359375L24.6241432421875,11.10649193359375L24.6241432421875,4.89398193359375ZM22.8298732421875,4.94164313359375L21.7304232421875,8.90216193359375L20.4326232421875,4.89398193359375L19.2000732421875,4.89398193359375L21.2586732421875,11.10715193359375L22.2354532421875,11.10715193359375L24.0617632421875,4.89398193359375L22.8429132421875,4.89398193359375L22.8298732421875,4.94164313359375ZM30.6844732421875,5.81410893359375C30.5121732421875,5.51754993359375,30.2779732421875,5.28983493359375,29.9823732421875,5.13162593359375C29.6867732421875,4.97341733359375,29.3553732421875,4.89398193359375,28.9886632421875,4.89398193359375L26.7088632421875,4.89398193359375L26.7088632421875,11.11112193359375L27.8552832421875,11.11112193359375L27.8552832421875,8.84788193359375L28.9886632421875,8.84788193359375C29.3553732421875,8.84788193359375,29.6867732421875,8.76712193359375,29.9823732421875,8.60560193359375C30.2779732421875,8.44408193359375,30.5121732421875,8.21504193359375,30.6844732421875,7.91848193359375C30.8567732421875,7.62192193359375,30.9434732421875,7.27108193359375,30.9434732421875,6.86596193359375C30.9434732421875,6.46084193359375,30.8573732421875,6.11000193359375,30.6844732421875,5.81344693359375L30.6844732421875,5.81410893359375ZM29.6652732421875,7.34125193359375C29.581773242187502,7.47629193359375,29.4682732421875,7.57890193359375,29.3253732421875,7.64973193359375C29.1824532421875,7.71989193359375,29.023893242187498,7.7556419335937505,28.8509832421875,7.7556419335937505L27.822013242187502,7.7556419335937505L27.822013242187502,5.95047193359375L28.8509832421875,5.95047193359375C29.023893242187498,5.95047193359375,29.1818032421875,5.98555193359375,29.3253732421875,6.05638193359375C29.4682732421875,6.12655193359375,29.581773242187502,6.22982193359375,29.6652732421875,6.36486193359375C29.7487732421875,6.49990193359375,29.7905732421875,6.66142193359375,29.7905732421875,6.84941193359375C29.7905732421875,7.03741193359375,29.7487732421875,7.20754193359375,29.6652732421875,7.34258193359375L29.6652732421875,7.34125193359375Z" fill="url(#master_svg1_201_7361)" fill-opacity="1"/></g><g><g><ellipse cx="8" cy="7.9999470710754395" rx="8" ry="7.9999470710754395" fill="#262523" fill-opacity="1"/></g><g filter="url(#master_svg2_396_36796)"><path d="M7.99965080078125,15.3325935546875Q8.179680800781249,15.3325935546875,8.359480800781249,15.3236935546875Q8.539290800781249,15.3148935546875,8.71845080078125,15.2972935546875Q8.89760080078125,15.2795935546875,9.07568080078125,15.2531935546875Q9.25375080078125,15.2267935546875,9.43032080078125,15.1916935546875Q9.60688080078125,15.1564935546875,9.78151080078125,15.1127935546875Q9.95614080078125,15.0690935546875,10.12841080078125,15.0167935546875Q10.30068080078125,14.9644935546875,10.47018080078125,14.9038935546875Q10.63968080078125,14.8431935546875,10.80602080078125,14.7742935546875Q10.97232080078125,14.7054935546875,11.13502080078125,14.6284935546875Q11.29782080078125,14.5514935546875,11.45652080078125,14.4666935546875Q11.61532080078125,14.3817935546875,11.76972080078125,14.2891935546875Q11.92412080078125,14.1966935546875,12.07382080078125,14.0966935546875Q12.22352080078125,13.9966935546875,12.36812080078125,13.8893935546875Q12.51272080078125,13.7821935546875,12.65192080078125,13.6679935546875Q12.79102080078125,13.5537935546875,12.92442080078125,13.4328935546875Q13.05782080078125,13.3119935546875,13.18512080078125,13.1846935546875Q13.31242080078125,13.0573935546875,13.43332080078125,12.9239935546875Q13.55422080078125,12.7905935546875,13.66842080078125,12.6514935546875Q13.78262080078125,12.5122935546875,13.88982080078125,12.3676935546875Q13.99712080078125,12.2230935546875,14.09712080078125,12.0733935546875Q14.19712080078125,11.9236935546875,14.28962080078125,11.7692935546875Q14.38222080078125,11.6148935546875,14.46712080078125,11.4560935546875Q14.55192080078125,11.2973935546875,14.62892080078125,11.1345935546875Q14.70592080078125,10.9718935546875,14.77472080078125,10.8055935546875Q14.84362080078125,10.6392535546875,14.90432080078125,10.4697535546875Q14.96492080078125,10.3002535546875,15.01722080078125,10.1279835546875Q15.06952080078125,9.9557135546875,15.11322080078125,9.7810835546875Q15.15692080078125,9.6064535546875,15.19212080078125,9.4298935546875Q15.22722080078125,9.2533235546875,15.25362080078125,9.0752535546875Q15.28002080078125,8.8971735546875,15.29772080078125,8.7180235546875Q15.31532080078125,8.538863554687499,15.32412080078125,8.359053554687499Q15.33302080078125,8.179253554687499,15.33302080078125,7.9992235546875Q15.33302080078125,7.8192035546875,15.32412080078125,7.6393935546875Q15.31532080078125,7.4595935546875,15.29772080078125,7.2804335546875Q15.28002080078125,7.1012835546875,15.25362080078125,6.9232035546875Q15.22722080078125,6.7451335546875,15.19212080078125,6.5685635546875Q15.15692080078125,6.3920035546875,15.11322080078125,6.2173735546875Q15.06952080078125,6.0427435546875,15.01722080078125,5.8704735546875Q14.96492080078125,5.6982035546875,14.90432080078125,5.5287035546875Q14.84362080078125,5.3592035546875,14.77472080078125,5.1928835546875Q14.70592080078125,5.0265635546875,14.62892080078125,4.8638235546875Q14.55192080078125,4.7010835546875,14.46712080078125,4.5423135546874995Q14.38222080078125,4.3835535546875,14.28962080078125,4.2291435546875Q14.19712080078125,4.0747335546875,14.09712080078125,3.9250435546875Q13.99712080078125,3.7753635546875,13.88982080078125,3.6307635546875Q13.78262080078125,3.4861735546875,13.66842080078125,3.3470135546875Q13.55422080078125,3.2078535546875,13.43332080078125,3.0744635546875Q13.31242080078125,2.9410735546875,13.18512080078125,2.8137735546875Q13.05782080078125,2.6864835546875,12.92442080078125,2.5655835546875Q12.79102080078125,2.4446935546875,12.65192080078125,2.3304835546875Q12.51272080078125,2.2162735546875,12.36812080078125,2.1090335546875Q12.22352080078125,2.0017935546875,12.07382080078125,1.9017835546875Q11.92412080078125,1.8017635546875,11.76972080078125,1.7092135546875Q11.61532080078125,1.6166665546874999,11.45652080078125,1.5318045546875Q11.29782080078125,1.4469415546875,11.13502080078125,1.3699715546875Q10.97232080078125,1.2930025546875,10.80602080078125,1.2241105546875Q10.63968080078125,1.1552185546875,10.47018080078125,1.0945705546875Q10.30068080078125,1.0339225546875,10.12841080078125,0.9816645546875Q9.95614080078125,0.9294065546875,9.78151080078125,0.8856645546874999Q9.60688080078125,0.8419225546875,9.43032080078125,0.8068015546875Q9.25375080078125,0.7716805546875,9.07568080078125,0.7452658546875Q8.89760080078125,0.7188509546875,8.71845080078125,0.7012055546875Q8.539290800781249,0.6835601546875,8.359480800781249,0.6747268746875Q8.179680800781249,0.6658935546875,7.99965080078125,0.6658935546875Q7.81963080078125,0.6658935546875,7.63982080078125,0.6747268746875Q7.46002080078125,0.6835601546875,7.28086080078125,0.7012055546875Q7.10171080078125,0.7188509546875,6.92363080078125,0.7452658546875Q6.74556080078125,0.7716805546875,6.56899080078125,0.8068015546875Q6.39243080078125,0.8419225546875,6.21780080078125,0.8856645546874999Q6.04317080078125,0.9294065546875,5.87090080078125,0.9816645546875Q5.69863080078125,1.0339225546875,5.52913080078125,1.0945705546875Q5.35963080078125,1.1552185546875,5.19331080078125,1.2241105546875Q5.02699080078125,1.2930025546875,4.86425080078125,1.3699715546875Q4.70151080078125,1.4469415546875,4.5427408007812495,1.5318045546875Q4.38398080078125,1.6166665546874999,4.22957080078125,1.7092135546875Q4.07516080078125,1.8017635546875,3.92547080078125,1.9017835546875Q3.77579080078125,2.0018035546875,3.63119080078125,2.1090335546875Q3.48660080078125,2.2162735546875,3.34744080078125,2.3304835546875Q3.20828080078125,2.4446935546875,3.07489080078125,2.5655835546875Q2.94150080078125,2.6864835546875,2.81420080078125,2.8137735546875Q2.68691080078125,2.9410735546875,2.56601080078125,3.0744635546875Q2.44512080078125,3.2078535546875,2.33091080078125,3.3470135546875Q2.21670080078125,3.4861735546875,2.10946080078125,3.6307635546875Q2.00222080078125,3.7753635546875,1.90221080078125,3.9250435546875Q1.80219080078125,4.0747335546875,1.70964080078125,4.2291435546875Q1.6170938007812499,4.3835535546875,1.53223180078125,4.5423135546874995Q1.44736880078125,4.7010835546875,1.37039880078125,4.8638235546875Q1.29342980078125,5.0265635546875,1.22453780078125,5.1928835546875Q1.15564580078125,5.3592035546875,1.09499780078125,5.5287035546875Q1.03434980078125,5.6982035546875,0.98209180078125,5.8704735546875Q0.92983380078125,6.0427435546875,0.8860918007812499,6.2173735546875Q0.84234980078125,6.3920035546875,0.80722880078125,6.5685635546875Q0.77210780078125,6.7451335546875,0.74569310078125,6.9232035546875Q0.71927820078125,7.1012835546875,0.70163280078125,7.2804335546875Q0.68398740078125,7.4595935546875,0.67515412078125,7.6393935546875Q0.66632080078125,7.8192035546875,0.66632080078125,7.9992235546875Q0.66632080078125,8.179253554687499,0.67515412078125,8.359053554687499Q0.68398740078125,8.538863554687499,0.70163280078125,8.7180235546875Q0.71927820078125,8.8971735546875,0.74569310078125,9.0752535546875Q0.77210780078125,9.2533235546875,0.80722880078125,9.4298935546875Q0.84234980078125,9.6064535546875,0.8860918007812499,9.7810835546875Q0.92983380078125,9.9557135546875,0.98209180078125,10.1279835546875Q1.03434980078125,10.3002535546875,1.09499780078125,10.4697535546875Q1.15564580078125,10.6392535546875,1.22453780078125,10.8055935546875Q1.29342980078125,10.9718935546875,1.37039880078125,11.1345935546875Q1.44736880078125,11.2973935546875,1.53223180078125,11.4560935546875Q1.6170938007812499,11.6148935546875,1.70964080078125,11.7692935546875Q1.80219080078125,11.9236935546875,1.90221080078125,12.0733935546875Q2.00223080078125,12.2230935546875,2.10946080078125,12.3676935546875Q2.21670080078125,12.5122935546875,2.33091080078125,12.6514935546875Q2.44512080078125,12.7905935546875,2.56601080078125,12.9239935546875Q2.68691080078125,13.0573935546875,2.81420080078125,13.1846935546875Q2.94150080078125,13.3119935546875,3.07489080078125,13.4328935546875Q3.20828080078125,13.5537935546875,3.34744080078125,13.6679935546875Q3.48660080078125,13.7821935546875,3.63119080078125,13.8893935546875Q3.77579080078125,13.9966935546875,3.92547080078125,14.0966935546875Q4.07516080078125,14.1966935546875,4.22957080078125,14.2891935546875Q4.38398080078125,14.3817935546875,4.5427408007812495,14.4666935546875Q4.70151080078125,14.5514935546875,4.86425080078125,14.6284935546875Q5.02699080078125,14.7054935546875,5.19331080078125,14.7742935546875Q5.35963080078125,14.8431935546875,5.52913080078125,14.9038935546875Q5.69863080078125,14.9644935546875,5.87090080078125,15.0167935546875Q6.04317080078125,15.0690935546875,6.21780080078125,15.1127935546875Q6.39243080078125,15.1564935546875,6.56899080078125,15.1916935546875Q6.74556080078125,15.2267935546875,6.92363080078125,15.2531935546875Q7.10171080078125,15.2795935546875,7.28086080078125,15.2972935546875Q7.46002080078125,15.3148935546875,7.63982080078125,15.3236935546875Q7.81963080078125,15.3325935546875,7.99965080078125,15.3325935546875ZM7.99981080078125,10.4612835546875Q8.12075080078125,10.4612835546875,8.24112080078125,10.4494335546875Q8.36148080078125,10.4375735546875,8.480100800781251,10.4139835546875Q8.598720800781251,10.3903835546875,8.71446080078125,10.3552735546875Q8.83020080078125,10.3201635546875,8.94193080078125,10.2738835546875Q9.05367080078125,10.2276035546875,9.16034080078125,10.1705835546875Q9.26700080078125,10.1135735546875,9.36757080078125,10.0463735546875Q9.46813080078125,9.9791835546875,9.56162080078125,9.9024535546875Q9.65511080078125,9.8257335546875,9.74064080078125,9.7402135546875Q9.82616080078125,9.6546935546875,9.90288080078125,9.5611935546875Q9.97961080078125,9.4677035546875,10.04680080078125,9.3671435546875Q10.11400080078125,9.2665835546875,10.17101080078125,9.1599135546875Q10.22803080078125,9.0532535546875,10.27431080078125,8.9415135546875Q10.32059080078125,8.8297735546875,10.35570080078125,8.7140335546875Q10.39081080078125,8.598293554687501,10.41441080078125,8.479673554687501Q10.43800080078125,8.3610535546875,10.44986080078125,8.2406935546875Q10.46171080078125,8.1203235546875,10.46171080078125,7.9993835546875Q10.46171080078125,7.8784335546875,10.44986080078125,7.7580735546875Q10.43800080078125,7.6377035546875,10.41441080078125,7.5190835546875Q10.39081080078125,7.4004635546875,10.35570080078125,7.2847235546875Q10.32059080078125,7.1689935546875,10.27431080078125,7.0572535546875Q10.22803080078125,6.9455135546875,10.17101080078125,6.8388435546875Q10.11400080078125,6.7321835546875,10.04680080078125,6.6316235546875Q9.97961080078125,6.5310535546875,9.90288080078125,6.4375635546875Q9.82616080078125,6.3440735546875,9.74064080078125,6.2585535546875Q9.65512080078125,6.1730335546875,9.56162080078125,6.0963035546875Q9.46813080078125,6.0195735546875,9.36757080078125,5.9523835546875Q9.26701080078125,5.8851835546875,9.16034080078125,5.8281735546875Q9.05368080078125,5.7711635546875,8.94194080078125,5.7248735546875Q8.83020080078125,5.6785935546875,8.71446080078125,5.6434835546875Q8.598720800781251,5.6083735546875,8.480100800781251,5.5847835546875Q8.36148080078125,5.5611835546875,8.24112080078125,5.5493335546875Q8.12075080078125,5.5374735546875,7.99981080078125,5.5374735546875Q7.87886080078125,5.5374735546875,7.75850080078125,5.5493335546875Q7.63813080078125,5.5611835546875,7.51951080078125,5.5847835546875Q7.40089080078125,5.6083735546875,7.28515080078125,5.6434835546875Q7.16942080078125,5.6785935546875,7.05768080078125,5.7248735546875Q6.94594080078125,5.7711635546875,6.83927080078125,5.8281735546875Q6.73261080078125,5.8851835546875,6.63205080078125,5.9523835546875Q6.53148080078125,6.0195735546875,6.43799080078125,6.0963035546875Q6.34450080078125,6.1730335546875,6.25898080078125,6.2585535546875Q6.17346080078125,6.3440735546875,6.09673080078125,6.4375635546875Q6.02000080078125,6.5310535546875,5.95281080078125,6.6316235546875Q5.88561080078125,6.7321835546875,5.82860080078125,6.8388435546875Q5.77159080078125,6.9455135546875,5.72530080078125,7.0572535546875Q5.67902080078125,7.1689935546875,5.64391080078125,7.2847235546875Q5.60880080078125,7.4004635546875,5.58521080078125,7.5190835546875Q5.56161080078125,7.6377035546875,5.54976080078125,7.7580735546875Q5.53790080078125,7.8784335546875,5.53790080078125,7.9993835546875Q5.53790080078125,8.1203235546875,5.54976080078125,8.2406935546875Q5.56161080078125,8.3610535546875,5.58521080078125,8.479673554687501Q5.60880080078125,8.598293554687501,5.64391080078125,8.7140335546875Q5.67902080078125,8.8297735546875,5.72530080078125,8.9415035546875Q5.77159080078125,9.0532435546875,5.82860080078125,9.1599135546875Q5.88561080078125,9.2665735546875,5.95281080078125,9.3671435546875Q6.02000080078125,9.4677035546875,6.09673080078125,9.5611935546875Q6.17346080078125,9.6546835546875,6.25898080078125,9.7402135546875Q6.34450080078125,9.8257335546875,6.43799080078125,9.9024535546875Q6.53148080078125,9.9791835546875,6.63205080078125,10.0463735546875Q6.73261080078125,10.1135735546875,6.83927080078125,10.1705835546875Q6.94594080078125,10.2276035546875,7.05768080078125,10.2738835546875Q7.16942080078125,10.3201635546875,7.28515080078125,10.3552735546875Q7.40089080078125,10.3903835546875,7.51951080078125,10.4139835546875Q7.63813080078125,10.4375735546875,7.75850080078125,10.4494335546875Q7.87886080078125,10.4612835546875,7.99981080078125,10.4612835546875Z" fill-rule="evenodd" fill="#463C3C" fill-opacity="1"/></g><g><path d="M8.025809486236572,11.354436385040284Q8.190619486236573,11.354436385040284,8.354639486236572,11.338286385040284Q8.518659486236572,11.322126385040283,8.680309486236572,11.289976385040283Q8.841949486236572,11.257826385040282,8.999669486236574,11.209986385040283Q9.157379486236572,11.162136385040284,9.309649486236573,11.099066385040283Q9.461919486236571,11.035996385040283,9.607269486236572,10.958306385040284Q9.752619486236572,10.880616385040284,9.889659486236571,10.789046385040283Q10.026689486236572,10.697486385040282,10.154099486236571,10.592926385040283Q10.281499486236573,10.488376385040283,10.398039486236573,10.371836385040282Q10.514579486236572,10.255296385040284,10.619129486236572,10.127896385040284Q10.723689486236573,10.000496385040282,10.815249486236572,9.863456385040283Q10.906819486236571,9.726426385040284,10.984509486236572,9.581066385040284Q11.062199486236572,9.435716385040283,11.125279486236572,9.283456385040283Q11.188349486236572,9.131186385040284,11.236189486236572,8.973476385040282Q11.284029486236573,8.815756385040284,11.316189486236572,8.654116385040282Q11.348339486236572,8.492466385040283,11.364489486236572,8.328456385040283Q11.380649486236571,8.164436385040283,11.380649486236571,7.999626385040283Q11.380649486236571,7.834806385040283,11.364489486236572,7.670796385040283Q11.348339486236572,7.506776385040283,11.316179486236571,7.345126385040283Q11.284029486236573,7.183486385040283,11.236189486236572,7.025766385040283Q11.188349486236572,6.868056385040283,11.125269486236572,6.715786385040284Q11.062199486236572,6.563526385040284,10.984509486236572,6.418176385040283Q10.906819486236571,6.2728263850402834,10.815249486236572,6.135786385040284Q10.723689486236573,5.998746385040283,10.619129486236572,5.871346385040283Q10.514579486236572,5.743946385040283,10.398039486236573,5.627409385040283Q10.281499486236573,5.510869385040284,10.154099486236571,5.406314385040283Q10.026689486236572,5.301759385040283,9.889659486236571,5.210194385040284Q9.752619486236572,5.118630385040284,9.607269486236572,5.040938385040283Q9.461919486236571,4.963247385040283,9.309649486236573,4.900176385040283Q9.157379486236572,4.837106385040284,8.999669486236574,4.789263385040283Q8.841949486236572,4.741421385040283,8.680309486236572,4.709268185040283Q8.518659486236572,4.677115085040283,8.354639486236572,4.660960785040283Q8.190619486236573,4.644806385040283,8.025809486236572,4.644806385040283Q7.860999486236572,4.644806385040283,7.696979486236572,4.660960785040283Q7.532959486236573,4.677115085040283,7.371309486236573,4.709268185040283Q7.209669486236573,4.741421385040283,7.051949486236572,4.789263385040283Q6.894229486236572,4.837106385040284,6.741969486236572,4.900176385040283Q6.589699486236572,4.963247385040283,6.444349486236572,5.040938385040283Q6.298999486236572,5.118630385040284,6.161959486236572,5.210194385040284Q6.0249194862365725,5.301759385040283,5.897519486236572,5.406314385040283Q5.770119486236572,5.510869385040284,5.6535794862365725,5.627409385040283Q5.537038486236572,5.743946385040283,5.432482486236572,5.871346385040283Q5.3279264862365725,5.998746385040283,5.236361486236572,6.135786385040284Q5.144796486236572,6.2728263850402834,5.067104486236572,6.418176385040283Q4.9894124862365725,6.563526385040284,4.926341486236573,6.715786385040284Q4.863270486236572,6.868056385040283,4.8154274862365725,7.025766385040283Q4.767585086236572,7.183486385040283,4.735431786236572,7.345126385040283Q4.703278386236573,7.506776385040283,4.687123986236572,7.670796385040283Q4.670969486236572,7.834806385040283,4.670969486236572,7.999626385040283Q4.670969486236572,8.164436385040283,4.687123986236572,8.328456385040283Q4.703278386236573,8.492466385040283,4.735431786236572,8.654116385040282Q4.767585086236572,8.815756385040284,4.8154274862365725,8.973476385040282Q4.863270486236572,9.131186385040284,4.926341486236573,9.283456385040283Q4.9894124862365725,9.435716385040283,5.067104486236572,9.581066385040284Q5.144796486236572,9.726426385040284,5.236361486236572,9.863456385040283Q5.3279264862365725,10.000496385040282,5.432482486236572,10.127896385040284Q5.537038486236572,10.255296385040284,5.6535794862365725,10.371836385040282Q5.770119486236572,10.488376385040283,5.897519486236572,10.592926385040283Q6.0249194862365725,10.697486385040282,6.161959486236572,10.789046385040283Q6.298999486236572,10.880616385040284,6.444349486236572,10.958306385040284Q6.589699486236572,11.035996385040283,6.741969486236572,11.099066385040283Q6.894229486236572,11.162136385040284,7.051949486236572,11.209986385040283Q7.209669486236573,11.257826385040282,7.371309486236573,11.289976385040283Q7.532959486236573,11.322126385040283,7.696979486236572,11.338286385040284Q7.860999486236572,11.354436385040284,8.025809486236572,11.354436385040284ZM8.025979486236572,10.425646385040285Q8.145149486236573,10.425646385040285,8.263749486236572,10.413966385040283Q8.382339486236573,10.402286385040284,8.499229486236572,10.379036385040283Q8.616109486236573,10.355786385040282,8.730149486236572,10.321196385040283Q8.844189486236573,10.286596385040284,8.954289486236572,10.240996385040283Q9.064389486236571,10.195386385040283,9.169489486236571,10.139216385040283Q9.274589486236572,10.083036385040284,9.373679486236572,10.016826385040282Q9.472769486236572,9.950616385040284,9.564889486236572,9.875016385040283Q9.657009486236571,9.799416385040283,9.741279486236571,9.715146385040283Q9.825549486236572,9.630886385040284,9.901149486236573,9.538756385040283Q9.976749486236573,9.446636385040282,10.042959486236573,9.347556385040283Q10.109169486236572,9.248466385040283,10.165349486236572,9.143366385040284Q10.221519486236573,9.038266385040284,10.267129486236573,8.928166385040283Q10.312729486236572,8.818066385040282,10.347329486236571,8.704026385040283Q10.381919486236573,8.589986385040284,10.405169486236574,8.473106385040284Q10.428419486236573,8.356226385040284,10.440099486236573,8.237626385040283Q10.451779486236571,8.119026385040282,10.451779486236571,7.9998563850402835Q10.451779486236571,7.880686385040283,10.440099486236573,7.762086385040283Q10.428419486236573,7.643486385040283,10.405169486236574,7.526606385040283Q10.381919486236573,7.409726385040283,10.347329486236571,7.295686385040283Q10.312729486236572,7.181646385040283,10.267129486236573,7.071546385040284Q10.221519486236573,6.961446385040283,10.165349486236572,6.856346385040283Q10.109169486236572,6.751246385040283,10.042959486236573,6.652156385040284Q9.976749486236573,6.553076385040283,9.901149486236573,6.460956385040284Q9.825549486236572,6.3688263850402835,9.741279486236571,6.284566385040283Q9.657009486236571,6.200296385040283,9.564889486236572,6.124696385040283Q9.472769486236572,6.049096385040283,9.373679486236572,5.982886385040283Q9.274589486236572,5.916676385040283,9.169489486236571,5.860496385040284Q9.064389486236571,5.804326385040284,8.954289486236572,5.758716385040283Q8.844189486236573,5.7131163850402835,8.730149486236572,5.678516385040283Q8.616109486236573,5.643926385040283,8.499229486236572,5.620677385040283Q8.382339486236573,5.597428385040283,8.263749486236572,5.585747385040284Q8.145149486236573,5.574066385040283,8.025979486236572,5.574066385040283Q7.906799486236572,5.574066385040283,7.788209486236572,5.585747385040284Q7.669609486236572,5.597428385040283,7.5527194862365725,5.620677385040283Q7.435839486236572,5.643926385040283,7.321799486236572,5.678516385040283Q7.207759486236572,5.7131163850402835,7.097659486236572,5.758716385040283Q6.987559486236572,5.804326385040284,6.882459486236572,5.860496385040284Q6.7773594862365725,5.916676385040283,6.678269486236572,5.982886385040283Q6.579179486236573,6.049096385040283,6.487059486236572,6.124696385040283Q6.394939486236572,6.200296385040283,6.310669486236572,6.284566385040283Q6.226399486236573,6.3688263850402835,6.150799486236572,6.460956385040284Q6.075199486236572,6.553076385040283,6.0089894862365725,6.652156385040284Q5.942779486236573,6.751246385040283,5.886609486236573,6.856346385040283Q5.830429486236572,6.961446385040283,5.7848194862365725,7.071546385040284Q5.739219486236572,7.181646385040283,5.704619486236572,7.295686385040283Q5.670029486236572,7.409726385040283,5.646779486236572,7.526606385040283Q5.6235304862365725,7.643486385040283,5.611849486236572,7.762086385040283Q5.600168486236572,7.880686385040283,5.600168486236572,7.9998563850402835Q5.600168486236572,8.119026385040282,5.611849486236572,8.237626385040283Q5.6235304862365725,8.356226385040284,5.646779486236572,8.473106385040284Q5.670029486236572,8.589986385040284,5.704619486236572,8.704026385040283Q5.739219486236572,8.818066385040282,5.7848194862365725,8.928166385040283Q5.830429486236572,9.038266385040284,5.886609486236573,9.143366385040284Q5.942779486236573,9.248466385040283,6.0089894862365725,9.347556385040283Q6.075199486236572,9.446636385040282,6.150799486236572,9.538766385040283Q6.226399486236573,9.630886385040284,6.310669486236572,9.715146385040283Q6.394939486236572,9.799416385040283,6.487059486236572,9.875016385040283Q6.579179486236573,9.950616385040284,6.678269486236572,10.016826385040282Q6.7773594862365725,10.083036385040284,6.882459486236572,10.139216385040283Q6.987559486236572,10.195386385040283,7.097659486236572,10.240996385040283Q7.207759486236572,10.286596385040284,7.321799486236572,10.321196385040283Q7.435839486236572,10.355786385040282,7.5527194862365725,10.379036385040283Q7.669609486236572,10.402286385040284,7.788209486236572,10.413966385040283Q7.906799486236572,10.425646385040285,8.025979486236572,10.425646385040285Z" fill-rule="evenodd" fill="#000000" fill-opacity="0.75"/></g><g><path d="M8.025725504455567,10.425451612548828Q8.144895504455565,10.425451612548828,8.263495504455566,10.413771612548828Q8.382095504455567,10.402091612548828,8.498975504455567,10.378841612548829Q8.615855504455567,10.355591612548828,8.729895504455566,10.321001612548828Q8.843935504455565,10.28640161254883,8.954035504455566,10.240801612548829Q9.064135504455567,10.195191612548829,9.169235504455566,10.139021612548827Q9.274335504455566,10.082841612548828,9.373425504455566,10.016631612548828Q9.472515504455567,9.950421612548828,9.564635504455566,9.874821612548828Q9.656755504455568,9.799221612548827,9.741025504455568,9.714951612548827Q9.825295504455568,9.630691612548828,9.900895504455566,9.538561612548829Q9.976495504455567,9.446441612548828,10.042705504455565,9.347361612548827Q10.108915504455567,9.248271612548828,10.165095504455566,9.143171612548828Q10.221265504455566,9.038071612548828,10.266875504455566,8.927971612548827Q10.312475504455566,8.817871612548828,10.347075504455567,8.703831612548829Q10.381665504455565,8.589791612548828,10.404915504455566,8.472911612548828Q10.428165504455567,8.35603161254883,10.439845504455565,8.237431612548828Q10.451525504455567,8.118831612548828,10.451525504455567,7.999661612548828Q10.451525504455567,7.880491612548829,10.439845504455565,7.761891612548828Q10.428165504455567,7.643291612548828,10.404915504455566,7.526411612548828Q10.381665504455565,7.409531612548828,10.347075504455567,7.295491612548828Q10.312475504455566,7.181451612548829,10.266875504455566,7.071351612548828Q10.221265504455566,6.961251612548828,10.165095504455566,6.856151612548828Q10.108915504455567,6.751051612548828,10.042705504455565,6.651961612548828Q9.976495504455567,6.552877612548828,9.900895504455566,6.4607566125488285Q9.825295504455568,6.368635612548828,9.741025504455568,6.284368612548828Q9.656755504455568,6.200101612548828,9.564635504455566,6.124500612548828Q9.472515504455567,6.048898612548828,9.373425504455566,5.982690612548828Q9.274335504455566,5.916482612548828,9.169235504455566,5.860305612548828Q9.064135504455567,5.804128612548828,8.954035504455566,5.758523612548828Q8.843935504455565,5.712918612548828,8.729895504455566,5.678325612548828Q8.615855504455567,5.643731712548828,8.498975504455567,5.620482512548828Q8.382095504455567,5.597233312548828,8.263495504455566,5.585552412548828Q8.144895504455565,5.573871612548828,8.025725504455567,5.573871612548828Q7.906545504455567,5.573871612548828,7.787955504455566,5.585552412548828Q7.669355504455567,5.597233312548828,7.5524755044555665,5.620482512548828Q7.435585504455567,5.643731712548828,7.321545504455567,5.678325612548828Q7.2075055044555665,5.712918612548828,7.097405504455566,5.758523612548828Q6.987305504455566,5.804128612548828,6.882205504455566,5.860305612548828Q6.777105504455566,5.916482612548828,6.6780155044555665,5.982690612548828Q6.5789285044555665,6.048898612548828,6.486806504455567,6.124500612548828Q6.394685504455566,6.200101612548828,6.310417504455566,6.284368612548828Q6.226150504455567,6.368635612548828,6.150548504455567,6.4607566125488285Q6.074946504455566,6.552877612548828,6.008737504455566,6.651961612548828Q5.942529504455567,6.751051612548828,5.8863515044555665,6.856151612548828Q5.830174504455567,6.961251612548828,5.7845695044555665,7.071351612548828Q5.738963504455566,7.181451612548829,5.704369504455566,7.295491612548828Q5.669776004455566,7.409531612548828,5.6465267044555665,7.526411612548828Q5.623277304455566,7.643291612548828,5.611596404455566,7.761891612548828Q5.599915504455566,7.880491612548829,5.599915504455566,7.999661612548828Q5.599915504455566,8.118831612548828,5.611596404455566,8.237431612548828Q5.623277304455566,8.35603161254883,5.6465267044555665,8.472911612548828Q5.669776004455566,8.589791612548828,5.704369504455566,8.703831612548829Q5.738963504455566,8.817871612548828,5.7845695044555665,8.927971612548827Q5.830174504455567,9.038071612548828,5.8863515044555665,9.143171612548828Q5.942529504455567,9.248271612548828,6.008737504455566,9.347361612548827Q6.074946504455566,9.446441612548828,6.150548504455567,9.538561612548829Q6.226150504455567,9.630691612548828,6.310417504455566,9.714951612548827Q6.394685504455566,9.799221612548827,6.486806504455567,9.874821612548828Q6.5789285044555665,9.950421612548828,6.6780155044555665,10.016631612548828Q6.777105504455566,10.082841612548828,6.882205504455566,10.139021612548827Q6.987305504455566,10.195191612548829,7.097405504455566,10.240801612548829Q7.2075055044555665,10.28640161254883,7.321545504455567,10.321001612548828Q7.435585504455567,10.355591612548828,7.5524755044555665,10.378841612548829Q7.669355504455567,10.402091612548828,7.787955504455566,10.413771612548828Q7.906545504455567,10.425451612548828,8.025725504455567,10.425451612548828ZM7.999825504455567,8.470551612548828Q8.046175504455567,8.470551612548828,8.091635504455567,8.46151161254883Q8.137085504455566,8.452471612548829,8.179915504455566,8.434731612548829Q8.222735504455567,8.416991612548827,8.261265504455567,8.391241612548828Q8.299805504455566,8.365491612548828,8.332585504455567,8.332721612548827Q8.365355504455566,8.299951612548828,8.391105504455567,8.261411612548828Q8.416855504455567,8.222871612548829,8.434595504455567,8.180051612548828Q8.452325504455565,8.137231612548828,8.461365504455566,8.091771612548829Q8.470415504455566,8.046311612548829,8.470415504455566,7.999961612548828Q8.470415504455566,7.953611612548828,8.461375504455567,7.908161612548828Q8.452325504455565,7.862701612548828,8.434595504455567,7.819881612548828Q8.416855504455567,7.777061612548828,8.391105504455567,7.738521612548828Q8.365355504455566,7.699981612548829,8.332585504455567,7.667211612548828Q8.299805504455566,7.634431612548829,8.261265504455567,7.608681612548828Q8.222735504455567,7.582931612548828,8.179915504455566,7.565201612548828Q8.137085504455566,7.547461612548828,8.091635504455567,7.538421612548828Q8.046175504455567,7.529381612548828,7.999825504455567,7.529381612548828Q7.953475504455566,7.529381612548828,7.908015504455566,7.538421612548828Q7.862555504455567,7.547461612548828,7.819735504455567,7.565201612548828Q7.776915504455566,7.582931612548828,7.738375504455567,7.608681612548828Q7.699845504455567,7.634431612548829,7.667065504455566,7.667211612548828Q7.634295504455567,7.699981612548829,7.6085455044555665,7.738521612548828Q7.582795504455566,7.777061612548828,7.565055504455566,7.819881612548828Q7.547325504455566,7.862701612548828,7.538275504455567,7.908161612548828Q7.529235504455566,7.953611612548828,7.529235504455566,7.999961612548828Q7.529235504455566,8.046311612548829,7.538275504455567,8.091771612548829Q7.547325504455566,8.137231612548828,7.565055504455566,8.180051612548828Q7.582795504455566,8.222871612548829,7.6085455044555665,8.261411612548828Q7.634295504455567,8.299951612548828,7.667065504455566,8.332721612548827Q7.699845504455567,8.365491612548828,7.738375504455567,8.391241612548828Q7.776915504455566,8.416991612548827,7.819735504455567,8.434731612548829Q7.862555504455567,8.452471612548829,7.908015504455566,8.46151161254883Q7.953475504455566,8.470551612548828,7.999825504455567,8.470551612548828Z" fill-rule="evenodd" fill="#FC5053" fill-opacity="1"/></g><g><ellipse cx="7.999835968017578" cy="7.99922513961792" rx="5.176471710205078" ry="5.17647123336792" stroke="url(#master_svg3_1_0269)" fill-opacity="0" fill="none" stroke-width="0.17777779698371887"/></g><g style="opacity:0.4000000059604645;"><path d="M15.49119375,9.311127626447677C16.21569375,5.202417626447677,13.47219375,1.2843526264476774,9.36343375,0.5598766264476776C5.25470375,-0.16459937355232235,1.33660475,2.5788676264476775,0.61212375,6.687567626447677C-0.11235724999999996,10.796247626447677,2.63112375,14.714347626447678,6.73986375,15.438847626447677C10.84859375,16.163347626447678,14.76669375,13.419847626447678,15.49119375,9.311127626447677ZM8.05178375,10.425187626447677Q8.170953749999999,10.425187626447677,8.28955375,10.413507626447677Q8.40815375,10.401827626447677,8.52503375,10.378577626447678Q8.64191375,10.355327626447677,8.75595375,10.320737626447677Q8.86999375,10.286137626447678,8.98009375,10.240537626447678Q9.09020375,10.194927626447678,9.19530375,10.138757626447678Q9.30040375,10.082577626447678,9.39949375,10.016367626447678Q9.49857375,9.950157626447677,9.59070375,9.874557626447677Q9.68282375,9.798957626447677,9.76708375,9.714687626447677Q9.85135375,9.630427626447677,9.92695375,9.538307626447677Q10.00255375,9.446177626447678,10.06876375,9.347097626447677Q10.13497375,9.248007626447677,10.19115375,9.142907626447677Q10.24733375,9.037807626447677,10.29293375,8.927707626447678Q10.33854375,8.817607626447678,10.37313375,8.703567626447677Q10.40773375,8.589527626447678,10.43098375,8.472647626447678Q10.45423375,8.355767626447678,10.46591375,8.237167626447677Q10.47759375,8.118567626447678,10.47759375,7.999397626447678Q10.47759375,7.880227626447677,10.46591375,7.761627626447678Q10.45423375,7.643027626447678,10.43098375,7.526147626447678Q10.40773375,7.409267626447678,10.37313375,7.295227626447677Q10.33854375,7.181187626447677,10.29293375,7.071087626447677Q10.24733375,6.960987626447678,10.19115375,6.855887626447678Q10.13497375,6.750787626447678,10.06876375,6.651697626447677Q10.00255375,6.552617626447677,9.92695375,6.460497626447678Q9.85135375,6.368367626447678,9.76708375,6.284107626447677Q9.68282375,6.199837626447677,9.59070375,6.124237626447678Q9.49857375,6.048637626447678,9.39949375,5.982427626447677Q9.30040375,5.916217626447677,9.19530375,5.860037626447678Q9.09020375,5.803867626447677,8.98009375,5.758257626447677Q8.86999375,5.712657626447678,8.75595375,5.678057626447678Q8.64191375,5.643467626447678,8.52503375,5.620217626447678Q8.40815375,5.596967626447678,8.28955375,5.585287626447678Q8.170953749999999,5.573607626447678,8.05178375,5.573607626447678Q7.93261375,5.573607626447678,7.81401375,5.585287626447678Q7.69541375,5.596967626447678,7.57853375,5.620217626447678Q7.46165375,5.643467626447678,7.34760375,5.678057626447678Q7.23356375,5.712657626447678,7.12346375,5.758257626447677Q7.01336375,5.803867626447677,6.90826375,5.860037626447678Q6.80316375,5.916217626447677,6.70407375,5.982427626447677Q6.60499375,6.048637626447678,6.51286375,6.124237626447678Q6.42074375,6.199837626447677,6.33647375,6.284107626447677Q6.25221375,6.368367626447678,6.17661375,6.460497626447678Q6.10100375,6.552617626447677,6.03479375,6.651697626447677Q5.96859375,6.750787626447678,5.91241375,6.855887626447678Q5.85623375,6.960987626447678,5.81063375,7.071087626447677Q5.76502375,7.181187626447677,5.73043375,7.295227626447677Q5.69583375,7.409267626447678,5.67258375,7.526147626447678Q5.64933375,7.643027626447678,5.63765375,7.761627626447678Q5.62597375,7.880227626447677,5.62597375,7.999397626447678Q5.62597375,8.118567626447678,5.63765375,8.237167626447677Q5.64933375,8.355767626447678,5.67258375,8.472647626447678Q5.69583375,8.589527626447678,5.73043375,8.703567626447677Q5.76502375,8.817607626447678,5.81063375,8.927707626447678Q5.85623375,9.037807626447677,5.91241375,9.142907626447677Q5.96859375,9.248007626447677,6.03479375,9.347097626447677Q6.10100375,9.446177626447678,6.17661375,9.538307626447677Q6.25221375,9.630427626447677,6.33647375,9.714687626447677Q6.42074375,9.798957626447677,6.51286375,9.874557626447677Q6.60499375,9.950157626447677,6.70407375,10.016367626447678Q6.80316375,10.082577626447678,6.90826375,10.138757626447678Q7.01336375,10.194927626447678,7.12346375,10.240537626447678Q7.23356375,10.286137626447678,7.34760375,10.320737626447677Q7.46165375,10.355327626447677,7.57853375,10.378577626447678Q7.69541375,10.401827626447677,7.81401375,10.413507626447677Q7.93261375,10.425187626447677,8.05178375,10.425187626447677Z" fill-rule="evenodd" fill="url(#master_svg4_1_0037)" fill-opacity="1"/></g></g><g><ellipse cx="33.42855405807495" cy="8.000026226043701" rx="0.8571429252624512" ry="0.8571429252624512" fill="#EBD3CE" fill-opacity="1"/></g><g><path d="M42.2463233984375,11.27283974609375C42.2463233984375,11.27283974609375,42.2463233984375,8.41131974609375,42.2463233984375,8.41131974609375C42.2463233984375,8.41131974609375,41.5497733984375,8.41131974609375,41.5497733984375,8.41131974609375C41.5497733984375,8.41131974609375,41.5497733984375,10.29646974609375,41.5497733984375,10.29646974609375C41.5497733984375,10.29646974609375,40.6287733984375,10.29646974609375,40.6287733984375,10.29646974609375C40.6287733984375,10.29646974609375,40.6287733984375,7.82548974609375,40.6287733984375,7.82548974609375C40.6287733984375,7.82548974609375,42.5713733984375,7.82548974609375,42.5713733984375,7.82548974609375C42.5713733984375,7.82548974609375,42.5713733984375,7.14953974609375,42.5713733984375,7.14953974609375C42.5713733984375,7.14953974609375,40.6287733984375,7.14953974609375,40.6287733984375,7.14953974609375C40.6287733984375,7.14953974609375,40.6287733984375,6.12059974609375,40.6287733984375,6.12059974609375C40.6287733984375,6.12059974609375,42.2617933984375,6.12059974609375,42.2617933984375,6.12059974609375C42.2617933984375,6.12059974609375,42.2617933984375,5.45215974609375,42.2617933984375,5.45215974609375C42.2617933984375,5.45215974609375,40.6287733984375,5.45215974609375,40.6287733984375,5.45215974609375C40.6287733984375,5.45215974609375,40.6287733984375,4.44573974609375,40.6287733984375,4.44573974609375C40.6287733984375,4.44573974609375,39.901273398437496,4.44573974609375,39.901273398437496,4.44573974609375C39.901273398437496,4.44573974609375,39.901273398437496,5.45215974609375,39.901273398437496,5.45215974609375C39.901273398437496,5.45215974609375,38.3224233984375,5.45215974609375,38.3224233984375,5.45215974609375C38.3224233984375,5.45215974609375,38.3224233984375,6.12059974609375,38.3224233984375,6.12059974609375C38.3224233984375,6.12059974609375,39.901273398437496,6.12059974609375,39.901273398437496,6.12059974609375C39.901273398437496,6.12059974609375,39.901273398437496,7.14953974609375,39.901273398437496,7.14953974609375C39.901273398437496,7.14953974609375,38.0825033984375,7.14953974609375,38.0825033984375,7.14953974609375C38.0825033984375,7.14953974609375,38.0825033984375,7.82548974609375,38.0825033984375,7.82548974609375C38.0825033984375,7.82548974609375,39.901273398437496,7.82548974609375,39.901273398437496,7.82548974609375C39.901273398437496,7.82548974609375,39.901273398437496,10.29646974609375,39.901273398437496,10.29646974609375C39.901273398437496,10.29646974609375,38.9725333984375,10.29646974609375,38.9725333984375,10.29646974609375C38.9725333984375,10.29646974609375,38.9725333984375,8.41131974609375,38.9725333984375,8.41131974609375C38.9725333984375,8.41131974609375,38.2759833984375,8.41131974609375,38.2759833984375,8.41131974609375C38.2759833984375,8.41131974609375,38.2759833984375,11.26532974609375,38.2759833984375,11.26532974609375C38.2759833984375,11.26532974609375,38.9725333984375,11.26532974609375,38.9725333984375,11.26532974609375C38.9725333984375,11.26532974609375,38.9725333984375,10.964909746093749,38.9725333984375,10.964909746093749C38.9725333984375,10.964909746093749,41.5497733984375,10.964909746093749,41.5497733984375,10.964909746093749C41.5497733984375,10.964909746093749,41.5497733984375,11.27283974609375,41.5497733984375,11.27283974609375C41.5497733984375,11.27283974609375,42.2463233984375,11.27283974609375,42.2463233984375,11.27283974609375ZM36.4262633984375,11.302879746093751C36.4262633984375,11.302879746093751,36.4262633984375,5.28692274609375,36.4262633984375,5.28692274609375C36.4262633984375,5.28692274609375,37.2776033984375,5.28692274609375,37.2776033984375,5.28692274609375C37.0995933984375,5.89527974609375,36.8596733984375,6.57122974609375,36.5578333984375,7.32228974609375C37.0222033984375,7.953169746093749,37.2543833984375,8.51645974609375,37.2543833984375,9.02717974609375C37.2543833984375,9.16236974609375,37.2234233984375,9.26000974609375,37.1769833984375,9.31257974609375C37.1228133984375,9.372669746093749,37.0221933984375,9.40270974609375,36.8674133984375,9.41772974609375C36.7590533984375,9.41772974609375,36.6352273984375,9.40270974609375,36.4804383984375,9.38017974609375C36.4804383984375,9.38017974609375,36.7048823984375,10.08616974609375,36.7048823984375,10.08616974609375C37.2156833984375,10.07865974609375,37.5717033984375,9.98101974609375,37.7806633984375,9.79325974609375C37.9122333984375,9.63553974609375,37.9818933984375,9.38017974609375,37.9818933984375,9.02717974609375C37.9431933984375,8.50894974609375,37.7110133984375,7.90810974609375,37.2853433984375,7.21713974609375C37.5562233984375,6.50362974609375,37.7961433984375,5.82767974609375,38.0051033984375,5.18177474609375C38.0051033984375,5.18177474609375,38.0051033984375,4.62599374609375,38.0051033984375,4.62599374609375C38.0051033984375,4.62599374609375,35.7142333984375,4.62599374609375,35.7142333984375,4.62599374609375C35.7142333984375,4.62599374609375,35.7142333984375,11.302879746093751,35.7142333984375,11.302879746093751C35.7142333984375,11.302879746093751,36.4262633984375,11.302879746093751,36.4262633984375,11.302879746093751Z" fill="url(#master_svg5_1_2447)" fill-opacity="1"/></g></g></svg>