<svg xmlns="http://www.w3.org/2000/svg" xmlns:xlink="http://www.w3.org/1999/xlink" fill="none" version="1.1" width="56" height="16" viewBox="0 0 56 16"><defs><filter id="master_svg0_396_37402" filterUnits="objectBoundingBox" color-interpolation-filters="sRGB" x="0" y="0" width="14.666666984558105" height="14.666666984558105"><feFlood flood-opacity="0" result="BackgroundImageFix"/><feBlend mode="normal" in="SourceGraphic" in2="BackgroundImageFix" result="shape"/><feColorMatrix in="SourceAlpha" type="matrix" result="hardAlpha" values="0 0 0 0 0 0 0 0 0 0 0 0 0 0 0 0 0 0 127 0"/><feOffset dy="0" dx="0"/><feGaussianBlur stdDeviation="0"/><feComposite in2="hardAlpha" operator="arithmetic" k2="-1" k3="1"/><feColorMatrix type="matrix" values="0 0 0 0 1 0 0 0 0 1 0 0 0 0 1 0 0 0 0.05999999865889549 0"/><feBlend mode="normal" in2="shape" result="effect1_innerShadow"/></filter><linearGradient x1="0.8005221486091614" y1="1" x2="0.1780475229024887" y2="0.11369553208351135" id="master_svg1_42_4569"><stop offset="0%" stop-color="#CCCCCC" stop-opacity="0"/><stop offset="52.85714268684387%" stop-color="#CCCCCC" stop-opacity="0.9599999785423279"/><stop offset="97.85714149475098%" stop-color="#CCCCCC" stop-opacity="0"/></linearGradient><radialGradient cx="0" cy="0" r="1" gradientUnits="userSpaceOnUse" id="master_svg2_1_0037" gradientTransform="translate(8.13141267287972 7.971662045462097) rotate(99.96580482581263) scale(7.5812154231497395 7.5820724512482025)"><stop offset="32.26161003112793%" stop-color="#FFFFFF" stop-opacity="0"/><stop offset="35.70320904254913%" stop-color="#FFFFFF" stop-opacity="0.4000000059604645"/><stop offset="38.2797509431839%" stop-color="#FFFFFF" stop-opacity="0.6000000238418579"/><stop offset="41.35252237319946%" stop-color="#FFFFFF" stop-opacity="0.4000000059604645"/><stop offset="45.89686393737793%" stop-color="#FFFFFF" stop-opacity="0"/><stop offset="79.9826443195343%" stop-color="#FFFFFF" stop-opacity="0"/><stop offset="86.74278855323792%" stop-color="#FFFBF3" stop-opacity="0.8999999761581421"/><stop offset="93.06068420410156%" stop-color="#FFFFFF" stop-opacity="0"/></radialGradient></defs><g><g><path d="M14.347783997758183,14.22227099609375Q14.649577366638184,13.91437099609375,14.920160366638184,13.57867099609375Q15.190742366638183,13.24307099609375,15.427567366638183,12.88277099609375Q15.664407366638184,12.52257099609375,15.865257366638183,12.14107099609375Q16.066117366638185,11.75962099609375,16.229107366638182,11.36050099609375Q16.392107366638182,10.96137099609375,16.515707366638182,10.54835099609375Q16.639307366638185,10.13533099609375,16.722367366638185,9.71228099609375Q16.805417366638185,9.28923099609375,16.847137366638183,8.860130996093751Q16.888857366638184,8.43103099609375,16.888857366638184,7.99991099609375Q16.888857366638184,7.56880099609375,16.847137366638183,7.13972099609375Q16.805427366638185,6.71064099609375,16.722377366638185,6.28760099609375Q16.639327366638184,5.86457099609375,16.515727366638185,5.45156099609375Q16.392137366638185,5.0385509960937505,16.229147366638184,4.63944099609375Q16.066167366638183,4.24032099609375,15.865327366638184,3.85886099609375Q15.664487366638184,3.47739099609375,15.427667366638184,3.1171509960937502Q15.190852366638184,2.75691099609375,14.920287366638183,2.42127799609375Q14.649722366638184,2.08564499609375,14.347946475638183,1.77777099609375L48.888877366638184,1.77777099609375C52.32527736663818,1.77777099609375,55.111077366638185,4.56356099609375,55.111077366638185,8.00000099609375C55.111077366638185,11.43645099609375,52.32527736663818,14.22227099609375,48.888877366638184,14.22227099609375L14.347783997758183,14.22227099609375Z" fill-rule="evenodd" fill="#CCCCCC" fill-opacity="1"/></g><g><path d="M24.47308255859375,4.888916015625L25.61783255859375,4.888916015625L25.61783255859375,11.106506015625001L24.47308255859375,11.106506015625001L24.47308255859375,4.888916015625ZM22.67713255859375,4.936616215625L21.576792558593752,8.900366015625L20.27793255859375,4.888916015625L19.04437255859375,4.888916015625L21.10465255859375,11.107166015625001L22.08223255859375,11.107166015625001L23.91004255859375,4.888916015625L22.69019255859375,4.888916015625L22.67713255859375,4.936616215625ZM30.53827255859375,5.809795015625C30.36587255859375,5.512993015625,30.13137255859375,5.285092015625,29.83557255859375,5.126754015625C29.53977255859375,4.968416315625,29.20807255859375,4.888916015625,28.84104255859375,4.888916015625L26.55938255859375,4.888916015625L26.55938255859375,11.111136015625L27.70674255859375,11.111136015625L27.70674255859375,8.846046015625L28.84104255859375,8.846046015625C29.20807255859375,8.846046015625,29.53977255859375,8.765216015625,29.83557255859375,8.603566015624999C30.13137255859375,8.441916015625,30.36587255859375,8.212696015625,30.53827255859375,7.915886015625C30.71067255859375,7.619086015625,30.79747255859375,7.267966015624999,30.79747255859375,6.862506015625C30.79747255859375,6.457056015625,30.71127255859375,6.105936015625,30.53827255859375,5.809132015625L30.53827255859375,5.809795015625ZM29.51827255859375,7.338186015625C29.43467255859375,7.473336015625,29.320972558593752,7.5760260156250006,29.17797255859375,7.646916015625C29.03499255859375,7.717136015625,28.87631255859375,7.752916015625,28.70326255859375,7.752916015625L27.67344255859375,7.752916015625L27.67344255859375,5.946266015625L28.70326255859375,5.946266015625C28.87631255859375,5.946266015625,29.03434255859375,5.9813860156250005,29.17797255859375,6.052266015625C29.320972558593752,6.122496015625,29.43467255859375,6.225846015625,29.51827255859375,6.360996015625C29.60177255859375,6.4961460156249995,29.64357255859375,6.657796015625,29.64357255859375,6.845946015625C29.64357255859375,7.034096015625,29.60177255859375,7.204366015625,29.51827255859375,7.339516015625L29.51827255859375,7.338186015625Z" fill="#FFFFFF" fill-opacity="1"/></g><g><g><ellipse cx="8" cy="7.999946594238281" rx="8" ry="7.999946594238281" fill="#CCCCCC" fill-opacity="1"/></g><g filter="url(#master_svg0_396_37402)"><path d="M7.999589765625,15.33253251953125Q8.179619765624999,15.33253251953125,8.359419765624999,15.32363251953125Q8.539229765624999,15.31483251953125,8.718389765625,15.29723251953125Q8.897539765625,15.27953251953125,9.075619765625,15.25313251953125Q9.253689765625,15.22673251953125,9.430259765625,15.19163251953125Q9.606819765625,15.15643251953125,9.781449765625,15.11273251953125Q9.956079765625,15.06903251953125,10.128349765625,15.01673251953125Q10.300619765625,14.96443251953125,10.470119765625,14.90383251953125Q10.639619765625,14.84313251953125,10.805959765625,14.77423251953125Q10.972259765625,14.70543251953125,11.134959765625,14.62843251953125Q11.297759765625,14.55143251953125,11.456459765625,14.46663251953125Q11.615259765625,14.38173251953125,11.769659765625,14.28913251953125Q11.924059765625,14.19663251953125,12.073759765625,14.09663251953125Q12.223459765625,13.99663251953125,12.368059765625,13.88933251953125Q12.512659765625,13.78213251953125,12.651859765625,13.66793251953125Q12.790959765625,13.55373251953125,12.924359765625,13.43283251953125Q13.057759765625,13.31193251953125,13.185059765625,13.18463251953125Q13.312359765625,13.05733251953125,13.433259765625,12.92393251953125Q13.554159765625,12.79053251953125,13.668359765625,12.65143251953125Q13.782559765625,12.51223251953125,13.889759765625,12.36763251953125Q13.997059765625,12.22303251953125,14.097059765625,12.07333251953125Q14.197059765625,11.92363251953125,14.289559765625,11.76923251953125Q14.382159765625,11.61483251953125,14.467059765625,11.45603251953125Q14.551859765625,11.29733251953125,14.628859765625,11.13453251953125Q14.705859765625,10.97183251953125,14.774659765625,10.80553251953125Q14.843559765625,10.63919251953125,14.904259765625,10.46969251953125Q14.964859765625,10.30019251953125,15.017159765625,10.12792251953125Q15.069459765625,9.95564251953125,15.113159765625,9.78102251953125Q15.156859765625,9.60639251953125,15.192059765625,9.42983251953125Q15.227159765625,9.25326251953125,15.253559765625,9.07519251953125Q15.279959765625,8.89711251953125,15.297659765625,8.71796251953125Q15.315259765625,8.538802519531249,15.324059765625,8.358992519531249Q15.332959765625,8.179192519531249,15.332959765625,7.99916251953125Q15.332959765625,7.81914251953125,15.324059765625,7.63933251953125Q15.315259765625,7.45953251953125,15.297659765625,7.28037251953125Q15.279959765625,7.10121251953125,15.253559765625,6.92314251953125Q15.227159765625,6.74507251953125,15.192059765625,6.56850251953125Q15.156859765625,6.39194251953125,15.113159765625,6.21731251953125Q15.069459765625,6.04268251953125,15.017159765625,5.87041251953125Q14.964859765625,5.69814251953125,14.904259765625,5.52864251953125Q14.843559765625,5.35914251953125,14.774659765625,5.19282251953125Q14.705859765625,5.02650251953125,14.628859765625,4.86376251953125Q14.551859765625,4.70102251953125,14.467059765625,4.5422525195312495Q14.382159765625,4.38349251953125,14.289559765625,4.22908251953125Q14.197059765625,4.07467251953125,14.097059765625,3.92498251953125Q13.997059765625,3.77530251953125,13.889759765625,3.63070251953125Q13.782559765625,3.48611251953125,13.668359765625,3.34695251953125Q13.554159765625,3.20779251953125,13.433259765625,3.07440251953125Q13.312359765625,2.94101251953125,13.185059765625,2.81371251953125Q13.057759765625,2.68642251953125,12.924359765625,2.56552251953125Q12.790959765625,2.44463251953125,12.651859765625,2.33042251953125Q12.512659765625,2.21621251953125,12.368059765625,2.10897251953125Q12.223459765625,2.00173251953125,12.073759765625,1.90172251953125Q11.924059765625,1.80170251953125,11.769659765625,1.70915251953125Q11.615259765625,1.6166055195312499,11.456459765625,1.53174351953125Q11.297759765625,1.44688051953125,11.134959765625,1.36991051953125Q10.972259765625,1.29294151953125,10.805959765625,1.22404951953125Q10.639619765625,1.15515751953125,10.470119765625,1.09450951953125Q10.300619765625,1.03386151953125,10.128349765625,0.98160351953125Q9.956069765625,0.92934551953125,9.781449765625,0.8856035195312499Q9.606819765625,0.84186151953125,9.430259765625,0.80674051953125Q9.253689765625,0.77161951953125,9.075619765625,0.74520481953125Q8.897539765625,0.71878991953125,8.718389765625,0.70114451953125Q8.539229765624999,0.68349911953125,8.359419765624999,0.67466583953125Q8.179619765624999,0.66583251953125,7.999589765625,0.66583251953125Q7.819569765625,0.66583251953125,7.639759765625,0.67466583953125Q7.459959765625,0.68349911953125,7.280799765625,0.70114451953125Q7.101639765625,0.71878991953125,6.923569765625,0.74520481953125Q6.745499765625,0.77161951953125,6.568929765625,0.80674051953125Q6.392369765625,0.84186151953125,6.217739765625,0.8856035195312499Q6.043109765625,0.92934551953125,5.870839765625,0.98160351953125Q5.698569765625,1.03386151953125,5.529069765625,1.09450951953125Q5.359569765625,1.15515751953125,5.193249765625,1.22404951953125Q5.026929765625,1.29294151953125,4.864189765625,1.36991051953125Q4.701449765625,1.44688051953125,4.5426797656249995,1.53174351953125Q4.383919765625,1.6166055195312499,4.229509765625,1.70915251953125Q4.075099765625,1.80170251953125,3.925409765625,1.90172251953125Q3.775729765625,2.00173251953125,3.631129765625,2.10897251953125Q3.486539765625,2.21621251953125,3.347379765625,2.33042251953125Q3.208219765625,2.44463251953125,3.074829765625,2.56552251953125Q2.941439765625,2.68642251953125,2.814139765625,2.81371251953125Q2.686849765625,2.94101251953125,2.565949765625,3.07440251953125Q2.445059765625,3.20779251953125,2.330849765625,3.34695251953125Q2.216639765625,3.48611251953125,2.109399765625,3.63070251953125Q2.002159765625,3.77530251953125,1.902149765625,3.92498251953125Q1.802129765625,4.07467251953125,1.709579765625,4.22908251953125Q1.6170327656249999,4.38349251953125,1.532170765625,4.5422525195312495Q1.447307765625,4.70102251953125,1.370337765625,4.86376251953125Q1.293368765625,5.02650251953125,1.224476765625,5.19282251953125Q1.155584765625,5.35914251953125,1.094936765625,5.52864251953125Q1.034288765625,5.69814251953125,0.982030765625,5.87041251953125Q0.929772765625,6.04268251953125,0.8860307656249999,6.21731251953125Q0.842288765625,6.39194251953125,0.807167765625,6.56850251953125Q0.772046765625,6.74507251953125,0.745632065625,6.92314251953125Q0.719217165625,7.10121251953125,0.701571765625,7.28037251953125Q0.683926365625,7.45953251953125,0.675093085625,7.63933251953125Q0.666259765625,7.81914251953125,0.666259765625,7.99916251953125Q0.666259765625,8.179192519531249,0.675093085625,8.358992519531249Q0.683926365625,8.538802519531249,0.701571765625,8.71796251953125Q0.719217165625,8.89711251953125,0.745632065625,9.07519251953125Q0.772046765625,9.25326251953125,0.807167765625,9.42983251953125Q0.842288765625,9.60639251953125,0.8860307656249999,9.78102251953125Q0.929772765625,9.95565251953125,0.982030765625,10.12792251953125Q1.034288765625,10.30019251953125,1.094936765625,10.46969251953125Q1.155584765625,10.63919251953125,1.224476765625,10.80553251953125Q1.293368765625,10.97183251953125,1.370337765625,11.13453251953125Q1.447307765625,11.29733251953125,1.532170765625,11.45603251953125Q1.6170327656249999,11.61483251953125,1.709579765625,11.76923251953125Q1.802129765625,11.92363251953125,1.902149765625,12.07333251953125Q2.002159765625,12.22303251953125,2.109399765625,12.36763251953125Q2.216639765625,12.51223251953125,2.330849765625,12.65143251953125Q2.445059765625,12.79053251953125,2.565949765625,12.92393251953125Q2.686849765625,13.05733251953125,2.814139765625,13.18463251953125Q2.941439765625,13.31193251953125,3.074829765625,13.43283251953125Q3.208219765625,13.55373251953125,3.347379765625,13.66793251953125Q3.486539765625,13.78213251953125,3.631129765625,13.88933251953125Q3.775729765625,13.99663251953125,3.925409765625,14.09663251953125Q4.075099765625,14.19663251953125,4.229509765625,14.28913251953125Q4.383919765625,14.38173251953125,4.5426797656249995,14.46663251953125Q4.701449765625,14.55143251953125,4.864189765625,14.62843251953125Q5.026929765625,14.70543251953125,5.193249765625,14.77423251953125Q5.359569765625,14.84313251953125,5.529069765625,14.90383251953125Q5.698569765625,14.96443251953125,5.870839765625,15.01673251953125Q6.043109765625,15.06903251953125,6.217739765625,15.11273251953125Q6.392369765625,15.15643251953125,6.568929765625,15.19163251953125Q6.745499765625,15.22673251953125,6.923569765625,15.25313251953125Q7.101639765625,15.27953251953125,7.280799765625,15.29723251953125Q7.459959765625,15.31483251953125,7.639759765625,15.32363251953125Q7.819569765625,15.33253251953125,7.999589765625,15.33253251953125ZM7.999619765625,10.46122251953125Q8.120569765625,10.46122251953125,8.240929765625001,10.44937251953125Q8.361299765624999,10.43751251953125,8.479919765624999,10.41392251953125Q8.598539765625,10.39032251953125,8.714279765625,10.35521251953125Q8.830009765625,10.32010251953125,8.941749765625,10.27382251953125Q9.053489765625,10.22754251953125,9.160159765625,10.17052251953125Q9.266819765625,10.11351251953125,9.367379765625,10.04631251953125Q9.467949765625,9.97912251953125,9.561439765625,9.90239251953125Q9.654929765625,9.82567251953125,9.740449765625,9.74015251953125Q9.825969765625,9.65463251953125,9.902699765625,9.56113251953125Q9.979429765625,9.46764251953125,10.046619765625,9.36708251953125Q10.113819765625,9.26652251953125,10.170829765625,9.15985251953125Q10.227839765625,9.05319251953125,10.274129765625,8.94145251953125Q10.320409765625,8.82971251953125,10.355519765625,8.71397251953125Q10.390629765625,8.598232519531251,10.414219765625,8.479612519531251Q10.437819765625,8.36099251953125,10.449669765625,8.24063251953125Q10.461529765625,8.12026251953125,10.461529765625,7.99932251953125Q10.461529765625,7.87837251953125,10.449669765625,7.75801251953125Q10.437819765625,7.63764251953125,10.414219765625,7.51902251953125Q10.390629765625,7.40040251953125,10.355519765625,7.28466251953125Q10.320409765625,7.16893251953125,10.274129765625,7.05719251953125Q10.227839765625,6.94545251953125,10.170829765625,6.83878251953125Q10.113819765625,6.73212251953125,10.046619765625,6.63156251953125Q9.979429765625,6.53099251953125,9.902699765625,6.43750251953125Q9.825969765625,6.34401251953125,9.740449765625,6.25849251953125Q9.654929765625,6.17297251953125,9.561439765625,6.09624251953125Q9.467949765625,6.01951251953125,9.367379765625,5.95232251953125Q9.266819765625,5.88512251953125,9.160159765625,5.82811251953125Q9.053489765625,5.77110251953125,8.941749765625,5.72481251953125Q8.830019765625,5.67853251953125,8.714279765625,5.64342251953125Q8.598539765625,5.60831251953125,8.479919765624999,5.58472251953125Q8.361299765624999,5.56112251953125,8.240929765625001,5.54927251953125Q8.120569765625,5.53741251953125,7.999619765625,5.53741251953125Q7.878679765625,5.53741251953125,7.758319765625,5.54927251953125Q7.637949765625,5.56112251953125,7.519329765625,5.58472251953125Q7.400709765625,5.60831251953125,7.284969765625,5.64342251953125Q7.169229765625,5.67853251953125,7.057489765625,5.72481251953125Q6.945749765625,5.77110251953125,6.839089765625,5.82811251953125Q6.732429765625,5.88512251953125,6.631859765625,5.95232251953125Q6.531299765625,6.01951251953125,6.437809765625,6.09624251953125Q6.344319765625,6.17297251953125,6.258789765625,6.25849251953125Q6.173269765625,6.34401251953125,6.096549765625,6.43750251953125Q6.019819765625,6.53099251953125,5.952629765625,6.63156251953125Q5.885429765625,6.73212251953125,5.828419765625,6.83878251953125Q5.771399765625,6.94545251953125,5.725119765625,7.05719251953125Q5.678839765625,7.16893251953125,5.643729765625,7.28466251953125Q5.608619765625,7.40040251953125,5.585019765625,7.51902251953125Q5.561429765625,7.63764251953125,5.549569765625,7.75801251953125Q5.537719765625,7.87837251953125,5.537719765625,7.99932251953125Q5.537719765625,8.12026251953125,5.549569765625,8.24063251953125Q5.561429765625,8.36099251953125,5.585019765625,8.479612519531251Q5.608619765625,8.598232519531251,5.643729765625,8.71397251953125Q5.678839765625,8.82971251953125,5.725119765625,8.94144251953125Q5.771399765625,9.05318251953125,5.828419765625,9.15985251953125Q5.885429765625,9.26651251953125,5.952629765625,9.36708251953125Q6.019819765625,9.46764251953125,6.096549765625,9.56113251953125Q6.173269765625,9.65462251953125,6.258789765625,9.74015251953125Q6.344319765625,9.82567251953125,6.437809765625,9.90239251953125Q6.531299765625,9.97912251953125,6.631859765625,10.04631251953125Q6.732419765625,10.11351251953125,6.839089765625,10.17052251953125Q6.945749765625,10.22754251953125,7.057489765625,10.27382251953125Q7.169229765625,10.32010251953125,7.284969765625,10.35521251953125Q7.400709765625,10.39032251953125,7.519329765625,10.41392251953125Q7.637949765625,10.43751251953125,7.758319765625,10.44937251953125Q7.878679765625,10.46122251953125,7.999619765625,10.46122251953125Z" fill-rule="evenodd" fill="#DADADA" fill-opacity="1"/></g><g><path d="M8.025809486236572,11.354375349884034Q8.190619486236573,11.354375349884034,8.354639486236572,11.338225349884034Q8.518659486236572,11.322065349884033,8.680299486236573,11.289915349884033Q8.841949486236572,11.257765349884032,8.999669486236574,11.209925349884033Q9.157379486236572,11.162075349884034,9.309649486236573,11.099005349884033Q9.461919486236571,11.035935349884033,9.607269486236572,10.958245349884034Q9.752619486236572,10.880555349884034,9.889659486236571,10.788985349884033Q10.026689486236572,10.697425349884032,10.154099486236571,10.592865349884033Q10.281499486236573,10.488315349884033,10.398039486236573,10.371775349884032Q10.514579486236572,10.255235349884034,10.619129486236572,10.127835349884034Q10.723689486236573,10.000435349884032,10.815249486236572,9.863395349884033Q10.906819486236571,9.726365349884034,10.984509486236572,9.581005349884034Q11.062199486236572,9.435655349884033,11.125269486236572,9.283395349884033Q11.188349486236572,9.131125349884034,11.236189486236572,8.973415349884032Q11.284029486236573,8.815695349884034,11.316179486236571,8.654055349884032Q11.348339486236572,8.492405349884033,11.364489486236572,8.328395349884033Q11.380649486236571,8.164375349884033,11.380649486236571,7.999565349884033Q11.380649486236571,7.834745349884033,11.364489486236572,7.670735349884033Q11.348339486236572,7.506715349884033,11.316179486236571,7.345065349884033Q11.284029486236573,7.183425349884033,11.236189486236572,7.025705349884033Q11.188349486236572,6.867995349884033,11.125269486236572,6.715725349884034Q11.062199486236572,6.563465349884034,10.984509486236572,6.418115349884033Q10.906819486236571,6.2727653498840334,10.815249486236572,6.135725349884034Q10.723689486236573,5.998685349884033,10.619129486236572,5.871285349884033Q10.514579486236572,5.743885349884033,10.398039486236573,5.627348349884033Q10.281499486236573,5.510808349884034,10.154099486236571,5.406253349884033Q10.026689486236572,5.301698349884033,9.889659486236571,5.210133349884034Q9.752619486236572,5.118569349884034,9.607269486236572,5.040877349884033Q9.461919486236571,4.963186349884033,9.309649486236573,4.900115349884033Q9.157379486236572,4.837045349884034,8.999669486236574,4.789202349884033Q8.841949486236572,4.741360349884033,8.680299486236573,4.709207149884033Q8.518659486236572,4.677054049884033,8.354639486236572,4.660899749884033Q8.190619486236573,4.644745349884033,8.025809486236572,4.644745349884033Q7.860999486236572,4.644745349884033,7.696979486236572,4.660899749884033Q7.532959486236573,4.677054049884033,7.371309486236573,4.709207149884033Q7.209669486236573,4.741360349884033,7.051949486236572,4.789202349884033Q6.894229486236572,4.837045349884034,6.741969486236572,4.900115349884033Q6.589699486236572,4.963186349884033,6.444349486236572,5.040877349884033Q6.298999486236572,5.118569349884034,6.161959486236572,5.210133349884034Q6.0249194862365725,5.301698349884033,5.897519486236572,5.406253349884033Q5.770119486236572,5.510808349884034,5.653578486236572,5.627348349884033Q5.537038486236572,5.743885349884033,5.432482486236572,5.871285349884033Q5.3279264862365725,5.998685349884033,5.236361486236572,6.135725349884034Q5.144796486236572,6.2727653498840334,5.067104486236572,6.418115349884033Q4.9894124862365725,6.563465349884034,4.926341486236573,6.715725349884034Q4.863270486236572,6.867995349884033,4.8154274862365725,7.025705349884033Q4.767585086236572,7.183425349884033,4.735431786236572,7.345065349884033Q4.703278386236573,7.506715349884033,4.687123986236572,7.670735349884033Q4.670969486236572,7.834745349884033,4.670969486236572,7.999565349884033Q4.670969486236572,8.164375349884033,4.687123986236572,8.328395349884033Q4.703278386236573,8.492405349884033,4.735431786236572,8.654055349884032Q4.767585086236572,8.815695349884034,4.8154274862365725,8.973415349884032Q4.863270486236572,9.131125349884034,4.926341486236573,9.283395349884033Q4.9894124862365725,9.435655349884033,5.067104486236572,9.581005349884034Q5.144796486236572,9.726365349884034,5.236361486236572,9.863395349884033Q5.3279264862365725,10.000435349884032,5.432482486236572,10.127835349884034Q5.537038486236572,10.255235349884034,5.653578486236572,10.371775349884032Q5.770119486236572,10.488315349884033,5.897519486236572,10.592865349884033Q6.0249194862365725,10.697425349884032,6.161959486236572,10.788985349884033Q6.298999486236572,10.880555349884034,6.444349486236572,10.958245349884034Q6.589699486236572,11.035935349884033,6.741969486236572,11.099005349884033Q6.894229486236572,11.162075349884034,7.051949486236572,11.209925349884033Q7.209669486236573,11.257765349884032,7.371309486236573,11.289915349884033Q7.532959486236573,11.322065349884033,7.696979486236572,11.338225349884034Q7.860999486236572,11.354375349884034,8.025809486236572,11.354375349884034ZM8.025849486236572,10.425585349884035Q8.145029486236572,10.425585349884035,8.263619486236571,10.413905349884033Q8.382219486236572,10.402225349884034,8.499099486236572,10.378975349884033Q8.615989486236572,10.355725349884032,8.730029486236571,10.321135349884033Q8.844069486236572,10.286535349884034,8.954169486236573,10.240935349884033Q9.064269486236572,10.195325349884033,9.169369486236572,10.139155349884033Q9.274469486236573,10.082975349884034,9.373559486236573,10.016765349884032Q9.472649486236573,9.950555349884034,9.564769486236571,9.874955349884033Q9.656889486236572,9.799355349884033,9.741159486236572,9.715085349884033Q9.825419486236573,9.630825349884034,9.901029486236572,9.538695349884033Q9.976629486236572,9.446575349884032,10.042839486236574,9.347495349884033Q10.109049486236572,9.248405349884033,10.165219486236573,9.143305349884034Q10.221399486236573,9.038205349884034,10.267009486236573,8.928105349884033Q10.312609486236571,8.818005349884032,10.347199486236573,8.703965349884033Q10.381799486236572,8.589925349884034,10.405049486236571,8.473045349884034Q10.428299486236572,8.356165349884034,10.439979486236572,8.237565349884033Q10.451659486236572,8.118965349884032,10.451659486236572,7.9997953498840335Q10.451659486236572,7.880625349884033,10.439979486236572,7.762025349884033Q10.428299486236572,7.643425349884033,10.405049486236571,7.526545349884033Q10.381799486236572,7.409665349884033,10.347199486236573,7.295625349884033Q10.312609486236571,7.181585349884033,10.267009486236573,7.071485349884034Q10.221399486236573,6.961385349884033,10.165219486236573,6.856285349884033Q10.109049486236572,6.751185349884033,10.042839486236574,6.652095349884034Q9.976629486236572,6.553015349884033,9.901029486236572,6.460895349884034Q9.825419486236573,6.3687653498840335,9.741159486236572,6.284505349884033Q9.656889486236572,6.200235349884033,9.564769486236571,6.124635349884033Q9.472649486236573,6.049035349884033,9.373559486236573,5.982825349884033Q9.274469486236573,5.916615349884033,9.169369486236572,5.860435349884034Q9.064269486236572,5.804265349884034,8.954169486236573,5.758655349884033Q8.844069486236572,5.7130553498840335,8.730029486236571,5.678455349884033Q8.615989486236572,5.643865349884033,8.499099486236572,5.620616349884033Q8.382219486236572,5.597367349884033,8.263619486236571,5.585686349884034Q8.145029486236572,5.574005349884033,8.025849486236572,5.574005349884033Q7.906679486236572,5.574005349884033,7.7880794862365725,5.585686349884034Q7.669479486236572,5.597367349884033,7.552599486236572,5.620616349884033Q7.435719486236572,5.643865349884033,7.321679486236572,5.678455349884033Q7.207639486236572,5.7130553498840335,7.097539486236572,5.758655349884033Q6.987439486236572,5.804265349884034,6.882339486236573,5.860435349884034Q6.777239486236573,5.916615349884033,6.678149486236572,5.982825349884033Q6.579059486236572,6.049035349884033,6.486939486236572,6.124635349884033Q6.394819486236573,6.200235349884033,6.310549486236573,6.284505349884033Q6.226279486236573,6.3687653498840335,6.150679486236572,6.460895349884034Q6.0750794862365725,6.553015349884033,6.008869486236573,6.652095349884034Q5.942659486236572,6.751185349884033,5.886479486236572,6.856285349884033Q5.8303094862365725,6.961385349884033,5.784699486236573,7.071485349884034Q5.739099486236572,7.181585349884033,5.704499486236572,7.295625349884033Q5.669907486236572,7.409665349884033,5.646657486236572,7.526545349884033Q5.623408486236572,7.643425349884033,5.611727486236572,7.762025349884033Q5.600046486236573,7.880625349884033,5.600046486236573,7.9997953498840335Q5.600046486236573,8.118965349884032,5.611727486236572,8.237565349884033Q5.623408486236572,8.356165349884034,5.646657486236572,8.473045349884034Q5.669907486236572,8.589925349884034,5.704499486236572,8.703965349884033Q5.739099486236572,8.818005349884032,5.784699486236573,8.928105349884033Q5.8303094862365725,9.038205349884034,5.886479486236572,9.143305349884034Q5.942659486236572,9.248405349884033,6.008869486236573,9.347495349884033Q6.0750794862365725,9.446575349884032,6.150679486236572,9.538705349884033Q6.226279486236573,9.630825349884034,6.310549486236573,9.715085349884033Q6.394819486236573,9.799355349884033,6.486939486236572,9.874955349884033Q6.579059486236572,9.950555349884034,6.678149486236572,10.016765349884032Q6.777239486236573,10.082975349884034,6.882339486236573,10.139155349884033Q6.987439486236572,10.195325349884033,7.097539486236572,10.240935349884033Q7.207639486236572,10.286535349884034,7.321679486236572,10.321135349884033Q7.435719486236572,10.355725349884032,7.552599486236572,10.378975349884033Q7.669479486236572,10.402225349884034,7.7880794862365725,10.413905349884033Q7.906679486236572,10.425585349884035,8.025849486236572,10.425585349884035Z" fill-rule="evenodd" fill="#CCCCCC" fill-opacity="1"/></g><g><path d="M8.025786539611817,10.425512647705078Q8.144956539611815,10.425512647705078,8.263556539611816,10.413832647705078Q8.382156539611817,10.402152647705078,8.499036539611817,10.378902647705079Q8.615916539611817,10.355652647705078,8.729956539611816,10.321062647705078Q8.843996539611815,10.28646264770508,8.954096539611816,10.240862647705079Q9.064196539611817,10.195252647705079,9.169296539611816,10.139082647705077Q9.274396539611816,10.082902647705078,9.373486539611816,10.016692647705078Q9.472576539611817,9.950482647705078,9.564696539611816,9.874882647705078Q9.656816539611818,9.799282647705077,9.741086539611818,9.715012647705077Q9.825356539611818,9.630752647705078,9.900956539611816,9.538622647705079Q9.976556539611817,9.446502647705078,10.042766539611815,9.347422647705077Q10.108976539611817,9.248332647705078,10.165156539611816,9.143232647705078Q10.221326539611816,9.038132647705078,10.266936539611816,8.928032647705077Q10.312536539611816,8.817932647705078,10.347136539611817,8.703892647705079Q10.381726539611815,8.589852647705078,10.404976539611816,8.472972647705078Q10.428226539611817,8.35609264770508,10.439906539611815,8.237492647705078Q10.451586539611817,8.118892647705078,10.451586539611817,7.999722647705078Q10.451586539611817,7.880552647705079,10.439906539611815,7.761952647705078Q10.428226539611817,7.643352647705078,10.404976539611816,7.526472647705078Q10.381726539611815,7.409592647705078,10.347136539611817,7.295552647705078Q10.312536539611816,7.181512647705079,10.266936539611816,7.071412647705078Q10.221326539611816,6.961312647705078,10.165156539611816,6.856212647705078Q10.108976539611817,6.751112647705078,10.042766539611815,6.652022647705078Q9.976556539611817,6.552938647705078,9.900956539611816,6.4608176477050785Q9.825356539611818,6.368696647705078,9.741086539611818,6.284429647705078Q9.656816539611818,6.200162647705078,9.564696539611816,6.124561647705078Q9.472576539611817,6.048959647705078,9.373486539611816,5.982751647705078Q9.274396539611816,5.916543647705078,9.169296539611816,5.860366647705078Q9.064196539611817,5.804189647705078,8.954096539611816,5.758584647705078Q8.843996539611815,5.712979647705078,8.729956539611816,5.678386647705078Q8.615916539611817,5.643792747705078,8.499036539611817,5.620543547705078Q8.382156539611817,5.597294347705078,8.263556539611816,5.585613447705078Q8.144956539611815,5.573932647705078,8.025786539611817,5.573932647705078Q7.906606539611817,5.573932647705078,7.788016539611816,5.585613447705078Q7.669416539611817,5.597294347705078,7.552526539611817,5.620543547705078Q7.435646539611817,5.643792747705078,7.321606539611817,5.678386647705078Q7.2075665396118165,5.712979647705078,7.097466539611816,5.758584647705078Q6.987366539611816,5.804189647705078,6.882266539611816,5.860366647705078Q6.777166539611816,5.916543647705078,6.6780765396118165,5.982751647705078Q6.578988539611816,6.048959647705078,6.486867539611817,6.124561647705078Q6.394746539611816,6.200162647705078,6.310478539611816,6.284429647705078Q6.226211539611817,6.368696647705078,6.150609539611817,6.4608176477050785Q6.075007539611816,6.552938647705078,6.008798539611816,6.652022647705078Q5.9425895396118165,6.751112647705078,5.8864125396118165,6.856212647705078Q5.830235539611817,6.961312647705078,5.784629539611816,7.071412647705078Q5.739024539611816,7.181512647705079,5.704430539611816,7.295552647705078Q5.669837039611816,7.409592647705078,5.6465877396118165,7.526472647705078Q5.623338339611816,7.643352647705078,5.611657439611816,7.761952647705078Q5.599976539611816,7.880552647705079,5.599976539611816,7.999722647705078Q5.599976539611816,8.118892647705078,5.611657439611816,8.237492647705078Q5.623338339611816,8.35609264770508,5.6465877396118165,8.472972647705078Q5.669837039611816,8.589852647705078,5.704430539611816,8.703892647705079Q5.739024539611816,8.817932647705078,5.784629539611816,8.928032647705077Q5.830235539611817,9.038132647705078,5.8864125396118165,9.143232647705078Q5.9425895396118165,9.248332647705078,6.008798539611816,9.347422647705077Q6.075007539611816,9.446502647705078,6.150609539611817,9.538622647705079Q6.226211539611817,9.630752647705078,6.310478539611816,9.715012647705077Q6.394746539611816,9.799282647705077,6.486867539611817,9.874882647705078Q6.578988539611816,9.950482647705078,6.6780765396118165,10.016692647705078Q6.777166539611816,10.082902647705078,6.882266539611816,10.139082647705077Q6.987366539611816,10.195252647705079,7.097466539611816,10.240862647705079Q7.2075665396118165,10.28646264770508,7.321606539611817,10.321062647705078Q7.435646539611817,10.355652647705078,7.552526539611817,10.378902647705079Q7.669416539611817,10.402152647705078,7.788016539611816,10.413832647705078Q7.906606539611817,10.425512647705078,8.025786539611817,10.425512647705078ZM7.999646539611817,8.470552647705079Q8.045986539611816,8.470552647705079,8.091446539611816,8.461512647705078Q8.136906539611816,8.452472647705079,8.179726539611817,8.434732647705077Q8.222546539611816,8.416992647705078,8.261086539611817,8.391242647705077Q8.299626539611817,8.365492647705079,8.332396539611816,8.332722647705078Q8.365176539611817,8.299942647705079,8.390916539611815,8.261412647705079Q8.416666539611816,8.222872647705078,8.434406539611816,8.180052647705079Q8.452146539611817,8.137232647705078,8.461186539611816,8.091772647705078Q8.470226539611817,8.046312647705077,8.470226539611817,7.999962647705078Q8.470226539611817,7.953612647705079,8.461186539611816,7.908152647705078Q8.452146539611817,7.862702647705078,8.434406539611816,7.819882647705079Q8.416666539611816,7.777052647705078,8.390926539611817,7.738522647705079Q8.365176539611817,7.699982647705078,8.332396539611816,7.667212647705078Q8.299626539611817,7.634432647705078,8.261086539611817,7.608682647705078Q8.222546539611816,7.5829326477050785,8.179726539611817,7.565202647705078Q8.136906539611816,7.547462647705078,8.091446539611816,7.538422647705078Q8.045986539611816,7.529372647705078,7.999646539611817,7.529372647705078Q7.9532965396118165,7.529372647705078,7.907836539611816,7.538422647705078Q7.862376539611816,7.547462647705078,7.819556539611817,7.565202647705078Q7.776736539611816,7.5829326477050785,7.738196539611817,7.608682647705078Q7.699656539611817,7.634432647705078,7.666886539611816,7.667212647705078Q7.634116539611816,7.699982647705078,7.608366539611817,7.738522647705079Q7.582616539611816,7.777052647705078,7.5648765396118165,7.819882647705079Q7.547136539611817,7.862702647705078,7.538096539611816,7.908152647705078Q7.529056539611816,7.953612647705079,7.529056539611816,7.999962647705078Q7.529056539611816,8.046312647705077,7.538096539611816,8.091772647705078Q7.547136539611817,8.137232647705078,7.5648765396118165,8.180052647705079Q7.582616539611816,8.222872647705078,7.608366539611817,8.261412647705079Q7.634116539611816,8.299942647705079,7.666886539611816,8.332722647705078Q7.699656539611817,8.365492647705079,7.738196539611817,8.391242647705077Q7.776736539611816,8.416992647705078,7.819556539611817,8.434732647705077Q7.862376539611816,8.452472647705079,7.907836539611816,8.461512647705078Q7.9532965396118165,8.470552647705079,7.999646539611817,8.470552647705079Z" fill-rule="evenodd" fill="#E2E2E2" fill-opacity="1"/></g><g><ellipse cx="7.999835968017578" cy="7.99922513961792" rx="5.176471710205078" ry="5.17647123336792" stroke="url(#master_svg1_42_4569)" fill-opacity="0" fill="none" stroke-width="0.17777778208255768"/></g><g style="opacity:0.4000000059604645;"><path d="M15.49119375,9.311127596645354C16.21569375,5.202417596645355,13.47219375,1.284352596645355,9.36343375,0.5598765966453552C5.25470375,-0.16459940335464474,1.33660475,2.578867596645355,0.61212375,6.687567596645355C-0.11235724999999996,10.796247596645355,2.63112375,14.714347596645355,6.73986375,15.438847596645354C10.84859375,16.163347596645355,14.76669375,13.419847596645356,15.49119375,9.311127596645354ZM8.05178375,10.425127596645355Q8.170953749999999,10.425127596645355,8.28955375,10.413447596645355Q8.40815375,10.401767596645355,8.52503375,10.378517596645356Q8.64191375,10.355267596645355,8.75595375,10.320677596645355Q8.86999375,10.286077596645356,8.98009375,10.240477596645356Q9.09020375,10.194867596645356,9.19530375,10.138687596645354Q9.30040375,10.082517596645355,9.39948375,10.016307596645355Q9.49857375,9.950097596645355,9.59069375,9.874497596645355Q9.68282375,9.798897596645356,9.76708375,9.714627596645355Q9.85135375,9.630357596645355,9.92695375,9.538237596645356Q10.00255375,9.446117596645355,10.06876375,9.347027596645356Q10.13497375,9.247947596645355,10.19115375,9.142847596645355Q10.24733375,9.037747596645355,10.29293375,8.927647596645356Q10.33854375,8.817547596645355,10.37313375,8.703507596645355Q10.40772375,8.589467596645354,10.43097375,8.472587596645356Q10.45422375,8.355707596645356,10.46590375,8.237107596645355Q10.47759375,8.118507596645355,10.47759375,7.999337596645355Q10.47759375,7.8801675966453555,10.46590375,7.761567596645355Q10.45422375,7.642967596645355,10.43097375,7.526087596645355Q10.40772375,7.409207596645356,10.37313375,7.2951675966453555Q10.33854375,7.181127596645355,10.29293375,7.071027596645355Q10.24733375,6.960927596645355,10.19115375,6.855827596645355Q10.13497375,6.750727596645355,10.06876375,6.651637596645355Q10.00255375,6.5525575966453555,9.92695375,6.4604275966453555Q9.85135375,6.368307596645355,9.76708375,6.2840475966453555Q9.68281375,6.199777596645355,9.59069375,6.124177596645355Q9.49857375,6.048577596645355,9.39948375,5.982367596645355Q9.30040375,5.9161575966453555,9.19530375,5.859977596645355Q9.09020375,5.803807596645355,8.98009375,5.758197596645355Q8.86999375,5.712597596645355,8.75595375,5.677997596645355Q8.64191375,5.643407596645355,8.52503375,5.620157596645355Q8.40815375,5.596907596645355,8.28955375,5.585227596645355Q8.170953749999999,5.573547596645355,8.05178375,5.573547596645355Q7.93261375,5.573547596645355,7.81401375,5.585227596645355Q7.69541375,5.596907596645355,7.57853375,5.620157596645355Q7.46164375,5.643407596645355,7.34760375,5.677997596645355Q7.23356375,5.712597596645355,7.12346375,5.758197596645355Q7.01336375,5.803807596645355,6.90826375,5.859977596645355Q6.80316375,5.9161575966453555,6.70407375,5.982367596645355Q6.60499375,6.048577596645355,6.51286375,6.124177596645355Q6.42074375,6.199777596645355,6.33647375,6.2840475966453555Q6.25221375,6.368307596645355,6.17661375,6.4604275966453555Q6.10100375,6.5525575966453555,6.03479375,6.651637596645355Q5.96859375,6.750727596645355,5.91241375,6.855827596645355Q5.85623375,6.960927596645355,5.81063375,7.071027596645355Q5.76502375,7.181127596645355,5.73043375,7.2951675966453555Q5.69583375,7.409207596645356,5.67258375,7.526087596645355Q5.64933375,7.642967596645355,5.63765375,7.761567596645355Q5.62597375,7.8801675966453555,5.62597375,7.999337596645355Q5.62597375,8.118507596645355,5.63765375,8.237107596645355Q5.64933375,8.355707596645356,5.67258375,8.472587596645356Q5.69583375,8.589467596645354,5.73043375,8.703507596645355Q5.76502375,8.817547596645355,5.81063375,8.927647596645356Q5.85623375,9.037747596645355,5.91241375,9.142847596645355Q5.96859375,9.247947596645355,6.03479375,9.347037596645356Q6.10100375,9.446117596645355,6.17661375,9.538237596645356Q6.25221375,9.630357596645355,6.33647375,9.714627596645355Q6.42074375,9.798897596645356,6.51286375,9.874497596645355Q6.60499375,9.950097596645355,6.70407375,10.016307596645355Q6.80316375,10.082517596645355,6.90826375,10.138697596645356Q7.01336375,10.194867596645356,7.12346375,10.240477596645356Q7.23356375,10.286077596645356,7.34760375,10.320677596645355Q7.46164375,10.355267596645355,7.57853375,10.378517596645356Q7.69541375,10.401767596645355,7.81401375,10.413447596645355Q7.93261375,10.425127596645355,8.05178375,10.425127596645355Z" fill-rule="evenodd" fill="url(#master_svg2_1_0037)" fill-opacity="1"/></g></g><g><path d="M33.2037170078125,5.1618419921875L33.2037170078125,5.8169319921875005L34.4560280078125,5.8169319921875005L34.4560280078125,7.3655419921875005C34.4560280078125,7.4095219921875,34.4490880078125,7.4650819921875,34.4490880078125,7.5229519921875L32.8333470078125,7.5229519921875L32.8333470078125,8.178041992187499L34.3981580078125,8.178041992187499C34.3426080078125,8.682671992187501,34.2500180078125,9.122481992187499,34.1134380078125,9.4928519921875C33.9074180078125,10.004431992187499,33.5162180078125,10.432671992187501,32.9490880078125,10.766001992187501L33.3101990078125,11.335451992187501C33.9444580078125,11.016001992187501,34.3981580078125,10.553041992187499,34.6689980078125,9.9558219921875C34.8819580078125,9.4789719921875,35.0185280078125,8.8886919921875,35.0879780078125,8.178041992187499L36.9953880078125,8.178041992187499L36.9953880078125,11.2567419921875L37.6713080078125,11.2567419921875L37.6713080078125,8.178041992187499L39.1713080078125,8.178041992187499L39.1713080078125,7.5229519921875L37.6713080078125,7.5229519921875L37.6713080078125,5.8169319921875005L38.8078880078125,5.8169319921875005L38.8078880078125,5.1618419921875L33.2037170078125,5.1618419921875ZM35.1388980078125,5.8169319921875005L36.9953880078125,5.8169319921875005L36.9953880078125,7.5229519921875L35.1319580078125,7.5229519921875C35.1319580078125,7.4743419921875,35.1388980078125,7.4234119921875,35.1388980078125,7.3655419921875005L35.1388980078125,5.8169319921875005ZM40.5138980078125,4.8562819921875L40.0532580078125,5.2961019921875C40.5717680078125,5.7104519921875,40.9699180078125,6.0947119921875,41.2546480078125,6.448871992187501L41.7314980078125,5.9789719921875C41.402788007812504,5.6109119921875,40.9976980078125,5.2336019921875,40.5138980078125,4.8562819921875ZM44.6041580078125,11.2289719921875L46.2245580078125,11.2289719921875L46.3888580078125,10.559981992187499C46.1967580078125,10.573871992187499,45.9189580078125,10.587761992187499,45.564858007812504,10.5947119921875C45.2083580078125,10.601651992187499,44.8518580078125,10.6086019921875,44.5046580078125,10.6086019921875C43.949058007812496,10.6086019921875,43.4722580078125,10.601651992187499,43.0671580078125,10.5947119921875C42.6481580078125,10.5808219921875,42.3356580078125,10.516001992187501,42.1226980078125,10.4164719921875C41.9444580078125,10.3261919921875,41.7731580078125,10.182671992187501,41.6088080078125,9.990541992187499C41.5740880078125,9.948871992187499,41.5393680078125,9.911841992187501,41.5023280078125,9.884061992187501L41.5023280078125,7.1965619921875L39.9166780078125,7.1965619921875L39.9166780078125,7.8215619921875L40.8703880078125,7.8215619921875L40.8703880078125,9.835451992187501C40.5856580078125,9.976651992187499,40.2662180078125,10.3400819921875,39.9097380078125,10.9164719921875L40.4074180078125,11.377111992187501C40.7708480078125,10.738221992187501,41.0254780078125,10.4164719921875,41.1759380078125,10.4164719921875C41.2615880078125,10.4164719921875,41.3472380078125,10.474341992187501,41.4467680078125,10.5947119921875C41.6597380078125,10.837761992187499,41.9074180078125,11.0067419921875,42.1921480078125,11.092391992187501C42.4907580078125,11.164151992187499,42.8680580078125,11.2058219921875,43.3310580078125,11.2150819921875C43.7847580078125,11.2220219921875,44.2129580078125,11.2289719921875,44.6041580078125,11.2289719921875ZM43.372658007812504,5.559981992187501L42.9745580078125,5.9442419921875C43.266258007812496,6.1016519921875005,43.5300580078125,6.2636919921875,43.7638580078125,6.4211019921875L42.1296480078125,6.4211019921875L42.1296480078125,10.261371992187499L42.7685580078125,10.261371992187499L42.7685580078125,9.0808219921875L43.7708580078125,9.0808219921875L43.7708580078125,10.247481992187499L44.391258007812496,10.247481992187499L44.391258007812496,9.0808219921875L45.4143580078125,9.0808219921875L45.4143580078125,9.4442419921875C45.4143580078125,9.599341992187501,45.328758007812496,9.678041992187499,45.1736580078125,9.678041992187499L44.6666580078125,9.650261992187499L44.810158007812504,10.210451992187501L45.3564580078125,10.210451992187501C45.8194580078125,10.210451992187501,46.0555580078125,9.997481992187499,46.0555580078125,9.578501992187501L46.0555580078125,6.4211019921875L44.6250580078125,6.4211019921875C44.6111580078125,6.4072119921875,44.5972580078125,6.400261992187501,44.5833580078125,6.386371992187501C45.0509580078125,6.1294319921875005,45.4930580078125,5.8308219921875,45.9050580078125,5.4743419921875L45.9050580078125,4.9974819921875L42.0000180078125,4.9974819921875L42.0000180078125,5.559981992187501L43.372658007812504,5.559981992187501ZM44.1689580078125,6.0646119921874995C43.935158007812504,5.8956319921875,43.6782580078125,5.731281992187499,43.4097580078125,5.559981992187501L45.002358007812504,5.559981992187501C44.7453580078125,5.7451719921875,44.4675580078125,5.9164719921875,44.1689580078125,6.0646119921874995ZM42.7685580078125,8.0345219921875L43.7708580078125,8.0345219921875L43.7708580078125,8.5322119921875L42.7685580078125,8.5322119921875L42.7685580078125,8.0345219921875ZM44.391258007812496,8.0345219921875L45.4143580078125,8.0345219921875L45.4143580078125,8.5322119921875L44.391258007812496,8.5322119921875L44.391258007812496,8.0345219921875ZM45.4143580078125,7.481281992187499L44.391258007812496,7.481281992187499L44.391258007812496,6.9836019921875L45.4143580078125,6.9836019921875L45.4143580078125,7.481281992187499ZM43.7708580078125,7.481281992187499L42.7685580078125,7.481281992187499L42.7685580078125,6.9836019921875L43.7708580078125,6.9836019921875L43.7708580078125,7.481281992187499Z" fill="#FFFFFF" fill-opacity="1"/></g><g><path d="M48.1601570078125,6.12011299609375Q48.0838040078125,6.05670499609375,48.0416310078125,5.96686199609375Q47.9994580078125,5.87701959609375,47.9994580078125,5.77777099609375Q47.9994580078125,5.73394229609375,48.0080090078125,5.69095579609375Q48.0165590078125,5.64796899609375,48.0333320078125,5.60747699609375Q48.0501040078125,5.56698399609375,48.0744540078125,5.53054199609375Q48.0988040078125,5.49409999609375,48.1297950078125,5.46310799609375Q48.1607870078125,5.43211699609375,48.1972290078125,5.40776699609375Q48.2336710078125,5.38341699609375,48.2741640078125,5.36664499609375Q48.3146560078125,5.34987199609375,48.3576428078125,5.34132199609375Q48.4006293078125,5.33277099609375,48.4444580078125,5.33277099609375Q48.5338519078125,5.33277099609375,48.6163110078125,5.36729399609375Q48.6987690078125,5.40181599609375,48.7614990078125,5.46550499609375L51.0651580078125,7.58172099609375Q51.0788780078125,7.59432099609375,51.0914980078125,7.60803099609375Q51.1211480078125,7.6402309960937504,51.1439380078125,7.67761099609375Q51.1667280078125,7.71498099609375,51.1817880078125,7.7560809960937505Q51.1968580078125,7.797180996093751,51.2036080078125,7.84043099609375Q51.2103680078125,7.88368099609375,51.2085580078125,7.927420996093749Q51.2067380078125,7.971150996093749,51.1964280078125,8.01369099609375Q51.1861180078125,8.05624099609375,51.1677080078125,8.09595099609375Q51.1492980078125,8.13567099609375,51.1234980078125,8.17102099609375Q51.0976880078125,8.206380996093749,51.0654780078125,8.23603099609375L48.7618410078125,10.35639099609375Q48.6990940078125,10.42022099609375,48.6165470078125,10.45483099609375Q48.5339989078125,10.48944099609375,48.4444900453125,10.48944099609375Q48.4006614078125,10.48944099609375,48.3576749078125,10.48089099609375Q48.3146880078125,10.472340996093749,48.2741960078125,10.45556099609375Q48.2337040078125,10.43879099609375,48.1972610078125,10.414440996093749Q48.1608190078125,10.39009099609375,48.1298280078125,10.359100996093751Q48.0988360078125,10.32811099609375,48.0744860078125,10.29167099609375Q48.0501360078125,10.255220996093751,48.0333640078125,10.21473099609375Q48.0165910078125,10.17424099609375,48.0080410078125,10.131250996093751Q47.9994900078125,10.088270996093751,47.9994900078125,10.044440996093751Q47.9994900078125,9.94530099609375,48.0415700078125,9.855540996093751Q48.0836510078125,9.76578099609375,48.1598530078125,9.70237099609375L50.1078780078125,7.90934099609375L48.1601570078125,6.12011299609375Z" fill-rule="evenodd" fill="#FFFFFF" fill-opacity="1"/></g></g></svg>